G04 #@! TF.GenerationSoftware,KiCad,Pcbnew,(5.1.5)-3*
G04 #@! TF.CreationDate,2020-05-22T01:35:11+09:00*
G04 #@! TF.ProjectId,custom_arduino,63757374-6f6d-45f6-9172-6475696e6f2e,rev?*
G04 #@! TF.SameCoordinates,Original*
G04 #@! TF.FileFunction,Copper,L2,Bot*
G04 #@! TF.FilePolarity,Positive*
%FSLAX46Y46*%
G04 Gerber Fmt 4.6, Leading zero omitted, Abs format (unit mm)*
G04 Created by KiCad (PCBNEW (5.1.5)-3) date 2020-05-22 01:35:11*
%MOMM*%
%LPD*%
G04 APERTURE LIST*
%ADD10O,1.600000X1.600000*%
%ADD11R,1.600000X1.600000*%
%ADD12C,1.650000*%
%ADD13O,1.700000X1.700000*%
%ADD14R,1.700000X1.700000*%
%ADD15C,0.100000*%
%ADD16R,3.500000X3.500000*%
%ADD17C,1.000000*%
%ADD18C,0.500000*%
%ADD19C,1.000000*%
%ADD20C,0.300000*%
%ADD21C,0.254000*%
G04 APERTURE END LIST*
D10*
X142660000Y-101620000D03*
X109640000Y-94000000D03*
X140120000Y-101620000D03*
X112180000Y-94000000D03*
X137580000Y-101620000D03*
X114720000Y-94000000D03*
X135040000Y-101620000D03*
X117260000Y-94000000D03*
X132500000Y-101620000D03*
X119800000Y-94000000D03*
X129960000Y-101620000D03*
X122340000Y-94000000D03*
X127420000Y-101620000D03*
X124880000Y-94000000D03*
X124880000Y-101620000D03*
X127420000Y-94000000D03*
X122340000Y-101620000D03*
X129960000Y-94000000D03*
X119800000Y-101620000D03*
X132500000Y-94000000D03*
X117260000Y-101620000D03*
X135040000Y-94000000D03*
X114720000Y-101620000D03*
X137580000Y-94000000D03*
X112180000Y-101620000D03*
X140120000Y-94000000D03*
X109640000Y-101620000D03*
D11*
X142660000Y-94000000D03*
D12*
X142660000Y-80040000D03*
X142660000Y-86540000D03*
X138160000Y-80040000D03*
X138160000Y-86540000D03*
D13*
X120820000Y-56400000D03*
X118280000Y-56400000D03*
X115740000Y-56400000D03*
X113200000Y-56400000D03*
X110660000Y-56400000D03*
X108120000Y-56400000D03*
X105580000Y-56400000D03*
X103040000Y-56400000D03*
X100500000Y-56400000D03*
D14*
X97960000Y-56400000D03*
D13*
X142660000Y-56400000D03*
X140120000Y-56400000D03*
X137580000Y-56400000D03*
X135040000Y-56400000D03*
X132500000Y-56400000D03*
X129960000Y-56400000D03*
X127420000Y-56400000D03*
D14*
X124880000Y-56400000D03*
D13*
X129960000Y-114380000D03*
X132500000Y-114380000D03*
X135040000Y-114380000D03*
X137580000Y-114380000D03*
X140120000Y-114380000D03*
D14*
X142660000Y-114380000D03*
D13*
X107100000Y-114380000D03*
X109640000Y-114380000D03*
X112180000Y-114380000D03*
X114720000Y-114380000D03*
X117260000Y-114380000D03*
X119800000Y-114380000D03*
X122340000Y-114380000D03*
D14*
X124880000Y-114380000D03*
D13*
X120820000Y-61260000D03*
X118280000Y-61260000D03*
X115740000Y-61260000D03*
X113200000Y-61260000D03*
X110660000Y-61260000D03*
X108120000Y-61260000D03*
X105580000Y-61260000D03*
X103040000Y-61260000D03*
X100500000Y-61260000D03*
D14*
X97960000Y-61260000D03*
D13*
X142660000Y-61260000D03*
X140120000Y-61260000D03*
X137580000Y-61260000D03*
X135040000Y-61260000D03*
X132500000Y-61260000D03*
X129960000Y-61260000D03*
X127420000Y-61260000D03*
D14*
X124880000Y-61260000D03*
D13*
X129960000Y-109520000D03*
X132500000Y-109520000D03*
X135040000Y-109520000D03*
X137580000Y-109520000D03*
X140120000Y-109520000D03*
D14*
X142660000Y-109520000D03*
D13*
X107100000Y-109520000D03*
X109640000Y-109520000D03*
X112180000Y-109520000D03*
X114720000Y-109520000D03*
X117260000Y-109520000D03*
X119800000Y-109520000D03*
X122340000Y-109520000D03*
D14*
X124880000Y-109520000D03*
G04 #@! TA.AperFunction,ComponentPad*
D15*
G36*
X90900765Y-107394213D02*
G01*
X90985704Y-107406813D01*
X91068999Y-107427677D01*
X91149848Y-107456605D01*
X91227472Y-107493319D01*
X91301124Y-107537464D01*
X91370094Y-107588616D01*
X91433718Y-107646282D01*
X91491384Y-107709906D01*
X91542536Y-107778876D01*
X91586681Y-107852528D01*
X91623395Y-107930152D01*
X91652323Y-108011001D01*
X91673187Y-108094296D01*
X91685787Y-108179235D01*
X91690000Y-108265000D01*
X91690000Y-110015000D01*
X91685787Y-110100765D01*
X91673187Y-110185704D01*
X91652323Y-110268999D01*
X91623395Y-110349848D01*
X91586681Y-110427472D01*
X91542536Y-110501124D01*
X91491384Y-110570094D01*
X91433718Y-110633718D01*
X91370094Y-110691384D01*
X91301124Y-110742536D01*
X91227472Y-110786681D01*
X91149848Y-110823395D01*
X91068999Y-110852323D01*
X90985704Y-110873187D01*
X90900765Y-110885787D01*
X90815000Y-110890000D01*
X89065000Y-110890000D01*
X88979235Y-110885787D01*
X88894296Y-110873187D01*
X88811001Y-110852323D01*
X88730152Y-110823395D01*
X88652528Y-110786681D01*
X88578876Y-110742536D01*
X88509906Y-110691384D01*
X88446282Y-110633718D01*
X88388616Y-110570094D01*
X88337464Y-110501124D01*
X88293319Y-110427472D01*
X88256605Y-110349848D01*
X88227677Y-110268999D01*
X88206813Y-110185704D01*
X88194213Y-110100765D01*
X88190000Y-110015000D01*
X88190000Y-108265000D01*
X88194213Y-108179235D01*
X88206813Y-108094296D01*
X88227677Y-108011001D01*
X88256605Y-107930152D01*
X88293319Y-107852528D01*
X88337464Y-107778876D01*
X88388616Y-107709906D01*
X88446282Y-107646282D01*
X88509906Y-107588616D01*
X88578876Y-107537464D01*
X88652528Y-107493319D01*
X88730152Y-107456605D01*
X88811001Y-107427677D01*
X88894296Y-107406813D01*
X88979235Y-107394213D01*
X89065000Y-107390000D01*
X90815000Y-107390000D01*
X90900765Y-107394213D01*
G37*
G04 #@! TD.AperFunction*
G04 #@! TA.AperFunction,ComponentPad*
G36*
X87763513Y-102693611D02*
G01*
X87836318Y-102704411D01*
X87907714Y-102722295D01*
X87977013Y-102747090D01*
X88043548Y-102778559D01*
X88106678Y-102816398D01*
X88165795Y-102860242D01*
X88220330Y-102909670D01*
X88269758Y-102964205D01*
X88313602Y-103023322D01*
X88351441Y-103086452D01*
X88382910Y-103152987D01*
X88407705Y-103222286D01*
X88425589Y-103293682D01*
X88436389Y-103366487D01*
X88440000Y-103440000D01*
X88440000Y-105440000D01*
X88436389Y-105513513D01*
X88425589Y-105586318D01*
X88407705Y-105657714D01*
X88382910Y-105727013D01*
X88351441Y-105793548D01*
X88313602Y-105856678D01*
X88269758Y-105915795D01*
X88220330Y-105970330D01*
X88165795Y-106019758D01*
X88106678Y-106063602D01*
X88043548Y-106101441D01*
X87977013Y-106132910D01*
X87907714Y-106157705D01*
X87836318Y-106175589D01*
X87763513Y-106186389D01*
X87690000Y-106190000D01*
X86190000Y-106190000D01*
X86116487Y-106186389D01*
X86043682Y-106175589D01*
X85972286Y-106157705D01*
X85902987Y-106132910D01*
X85836452Y-106101441D01*
X85773322Y-106063602D01*
X85714205Y-106019758D01*
X85659670Y-105970330D01*
X85610242Y-105915795D01*
X85566398Y-105856678D01*
X85528559Y-105793548D01*
X85497090Y-105727013D01*
X85472295Y-105657714D01*
X85454411Y-105586318D01*
X85443611Y-105513513D01*
X85440000Y-105440000D01*
X85440000Y-103440000D01*
X85443611Y-103366487D01*
X85454411Y-103293682D01*
X85472295Y-103222286D01*
X85497090Y-103152987D01*
X85528559Y-103086452D01*
X85566398Y-103023322D01*
X85610242Y-102964205D01*
X85659670Y-102909670D01*
X85714205Y-102860242D01*
X85773322Y-102816398D01*
X85836452Y-102778559D01*
X85902987Y-102747090D01*
X85972286Y-102722295D01*
X86043682Y-102704411D01*
X86116487Y-102693611D01*
X86190000Y-102690000D01*
X87690000Y-102690000D01*
X87763513Y-102693611D01*
G37*
G04 #@! TD.AperFunction*
D16*
X92940000Y-104440000D03*
D17*
X120150000Y-87920000D03*
X94790000Y-80210000D03*
X85980000Y-90030000D03*
X90520000Y-86140000D03*
X104020000Y-108870000D03*
X105530000Y-82260000D03*
X101780000Y-74290000D03*
X94540000Y-77340000D03*
X120010000Y-81420000D03*
X94650000Y-70810000D03*
X107130000Y-82260000D03*
X108760000Y-82250000D03*
X107160000Y-83870000D03*
X108760000Y-83890000D03*
X95530000Y-64990000D03*
X95550000Y-67060000D03*
X97820000Y-67060000D03*
X100080000Y-67040000D03*
X125000000Y-83690000D03*
X127320000Y-83670000D03*
X125000000Y-85890000D03*
X124960000Y-81380000D03*
X122550000Y-81340000D03*
X131290000Y-79570000D03*
X133780000Y-79540000D03*
X144220000Y-64750000D03*
X144220000Y-67290000D03*
X144220000Y-69670000D03*
X144260000Y-72180000D03*
X146500000Y-74540000D03*
X85970000Y-95960000D03*
X85950000Y-93010000D03*
X107980000Y-86740000D03*
X108000000Y-88820000D03*
X108020000Y-91020000D03*
X104370000Y-86680000D03*
X104370000Y-88860000D03*
X104370000Y-91000000D03*
X99260000Y-88830000D03*
X99240000Y-90960000D03*
X102140000Y-101010000D03*
X102190000Y-102620000D03*
X102190000Y-105430000D03*
X102210000Y-106950000D03*
X127410000Y-109490000D03*
X127460000Y-114380000D03*
X127410000Y-111910000D03*
X122800000Y-56380000D03*
X122800000Y-61250000D03*
X122800000Y-58900000D03*
X96970000Y-80210000D03*
X85980000Y-87000000D03*
X93060000Y-78810000D03*
X97570000Y-88180000D03*
X95700000Y-98480000D03*
X101100000Y-77535000D03*
X106140000Y-91140000D03*
X92290000Y-66700000D03*
X94540000Y-75780000D03*
X93570000Y-74590000D03*
X93570000Y-62479998D03*
X109880000Y-70770000D03*
X98680000Y-71030000D03*
X98500000Y-109500000D03*
X94990000Y-84460000D03*
X146590000Y-78100000D03*
X146590000Y-79990000D03*
X117571048Y-74868952D03*
X107587500Y-73640000D03*
X136780001Y-88559999D03*
X109880000Y-78770000D03*
X109880000Y-76770000D03*
X109880000Y-74770000D03*
X109880000Y-72770000D03*
X93000000Y-88550000D03*
X93000000Y-81740000D03*
D18*
X85980000Y-85890000D02*
X85980000Y-87000000D01*
X93060000Y-78810000D02*
X85980000Y-85890000D01*
D19*
X109640000Y-114380000D02*
X109640000Y-109520000D01*
X117260000Y-114380000D02*
X117260000Y-109520000D01*
X103040000Y-56400000D02*
X103040000Y-61260000D01*
D18*
X97570000Y-96610000D02*
X97570000Y-88180000D01*
X95700000Y-98480000D02*
X97570000Y-96610000D01*
X106140000Y-91140000D02*
X106140000Y-103480000D01*
X106140000Y-103480000D02*
X112180000Y-109520000D01*
X112180000Y-114380000D02*
X112180000Y-109520000D01*
X143960000Y-105310000D02*
X145830000Y-103440000D01*
X115187919Y-105310000D02*
X143960000Y-105310000D01*
X145830000Y-103440000D02*
X145830000Y-97170000D01*
X112180000Y-109520000D02*
X112180000Y-108317919D01*
X112180000Y-108317919D02*
X115187919Y-105310000D01*
X145830000Y-97170000D02*
X142660000Y-94000000D01*
D20*
X92290000Y-66700000D02*
X92290000Y-74840000D01*
X93230000Y-75780000D02*
X94540000Y-75780000D01*
X92290000Y-74840000D02*
X93230000Y-75780000D01*
X93570000Y-74590000D02*
X93570000Y-62479998D01*
D18*
X108120000Y-56400000D02*
X108120000Y-61260000D01*
D20*
X121110001Y-100309999D02*
X121110001Y-79610001D01*
X121110001Y-79610001D02*
X112270000Y-70770000D01*
X119800000Y-101620000D02*
X121110001Y-100309999D01*
X110587106Y-70770000D02*
X109880000Y-70770000D01*
X112270000Y-70770000D02*
X110587106Y-70770000D01*
D18*
X98500000Y-109500000D02*
X98510000Y-109500000D01*
X114720000Y-114380000D02*
X114720000Y-109520000D01*
X98500000Y-109500000D02*
X104680001Y-115680001D01*
X113419999Y-115680001D02*
X113870001Y-115229999D01*
X104680001Y-115680001D02*
X113419999Y-115680001D01*
X113870001Y-115229999D02*
X114720000Y-114380000D01*
D20*
X98680000Y-81300000D02*
X98680000Y-71030000D01*
X98680000Y-83790000D02*
X98680000Y-81300000D01*
X94990000Y-84460000D02*
X98010000Y-84460000D01*
X98010000Y-84460000D02*
X98680000Y-83790000D01*
D18*
X129960000Y-114380000D02*
X129960000Y-109520000D01*
X132500000Y-109520000D02*
X132500000Y-114380000D01*
X135040000Y-114380000D02*
X135040000Y-109520000D01*
X137580000Y-114380000D02*
X137580000Y-109520000D01*
X100500000Y-56400000D02*
X100500000Y-61260000D01*
X140120000Y-109520000D02*
X140120000Y-114380000D01*
X101349999Y-62109999D02*
X100500000Y-61260000D01*
X104340000Y-65100000D02*
X101349999Y-62109999D01*
X133590000Y-65100000D02*
X104340000Y-65100000D01*
X146590000Y-78100000D02*
X133590000Y-65100000D01*
X97960000Y-61260000D02*
X97960000Y-56400000D01*
X142660000Y-114380000D02*
X142660000Y-109520000D01*
X133200000Y-66600000D02*
X103300000Y-66600000D01*
X103300000Y-66600000D02*
X97960000Y-61260000D01*
X146590000Y-79990000D02*
X133200000Y-66600000D01*
X142660000Y-61260000D02*
X142660000Y-56400000D01*
D20*
X140120000Y-94000000D02*
X120988952Y-74868952D01*
X118278154Y-74868952D02*
X117571048Y-74868952D01*
X120988952Y-74868952D02*
X118278154Y-74868952D01*
D18*
X140120000Y-61260000D02*
X140120000Y-56400000D01*
D20*
X108087499Y-70562501D02*
X109880000Y-68770000D01*
X109880000Y-68770000D02*
X116990002Y-68770000D01*
X107587500Y-73640000D02*
X108087499Y-73140001D01*
X116990002Y-68770000D02*
X136780001Y-88559999D01*
X108087499Y-73140001D02*
X108087499Y-70562501D01*
D18*
X137580000Y-61260000D02*
X137580000Y-56400000D01*
X135040000Y-56400000D02*
X135040000Y-61260000D01*
X132500000Y-61260000D02*
X132500000Y-56400000D01*
X129960000Y-56400000D02*
X129960000Y-61260000D01*
X127420000Y-61260000D02*
X127420000Y-56400000D01*
X124880000Y-56400000D02*
X124880000Y-61260000D01*
X120820000Y-61260000D02*
X120820000Y-56400000D01*
D20*
X110379999Y-79269999D02*
X109880000Y-78770000D01*
X110900000Y-100350000D02*
X110900000Y-79790000D01*
X109640000Y-101620000D02*
X109640000Y-101610000D01*
X110900000Y-79790000D02*
X110379999Y-79269999D01*
X109640000Y-101610000D02*
X110900000Y-100350000D01*
D18*
X118280000Y-56400000D02*
X118280000Y-61260000D01*
D20*
X113440000Y-100350000D02*
X113440000Y-80330000D01*
X113440000Y-80330000D02*
X110379999Y-77269999D01*
X112180000Y-101620000D02*
X112180000Y-101610000D01*
X110379999Y-77269999D02*
X109880000Y-76770000D01*
X112180000Y-101610000D02*
X113440000Y-100350000D01*
D18*
X115740000Y-61260000D02*
X115740000Y-56400000D01*
D20*
X115970000Y-80860000D02*
X110379999Y-75269999D01*
X114720000Y-101620000D02*
X115970000Y-100370000D01*
X110379999Y-75269999D02*
X109880000Y-74770000D01*
X115970000Y-100370000D02*
X115970000Y-80860000D01*
D18*
X113200000Y-56400000D02*
X113200000Y-61260000D01*
D20*
X110379999Y-73269999D02*
X109880000Y-72770000D01*
X118530000Y-81420000D02*
X110379999Y-73269999D01*
X117260000Y-101620000D02*
X118530000Y-100350000D01*
X118530000Y-100350000D02*
X118530000Y-81420000D01*
D18*
X110660000Y-61260000D02*
X110660000Y-56400000D01*
D20*
X93000000Y-87842894D02*
X93000000Y-81740000D01*
X93000000Y-88550000D02*
X93000000Y-87842894D01*
D21*
G36*
X144870000Y-55422402D02*
G01*
X144870001Y-56127581D01*
X144870000Y-60192418D01*
X144870001Y-60192428D01*
X144870000Y-71527591D01*
X144866808Y-71560000D01*
X144870000Y-71592409D01*
X144870000Y-71592418D01*
X144879550Y-71689382D01*
X144917290Y-71813792D01*
X144978575Y-71928450D01*
X145021869Y-71981203D01*
X145061052Y-72028948D01*
X145086236Y-72049616D01*
X147470001Y-74433381D01*
X147470001Y-77374869D01*
X147313520Y-77218388D01*
X147127624Y-77094176D01*
X146921067Y-77008617D01*
X146707769Y-76966190D01*
X134246534Y-64504956D01*
X134218817Y-64471183D01*
X134084059Y-64360589D01*
X133930313Y-64278411D01*
X133763490Y-64227805D01*
X133633477Y-64215000D01*
X133633469Y-64215000D01*
X133590000Y-64210719D01*
X133546531Y-64215000D01*
X104706579Y-64215000D01*
X103228230Y-62736652D01*
X103473158Y-62687932D01*
X103743411Y-62575990D01*
X103986632Y-62413475D01*
X104193475Y-62206632D01*
X104315195Y-62024466D01*
X104384822Y-62141355D01*
X104579731Y-62357588D01*
X104813080Y-62531641D01*
X105075901Y-62656825D01*
X105223110Y-62701476D01*
X105453000Y-62580155D01*
X105453000Y-61387000D01*
X105433000Y-61387000D01*
X105433000Y-61133000D01*
X105453000Y-61133000D01*
X105453000Y-59939845D01*
X105223110Y-59818524D01*
X105075901Y-59863175D01*
X104813080Y-59988359D01*
X104579731Y-60162412D01*
X104384822Y-60378645D01*
X104315195Y-60495534D01*
X104193475Y-60313368D01*
X104175000Y-60294893D01*
X104175000Y-57365107D01*
X104193475Y-57346632D01*
X104315195Y-57164466D01*
X104384822Y-57281355D01*
X104579731Y-57497588D01*
X104813080Y-57671641D01*
X105075901Y-57796825D01*
X105223110Y-57841476D01*
X105453000Y-57720155D01*
X105453000Y-56527000D01*
X105433000Y-56527000D01*
X105433000Y-56273000D01*
X105453000Y-56273000D01*
X105453000Y-55079845D01*
X105707000Y-55079845D01*
X105707000Y-56273000D01*
X105727000Y-56273000D01*
X105727000Y-56527000D01*
X105707000Y-56527000D01*
X105707000Y-57720155D01*
X105936890Y-57841476D01*
X106084099Y-57796825D01*
X106346920Y-57671641D01*
X106580269Y-57497588D01*
X106775178Y-57281355D01*
X106844805Y-57164466D01*
X106966525Y-57346632D01*
X107173368Y-57553475D01*
X107235000Y-57594656D01*
X107235001Y-60065343D01*
X107173368Y-60106525D01*
X106966525Y-60313368D01*
X106844805Y-60495534D01*
X106775178Y-60378645D01*
X106580269Y-60162412D01*
X106346920Y-59988359D01*
X106084099Y-59863175D01*
X105936890Y-59818524D01*
X105707000Y-59939845D01*
X105707000Y-61133000D01*
X105727000Y-61133000D01*
X105727000Y-61387000D01*
X105707000Y-61387000D01*
X105707000Y-62580155D01*
X105936890Y-62701476D01*
X106084099Y-62656825D01*
X106346920Y-62531641D01*
X106580269Y-62357588D01*
X106775178Y-62141355D01*
X106844805Y-62024466D01*
X106966525Y-62206632D01*
X107173368Y-62413475D01*
X107416589Y-62575990D01*
X107686842Y-62687932D01*
X107973740Y-62745000D01*
X108266260Y-62745000D01*
X108553158Y-62687932D01*
X108823411Y-62575990D01*
X109066632Y-62413475D01*
X109273475Y-62206632D01*
X109390000Y-62032240D01*
X109506525Y-62206632D01*
X109713368Y-62413475D01*
X109956589Y-62575990D01*
X110226842Y-62687932D01*
X110513740Y-62745000D01*
X110806260Y-62745000D01*
X111093158Y-62687932D01*
X111363411Y-62575990D01*
X111606632Y-62413475D01*
X111813475Y-62206632D01*
X111930000Y-62032240D01*
X112046525Y-62206632D01*
X112253368Y-62413475D01*
X112496589Y-62575990D01*
X112766842Y-62687932D01*
X113053740Y-62745000D01*
X113346260Y-62745000D01*
X113633158Y-62687932D01*
X113903411Y-62575990D01*
X114146632Y-62413475D01*
X114353475Y-62206632D01*
X114470000Y-62032240D01*
X114586525Y-62206632D01*
X114793368Y-62413475D01*
X115036589Y-62575990D01*
X115306842Y-62687932D01*
X115593740Y-62745000D01*
X115886260Y-62745000D01*
X116173158Y-62687932D01*
X116443411Y-62575990D01*
X116686632Y-62413475D01*
X116893475Y-62206632D01*
X117010000Y-62032240D01*
X117126525Y-62206632D01*
X117333368Y-62413475D01*
X117576589Y-62575990D01*
X117846842Y-62687932D01*
X118133740Y-62745000D01*
X118426260Y-62745000D01*
X118713158Y-62687932D01*
X118983411Y-62575990D01*
X119226632Y-62413475D01*
X119433475Y-62206632D01*
X119550000Y-62032240D01*
X119666525Y-62206632D01*
X119873368Y-62413475D01*
X120116589Y-62575990D01*
X120386842Y-62687932D01*
X120673740Y-62745000D01*
X120966260Y-62745000D01*
X121253158Y-62687932D01*
X121523411Y-62575990D01*
X121766632Y-62413475D01*
X121973475Y-62206632D01*
X122135990Y-61963411D01*
X122247932Y-61693158D01*
X122305000Y-61406260D01*
X122305000Y-61113740D01*
X122247932Y-60826842D01*
X122135990Y-60556589D01*
X121973475Y-60313368D01*
X121766632Y-60106525D01*
X121705000Y-60065344D01*
X121705000Y-57594656D01*
X121766632Y-57553475D01*
X121973475Y-57346632D01*
X122135990Y-57103411D01*
X122247932Y-56833158D01*
X122305000Y-56546260D01*
X122305000Y-56253740D01*
X122247932Y-55966842D01*
X122135990Y-55696589D01*
X122038043Y-55550000D01*
X123391928Y-55550000D01*
X123391928Y-57250000D01*
X123404188Y-57374482D01*
X123440498Y-57494180D01*
X123499463Y-57604494D01*
X123578815Y-57701185D01*
X123675506Y-57780537D01*
X123785820Y-57839502D01*
X123905518Y-57875812D01*
X123995000Y-57884625D01*
X123995001Y-59775375D01*
X123905518Y-59784188D01*
X123785820Y-59820498D01*
X123675506Y-59879463D01*
X123578815Y-59958815D01*
X123499463Y-60055506D01*
X123440498Y-60165820D01*
X123404188Y-60285518D01*
X123391928Y-60410000D01*
X123391928Y-62110000D01*
X123404188Y-62234482D01*
X123440498Y-62354180D01*
X123499463Y-62464494D01*
X123578815Y-62561185D01*
X123675506Y-62640537D01*
X123785820Y-62699502D01*
X123905518Y-62735812D01*
X124030000Y-62748072D01*
X125730000Y-62748072D01*
X125854482Y-62735812D01*
X125974180Y-62699502D01*
X126084494Y-62640537D01*
X126181185Y-62561185D01*
X126260537Y-62464494D01*
X126319502Y-62354180D01*
X126341513Y-62281620D01*
X126473368Y-62413475D01*
X126716589Y-62575990D01*
X126986842Y-62687932D01*
X127273740Y-62745000D01*
X127566260Y-62745000D01*
X127853158Y-62687932D01*
X128123411Y-62575990D01*
X128366632Y-62413475D01*
X128573475Y-62206632D01*
X128690000Y-62032240D01*
X128806525Y-62206632D01*
X129013368Y-62413475D01*
X129256589Y-62575990D01*
X129526842Y-62687932D01*
X129813740Y-62745000D01*
X130106260Y-62745000D01*
X130393158Y-62687932D01*
X130663411Y-62575990D01*
X130906632Y-62413475D01*
X131113475Y-62206632D01*
X131230000Y-62032240D01*
X131346525Y-62206632D01*
X131553368Y-62413475D01*
X131796589Y-62575990D01*
X132066842Y-62687932D01*
X132353740Y-62745000D01*
X132646260Y-62745000D01*
X132933158Y-62687932D01*
X133203411Y-62575990D01*
X133446632Y-62413475D01*
X133653475Y-62206632D01*
X133770000Y-62032240D01*
X133886525Y-62206632D01*
X134093368Y-62413475D01*
X134336589Y-62575990D01*
X134606842Y-62687932D01*
X134893740Y-62745000D01*
X135186260Y-62745000D01*
X135473158Y-62687932D01*
X135743411Y-62575990D01*
X135986632Y-62413475D01*
X136193475Y-62206632D01*
X136310000Y-62032240D01*
X136426525Y-62206632D01*
X136633368Y-62413475D01*
X136876589Y-62575990D01*
X137146842Y-62687932D01*
X137433740Y-62745000D01*
X137726260Y-62745000D01*
X138013158Y-62687932D01*
X138283411Y-62575990D01*
X138526632Y-62413475D01*
X138733475Y-62206632D01*
X138850000Y-62032240D01*
X138966525Y-62206632D01*
X139173368Y-62413475D01*
X139416589Y-62575990D01*
X139686842Y-62687932D01*
X139973740Y-62745000D01*
X140266260Y-62745000D01*
X140553158Y-62687932D01*
X140823411Y-62575990D01*
X141066632Y-62413475D01*
X141273475Y-62206632D01*
X141390000Y-62032240D01*
X141506525Y-62206632D01*
X141713368Y-62413475D01*
X141956589Y-62575990D01*
X142226842Y-62687932D01*
X142513740Y-62745000D01*
X142806260Y-62745000D01*
X143093158Y-62687932D01*
X143363411Y-62575990D01*
X143606632Y-62413475D01*
X143813475Y-62206632D01*
X143975990Y-61963411D01*
X144087932Y-61693158D01*
X144145000Y-61406260D01*
X144145000Y-61113740D01*
X144087932Y-60826842D01*
X143975990Y-60556589D01*
X143813475Y-60313368D01*
X143606632Y-60106525D01*
X143545000Y-60065344D01*
X143545000Y-57594656D01*
X143606632Y-57553475D01*
X143813475Y-57346632D01*
X143975990Y-57103411D01*
X144087932Y-56833158D01*
X144145000Y-56546260D01*
X144145000Y-56253740D01*
X144087932Y-55966842D01*
X143975990Y-55696589D01*
X143813475Y-55453368D01*
X143606632Y-55246525D01*
X143363411Y-55084010D01*
X143093158Y-54972068D01*
X142806260Y-54915000D01*
X142513740Y-54915000D01*
X142226842Y-54972068D01*
X141956589Y-55084010D01*
X141713368Y-55246525D01*
X141506525Y-55453368D01*
X141390000Y-55627760D01*
X141273475Y-55453368D01*
X141066632Y-55246525D01*
X140823411Y-55084010D01*
X140553158Y-54972068D01*
X140266260Y-54915000D01*
X139973740Y-54915000D01*
X139686842Y-54972068D01*
X139416589Y-55084010D01*
X139173368Y-55246525D01*
X138966525Y-55453368D01*
X138850000Y-55627760D01*
X138733475Y-55453368D01*
X138526632Y-55246525D01*
X138283411Y-55084010D01*
X138013158Y-54972068D01*
X137726260Y-54915000D01*
X137433740Y-54915000D01*
X137146842Y-54972068D01*
X136876589Y-55084010D01*
X136633368Y-55246525D01*
X136426525Y-55453368D01*
X136310000Y-55627760D01*
X136193475Y-55453368D01*
X135986632Y-55246525D01*
X135743411Y-55084010D01*
X135473158Y-54972068D01*
X135186260Y-54915000D01*
X134893740Y-54915000D01*
X134606842Y-54972068D01*
X134336589Y-55084010D01*
X134093368Y-55246525D01*
X133886525Y-55453368D01*
X133770000Y-55627760D01*
X133653475Y-55453368D01*
X133446632Y-55246525D01*
X133203411Y-55084010D01*
X132933158Y-54972068D01*
X132646260Y-54915000D01*
X132353740Y-54915000D01*
X132066842Y-54972068D01*
X131796589Y-55084010D01*
X131553368Y-55246525D01*
X131346525Y-55453368D01*
X131230000Y-55627760D01*
X131113475Y-55453368D01*
X130906632Y-55246525D01*
X130663411Y-55084010D01*
X130393158Y-54972068D01*
X130106260Y-54915000D01*
X129813740Y-54915000D01*
X129526842Y-54972068D01*
X129256589Y-55084010D01*
X129013368Y-55246525D01*
X128806525Y-55453368D01*
X128690000Y-55627760D01*
X128573475Y-55453368D01*
X128366632Y-55246525D01*
X128123411Y-55084010D01*
X127853158Y-54972068D01*
X127566260Y-54915000D01*
X127273740Y-54915000D01*
X126986842Y-54972068D01*
X126716589Y-55084010D01*
X126473368Y-55246525D01*
X126341513Y-55378380D01*
X126319502Y-55305820D01*
X126260537Y-55195506D01*
X126181185Y-55098815D01*
X126084494Y-55019463D01*
X125974180Y-54960498D01*
X125854482Y-54924188D01*
X125730000Y-54911928D01*
X124030000Y-54911928D01*
X123905518Y-54924188D01*
X123785820Y-54960498D01*
X123675506Y-55019463D01*
X123578815Y-55098815D01*
X123499463Y-55195506D01*
X123440498Y-55305820D01*
X123404188Y-55425518D01*
X123391928Y-55550000D01*
X122038043Y-55550000D01*
X121973475Y-55453368D01*
X121766632Y-55246525D01*
X121523411Y-55084010D01*
X121253158Y-54972068D01*
X120966260Y-54915000D01*
X120673740Y-54915000D01*
X120386842Y-54972068D01*
X120116589Y-55084010D01*
X119873368Y-55246525D01*
X119666525Y-55453368D01*
X119550000Y-55627760D01*
X119433475Y-55453368D01*
X119226632Y-55246525D01*
X118983411Y-55084010D01*
X118713158Y-54972068D01*
X118426260Y-54915000D01*
X118133740Y-54915000D01*
X117846842Y-54972068D01*
X117576589Y-55084010D01*
X117333368Y-55246525D01*
X117126525Y-55453368D01*
X117010000Y-55627760D01*
X116893475Y-55453368D01*
X116686632Y-55246525D01*
X116443411Y-55084010D01*
X116173158Y-54972068D01*
X115886260Y-54915000D01*
X115593740Y-54915000D01*
X115306842Y-54972068D01*
X115036589Y-55084010D01*
X114793368Y-55246525D01*
X114586525Y-55453368D01*
X114470000Y-55627760D01*
X114353475Y-55453368D01*
X114146632Y-55246525D01*
X113903411Y-55084010D01*
X113633158Y-54972068D01*
X113346260Y-54915000D01*
X113053740Y-54915000D01*
X112766842Y-54972068D01*
X112496589Y-55084010D01*
X112253368Y-55246525D01*
X112046525Y-55453368D01*
X111930000Y-55627760D01*
X111813475Y-55453368D01*
X111606632Y-55246525D01*
X111363411Y-55084010D01*
X111093158Y-54972068D01*
X110806260Y-54915000D01*
X110513740Y-54915000D01*
X110226842Y-54972068D01*
X109956589Y-55084010D01*
X109713368Y-55246525D01*
X109506525Y-55453368D01*
X109390000Y-55627760D01*
X109273475Y-55453368D01*
X109066632Y-55246525D01*
X108823411Y-55084010D01*
X108553158Y-54972068D01*
X108266260Y-54915000D01*
X107973740Y-54915000D01*
X107686842Y-54972068D01*
X107416589Y-55084010D01*
X107173368Y-55246525D01*
X106966525Y-55453368D01*
X106844805Y-55635534D01*
X106775178Y-55518645D01*
X106580269Y-55302412D01*
X106346920Y-55128359D01*
X106084099Y-55003175D01*
X105936890Y-54958524D01*
X105707000Y-55079845D01*
X105453000Y-55079845D01*
X105223110Y-54958524D01*
X105075901Y-55003175D01*
X104813080Y-55128359D01*
X104579731Y-55302412D01*
X104384822Y-55518645D01*
X104315195Y-55635534D01*
X104193475Y-55453368D01*
X103986632Y-55246525D01*
X103743411Y-55084010D01*
X103473158Y-54972068D01*
X103186260Y-54915000D01*
X102893740Y-54915000D01*
X102606842Y-54972068D01*
X102336589Y-55084010D01*
X102093368Y-55246525D01*
X101886525Y-55453368D01*
X101770000Y-55627760D01*
X101653475Y-55453368D01*
X101446632Y-55246525D01*
X101203411Y-55084010D01*
X100933158Y-54972068D01*
X100646260Y-54915000D01*
X100353740Y-54915000D01*
X100066842Y-54972068D01*
X99796589Y-55084010D01*
X99553368Y-55246525D01*
X99421513Y-55378380D01*
X99399502Y-55305820D01*
X99340537Y-55195506D01*
X99261185Y-55098815D01*
X99164494Y-55019463D01*
X99054180Y-54960498D01*
X98934482Y-54924188D01*
X98810000Y-54911928D01*
X97110000Y-54911928D01*
X96985518Y-54924188D01*
X96865820Y-54960498D01*
X96755506Y-55019463D01*
X96658815Y-55098815D01*
X96579463Y-55195506D01*
X96520498Y-55305820D01*
X96484188Y-55425518D01*
X96471928Y-55550000D01*
X96471928Y-57250000D01*
X96484188Y-57374482D01*
X96520498Y-57494180D01*
X96579463Y-57604494D01*
X96658815Y-57701185D01*
X96755506Y-57780537D01*
X96865820Y-57839502D01*
X96985518Y-57875812D01*
X97075001Y-57884625D01*
X97075000Y-59775375D01*
X96985518Y-59784188D01*
X96865820Y-59820498D01*
X96755506Y-59879463D01*
X96658815Y-59958815D01*
X96579463Y-60055506D01*
X96520498Y-60165820D01*
X96484188Y-60285518D01*
X96471928Y-60410000D01*
X96471928Y-62110000D01*
X96484188Y-62234482D01*
X96520498Y-62354180D01*
X96579463Y-62464494D01*
X96658815Y-62561185D01*
X96755506Y-62640537D01*
X96865820Y-62699502D01*
X96985518Y-62735812D01*
X97110000Y-62748072D01*
X98196494Y-62748072D01*
X102643470Y-67195049D01*
X102671183Y-67228817D01*
X102704951Y-67256530D01*
X102704953Y-67256532D01*
X102776452Y-67315210D01*
X102805941Y-67339411D01*
X102959687Y-67421589D01*
X103126510Y-67472195D01*
X103256523Y-67485000D01*
X103256533Y-67485000D01*
X103299999Y-67489281D01*
X103343465Y-67485000D01*
X132833422Y-67485000D01*
X145456190Y-80107769D01*
X145498617Y-80321067D01*
X145584176Y-80527624D01*
X145708388Y-80713520D01*
X145866480Y-80871612D01*
X146052376Y-80995824D01*
X146258933Y-81081383D01*
X146478212Y-81125000D01*
X146701788Y-81125000D01*
X146921067Y-81081383D01*
X147127624Y-80995824D01*
X147313520Y-80871612D01*
X147470001Y-80715131D01*
X147470000Y-106927581D01*
X147470000Y-106927582D01*
X147470001Y-110686619D01*
X145086232Y-113070388D01*
X145061053Y-113091052D01*
X145040389Y-113116231D01*
X145040386Y-113116234D01*
X144978575Y-113191550D01*
X144917290Y-113306208D01*
X144916302Y-113309466D01*
X144884562Y-113414100D01*
X144879551Y-113430618D01*
X144866808Y-113560000D01*
X144870001Y-113592419D01*
X144870000Y-115327721D01*
X144860420Y-115425424D01*
X144841420Y-115488357D01*
X144810554Y-115546406D01*
X144769011Y-115597343D01*
X144718356Y-115639248D01*
X144660529Y-115670515D01*
X144597728Y-115689956D01*
X144502165Y-115700000D01*
X143938259Y-115700000D01*
X143961185Y-115681185D01*
X144040537Y-115584494D01*
X144099502Y-115474180D01*
X144135812Y-115354482D01*
X144148072Y-115230000D01*
X144148072Y-113530000D01*
X144135812Y-113405518D01*
X144099502Y-113285820D01*
X144040537Y-113175506D01*
X143961185Y-113078815D01*
X143864494Y-112999463D01*
X143754180Y-112940498D01*
X143634482Y-112904188D01*
X143545000Y-112895375D01*
X143545000Y-111004625D01*
X143634482Y-110995812D01*
X143754180Y-110959502D01*
X143864494Y-110900537D01*
X143961185Y-110821185D01*
X144040537Y-110724494D01*
X144099502Y-110614180D01*
X144135812Y-110494482D01*
X144148072Y-110370000D01*
X144148072Y-108670000D01*
X144135812Y-108545518D01*
X144099502Y-108425820D01*
X144040537Y-108315506D01*
X143961185Y-108218815D01*
X143864494Y-108139463D01*
X143754180Y-108080498D01*
X143634482Y-108044188D01*
X143510000Y-108031928D01*
X141810000Y-108031928D01*
X141685518Y-108044188D01*
X141565820Y-108080498D01*
X141455506Y-108139463D01*
X141358815Y-108218815D01*
X141279463Y-108315506D01*
X141220498Y-108425820D01*
X141198487Y-108498380D01*
X141066632Y-108366525D01*
X140823411Y-108204010D01*
X140553158Y-108092068D01*
X140266260Y-108035000D01*
X139973740Y-108035000D01*
X139686842Y-108092068D01*
X139416589Y-108204010D01*
X139173368Y-108366525D01*
X138966525Y-108573368D01*
X138850000Y-108747760D01*
X138733475Y-108573368D01*
X138526632Y-108366525D01*
X138283411Y-108204010D01*
X138013158Y-108092068D01*
X137726260Y-108035000D01*
X137433740Y-108035000D01*
X137146842Y-108092068D01*
X136876589Y-108204010D01*
X136633368Y-108366525D01*
X136426525Y-108573368D01*
X136310000Y-108747760D01*
X136193475Y-108573368D01*
X135986632Y-108366525D01*
X135743411Y-108204010D01*
X135473158Y-108092068D01*
X135186260Y-108035000D01*
X134893740Y-108035000D01*
X134606842Y-108092068D01*
X134336589Y-108204010D01*
X134093368Y-108366525D01*
X133886525Y-108573368D01*
X133770000Y-108747760D01*
X133653475Y-108573368D01*
X133446632Y-108366525D01*
X133203411Y-108204010D01*
X132933158Y-108092068D01*
X132646260Y-108035000D01*
X132353740Y-108035000D01*
X132066842Y-108092068D01*
X131796589Y-108204010D01*
X131553368Y-108366525D01*
X131346525Y-108573368D01*
X131230000Y-108747760D01*
X131113475Y-108573368D01*
X130906632Y-108366525D01*
X130663411Y-108204010D01*
X130393158Y-108092068D01*
X130106260Y-108035000D01*
X129813740Y-108035000D01*
X129526842Y-108092068D01*
X129256589Y-108204010D01*
X129013368Y-108366525D01*
X128806525Y-108573368D01*
X128644010Y-108816589D01*
X128532068Y-109086842D01*
X128475000Y-109373740D01*
X128475000Y-109666260D01*
X128532068Y-109953158D01*
X128644010Y-110223411D01*
X128806525Y-110466632D01*
X129013368Y-110673475D01*
X129075001Y-110714657D01*
X129075000Y-113185344D01*
X129013368Y-113226525D01*
X128806525Y-113433368D01*
X128644010Y-113676589D01*
X128532068Y-113946842D01*
X128475000Y-114233740D01*
X128475000Y-114526260D01*
X128532068Y-114813158D01*
X128644010Y-115083411D01*
X128806525Y-115326632D01*
X129013368Y-115533475D01*
X129256589Y-115695990D01*
X129266270Y-115700000D01*
X126158259Y-115700000D01*
X126181185Y-115681185D01*
X126260537Y-115584494D01*
X126319502Y-115474180D01*
X126355812Y-115354482D01*
X126368072Y-115230000D01*
X126368072Y-113530000D01*
X126355812Y-113405518D01*
X126319502Y-113285820D01*
X126260537Y-113175506D01*
X126181185Y-113078815D01*
X126084494Y-112999463D01*
X125974180Y-112940498D01*
X125854482Y-112904188D01*
X125730000Y-112891928D01*
X124030000Y-112891928D01*
X123905518Y-112904188D01*
X123785820Y-112940498D01*
X123675506Y-112999463D01*
X123578815Y-113078815D01*
X123499463Y-113175506D01*
X123440498Y-113285820D01*
X123416034Y-113366466D01*
X123340269Y-113282412D01*
X123106920Y-113108359D01*
X122844099Y-112983175D01*
X122696890Y-112938524D01*
X122467000Y-113059845D01*
X122467000Y-114253000D01*
X122487000Y-114253000D01*
X122487000Y-114507000D01*
X122467000Y-114507000D01*
X122467000Y-114527000D01*
X122213000Y-114527000D01*
X122213000Y-114507000D01*
X119927000Y-114507000D01*
X119927000Y-114527000D01*
X119673000Y-114527000D01*
X119673000Y-114507000D01*
X119653000Y-114507000D01*
X119653000Y-114253000D01*
X119673000Y-114253000D01*
X119673000Y-113059845D01*
X119927000Y-113059845D01*
X119927000Y-114253000D01*
X122213000Y-114253000D01*
X122213000Y-113059845D01*
X121983110Y-112938524D01*
X121835901Y-112983175D01*
X121573080Y-113108359D01*
X121339731Y-113282412D01*
X121144822Y-113498645D01*
X121070000Y-113624255D01*
X120995178Y-113498645D01*
X120800269Y-113282412D01*
X120566920Y-113108359D01*
X120304099Y-112983175D01*
X120156890Y-112938524D01*
X119927000Y-113059845D01*
X119673000Y-113059845D01*
X119443110Y-112938524D01*
X119295901Y-112983175D01*
X119033080Y-113108359D01*
X118799731Y-113282412D01*
X118604822Y-113498645D01*
X118535195Y-113615534D01*
X118413475Y-113433368D01*
X118395000Y-113414893D01*
X118395000Y-110485107D01*
X118413475Y-110466632D01*
X118535195Y-110284466D01*
X118604822Y-110401355D01*
X118799731Y-110617588D01*
X119033080Y-110791641D01*
X119295901Y-110916825D01*
X119443110Y-110961476D01*
X119673000Y-110840155D01*
X119673000Y-109647000D01*
X119927000Y-109647000D01*
X119927000Y-110840155D01*
X120156890Y-110961476D01*
X120304099Y-110916825D01*
X120566920Y-110791641D01*
X120800269Y-110617588D01*
X120995178Y-110401355D01*
X121070000Y-110275745D01*
X121144822Y-110401355D01*
X121339731Y-110617588D01*
X121573080Y-110791641D01*
X121835901Y-110916825D01*
X121983110Y-110961476D01*
X122213000Y-110840155D01*
X122213000Y-109647000D01*
X119927000Y-109647000D01*
X119673000Y-109647000D01*
X119653000Y-109647000D01*
X119653000Y-109393000D01*
X119673000Y-109393000D01*
X119673000Y-108199845D01*
X119927000Y-108199845D01*
X119927000Y-109393000D01*
X122213000Y-109393000D01*
X122213000Y-108199845D01*
X122467000Y-108199845D01*
X122467000Y-109393000D01*
X122487000Y-109393000D01*
X122487000Y-109647000D01*
X122467000Y-109647000D01*
X122467000Y-110840155D01*
X122696890Y-110961476D01*
X122844099Y-110916825D01*
X123106920Y-110791641D01*
X123340269Y-110617588D01*
X123416034Y-110533534D01*
X123440498Y-110614180D01*
X123499463Y-110724494D01*
X123578815Y-110821185D01*
X123675506Y-110900537D01*
X123785820Y-110959502D01*
X123905518Y-110995812D01*
X124030000Y-111008072D01*
X125730000Y-111008072D01*
X125854482Y-110995812D01*
X125974180Y-110959502D01*
X126084494Y-110900537D01*
X126181185Y-110821185D01*
X126260537Y-110724494D01*
X126319502Y-110614180D01*
X126355812Y-110494482D01*
X126368072Y-110370000D01*
X126368072Y-108670000D01*
X126355812Y-108545518D01*
X126319502Y-108425820D01*
X126260537Y-108315506D01*
X126181185Y-108218815D01*
X126084494Y-108139463D01*
X125974180Y-108080498D01*
X125854482Y-108044188D01*
X125730000Y-108031928D01*
X124030000Y-108031928D01*
X123905518Y-108044188D01*
X123785820Y-108080498D01*
X123675506Y-108139463D01*
X123578815Y-108218815D01*
X123499463Y-108315506D01*
X123440498Y-108425820D01*
X123416034Y-108506466D01*
X123340269Y-108422412D01*
X123106920Y-108248359D01*
X122844099Y-108123175D01*
X122696890Y-108078524D01*
X122467000Y-108199845D01*
X122213000Y-108199845D01*
X121983110Y-108078524D01*
X121835901Y-108123175D01*
X121573080Y-108248359D01*
X121339731Y-108422412D01*
X121144822Y-108638645D01*
X121070000Y-108764255D01*
X120995178Y-108638645D01*
X120800269Y-108422412D01*
X120566920Y-108248359D01*
X120304099Y-108123175D01*
X120156890Y-108078524D01*
X119927000Y-108199845D01*
X119673000Y-108199845D01*
X119443110Y-108078524D01*
X119295901Y-108123175D01*
X119033080Y-108248359D01*
X118799731Y-108422412D01*
X118604822Y-108638645D01*
X118535195Y-108755534D01*
X118413475Y-108573368D01*
X118206632Y-108366525D01*
X117963411Y-108204010D01*
X117693158Y-108092068D01*
X117406260Y-108035000D01*
X117113740Y-108035000D01*
X116826842Y-108092068D01*
X116556589Y-108204010D01*
X116313368Y-108366525D01*
X116106525Y-108573368D01*
X115990000Y-108747760D01*
X115873475Y-108573368D01*
X115666632Y-108366525D01*
X115423411Y-108204010D01*
X115153158Y-108092068D01*
X114866260Y-108035000D01*
X114573740Y-108035000D01*
X114286842Y-108092068D01*
X114016589Y-108204010D01*
X113773368Y-108366525D01*
X113566525Y-108573368D01*
X113450000Y-108747760D01*
X113333475Y-108573368D01*
X113254802Y-108494695D01*
X115554498Y-106195000D01*
X143916531Y-106195000D01*
X143960000Y-106199281D01*
X144003469Y-106195000D01*
X144003477Y-106195000D01*
X144133490Y-106182195D01*
X144300313Y-106131589D01*
X144454059Y-106049411D01*
X144588817Y-105938817D01*
X144616534Y-105905044D01*
X146425050Y-104096529D01*
X146458817Y-104068817D01*
X146569411Y-103934059D01*
X146651589Y-103780313D01*
X146702195Y-103613490D01*
X146715000Y-103483477D01*
X146715000Y-103483467D01*
X146719281Y-103440001D01*
X146715000Y-103396535D01*
X146715000Y-97213469D01*
X146719281Y-97170000D01*
X146715000Y-97126531D01*
X146715000Y-97126523D01*
X146702195Y-96996510D01*
X146651589Y-96829687D01*
X146569411Y-96675941D01*
X146458817Y-96541183D01*
X146425049Y-96513470D01*
X144098072Y-94186494D01*
X144098072Y-93200000D01*
X144085812Y-93075518D01*
X144049502Y-92955820D01*
X143990537Y-92845506D01*
X143911185Y-92748815D01*
X143814494Y-92669463D01*
X143704180Y-92610498D01*
X143584482Y-92574188D01*
X143460000Y-92561928D01*
X141860000Y-92561928D01*
X141735518Y-92574188D01*
X141615820Y-92610498D01*
X141505506Y-92669463D01*
X141408815Y-92748815D01*
X141329463Y-92845506D01*
X141270498Y-92955820D01*
X141234188Y-93075518D01*
X141233357Y-93083961D01*
X141034759Y-92885363D01*
X140799727Y-92728320D01*
X140538574Y-92620147D01*
X140261335Y-92565000D01*
X139978665Y-92565000D01*
X139825603Y-92595446D01*
X136919620Y-89689463D01*
X137111068Y-89651382D01*
X137317625Y-89565823D01*
X137503521Y-89441611D01*
X137661613Y-89283519D01*
X137785825Y-89097623D01*
X137871384Y-88891066D01*
X137915001Y-88671787D01*
X137915001Y-88448211D01*
X137871384Y-88228932D01*
X137785825Y-88022375D01*
X137728745Y-87936948D01*
X137942297Y-87990823D01*
X138229521Y-88005417D01*
X138514074Y-87963697D01*
X138785020Y-87867265D01*
X138916337Y-87797073D01*
X138990946Y-87550551D01*
X138160000Y-86719605D01*
X138145858Y-86733748D01*
X137966253Y-86554143D01*
X137980395Y-86540000D01*
X138339605Y-86540000D01*
X139170551Y-87370946D01*
X139417073Y-87296337D01*
X139540473Y-87036561D01*
X139610823Y-86757703D01*
X139625417Y-86470479D01*
X139614527Y-86396203D01*
X141200000Y-86396203D01*
X141200000Y-86683797D01*
X141256107Y-86965866D01*
X141366165Y-87231569D01*
X141525944Y-87470696D01*
X141729304Y-87674056D01*
X141968431Y-87833835D01*
X142234134Y-87943893D01*
X142516203Y-88000000D01*
X142803797Y-88000000D01*
X143085866Y-87943893D01*
X143351569Y-87833835D01*
X143590696Y-87674056D01*
X143794056Y-87470696D01*
X143953835Y-87231569D01*
X144063893Y-86965866D01*
X144120000Y-86683797D01*
X144120000Y-86396203D01*
X144063893Y-86114134D01*
X143953835Y-85848431D01*
X143794056Y-85609304D01*
X143590696Y-85405944D01*
X143351569Y-85246165D01*
X143085866Y-85136107D01*
X142803797Y-85080000D01*
X142516203Y-85080000D01*
X142234134Y-85136107D01*
X141968431Y-85246165D01*
X141729304Y-85405944D01*
X141525944Y-85609304D01*
X141366165Y-85848431D01*
X141256107Y-86114134D01*
X141200000Y-86396203D01*
X139614527Y-86396203D01*
X139583697Y-86185926D01*
X139487265Y-85914980D01*
X139417073Y-85783663D01*
X139170551Y-85709054D01*
X138339605Y-86540000D01*
X137980395Y-86540000D01*
X137149449Y-85709054D01*
X136902927Y-85783663D01*
X136779527Y-86043439D01*
X136709177Y-86322297D01*
X136694583Y-86609521D01*
X136736303Y-86894074D01*
X136832735Y-87165020D01*
X136902927Y-87296337D01*
X137149447Y-87370945D01*
X137061613Y-87458779D01*
X136891789Y-87424999D01*
X136755159Y-87424999D01*
X134859609Y-85529449D01*
X137329054Y-85529449D01*
X138160000Y-86360395D01*
X138990946Y-85529449D01*
X138916337Y-85282927D01*
X138656561Y-85159527D01*
X138377703Y-85089177D01*
X138090479Y-85074583D01*
X137805926Y-85116303D01*
X137534980Y-85212735D01*
X137403663Y-85282927D01*
X137329054Y-85529449D01*
X134859609Y-85529449D01*
X130380711Y-81050551D01*
X137329054Y-81050551D01*
X137403663Y-81297073D01*
X137663439Y-81420473D01*
X137942297Y-81490823D01*
X138229521Y-81505417D01*
X138514074Y-81463697D01*
X138785020Y-81367265D01*
X138916337Y-81297073D01*
X138990946Y-81050551D01*
X138160000Y-80219605D01*
X137329054Y-81050551D01*
X130380711Y-81050551D01*
X129439681Y-80109521D01*
X136694583Y-80109521D01*
X136736303Y-80394074D01*
X136832735Y-80665020D01*
X136902927Y-80796337D01*
X137149449Y-80870946D01*
X137980395Y-80040000D01*
X138339605Y-80040000D01*
X139170551Y-80870946D01*
X139417073Y-80796337D01*
X139540473Y-80536561D01*
X139610823Y-80257703D01*
X139625417Y-79970479D01*
X139614527Y-79896203D01*
X141200000Y-79896203D01*
X141200000Y-80183797D01*
X141256107Y-80465866D01*
X141366165Y-80731569D01*
X141525944Y-80970696D01*
X141729304Y-81174056D01*
X141968431Y-81333835D01*
X142234134Y-81443893D01*
X142516203Y-81500000D01*
X142803797Y-81500000D01*
X143085866Y-81443893D01*
X143351569Y-81333835D01*
X143590696Y-81174056D01*
X143794056Y-80970696D01*
X143953835Y-80731569D01*
X144063893Y-80465866D01*
X144120000Y-80183797D01*
X144120000Y-79896203D01*
X144063893Y-79614134D01*
X143953835Y-79348431D01*
X143794056Y-79109304D01*
X143590696Y-78905944D01*
X143351569Y-78746165D01*
X143085866Y-78636107D01*
X142803797Y-78580000D01*
X142516203Y-78580000D01*
X142234134Y-78636107D01*
X141968431Y-78746165D01*
X141729304Y-78905944D01*
X141525944Y-79109304D01*
X141366165Y-79348431D01*
X141256107Y-79614134D01*
X141200000Y-79896203D01*
X139614527Y-79896203D01*
X139583697Y-79685926D01*
X139487265Y-79414980D01*
X139417073Y-79283663D01*
X139170551Y-79209054D01*
X138339605Y-80040000D01*
X137980395Y-80040000D01*
X137149449Y-79209054D01*
X136902927Y-79283663D01*
X136779527Y-79543439D01*
X136709177Y-79822297D01*
X136694583Y-80109521D01*
X129439681Y-80109521D01*
X128359609Y-79029449D01*
X137329054Y-79029449D01*
X138160000Y-79860395D01*
X138990946Y-79029449D01*
X138916337Y-78782927D01*
X138656561Y-78659527D01*
X138377703Y-78589177D01*
X138090479Y-78574583D01*
X137805926Y-78616303D01*
X137534980Y-78712735D01*
X137403663Y-78782927D01*
X137329054Y-79029449D01*
X128359609Y-79029449D01*
X117572349Y-68242190D01*
X117547766Y-68212236D01*
X117428235Y-68114138D01*
X117291862Y-68041246D01*
X117143889Y-67996359D01*
X117028563Y-67985000D01*
X117028555Y-67985000D01*
X116990002Y-67981203D01*
X116951449Y-67985000D01*
X109918552Y-67985000D01*
X109879999Y-67981203D01*
X109841446Y-67985000D01*
X109841439Y-67985000D01*
X109740490Y-67994943D01*
X109726112Y-67996359D01*
X109691672Y-68006806D01*
X109578140Y-68041246D01*
X109441767Y-68114138D01*
X109381559Y-68163550D01*
X109352187Y-68187655D01*
X109352184Y-68187658D01*
X109322236Y-68212236D01*
X109297658Y-68242184D01*
X107559684Y-69980159D01*
X107529736Y-70004737D01*
X107505158Y-70034685D01*
X107505154Y-70034689D01*
X107472189Y-70074857D01*
X107431638Y-70124268D01*
X107418746Y-70148388D01*
X107358745Y-70260642D01*
X107313858Y-70408615D01*
X107298702Y-70562501D01*
X107302500Y-70601064D01*
X107302499Y-72539454D01*
X107256433Y-72548617D01*
X107049876Y-72634176D01*
X106863980Y-72758388D01*
X106705888Y-72916480D01*
X106581676Y-73102376D01*
X106496117Y-73308933D01*
X106452500Y-73528212D01*
X106452500Y-73751788D01*
X106496117Y-73971067D01*
X106581676Y-74177624D01*
X106705888Y-74363520D01*
X106863980Y-74521612D01*
X107049876Y-74645824D01*
X107256433Y-74731383D01*
X107475712Y-74775000D01*
X107699288Y-74775000D01*
X107918567Y-74731383D01*
X108125124Y-74645824D01*
X108311020Y-74521612D01*
X108469112Y-74363520D01*
X108593324Y-74177624D01*
X108678883Y-73971067D01*
X108722500Y-73751788D01*
X108722500Y-73603653D01*
X108743361Y-73578234D01*
X108816253Y-73441861D01*
X108861140Y-73293888D01*
X108862551Y-73279560D01*
X108874176Y-73307624D01*
X108998388Y-73493520D01*
X109156480Y-73651612D01*
X109333660Y-73770000D01*
X109156480Y-73888388D01*
X108998388Y-74046480D01*
X108874176Y-74232376D01*
X108788617Y-74438933D01*
X108745000Y-74658212D01*
X108745000Y-74881788D01*
X108788617Y-75101067D01*
X108874176Y-75307624D01*
X108998388Y-75493520D01*
X109156480Y-75651612D01*
X109333660Y-75770000D01*
X109156480Y-75888388D01*
X108998388Y-76046480D01*
X108874176Y-76232376D01*
X108788617Y-76438933D01*
X108745000Y-76658212D01*
X108745000Y-76881788D01*
X108788617Y-77101067D01*
X108874176Y-77307624D01*
X108998388Y-77493520D01*
X109156480Y-77651612D01*
X109333660Y-77770000D01*
X109156480Y-77888388D01*
X108998388Y-78046480D01*
X108874176Y-78232376D01*
X108788617Y-78438933D01*
X108745000Y-78658212D01*
X108745000Y-78881788D01*
X108788617Y-79101067D01*
X108874176Y-79307624D01*
X108998388Y-79493520D01*
X109156480Y-79651612D01*
X109342376Y-79775824D01*
X109548933Y-79861383D01*
X109768212Y-79905000D01*
X109904843Y-79905000D01*
X110115001Y-80115158D01*
X110115000Y-92643520D01*
X110058574Y-92620147D01*
X109781335Y-92565000D01*
X109498665Y-92565000D01*
X109221426Y-92620147D01*
X108960273Y-92728320D01*
X108725241Y-92885363D01*
X108525363Y-93085241D01*
X108368320Y-93320273D01*
X108260147Y-93581426D01*
X108205000Y-93858665D01*
X108205000Y-94141335D01*
X108260147Y-94418574D01*
X108368320Y-94679727D01*
X108525363Y-94914759D01*
X108725241Y-95114637D01*
X108960273Y-95271680D01*
X109221426Y-95379853D01*
X109498665Y-95435000D01*
X109781335Y-95435000D01*
X110058574Y-95379853D01*
X110115000Y-95356481D01*
X110115000Y-100024842D01*
X109926055Y-100213787D01*
X109781335Y-100185000D01*
X109498665Y-100185000D01*
X109221426Y-100240147D01*
X108960273Y-100348320D01*
X108725241Y-100505363D01*
X108525363Y-100705241D01*
X108368320Y-100940273D01*
X108260147Y-101201426D01*
X108205000Y-101478665D01*
X108205000Y-101761335D01*
X108260147Y-102038574D01*
X108368320Y-102299727D01*
X108525363Y-102534759D01*
X108725241Y-102734637D01*
X108960273Y-102891680D01*
X109221426Y-102999853D01*
X109498665Y-103055000D01*
X109781335Y-103055000D01*
X110058574Y-102999853D01*
X110319727Y-102891680D01*
X110554759Y-102734637D01*
X110754637Y-102534759D01*
X110910000Y-102302241D01*
X111065363Y-102534759D01*
X111265241Y-102734637D01*
X111500273Y-102891680D01*
X111761426Y-102999853D01*
X112038665Y-103055000D01*
X112321335Y-103055000D01*
X112598574Y-102999853D01*
X112859727Y-102891680D01*
X113094759Y-102734637D01*
X113294637Y-102534759D01*
X113450000Y-102302241D01*
X113605363Y-102534759D01*
X113805241Y-102734637D01*
X114040273Y-102891680D01*
X114301426Y-102999853D01*
X114578665Y-103055000D01*
X114861335Y-103055000D01*
X115138574Y-102999853D01*
X115399727Y-102891680D01*
X115634759Y-102734637D01*
X115834637Y-102534759D01*
X115990000Y-102302241D01*
X116145363Y-102534759D01*
X116345241Y-102734637D01*
X116580273Y-102891680D01*
X116841426Y-102999853D01*
X117118665Y-103055000D01*
X117401335Y-103055000D01*
X117678574Y-102999853D01*
X117939727Y-102891680D01*
X118174759Y-102734637D01*
X118374637Y-102534759D01*
X118530000Y-102302241D01*
X118685363Y-102534759D01*
X118885241Y-102734637D01*
X119120273Y-102891680D01*
X119381426Y-102999853D01*
X119658665Y-103055000D01*
X119941335Y-103055000D01*
X120218574Y-102999853D01*
X120479727Y-102891680D01*
X120714759Y-102734637D01*
X120914637Y-102534759D01*
X121070000Y-102302241D01*
X121225363Y-102534759D01*
X121425241Y-102734637D01*
X121660273Y-102891680D01*
X121921426Y-102999853D01*
X122198665Y-103055000D01*
X122481335Y-103055000D01*
X122758574Y-102999853D01*
X123019727Y-102891680D01*
X123254759Y-102734637D01*
X123454637Y-102534759D01*
X123610000Y-102302241D01*
X123765363Y-102534759D01*
X123965241Y-102734637D01*
X124200273Y-102891680D01*
X124461426Y-102999853D01*
X124738665Y-103055000D01*
X125021335Y-103055000D01*
X125298574Y-102999853D01*
X125559727Y-102891680D01*
X125794759Y-102734637D01*
X125994637Y-102534759D01*
X126151680Y-102299727D01*
X126156067Y-102289135D01*
X126267615Y-102475131D01*
X126456586Y-102683519D01*
X126682580Y-102851037D01*
X126936913Y-102971246D01*
X127070961Y-103011904D01*
X127293000Y-102889915D01*
X127293000Y-101747000D01*
X127273000Y-101747000D01*
X127273000Y-101493000D01*
X127293000Y-101493000D01*
X127293000Y-100350085D01*
X127547000Y-100350085D01*
X127547000Y-101493000D01*
X127567000Y-101493000D01*
X127567000Y-101747000D01*
X127547000Y-101747000D01*
X127547000Y-102889915D01*
X127769039Y-103011904D01*
X127903087Y-102971246D01*
X128157420Y-102851037D01*
X128383414Y-102683519D01*
X128572385Y-102475131D01*
X128683933Y-102289135D01*
X128688320Y-102299727D01*
X128845363Y-102534759D01*
X129045241Y-102734637D01*
X129280273Y-102891680D01*
X129541426Y-102999853D01*
X129818665Y-103055000D01*
X130101335Y-103055000D01*
X130378574Y-102999853D01*
X130639727Y-102891680D01*
X130874759Y-102734637D01*
X131074637Y-102534759D01*
X131230000Y-102302241D01*
X131385363Y-102534759D01*
X131585241Y-102734637D01*
X131820273Y-102891680D01*
X132081426Y-102999853D01*
X132358665Y-103055000D01*
X132641335Y-103055000D01*
X132918574Y-102999853D01*
X133179727Y-102891680D01*
X133414759Y-102734637D01*
X133614637Y-102534759D01*
X133770000Y-102302241D01*
X133925363Y-102534759D01*
X134125241Y-102734637D01*
X134360273Y-102891680D01*
X134621426Y-102999853D01*
X134898665Y-103055000D01*
X135181335Y-103055000D01*
X135458574Y-102999853D01*
X135719727Y-102891680D01*
X135954759Y-102734637D01*
X136154637Y-102534759D01*
X136310000Y-102302241D01*
X136465363Y-102534759D01*
X136665241Y-102734637D01*
X136900273Y-102891680D01*
X137161426Y-102999853D01*
X137438665Y-103055000D01*
X137721335Y-103055000D01*
X137998574Y-102999853D01*
X138259727Y-102891680D01*
X138494759Y-102734637D01*
X138694637Y-102534759D01*
X138850000Y-102302241D01*
X139005363Y-102534759D01*
X139205241Y-102734637D01*
X139440273Y-102891680D01*
X139701426Y-102999853D01*
X139978665Y-103055000D01*
X140261335Y-103055000D01*
X140538574Y-102999853D01*
X140799727Y-102891680D01*
X141034759Y-102734637D01*
X141234637Y-102534759D01*
X141390000Y-102302241D01*
X141545363Y-102534759D01*
X141745241Y-102734637D01*
X141980273Y-102891680D01*
X142241426Y-102999853D01*
X142518665Y-103055000D01*
X142801335Y-103055000D01*
X143078574Y-102999853D01*
X143339727Y-102891680D01*
X143574759Y-102734637D01*
X143774637Y-102534759D01*
X143931680Y-102299727D01*
X144039853Y-102038574D01*
X144095000Y-101761335D01*
X144095000Y-101478665D01*
X144039853Y-101201426D01*
X143931680Y-100940273D01*
X143774637Y-100705241D01*
X143574759Y-100505363D01*
X143339727Y-100348320D01*
X143078574Y-100240147D01*
X142801335Y-100185000D01*
X142518665Y-100185000D01*
X142241426Y-100240147D01*
X141980273Y-100348320D01*
X141745241Y-100505363D01*
X141545363Y-100705241D01*
X141390000Y-100937759D01*
X141234637Y-100705241D01*
X141034759Y-100505363D01*
X140799727Y-100348320D01*
X140538574Y-100240147D01*
X140261335Y-100185000D01*
X139978665Y-100185000D01*
X139701426Y-100240147D01*
X139440273Y-100348320D01*
X139205241Y-100505363D01*
X139005363Y-100705241D01*
X138850000Y-100937759D01*
X138694637Y-100705241D01*
X138494759Y-100505363D01*
X138259727Y-100348320D01*
X137998574Y-100240147D01*
X137721335Y-100185000D01*
X137438665Y-100185000D01*
X137161426Y-100240147D01*
X136900273Y-100348320D01*
X136665241Y-100505363D01*
X136465363Y-100705241D01*
X136310000Y-100937759D01*
X136154637Y-100705241D01*
X135954759Y-100505363D01*
X135719727Y-100348320D01*
X135458574Y-100240147D01*
X135181335Y-100185000D01*
X134898665Y-100185000D01*
X134621426Y-100240147D01*
X134360273Y-100348320D01*
X134125241Y-100505363D01*
X133925363Y-100705241D01*
X133770000Y-100937759D01*
X133614637Y-100705241D01*
X133414759Y-100505363D01*
X133179727Y-100348320D01*
X132918574Y-100240147D01*
X132641335Y-100185000D01*
X132358665Y-100185000D01*
X132081426Y-100240147D01*
X131820273Y-100348320D01*
X131585241Y-100505363D01*
X131385363Y-100705241D01*
X131230000Y-100937759D01*
X131074637Y-100705241D01*
X130874759Y-100505363D01*
X130639727Y-100348320D01*
X130378574Y-100240147D01*
X130101335Y-100185000D01*
X129818665Y-100185000D01*
X129541426Y-100240147D01*
X129280273Y-100348320D01*
X129045241Y-100505363D01*
X128845363Y-100705241D01*
X128688320Y-100940273D01*
X128683933Y-100950865D01*
X128572385Y-100764869D01*
X128383414Y-100556481D01*
X128157420Y-100388963D01*
X127903087Y-100268754D01*
X127769039Y-100228096D01*
X127547000Y-100350085D01*
X127293000Y-100350085D01*
X127070961Y-100228096D01*
X126936913Y-100268754D01*
X126682580Y-100388963D01*
X126456586Y-100556481D01*
X126267615Y-100764869D01*
X126156067Y-100950865D01*
X126151680Y-100940273D01*
X125994637Y-100705241D01*
X125794759Y-100505363D01*
X125559727Y-100348320D01*
X125298574Y-100240147D01*
X125021335Y-100185000D01*
X124738665Y-100185000D01*
X124461426Y-100240147D01*
X124200273Y-100348320D01*
X123965241Y-100505363D01*
X123765363Y-100705241D01*
X123610000Y-100937759D01*
X123454637Y-100705241D01*
X123254759Y-100505363D01*
X123019727Y-100348320D01*
X122758574Y-100240147D01*
X122481335Y-100185000D01*
X122198665Y-100185000D01*
X121921426Y-100240147D01*
X121895001Y-100251093D01*
X121895001Y-95368907D01*
X121921426Y-95379853D01*
X122198665Y-95435000D01*
X122481335Y-95435000D01*
X122758574Y-95379853D01*
X123019727Y-95271680D01*
X123254759Y-95114637D01*
X123454637Y-94914759D01*
X123611680Y-94679727D01*
X123616067Y-94669135D01*
X123727615Y-94855131D01*
X123916586Y-95063519D01*
X124142580Y-95231037D01*
X124396913Y-95351246D01*
X124530961Y-95391904D01*
X124753000Y-95269915D01*
X124753000Y-94127000D01*
X124733000Y-94127000D01*
X124733000Y-93873000D01*
X124753000Y-93873000D01*
X124753000Y-92730085D01*
X124530961Y-92608096D01*
X124396913Y-92648754D01*
X124142580Y-92768963D01*
X123916586Y-92936481D01*
X123727615Y-93144869D01*
X123616067Y-93330865D01*
X123611680Y-93320273D01*
X123454637Y-93085241D01*
X123254759Y-92885363D01*
X123019727Y-92728320D01*
X122758574Y-92620147D01*
X122481335Y-92565000D01*
X122198665Y-92565000D01*
X121921426Y-92620147D01*
X121895001Y-92631093D01*
X121895001Y-79648553D01*
X121898798Y-79610000D01*
X121895001Y-79571447D01*
X121895001Y-79571440D01*
X121883642Y-79456114D01*
X121880966Y-79447290D01*
X121865089Y-79394953D01*
X121838755Y-79308141D01*
X121765863Y-79171768D01*
X121711743Y-79105824D01*
X121692346Y-79082188D01*
X121692343Y-79082185D01*
X121667765Y-79052237D01*
X121637817Y-79027659D01*
X118327645Y-75717487D01*
X118391180Y-75653952D01*
X120663795Y-75653952D01*
X137574843Y-92565000D01*
X137438665Y-92565000D01*
X137161426Y-92620147D01*
X136900273Y-92728320D01*
X136665241Y-92885363D01*
X136465363Y-93085241D01*
X136310000Y-93317759D01*
X136154637Y-93085241D01*
X135954759Y-92885363D01*
X135719727Y-92728320D01*
X135458574Y-92620147D01*
X135181335Y-92565000D01*
X134898665Y-92565000D01*
X134621426Y-92620147D01*
X134360273Y-92728320D01*
X134125241Y-92885363D01*
X133925363Y-93085241D01*
X133770000Y-93317759D01*
X133614637Y-93085241D01*
X133414759Y-92885363D01*
X133179727Y-92728320D01*
X132918574Y-92620147D01*
X132641335Y-92565000D01*
X132358665Y-92565000D01*
X132081426Y-92620147D01*
X131820273Y-92728320D01*
X131585241Y-92885363D01*
X131385363Y-93085241D01*
X131230000Y-93317759D01*
X131074637Y-93085241D01*
X130874759Y-92885363D01*
X130639727Y-92728320D01*
X130378574Y-92620147D01*
X130101335Y-92565000D01*
X129818665Y-92565000D01*
X129541426Y-92620147D01*
X129280273Y-92728320D01*
X129045241Y-92885363D01*
X128845363Y-93085241D01*
X128690000Y-93317759D01*
X128534637Y-93085241D01*
X128334759Y-92885363D01*
X128099727Y-92728320D01*
X127838574Y-92620147D01*
X127561335Y-92565000D01*
X127278665Y-92565000D01*
X127001426Y-92620147D01*
X126740273Y-92728320D01*
X126505241Y-92885363D01*
X126305363Y-93085241D01*
X126148320Y-93320273D01*
X126143933Y-93330865D01*
X126032385Y-93144869D01*
X125843414Y-92936481D01*
X125617420Y-92768963D01*
X125363087Y-92648754D01*
X125229039Y-92608096D01*
X125007000Y-92730085D01*
X125007000Y-93873000D01*
X125027000Y-93873000D01*
X125027000Y-94127000D01*
X125007000Y-94127000D01*
X125007000Y-95269915D01*
X125229039Y-95391904D01*
X125363087Y-95351246D01*
X125617420Y-95231037D01*
X125843414Y-95063519D01*
X126032385Y-94855131D01*
X126143933Y-94669135D01*
X126148320Y-94679727D01*
X126305363Y-94914759D01*
X126505241Y-95114637D01*
X126740273Y-95271680D01*
X127001426Y-95379853D01*
X127278665Y-95435000D01*
X127561335Y-95435000D01*
X127838574Y-95379853D01*
X128099727Y-95271680D01*
X128334759Y-95114637D01*
X128534637Y-94914759D01*
X128690000Y-94682241D01*
X128845363Y-94914759D01*
X129045241Y-95114637D01*
X129280273Y-95271680D01*
X129541426Y-95379853D01*
X129818665Y-95435000D01*
X130101335Y-95435000D01*
X130378574Y-95379853D01*
X130639727Y-95271680D01*
X130874759Y-95114637D01*
X131074637Y-94914759D01*
X131230000Y-94682241D01*
X131385363Y-94914759D01*
X131585241Y-95114637D01*
X131820273Y-95271680D01*
X132081426Y-95379853D01*
X132358665Y-95435000D01*
X132641335Y-95435000D01*
X132918574Y-95379853D01*
X133179727Y-95271680D01*
X133414759Y-95114637D01*
X133614637Y-94914759D01*
X133770000Y-94682241D01*
X133925363Y-94914759D01*
X134125241Y-95114637D01*
X134360273Y-95271680D01*
X134621426Y-95379853D01*
X134898665Y-95435000D01*
X135181335Y-95435000D01*
X135458574Y-95379853D01*
X135719727Y-95271680D01*
X135954759Y-95114637D01*
X136154637Y-94914759D01*
X136310000Y-94682241D01*
X136465363Y-94914759D01*
X136665241Y-95114637D01*
X136900273Y-95271680D01*
X137161426Y-95379853D01*
X137438665Y-95435000D01*
X137721335Y-95435000D01*
X137998574Y-95379853D01*
X138259727Y-95271680D01*
X138494759Y-95114637D01*
X138694637Y-94914759D01*
X138850000Y-94682241D01*
X139005363Y-94914759D01*
X139205241Y-95114637D01*
X139440273Y-95271680D01*
X139701426Y-95379853D01*
X139978665Y-95435000D01*
X140261335Y-95435000D01*
X140538574Y-95379853D01*
X140799727Y-95271680D01*
X141034759Y-95114637D01*
X141233357Y-94916039D01*
X141234188Y-94924482D01*
X141270498Y-95044180D01*
X141329463Y-95154494D01*
X141408815Y-95251185D01*
X141505506Y-95330537D01*
X141615820Y-95389502D01*
X141735518Y-95425812D01*
X141860000Y-95438072D01*
X142846494Y-95438072D01*
X144945001Y-97536580D01*
X144945000Y-103073421D01*
X143593422Y-104425000D01*
X115231388Y-104425000D01*
X115187919Y-104420719D01*
X115144450Y-104425000D01*
X115144442Y-104425000D01*
X115014429Y-104437805D01*
X114847606Y-104488411D01*
X114700575Y-104567000D01*
X114693860Y-104570589D01*
X114592872Y-104653468D01*
X114592870Y-104653470D01*
X114559102Y-104681183D01*
X114531389Y-104714951D01*
X111584951Y-107661390D01*
X111578370Y-107666791D01*
X107025000Y-103113422D01*
X107025000Y-91858450D01*
X107145824Y-91677624D01*
X107231383Y-91471067D01*
X107275000Y-91251788D01*
X107275000Y-91028212D01*
X107231383Y-90808933D01*
X107145824Y-90602376D01*
X107021612Y-90416480D01*
X106863520Y-90258388D01*
X106677624Y-90134176D01*
X106471067Y-90048617D01*
X106251788Y-90005000D01*
X106028212Y-90005000D01*
X105808933Y-90048617D01*
X105602376Y-90134176D01*
X105416480Y-90258388D01*
X105258388Y-90416480D01*
X105134176Y-90602376D01*
X105048617Y-90808933D01*
X105005000Y-91028212D01*
X105005000Y-91251788D01*
X105048617Y-91471067D01*
X105134176Y-91677624D01*
X105255000Y-91858450D01*
X105255001Y-103436521D01*
X105250719Y-103480000D01*
X105267805Y-103653490D01*
X105318412Y-103820313D01*
X105400590Y-103974059D01*
X105483468Y-104075046D01*
X105483471Y-104075049D01*
X105511184Y-104108817D01*
X105544952Y-104136530D01*
X109451770Y-108043348D01*
X109206842Y-108092068D01*
X108936589Y-108204010D01*
X108693368Y-108366525D01*
X108486525Y-108573368D01*
X108370000Y-108747760D01*
X108253475Y-108573368D01*
X108046632Y-108366525D01*
X107803411Y-108204010D01*
X107533158Y-108092068D01*
X107246260Y-108035000D01*
X106953740Y-108035000D01*
X106666842Y-108092068D01*
X106396589Y-108204010D01*
X106153368Y-108366525D01*
X105946525Y-108573368D01*
X105784010Y-108816589D01*
X105672068Y-109086842D01*
X105615000Y-109373740D01*
X105615000Y-109666260D01*
X105672068Y-109953158D01*
X105784010Y-110223411D01*
X105946525Y-110466632D01*
X106153368Y-110673475D01*
X106396589Y-110835990D01*
X106666842Y-110947932D01*
X106953740Y-111005000D01*
X107246260Y-111005000D01*
X107533158Y-110947932D01*
X107803411Y-110835990D01*
X108046632Y-110673475D01*
X108253475Y-110466632D01*
X108370000Y-110292240D01*
X108486525Y-110466632D01*
X108505001Y-110485108D01*
X108505000Y-113414893D01*
X108486525Y-113433368D01*
X108370000Y-113607760D01*
X108253475Y-113433368D01*
X108046632Y-113226525D01*
X107803411Y-113064010D01*
X107533158Y-112952068D01*
X107246260Y-112895000D01*
X106953740Y-112895000D01*
X106666842Y-112952068D01*
X106396589Y-113064010D01*
X106153368Y-113226525D01*
X105946525Y-113433368D01*
X105784010Y-113676589D01*
X105672068Y-113946842D01*
X105615000Y-114233740D01*
X105615000Y-114526260D01*
X105668456Y-114795001D01*
X105046580Y-114795001D01*
X99633811Y-109382233D01*
X99591383Y-109168933D01*
X99505824Y-108962376D01*
X99381612Y-108776480D01*
X99223520Y-108618388D01*
X99037624Y-108494176D01*
X98831067Y-108408617D01*
X98611788Y-108365000D01*
X98388212Y-108365000D01*
X98168933Y-108408617D01*
X97962376Y-108494176D01*
X97776480Y-108618388D01*
X97618388Y-108776480D01*
X97494176Y-108962376D01*
X97408617Y-109168933D01*
X97365000Y-109388212D01*
X97365000Y-109611788D01*
X97408617Y-109831067D01*
X97494176Y-110037624D01*
X97618388Y-110223520D01*
X97776480Y-110381612D01*
X97962376Y-110505824D01*
X98168933Y-110591383D01*
X98382233Y-110633811D01*
X103448421Y-115700000D01*
X83859392Y-115700000D01*
X83061917Y-115628827D01*
X82318110Y-115425344D01*
X81622096Y-115093363D01*
X80995870Y-114643374D01*
X80459223Y-114089597D01*
X80029129Y-113449549D01*
X79719171Y-112743447D01*
X79537935Y-111988543D01*
X79490000Y-111335793D01*
X79490000Y-108265000D01*
X87551928Y-108265000D01*
X87551928Y-110015000D01*
X87581001Y-110310186D01*
X87667104Y-110594028D01*
X87806927Y-110855618D01*
X87995097Y-111084903D01*
X88224382Y-111273073D01*
X88485972Y-111412896D01*
X88769814Y-111498999D01*
X89065000Y-111528072D01*
X90815000Y-111528072D01*
X91110186Y-111498999D01*
X91394028Y-111412896D01*
X91655618Y-111273073D01*
X91884903Y-111084903D01*
X92073073Y-110855618D01*
X92212896Y-110594028D01*
X92298999Y-110310186D01*
X92328072Y-110015000D01*
X92328072Y-108265000D01*
X92298999Y-107969814D01*
X92212896Y-107685972D01*
X92073073Y-107424382D01*
X91884903Y-107195097D01*
X91655618Y-107006927D01*
X91394028Y-106867104D01*
X91265357Y-106828072D01*
X94690000Y-106828072D01*
X94814482Y-106815812D01*
X94934180Y-106779502D01*
X95044494Y-106720537D01*
X95141185Y-106641185D01*
X95220537Y-106544494D01*
X95279502Y-106434180D01*
X95315812Y-106314482D01*
X95328072Y-106190000D01*
X95328072Y-102690000D01*
X95315812Y-102565518D01*
X95279502Y-102445820D01*
X95220537Y-102335506D01*
X95141185Y-102238815D01*
X95044494Y-102159463D01*
X94934180Y-102100498D01*
X94814482Y-102064188D01*
X94690000Y-102051928D01*
X91190000Y-102051928D01*
X91065518Y-102064188D01*
X90945820Y-102100498D01*
X90835506Y-102159463D01*
X90738815Y-102238815D01*
X90659463Y-102335506D01*
X90600498Y-102445820D01*
X90564188Y-102565518D01*
X90551928Y-102690000D01*
X90551928Y-106190000D01*
X90564188Y-106314482D01*
X90600498Y-106434180D01*
X90659463Y-106544494D01*
X90738815Y-106641185D01*
X90835506Y-106720537D01*
X90912131Y-106761494D01*
X90815000Y-106751928D01*
X89065000Y-106751928D01*
X88769814Y-106781001D01*
X88485972Y-106867104D01*
X88224382Y-107006927D01*
X87995097Y-107195097D01*
X87806927Y-107424382D01*
X87667104Y-107685972D01*
X87581001Y-107969814D01*
X87551928Y-108265000D01*
X79490000Y-108265000D01*
X79490000Y-106190000D01*
X84801928Y-106190000D01*
X84814188Y-106314482D01*
X84850498Y-106434180D01*
X84909463Y-106544494D01*
X84988815Y-106641185D01*
X85085506Y-106720537D01*
X85195820Y-106779502D01*
X85315518Y-106815812D01*
X85440000Y-106828072D01*
X86654250Y-106825000D01*
X86813000Y-106666250D01*
X86813000Y-104567000D01*
X87067000Y-104567000D01*
X87067000Y-106666250D01*
X87225750Y-106825000D01*
X88440000Y-106828072D01*
X88564482Y-106815812D01*
X88684180Y-106779502D01*
X88794494Y-106720537D01*
X88891185Y-106641185D01*
X88970537Y-106544494D01*
X89029502Y-106434180D01*
X89065812Y-106314482D01*
X89078072Y-106190000D01*
X89075000Y-104725750D01*
X88916250Y-104567000D01*
X87067000Y-104567000D01*
X86813000Y-104567000D01*
X84963750Y-104567000D01*
X84805000Y-104725750D01*
X84801928Y-106190000D01*
X79490000Y-106190000D01*
X79490000Y-102690000D01*
X84801928Y-102690000D01*
X84805000Y-104154250D01*
X84963750Y-104313000D01*
X86813000Y-104313000D01*
X86813000Y-102213750D01*
X87067000Y-102213750D01*
X87067000Y-104313000D01*
X88916250Y-104313000D01*
X89075000Y-104154250D01*
X89078072Y-102690000D01*
X89065812Y-102565518D01*
X89029502Y-102445820D01*
X88970537Y-102335506D01*
X88891185Y-102238815D01*
X88794494Y-102159463D01*
X88684180Y-102100498D01*
X88564482Y-102064188D01*
X88440000Y-102051928D01*
X87225750Y-102055000D01*
X87067000Y-102213750D01*
X86813000Y-102213750D01*
X86654250Y-102055000D01*
X85440000Y-102051928D01*
X85315518Y-102064188D01*
X85195820Y-102100498D01*
X85085506Y-102159463D01*
X84988815Y-102238815D01*
X84909463Y-102335506D01*
X84850498Y-102445820D01*
X84814188Y-102565518D01*
X84801928Y-102690000D01*
X79490000Y-102690000D01*
X79490000Y-98368212D01*
X94565000Y-98368212D01*
X94565000Y-98591788D01*
X94608617Y-98811067D01*
X94694176Y-99017624D01*
X94818388Y-99203520D01*
X94976480Y-99361612D01*
X95162376Y-99485824D01*
X95368933Y-99571383D01*
X95588212Y-99615000D01*
X95811788Y-99615000D01*
X96031067Y-99571383D01*
X96237624Y-99485824D01*
X96423520Y-99361612D01*
X96581612Y-99203520D01*
X96705824Y-99017624D01*
X96791383Y-98811067D01*
X96833811Y-98597768D01*
X98165050Y-97266529D01*
X98198817Y-97238817D01*
X98309411Y-97104059D01*
X98391589Y-96950313D01*
X98442195Y-96783490D01*
X98455000Y-96653477D01*
X98455000Y-96653467D01*
X98459281Y-96610001D01*
X98455000Y-96566535D01*
X98455000Y-88898450D01*
X98575824Y-88717624D01*
X98661383Y-88511067D01*
X98705000Y-88291788D01*
X98705000Y-88068212D01*
X98661383Y-87848933D01*
X98575824Y-87642376D01*
X98451612Y-87456480D01*
X98293520Y-87298388D01*
X98107624Y-87174176D01*
X97901067Y-87088617D01*
X97681788Y-87045000D01*
X97458212Y-87045000D01*
X97238933Y-87088617D01*
X97032376Y-87174176D01*
X96846480Y-87298388D01*
X96688388Y-87456480D01*
X96564176Y-87642376D01*
X96478617Y-87848933D01*
X96435000Y-88068212D01*
X96435000Y-88291788D01*
X96478617Y-88511067D01*
X96564176Y-88717624D01*
X96685001Y-88898451D01*
X96685000Y-96243421D01*
X95582232Y-97346189D01*
X95368933Y-97388617D01*
X95162376Y-97474176D01*
X94976480Y-97598388D01*
X94818388Y-97756480D01*
X94694176Y-97942376D01*
X94608617Y-98148933D01*
X94565000Y-98368212D01*
X79490000Y-98368212D01*
X79490000Y-86888212D01*
X84845000Y-86888212D01*
X84845000Y-87111788D01*
X84888617Y-87331067D01*
X84974176Y-87537624D01*
X85098388Y-87723520D01*
X85256480Y-87881612D01*
X85442376Y-88005824D01*
X85648933Y-88091383D01*
X85868212Y-88135000D01*
X86091788Y-88135000D01*
X86311067Y-88091383D01*
X86517624Y-88005824D01*
X86703520Y-87881612D01*
X86861612Y-87723520D01*
X86985824Y-87537624D01*
X87071383Y-87331067D01*
X87115000Y-87111788D01*
X87115000Y-86888212D01*
X87071383Y-86668933D01*
X86985824Y-86462376D01*
X86865000Y-86281550D01*
X86865000Y-86256578D01*
X91493366Y-81628212D01*
X91865000Y-81628212D01*
X91865000Y-81851788D01*
X91908617Y-82071067D01*
X91994176Y-82277624D01*
X92118388Y-82463520D01*
X92215001Y-82560133D01*
X92215000Y-87729868D01*
X92118388Y-87826480D01*
X91994176Y-88012376D01*
X91908617Y-88218933D01*
X91865000Y-88438212D01*
X91865000Y-88661788D01*
X91908617Y-88881067D01*
X91994176Y-89087624D01*
X92118388Y-89273520D01*
X92276480Y-89431612D01*
X92462376Y-89555824D01*
X92668933Y-89641383D01*
X92888212Y-89685000D01*
X93111788Y-89685000D01*
X93331067Y-89641383D01*
X93537624Y-89555824D01*
X93723520Y-89431612D01*
X93881612Y-89273520D01*
X94005824Y-89087624D01*
X94091383Y-88881067D01*
X94135000Y-88661788D01*
X94135000Y-88438212D01*
X94091383Y-88218933D01*
X94005824Y-88012376D01*
X93881612Y-87826480D01*
X93785000Y-87729868D01*
X93785000Y-84348212D01*
X93855000Y-84348212D01*
X93855000Y-84571788D01*
X93898617Y-84791067D01*
X93984176Y-84997624D01*
X94108388Y-85183520D01*
X94266480Y-85341612D01*
X94452376Y-85465824D01*
X94658933Y-85551383D01*
X94878212Y-85595000D01*
X95101788Y-85595000D01*
X95321067Y-85551383D01*
X95527624Y-85465824D01*
X95713520Y-85341612D01*
X95810132Y-85245000D01*
X97971447Y-85245000D01*
X98010000Y-85248797D01*
X98048553Y-85245000D01*
X98048561Y-85245000D01*
X98163887Y-85233641D01*
X98311860Y-85188754D01*
X98448233Y-85115862D01*
X98567764Y-85017764D01*
X98592347Y-84987811D01*
X99207816Y-84372341D01*
X99237764Y-84347764D01*
X99335862Y-84228233D01*
X99408754Y-84091860D01*
X99430016Y-84021768D01*
X99453641Y-83943888D01*
X99457743Y-83902236D01*
X99465000Y-83828561D01*
X99465000Y-83828554D01*
X99468797Y-83790001D01*
X99465000Y-83751448D01*
X99465000Y-77423212D01*
X99965000Y-77423212D01*
X99965000Y-77646788D01*
X100008617Y-77866067D01*
X100094176Y-78072624D01*
X100218388Y-78258520D01*
X100376480Y-78416612D01*
X100562376Y-78540824D01*
X100768933Y-78626383D01*
X100988212Y-78670000D01*
X101211788Y-78670000D01*
X101431067Y-78626383D01*
X101637624Y-78540824D01*
X101823520Y-78416612D01*
X101981612Y-78258520D01*
X102105824Y-78072624D01*
X102191383Y-77866067D01*
X102235000Y-77646788D01*
X102235000Y-77423212D01*
X102191383Y-77203933D01*
X102105824Y-76997376D01*
X101981612Y-76811480D01*
X101823520Y-76653388D01*
X101637624Y-76529176D01*
X101431067Y-76443617D01*
X101211788Y-76400000D01*
X100988212Y-76400000D01*
X100768933Y-76443617D01*
X100562376Y-76529176D01*
X100376480Y-76653388D01*
X100218388Y-76811480D01*
X100094176Y-76997376D01*
X100008617Y-77203933D01*
X99965000Y-77423212D01*
X99465000Y-77423212D01*
X99465000Y-71850132D01*
X99561612Y-71753520D01*
X99685824Y-71567624D01*
X99771383Y-71361067D01*
X99815000Y-71141788D01*
X99815000Y-70918212D01*
X99771383Y-70698933D01*
X99685824Y-70492376D01*
X99561612Y-70306480D01*
X99403520Y-70148388D01*
X99217624Y-70024176D01*
X99011067Y-69938617D01*
X98791788Y-69895000D01*
X98568212Y-69895000D01*
X98348933Y-69938617D01*
X98142376Y-70024176D01*
X97956480Y-70148388D01*
X97798388Y-70306480D01*
X97674176Y-70492376D01*
X97588617Y-70698933D01*
X97545000Y-70918212D01*
X97545000Y-71141788D01*
X97588617Y-71361067D01*
X97674176Y-71567624D01*
X97798388Y-71753520D01*
X97895001Y-71850133D01*
X97895000Y-81338560D01*
X97895001Y-81338570D01*
X97895000Y-83464842D01*
X97684843Y-83675000D01*
X95810132Y-83675000D01*
X95713520Y-83578388D01*
X95527624Y-83454176D01*
X95321067Y-83368617D01*
X95101788Y-83325000D01*
X94878212Y-83325000D01*
X94658933Y-83368617D01*
X94452376Y-83454176D01*
X94266480Y-83578388D01*
X94108388Y-83736480D01*
X93984176Y-83922376D01*
X93898617Y-84128933D01*
X93855000Y-84348212D01*
X93785000Y-84348212D01*
X93785000Y-82560132D01*
X93881612Y-82463520D01*
X94005824Y-82277624D01*
X94091383Y-82071067D01*
X94135000Y-81851788D01*
X94135000Y-81628212D01*
X94091383Y-81408933D01*
X94005824Y-81202376D01*
X93881612Y-81016480D01*
X93723520Y-80858388D01*
X93537624Y-80734176D01*
X93331067Y-80648617D01*
X93111788Y-80605000D01*
X92888212Y-80605000D01*
X92668933Y-80648617D01*
X92462376Y-80734176D01*
X92276480Y-80858388D01*
X92118388Y-81016480D01*
X91994176Y-81202376D01*
X91908617Y-81408933D01*
X91865000Y-81628212D01*
X91493366Y-81628212D01*
X93177769Y-79943810D01*
X93391067Y-79901383D01*
X93597624Y-79815824D01*
X93783520Y-79691612D01*
X93941612Y-79533520D01*
X94065824Y-79347624D01*
X94151383Y-79141067D01*
X94195000Y-78921788D01*
X94195000Y-78698212D01*
X94151383Y-78478933D01*
X94065824Y-78272376D01*
X93941612Y-78086480D01*
X93783520Y-77928388D01*
X93597624Y-77804176D01*
X93391067Y-77718617D01*
X93171788Y-77675000D01*
X92948212Y-77675000D01*
X92728933Y-77718617D01*
X92522376Y-77804176D01*
X92336480Y-77928388D01*
X92178388Y-78086480D01*
X92054176Y-78272376D01*
X91968617Y-78478933D01*
X91926190Y-78692231D01*
X85384956Y-85233466D01*
X85351183Y-85261183D01*
X85240589Y-85395942D01*
X85158411Y-85549688D01*
X85107805Y-85716511D01*
X85095000Y-85846524D01*
X85095000Y-85846531D01*
X85090719Y-85890000D01*
X85095000Y-85933470D01*
X85095000Y-86281550D01*
X84974176Y-86462376D01*
X84888617Y-86668933D01*
X84845000Y-86888212D01*
X79490000Y-86888212D01*
X79490000Y-76048212D01*
X84165000Y-76048212D01*
X84165000Y-76271788D01*
X84208617Y-76491067D01*
X84294176Y-76697624D01*
X84418388Y-76883520D01*
X84576480Y-77041612D01*
X84762376Y-77165824D01*
X84968933Y-77251383D01*
X85188212Y-77295000D01*
X85411788Y-77295000D01*
X85631067Y-77251383D01*
X85837624Y-77165824D01*
X86023520Y-77041612D01*
X86181612Y-76883520D01*
X86305824Y-76697624D01*
X86391383Y-76491067D01*
X86435000Y-76271788D01*
X86435000Y-76048212D01*
X86391383Y-75828933D01*
X86305824Y-75622376D01*
X86181612Y-75436480D01*
X86023520Y-75278388D01*
X85837624Y-75154176D01*
X85631067Y-75068617D01*
X85411788Y-75025000D01*
X85188212Y-75025000D01*
X84968933Y-75068617D01*
X84762376Y-75154176D01*
X84576480Y-75278388D01*
X84418388Y-75436480D01*
X84294176Y-75622376D01*
X84208617Y-75828933D01*
X84165000Y-76048212D01*
X79490000Y-76048212D01*
X79490000Y-71648212D01*
X84165000Y-71648212D01*
X84165000Y-71871788D01*
X84208617Y-72091067D01*
X84294176Y-72297624D01*
X84418388Y-72483520D01*
X84576480Y-72641612D01*
X84762376Y-72765824D01*
X84968933Y-72851383D01*
X85188212Y-72895000D01*
X85411788Y-72895000D01*
X85631067Y-72851383D01*
X85837624Y-72765824D01*
X86023520Y-72641612D01*
X86181612Y-72483520D01*
X86305824Y-72297624D01*
X86391383Y-72091067D01*
X86435000Y-71871788D01*
X86435000Y-71648212D01*
X86391383Y-71428933D01*
X86305824Y-71222376D01*
X86181612Y-71036480D01*
X86023520Y-70878388D01*
X85837624Y-70754176D01*
X85631067Y-70668617D01*
X85411788Y-70625000D01*
X85188212Y-70625000D01*
X84968933Y-70668617D01*
X84762376Y-70754176D01*
X84576480Y-70878388D01*
X84418388Y-71036480D01*
X84294176Y-71222376D01*
X84208617Y-71428933D01*
X84165000Y-71648212D01*
X79490000Y-71648212D01*
X79490000Y-66588212D01*
X91155000Y-66588212D01*
X91155000Y-66811788D01*
X91198617Y-67031067D01*
X91284176Y-67237624D01*
X91408388Y-67423520D01*
X91505000Y-67520132D01*
X91505001Y-74801437D01*
X91501203Y-74840000D01*
X91516359Y-74993886D01*
X91561246Y-75141859D01*
X91567830Y-75154176D01*
X91634139Y-75278233D01*
X91657899Y-75307184D01*
X91707655Y-75367812D01*
X91707659Y-75367816D01*
X91732237Y-75397764D01*
X91762185Y-75422342D01*
X92647653Y-76307810D01*
X92672236Y-76337764D01*
X92791767Y-76435862D01*
X92918348Y-76503520D01*
X92928140Y-76508754D01*
X93076113Y-76553642D01*
X93151026Y-76561020D01*
X93191439Y-76565000D01*
X93191444Y-76565000D01*
X93230000Y-76568797D01*
X93268556Y-76565000D01*
X93719868Y-76565000D01*
X93816480Y-76661612D01*
X94002376Y-76785824D01*
X94208933Y-76871383D01*
X94428212Y-76915000D01*
X94651788Y-76915000D01*
X94871067Y-76871383D01*
X95077624Y-76785824D01*
X95263520Y-76661612D01*
X95421612Y-76503520D01*
X95545824Y-76317624D01*
X95631383Y-76111067D01*
X95675000Y-75891788D01*
X95675000Y-75668212D01*
X95631383Y-75448933D01*
X95545824Y-75242376D01*
X95421612Y-75056480D01*
X95263520Y-74898388D01*
X95077624Y-74774176D01*
X94871067Y-74688617D01*
X94705000Y-74655584D01*
X94705000Y-74478212D01*
X94661383Y-74258933D01*
X94575824Y-74052376D01*
X94451612Y-73866480D01*
X94355000Y-73769868D01*
X94355000Y-63300130D01*
X94451612Y-63203518D01*
X94575824Y-63017622D01*
X94661383Y-62811065D01*
X94705000Y-62591786D01*
X94705000Y-62368210D01*
X94661383Y-62148931D01*
X94575824Y-61942374D01*
X94451612Y-61756478D01*
X94293520Y-61598386D01*
X94107624Y-61474174D01*
X93901067Y-61388615D01*
X93681788Y-61344998D01*
X93458212Y-61344998D01*
X93238933Y-61388615D01*
X93032376Y-61474174D01*
X92846480Y-61598386D01*
X92688388Y-61756478D01*
X92564176Y-61942374D01*
X92478617Y-62148931D01*
X92435000Y-62368210D01*
X92435000Y-62591786D01*
X92478617Y-62811065D01*
X92564176Y-63017622D01*
X92688388Y-63203518D01*
X92785001Y-63300131D01*
X92785001Y-65676521D01*
X92621067Y-65608617D01*
X92401788Y-65565000D01*
X92178212Y-65565000D01*
X91958933Y-65608617D01*
X91752376Y-65694176D01*
X91566480Y-65818388D01*
X91408388Y-65976480D01*
X91284176Y-66162376D01*
X91198617Y-66368933D01*
X91155000Y-66588212D01*
X79490000Y-66588212D01*
X79490000Y-58392419D01*
X79493193Y-58360000D01*
X79492894Y-58356965D01*
X79561173Y-57591917D01*
X79764656Y-56848109D01*
X80096638Y-56152095D01*
X80546626Y-55525870D01*
X81100403Y-54989223D01*
X81740451Y-54559129D01*
X82446553Y-54249171D01*
X83201457Y-54067935D01*
X83854207Y-54020000D01*
X143545510Y-54020000D01*
X144870000Y-55422402D01*
G37*
X144870000Y-55422402D02*
X144870001Y-56127581D01*
X144870000Y-60192418D01*
X144870001Y-60192428D01*
X144870000Y-71527591D01*
X144866808Y-71560000D01*
X144870000Y-71592409D01*
X144870000Y-71592418D01*
X144879550Y-71689382D01*
X144917290Y-71813792D01*
X144978575Y-71928450D01*
X145021869Y-71981203D01*
X145061052Y-72028948D01*
X145086236Y-72049616D01*
X147470001Y-74433381D01*
X147470001Y-77374869D01*
X147313520Y-77218388D01*
X147127624Y-77094176D01*
X146921067Y-77008617D01*
X146707769Y-76966190D01*
X134246534Y-64504956D01*
X134218817Y-64471183D01*
X134084059Y-64360589D01*
X133930313Y-64278411D01*
X133763490Y-64227805D01*
X133633477Y-64215000D01*
X133633469Y-64215000D01*
X133590000Y-64210719D01*
X133546531Y-64215000D01*
X104706579Y-64215000D01*
X103228230Y-62736652D01*
X103473158Y-62687932D01*
X103743411Y-62575990D01*
X103986632Y-62413475D01*
X104193475Y-62206632D01*
X104315195Y-62024466D01*
X104384822Y-62141355D01*
X104579731Y-62357588D01*
X104813080Y-62531641D01*
X105075901Y-62656825D01*
X105223110Y-62701476D01*
X105453000Y-62580155D01*
X105453000Y-61387000D01*
X105433000Y-61387000D01*
X105433000Y-61133000D01*
X105453000Y-61133000D01*
X105453000Y-59939845D01*
X105223110Y-59818524D01*
X105075901Y-59863175D01*
X104813080Y-59988359D01*
X104579731Y-60162412D01*
X104384822Y-60378645D01*
X104315195Y-60495534D01*
X104193475Y-60313368D01*
X104175000Y-60294893D01*
X104175000Y-57365107D01*
X104193475Y-57346632D01*
X104315195Y-57164466D01*
X104384822Y-57281355D01*
X104579731Y-57497588D01*
X104813080Y-57671641D01*
X105075901Y-57796825D01*
X105223110Y-57841476D01*
X105453000Y-57720155D01*
X105453000Y-56527000D01*
X105433000Y-56527000D01*
X105433000Y-56273000D01*
X105453000Y-56273000D01*
X105453000Y-55079845D01*
X105707000Y-55079845D01*
X105707000Y-56273000D01*
X105727000Y-56273000D01*
X105727000Y-56527000D01*
X105707000Y-56527000D01*
X105707000Y-57720155D01*
X105936890Y-57841476D01*
X106084099Y-57796825D01*
X106346920Y-57671641D01*
X106580269Y-57497588D01*
X106775178Y-57281355D01*
X106844805Y-57164466D01*
X106966525Y-57346632D01*
X107173368Y-57553475D01*
X107235000Y-57594656D01*
X107235001Y-60065343D01*
X107173368Y-60106525D01*
X106966525Y-60313368D01*
X106844805Y-60495534D01*
X106775178Y-60378645D01*
X106580269Y-60162412D01*
X106346920Y-59988359D01*
X106084099Y-59863175D01*
X105936890Y-59818524D01*
X105707000Y-59939845D01*
X105707000Y-61133000D01*
X105727000Y-61133000D01*
X105727000Y-61387000D01*
X105707000Y-61387000D01*
X105707000Y-62580155D01*
X105936890Y-62701476D01*
X106084099Y-62656825D01*
X106346920Y-62531641D01*
X106580269Y-62357588D01*
X106775178Y-62141355D01*
X106844805Y-62024466D01*
X106966525Y-62206632D01*
X107173368Y-62413475D01*
X107416589Y-62575990D01*
X107686842Y-62687932D01*
X107973740Y-62745000D01*
X108266260Y-62745000D01*
X108553158Y-62687932D01*
X108823411Y-62575990D01*
X109066632Y-62413475D01*
X109273475Y-62206632D01*
X109390000Y-62032240D01*
X109506525Y-62206632D01*
X109713368Y-62413475D01*
X109956589Y-62575990D01*
X110226842Y-62687932D01*
X110513740Y-62745000D01*
X110806260Y-62745000D01*
X111093158Y-62687932D01*
X111363411Y-62575990D01*
X111606632Y-62413475D01*
X111813475Y-62206632D01*
X111930000Y-62032240D01*
X112046525Y-62206632D01*
X112253368Y-62413475D01*
X112496589Y-62575990D01*
X112766842Y-62687932D01*
X113053740Y-62745000D01*
X113346260Y-62745000D01*
X113633158Y-62687932D01*
X113903411Y-62575990D01*
X114146632Y-62413475D01*
X114353475Y-62206632D01*
X114470000Y-62032240D01*
X114586525Y-62206632D01*
X114793368Y-62413475D01*
X115036589Y-62575990D01*
X115306842Y-62687932D01*
X115593740Y-62745000D01*
X115886260Y-62745000D01*
X116173158Y-62687932D01*
X116443411Y-62575990D01*
X116686632Y-62413475D01*
X116893475Y-62206632D01*
X117010000Y-62032240D01*
X117126525Y-62206632D01*
X117333368Y-62413475D01*
X117576589Y-62575990D01*
X117846842Y-62687932D01*
X118133740Y-62745000D01*
X118426260Y-62745000D01*
X118713158Y-62687932D01*
X118983411Y-62575990D01*
X119226632Y-62413475D01*
X119433475Y-62206632D01*
X119550000Y-62032240D01*
X119666525Y-62206632D01*
X119873368Y-62413475D01*
X120116589Y-62575990D01*
X120386842Y-62687932D01*
X120673740Y-62745000D01*
X120966260Y-62745000D01*
X121253158Y-62687932D01*
X121523411Y-62575990D01*
X121766632Y-62413475D01*
X121973475Y-62206632D01*
X122135990Y-61963411D01*
X122247932Y-61693158D01*
X122305000Y-61406260D01*
X122305000Y-61113740D01*
X122247932Y-60826842D01*
X122135990Y-60556589D01*
X121973475Y-60313368D01*
X121766632Y-60106525D01*
X121705000Y-60065344D01*
X121705000Y-57594656D01*
X121766632Y-57553475D01*
X121973475Y-57346632D01*
X122135990Y-57103411D01*
X122247932Y-56833158D01*
X122305000Y-56546260D01*
X122305000Y-56253740D01*
X122247932Y-55966842D01*
X122135990Y-55696589D01*
X122038043Y-55550000D01*
X123391928Y-55550000D01*
X123391928Y-57250000D01*
X123404188Y-57374482D01*
X123440498Y-57494180D01*
X123499463Y-57604494D01*
X123578815Y-57701185D01*
X123675506Y-57780537D01*
X123785820Y-57839502D01*
X123905518Y-57875812D01*
X123995000Y-57884625D01*
X123995001Y-59775375D01*
X123905518Y-59784188D01*
X123785820Y-59820498D01*
X123675506Y-59879463D01*
X123578815Y-59958815D01*
X123499463Y-60055506D01*
X123440498Y-60165820D01*
X123404188Y-60285518D01*
X123391928Y-60410000D01*
X123391928Y-62110000D01*
X123404188Y-62234482D01*
X123440498Y-62354180D01*
X123499463Y-62464494D01*
X123578815Y-62561185D01*
X123675506Y-62640537D01*
X123785820Y-62699502D01*
X123905518Y-62735812D01*
X124030000Y-62748072D01*
X125730000Y-62748072D01*
X125854482Y-62735812D01*
X125974180Y-62699502D01*
X126084494Y-62640537D01*
X126181185Y-62561185D01*
X126260537Y-62464494D01*
X126319502Y-62354180D01*
X126341513Y-62281620D01*
X126473368Y-62413475D01*
X126716589Y-62575990D01*
X126986842Y-62687932D01*
X127273740Y-62745000D01*
X127566260Y-62745000D01*
X127853158Y-62687932D01*
X128123411Y-62575990D01*
X128366632Y-62413475D01*
X128573475Y-62206632D01*
X128690000Y-62032240D01*
X128806525Y-62206632D01*
X129013368Y-62413475D01*
X129256589Y-62575990D01*
X129526842Y-62687932D01*
X129813740Y-62745000D01*
X130106260Y-62745000D01*
X130393158Y-62687932D01*
X130663411Y-62575990D01*
X130906632Y-62413475D01*
X131113475Y-62206632D01*
X131230000Y-62032240D01*
X131346525Y-62206632D01*
X131553368Y-62413475D01*
X131796589Y-62575990D01*
X132066842Y-62687932D01*
X132353740Y-62745000D01*
X132646260Y-62745000D01*
X132933158Y-62687932D01*
X133203411Y-62575990D01*
X133446632Y-62413475D01*
X133653475Y-62206632D01*
X133770000Y-62032240D01*
X133886525Y-62206632D01*
X134093368Y-62413475D01*
X134336589Y-62575990D01*
X134606842Y-62687932D01*
X134893740Y-62745000D01*
X135186260Y-62745000D01*
X135473158Y-62687932D01*
X135743411Y-62575990D01*
X135986632Y-62413475D01*
X136193475Y-62206632D01*
X136310000Y-62032240D01*
X136426525Y-62206632D01*
X136633368Y-62413475D01*
X136876589Y-62575990D01*
X137146842Y-62687932D01*
X137433740Y-62745000D01*
X137726260Y-62745000D01*
X138013158Y-62687932D01*
X138283411Y-62575990D01*
X138526632Y-62413475D01*
X138733475Y-62206632D01*
X138850000Y-62032240D01*
X138966525Y-62206632D01*
X139173368Y-62413475D01*
X139416589Y-62575990D01*
X139686842Y-62687932D01*
X139973740Y-62745000D01*
X140266260Y-62745000D01*
X140553158Y-62687932D01*
X140823411Y-62575990D01*
X141066632Y-62413475D01*
X141273475Y-62206632D01*
X141390000Y-62032240D01*
X141506525Y-62206632D01*
X141713368Y-62413475D01*
X141956589Y-62575990D01*
X142226842Y-62687932D01*
X142513740Y-62745000D01*
X142806260Y-62745000D01*
X143093158Y-62687932D01*
X143363411Y-62575990D01*
X143606632Y-62413475D01*
X143813475Y-62206632D01*
X143975990Y-61963411D01*
X144087932Y-61693158D01*
X144145000Y-61406260D01*
X144145000Y-61113740D01*
X144087932Y-60826842D01*
X143975990Y-60556589D01*
X143813475Y-60313368D01*
X143606632Y-60106525D01*
X143545000Y-60065344D01*
X143545000Y-57594656D01*
X143606632Y-57553475D01*
X143813475Y-57346632D01*
X143975990Y-57103411D01*
X144087932Y-56833158D01*
X144145000Y-56546260D01*
X144145000Y-56253740D01*
X144087932Y-55966842D01*
X143975990Y-55696589D01*
X143813475Y-55453368D01*
X143606632Y-55246525D01*
X143363411Y-55084010D01*
X143093158Y-54972068D01*
X142806260Y-54915000D01*
X142513740Y-54915000D01*
X142226842Y-54972068D01*
X141956589Y-55084010D01*
X141713368Y-55246525D01*
X141506525Y-55453368D01*
X141390000Y-55627760D01*
X141273475Y-55453368D01*
X141066632Y-55246525D01*
X140823411Y-55084010D01*
X140553158Y-54972068D01*
X140266260Y-54915000D01*
X139973740Y-54915000D01*
X139686842Y-54972068D01*
X139416589Y-55084010D01*
X139173368Y-55246525D01*
X138966525Y-55453368D01*
X138850000Y-55627760D01*
X138733475Y-55453368D01*
X138526632Y-55246525D01*
X138283411Y-55084010D01*
X138013158Y-54972068D01*
X137726260Y-54915000D01*
X137433740Y-54915000D01*
X137146842Y-54972068D01*
X136876589Y-55084010D01*
X136633368Y-55246525D01*
X136426525Y-55453368D01*
X136310000Y-55627760D01*
X136193475Y-55453368D01*
X135986632Y-55246525D01*
X135743411Y-55084010D01*
X135473158Y-54972068D01*
X135186260Y-54915000D01*
X134893740Y-54915000D01*
X134606842Y-54972068D01*
X134336589Y-55084010D01*
X134093368Y-55246525D01*
X133886525Y-55453368D01*
X133770000Y-55627760D01*
X133653475Y-55453368D01*
X133446632Y-55246525D01*
X133203411Y-55084010D01*
X132933158Y-54972068D01*
X132646260Y-54915000D01*
X132353740Y-54915000D01*
X132066842Y-54972068D01*
X131796589Y-55084010D01*
X131553368Y-55246525D01*
X131346525Y-55453368D01*
X131230000Y-55627760D01*
X131113475Y-55453368D01*
X130906632Y-55246525D01*
X130663411Y-55084010D01*
X130393158Y-54972068D01*
X130106260Y-54915000D01*
X129813740Y-54915000D01*
X129526842Y-54972068D01*
X129256589Y-55084010D01*
X129013368Y-55246525D01*
X128806525Y-55453368D01*
X128690000Y-55627760D01*
X128573475Y-55453368D01*
X128366632Y-55246525D01*
X128123411Y-55084010D01*
X127853158Y-54972068D01*
X127566260Y-54915000D01*
X127273740Y-54915000D01*
X126986842Y-54972068D01*
X126716589Y-55084010D01*
X126473368Y-55246525D01*
X126341513Y-55378380D01*
X126319502Y-55305820D01*
X126260537Y-55195506D01*
X126181185Y-55098815D01*
X126084494Y-55019463D01*
X125974180Y-54960498D01*
X125854482Y-54924188D01*
X125730000Y-54911928D01*
X124030000Y-54911928D01*
X123905518Y-54924188D01*
X123785820Y-54960498D01*
X123675506Y-55019463D01*
X123578815Y-55098815D01*
X123499463Y-55195506D01*
X123440498Y-55305820D01*
X123404188Y-55425518D01*
X123391928Y-55550000D01*
X122038043Y-55550000D01*
X121973475Y-55453368D01*
X121766632Y-55246525D01*
X121523411Y-55084010D01*
X121253158Y-54972068D01*
X120966260Y-54915000D01*
X120673740Y-54915000D01*
X120386842Y-54972068D01*
X120116589Y-55084010D01*
X119873368Y-55246525D01*
X119666525Y-55453368D01*
X119550000Y-55627760D01*
X119433475Y-55453368D01*
X119226632Y-55246525D01*
X118983411Y-55084010D01*
X118713158Y-54972068D01*
X118426260Y-54915000D01*
X118133740Y-54915000D01*
X117846842Y-54972068D01*
X117576589Y-55084010D01*
X117333368Y-55246525D01*
X117126525Y-55453368D01*
X117010000Y-55627760D01*
X116893475Y-55453368D01*
X116686632Y-55246525D01*
X116443411Y-55084010D01*
X116173158Y-54972068D01*
X115886260Y-54915000D01*
X115593740Y-54915000D01*
X115306842Y-54972068D01*
X115036589Y-55084010D01*
X114793368Y-55246525D01*
X114586525Y-55453368D01*
X114470000Y-55627760D01*
X114353475Y-55453368D01*
X114146632Y-55246525D01*
X113903411Y-55084010D01*
X113633158Y-54972068D01*
X113346260Y-54915000D01*
X113053740Y-54915000D01*
X112766842Y-54972068D01*
X112496589Y-55084010D01*
X112253368Y-55246525D01*
X112046525Y-55453368D01*
X111930000Y-55627760D01*
X111813475Y-55453368D01*
X111606632Y-55246525D01*
X111363411Y-55084010D01*
X111093158Y-54972068D01*
X110806260Y-54915000D01*
X110513740Y-54915000D01*
X110226842Y-54972068D01*
X109956589Y-55084010D01*
X109713368Y-55246525D01*
X109506525Y-55453368D01*
X109390000Y-55627760D01*
X109273475Y-55453368D01*
X109066632Y-55246525D01*
X108823411Y-55084010D01*
X108553158Y-54972068D01*
X108266260Y-54915000D01*
X107973740Y-54915000D01*
X107686842Y-54972068D01*
X107416589Y-55084010D01*
X107173368Y-55246525D01*
X106966525Y-55453368D01*
X106844805Y-55635534D01*
X106775178Y-55518645D01*
X106580269Y-55302412D01*
X106346920Y-55128359D01*
X106084099Y-55003175D01*
X105936890Y-54958524D01*
X105707000Y-55079845D01*
X105453000Y-55079845D01*
X105223110Y-54958524D01*
X105075901Y-55003175D01*
X104813080Y-55128359D01*
X104579731Y-55302412D01*
X104384822Y-55518645D01*
X104315195Y-55635534D01*
X104193475Y-55453368D01*
X103986632Y-55246525D01*
X103743411Y-55084010D01*
X103473158Y-54972068D01*
X103186260Y-54915000D01*
X102893740Y-54915000D01*
X102606842Y-54972068D01*
X102336589Y-55084010D01*
X102093368Y-55246525D01*
X101886525Y-55453368D01*
X101770000Y-55627760D01*
X101653475Y-55453368D01*
X101446632Y-55246525D01*
X101203411Y-55084010D01*
X100933158Y-54972068D01*
X100646260Y-54915000D01*
X100353740Y-54915000D01*
X100066842Y-54972068D01*
X99796589Y-55084010D01*
X99553368Y-55246525D01*
X99421513Y-55378380D01*
X99399502Y-55305820D01*
X99340537Y-55195506D01*
X99261185Y-55098815D01*
X99164494Y-55019463D01*
X99054180Y-54960498D01*
X98934482Y-54924188D01*
X98810000Y-54911928D01*
X97110000Y-54911928D01*
X96985518Y-54924188D01*
X96865820Y-54960498D01*
X96755506Y-55019463D01*
X96658815Y-55098815D01*
X96579463Y-55195506D01*
X96520498Y-55305820D01*
X96484188Y-55425518D01*
X96471928Y-55550000D01*
X96471928Y-57250000D01*
X96484188Y-57374482D01*
X96520498Y-57494180D01*
X96579463Y-57604494D01*
X96658815Y-57701185D01*
X96755506Y-57780537D01*
X96865820Y-57839502D01*
X96985518Y-57875812D01*
X97075001Y-57884625D01*
X97075000Y-59775375D01*
X96985518Y-59784188D01*
X96865820Y-59820498D01*
X96755506Y-59879463D01*
X96658815Y-59958815D01*
X96579463Y-60055506D01*
X96520498Y-60165820D01*
X96484188Y-60285518D01*
X96471928Y-60410000D01*
X96471928Y-62110000D01*
X96484188Y-62234482D01*
X96520498Y-62354180D01*
X96579463Y-62464494D01*
X96658815Y-62561185D01*
X96755506Y-62640537D01*
X96865820Y-62699502D01*
X96985518Y-62735812D01*
X97110000Y-62748072D01*
X98196494Y-62748072D01*
X102643470Y-67195049D01*
X102671183Y-67228817D01*
X102704951Y-67256530D01*
X102704953Y-67256532D01*
X102776452Y-67315210D01*
X102805941Y-67339411D01*
X102959687Y-67421589D01*
X103126510Y-67472195D01*
X103256523Y-67485000D01*
X103256533Y-67485000D01*
X103299999Y-67489281D01*
X103343465Y-67485000D01*
X132833422Y-67485000D01*
X145456190Y-80107769D01*
X145498617Y-80321067D01*
X145584176Y-80527624D01*
X145708388Y-80713520D01*
X145866480Y-80871612D01*
X146052376Y-80995824D01*
X146258933Y-81081383D01*
X146478212Y-81125000D01*
X146701788Y-81125000D01*
X146921067Y-81081383D01*
X147127624Y-80995824D01*
X147313520Y-80871612D01*
X147470001Y-80715131D01*
X147470000Y-106927581D01*
X147470000Y-106927582D01*
X147470001Y-110686619D01*
X145086232Y-113070388D01*
X145061053Y-113091052D01*
X145040389Y-113116231D01*
X145040386Y-113116234D01*
X144978575Y-113191550D01*
X144917290Y-113306208D01*
X144916302Y-113309466D01*
X144884562Y-113414100D01*
X144879551Y-113430618D01*
X144866808Y-113560000D01*
X144870001Y-113592419D01*
X144870000Y-115327721D01*
X144860420Y-115425424D01*
X144841420Y-115488357D01*
X144810554Y-115546406D01*
X144769011Y-115597343D01*
X144718356Y-115639248D01*
X144660529Y-115670515D01*
X144597728Y-115689956D01*
X144502165Y-115700000D01*
X143938259Y-115700000D01*
X143961185Y-115681185D01*
X144040537Y-115584494D01*
X144099502Y-115474180D01*
X144135812Y-115354482D01*
X144148072Y-115230000D01*
X144148072Y-113530000D01*
X144135812Y-113405518D01*
X144099502Y-113285820D01*
X144040537Y-113175506D01*
X143961185Y-113078815D01*
X143864494Y-112999463D01*
X143754180Y-112940498D01*
X143634482Y-112904188D01*
X143545000Y-112895375D01*
X143545000Y-111004625D01*
X143634482Y-110995812D01*
X143754180Y-110959502D01*
X143864494Y-110900537D01*
X143961185Y-110821185D01*
X144040537Y-110724494D01*
X144099502Y-110614180D01*
X144135812Y-110494482D01*
X144148072Y-110370000D01*
X144148072Y-108670000D01*
X144135812Y-108545518D01*
X144099502Y-108425820D01*
X144040537Y-108315506D01*
X143961185Y-108218815D01*
X143864494Y-108139463D01*
X143754180Y-108080498D01*
X143634482Y-108044188D01*
X143510000Y-108031928D01*
X141810000Y-108031928D01*
X141685518Y-108044188D01*
X141565820Y-108080498D01*
X141455506Y-108139463D01*
X141358815Y-108218815D01*
X141279463Y-108315506D01*
X141220498Y-108425820D01*
X141198487Y-108498380D01*
X141066632Y-108366525D01*
X140823411Y-108204010D01*
X140553158Y-108092068D01*
X140266260Y-108035000D01*
X139973740Y-108035000D01*
X139686842Y-108092068D01*
X139416589Y-108204010D01*
X139173368Y-108366525D01*
X138966525Y-108573368D01*
X138850000Y-108747760D01*
X138733475Y-108573368D01*
X138526632Y-108366525D01*
X138283411Y-108204010D01*
X138013158Y-108092068D01*
X137726260Y-108035000D01*
X137433740Y-108035000D01*
X137146842Y-108092068D01*
X136876589Y-108204010D01*
X136633368Y-108366525D01*
X136426525Y-108573368D01*
X136310000Y-108747760D01*
X136193475Y-108573368D01*
X135986632Y-108366525D01*
X135743411Y-108204010D01*
X135473158Y-108092068D01*
X135186260Y-108035000D01*
X134893740Y-108035000D01*
X134606842Y-108092068D01*
X134336589Y-108204010D01*
X134093368Y-108366525D01*
X133886525Y-108573368D01*
X133770000Y-108747760D01*
X133653475Y-108573368D01*
X133446632Y-108366525D01*
X133203411Y-108204010D01*
X132933158Y-108092068D01*
X132646260Y-108035000D01*
X132353740Y-108035000D01*
X132066842Y-108092068D01*
X131796589Y-108204010D01*
X131553368Y-108366525D01*
X131346525Y-108573368D01*
X131230000Y-108747760D01*
X131113475Y-108573368D01*
X130906632Y-108366525D01*
X130663411Y-108204010D01*
X130393158Y-108092068D01*
X130106260Y-108035000D01*
X129813740Y-108035000D01*
X129526842Y-108092068D01*
X129256589Y-108204010D01*
X129013368Y-108366525D01*
X128806525Y-108573368D01*
X128644010Y-108816589D01*
X128532068Y-109086842D01*
X128475000Y-109373740D01*
X128475000Y-109666260D01*
X128532068Y-109953158D01*
X128644010Y-110223411D01*
X128806525Y-110466632D01*
X129013368Y-110673475D01*
X129075001Y-110714657D01*
X129075000Y-113185344D01*
X129013368Y-113226525D01*
X128806525Y-113433368D01*
X128644010Y-113676589D01*
X128532068Y-113946842D01*
X128475000Y-114233740D01*
X128475000Y-114526260D01*
X128532068Y-114813158D01*
X128644010Y-115083411D01*
X128806525Y-115326632D01*
X129013368Y-115533475D01*
X129256589Y-115695990D01*
X129266270Y-115700000D01*
X126158259Y-115700000D01*
X126181185Y-115681185D01*
X126260537Y-115584494D01*
X126319502Y-115474180D01*
X126355812Y-115354482D01*
X126368072Y-115230000D01*
X126368072Y-113530000D01*
X126355812Y-113405518D01*
X126319502Y-113285820D01*
X126260537Y-113175506D01*
X126181185Y-113078815D01*
X126084494Y-112999463D01*
X125974180Y-112940498D01*
X125854482Y-112904188D01*
X125730000Y-112891928D01*
X124030000Y-112891928D01*
X123905518Y-112904188D01*
X123785820Y-112940498D01*
X123675506Y-112999463D01*
X123578815Y-113078815D01*
X123499463Y-113175506D01*
X123440498Y-113285820D01*
X123416034Y-113366466D01*
X123340269Y-113282412D01*
X123106920Y-113108359D01*
X122844099Y-112983175D01*
X122696890Y-112938524D01*
X122467000Y-113059845D01*
X122467000Y-114253000D01*
X122487000Y-114253000D01*
X122487000Y-114507000D01*
X122467000Y-114507000D01*
X122467000Y-114527000D01*
X122213000Y-114527000D01*
X122213000Y-114507000D01*
X119927000Y-114507000D01*
X119927000Y-114527000D01*
X119673000Y-114527000D01*
X119673000Y-114507000D01*
X119653000Y-114507000D01*
X119653000Y-114253000D01*
X119673000Y-114253000D01*
X119673000Y-113059845D01*
X119927000Y-113059845D01*
X119927000Y-114253000D01*
X122213000Y-114253000D01*
X122213000Y-113059845D01*
X121983110Y-112938524D01*
X121835901Y-112983175D01*
X121573080Y-113108359D01*
X121339731Y-113282412D01*
X121144822Y-113498645D01*
X121070000Y-113624255D01*
X120995178Y-113498645D01*
X120800269Y-113282412D01*
X120566920Y-113108359D01*
X120304099Y-112983175D01*
X120156890Y-112938524D01*
X119927000Y-113059845D01*
X119673000Y-113059845D01*
X119443110Y-112938524D01*
X119295901Y-112983175D01*
X119033080Y-113108359D01*
X118799731Y-113282412D01*
X118604822Y-113498645D01*
X118535195Y-113615534D01*
X118413475Y-113433368D01*
X118395000Y-113414893D01*
X118395000Y-110485107D01*
X118413475Y-110466632D01*
X118535195Y-110284466D01*
X118604822Y-110401355D01*
X118799731Y-110617588D01*
X119033080Y-110791641D01*
X119295901Y-110916825D01*
X119443110Y-110961476D01*
X119673000Y-110840155D01*
X119673000Y-109647000D01*
X119927000Y-109647000D01*
X119927000Y-110840155D01*
X120156890Y-110961476D01*
X120304099Y-110916825D01*
X120566920Y-110791641D01*
X120800269Y-110617588D01*
X120995178Y-110401355D01*
X121070000Y-110275745D01*
X121144822Y-110401355D01*
X121339731Y-110617588D01*
X121573080Y-110791641D01*
X121835901Y-110916825D01*
X121983110Y-110961476D01*
X122213000Y-110840155D01*
X122213000Y-109647000D01*
X119927000Y-109647000D01*
X119673000Y-109647000D01*
X119653000Y-109647000D01*
X119653000Y-109393000D01*
X119673000Y-109393000D01*
X119673000Y-108199845D01*
X119927000Y-108199845D01*
X119927000Y-109393000D01*
X122213000Y-109393000D01*
X122213000Y-108199845D01*
X122467000Y-108199845D01*
X122467000Y-109393000D01*
X122487000Y-109393000D01*
X122487000Y-109647000D01*
X122467000Y-109647000D01*
X122467000Y-110840155D01*
X122696890Y-110961476D01*
X122844099Y-110916825D01*
X123106920Y-110791641D01*
X123340269Y-110617588D01*
X123416034Y-110533534D01*
X123440498Y-110614180D01*
X123499463Y-110724494D01*
X123578815Y-110821185D01*
X123675506Y-110900537D01*
X123785820Y-110959502D01*
X123905518Y-110995812D01*
X124030000Y-111008072D01*
X125730000Y-111008072D01*
X125854482Y-110995812D01*
X125974180Y-110959502D01*
X126084494Y-110900537D01*
X126181185Y-110821185D01*
X126260537Y-110724494D01*
X126319502Y-110614180D01*
X126355812Y-110494482D01*
X126368072Y-110370000D01*
X126368072Y-108670000D01*
X126355812Y-108545518D01*
X126319502Y-108425820D01*
X126260537Y-108315506D01*
X126181185Y-108218815D01*
X126084494Y-108139463D01*
X125974180Y-108080498D01*
X125854482Y-108044188D01*
X125730000Y-108031928D01*
X124030000Y-108031928D01*
X123905518Y-108044188D01*
X123785820Y-108080498D01*
X123675506Y-108139463D01*
X123578815Y-108218815D01*
X123499463Y-108315506D01*
X123440498Y-108425820D01*
X123416034Y-108506466D01*
X123340269Y-108422412D01*
X123106920Y-108248359D01*
X122844099Y-108123175D01*
X122696890Y-108078524D01*
X122467000Y-108199845D01*
X122213000Y-108199845D01*
X121983110Y-108078524D01*
X121835901Y-108123175D01*
X121573080Y-108248359D01*
X121339731Y-108422412D01*
X121144822Y-108638645D01*
X121070000Y-108764255D01*
X120995178Y-108638645D01*
X120800269Y-108422412D01*
X120566920Y-108248359D01*
X120304099Y-108123175D01*
X120156890Y-108078524D01*
X119927000Y-108199845D01*
X119673000Y-108199845D01*
X119443110Y-108078524D01*
X119295901Y-108123175D01*
X119033080Y-108248359D01*
X118799731Y-108422412D01*
X118604822Y-108638645D01*
X118535195Y-108755534D01*
X118413475Y-108573368D01*
X118206632Y-108366525D01*
X117963411Y-108204010D01*
X117693158Y-108092068D01*
X117406260Y-108035000D01*
X117113740Y-108035000D01*
X116826842Y-108092068D01*
X116556589Y-108204010D01*
X116313368Y-108366525D01*
X116106525Y-108573368D01*
X115990000Y-108747760D01*
X115873475Y-108573368D01*
X115666632Y-108366525D01*
X115423411Y-108204010D01*
X115153158Y-108092068D01*
X114866260Y-108035000D01*
X114573740Y-108035000D01*
X114286842Y-108092068D01*
X114016589Y-108204010D01*
X113773368Y-108366525D01*
X113566525Y-108573368D01*
X113450000Y-108747760D01*
X113333475Y-108573368D01*
X113254802Y-108494695D01*
X115554498Y-106195000D01*
X143916531Y-106195000D01*
X143960000Y-106199281D01*
X144003469Y-106195000D01*
X144003477Y-106195000D01*
X144133490Y-106182195D01*
X144300313Y-106131589D01*
X144454059Y-106049411D01*
X144588817Y-105938817D01*
X144616534Y-105905044D01*
X146425050Y-104096529D01*
X146458817Y-104068817D01*
X146569411Y-103934059D01*
X146651589Y-103780313D01*
X146702195Y-103613490D01*
X146715000Y-103483477D01*
X146715000Y-103483467D01*
X146719281Y-103440001D01*
X146715000Y-103396535D01*
X146715000Y-97213469D01*
X146719281Y-97170000D01*
X146715000Y-97126531D01*
X146715000Y-97126523D01*
X146702195Y-96996510D01*
X146651589Y-96829687D01*
X146569411Y-96675941D01*
X146458817Y-96541183D01*
X146425049Y-96513470D01*
X144098072Y-94186494D01*
X144098072Y-93200000D01*
X144085812Y-93075518D01*
X144049502Y-92955820D01*
X143990537Y-92845506D01*
X143911185Y-92748815D01*
X143814494Y-92669463D01*
X143704180Y-92610498D01*
X143584482Y-92574188D01*
X143460000Y-92561928D01*
X141860000Y-92561928D01*
X141735518Y-92574188D01*
X141615820Y-92610498D01*
X141505506Y-92669463D01*
X141408815Y-92748815D01*
X141329463Y-92845506D01*
X141270498Y-92955820D01*
X141234188Y-93075518D01*
X141233357Y-93083961D01*
X141034759Y-92885363D01*
X140799727Y-92728320D01*
X140538574Y-92620147D01*
X140261335Y-92565000D01*
X139978665Y-92565000D01*
X139825603Y-92595446D01*
X136919620Y-89689463D01*
X137111068Y-89651382D01*
X137317625Y-89565823D01*
X137503521Y-89441611D01*
X137661613Y-89283519D01*
X137785825Y-89097623D01*
X137871384Y-88891066D01*
X137915001Y-88671787D01*
X137915001Y-88448211D01*
X137871384Y-88228932D01*
X137785825Y-88022375D01*
X137728745Y-87936948D01*
X137942297Y-87990823D01*
X138229521Y-88005417D01*
X138514074Y-87963697D01*
X138785020Y-87867265D01*
X138916337Y-87797073D01*
X138990946Y-87550551D01*
X138160000Y-86719605D01*
X138145858Y-86733748D01*
X137966253Y-86554143D01*
X137980395Y-86540000D01*
X138339605Y-86540000D01*
X139170551Y-87370946D01*
X139417073Y-87296337D01*
X139540473Y-87036561D01*
X139610823Y-86757703D01*
X139625417Y-86470479D01*
X139614527Y-86396203D01*
X141200000Y-86396203D01*
X141200000Y-86683797D01*
X141256107Y-86965866D01*
X141366165Y-87231569D01*
X141525944Y-87470696D01*
X141729304Y-87674056D01*
X141968431Y-87833835D01*
X142234134Y-87943893D01*
X142516203Y-88000000D01*
X142803797Y-88000000D01*
X143085866Y-87943893D01*
X143351569Y-87833835D01*
X143590696Y-87674056D01*
X143794056Y-87470696D01*
X143953835Y-87231569D01*
X144063893Y-86965866D01*
X144120000Y-86683797D01*
X144120000Y-86396203D01*
X144063893Y-86114134D01*
X143953835Y-85848431D01*
X143794056Y-85609304D01*
X143590696Y-85405944D01*
X143351569Y-85246165D01*
X143085866Y-85136107D01*
X142803797Y-85080000D01*
X142516203Y-85080000D01*
X142234134Y-85136107D01*
X141968431Y-85246165D01*
X141729304Y-85405944D01*
X141525944Y-85609304D01*
X141366165Y-85848431D01*
X141256107Y-86114134D01*
X141200000Y-86396203D01*
X139614527Y-86396203D01*
X139583697Y-86185926D01*
X139487265Y-85914980D01*
X139417073Y-85783663D01*
X139170551Y-85709054D01*
X138339605Y-86540000D01*
X137980395Y-86540000D01*
X137149449Y-85709054D01*
X136902927Y-85783663D01*
X136779527Y-86043439D01*
X136709177Y-86322297D01*
X136694583Y-86609521D01*
X136736303Y-86894074D01*
X136832735Y-87165020D01*
X136902927Y-87296337D01*
X137149447Y-87370945D01*
X137061613Y-87458779D01*
X136891789Y-87424999D01*
X136755159Y-87424999D01*
X134859609Y-85529449D01*
X137329054Y-85529449D01*
X138160000Y-86360395D01*
X138990946Y-85529449D01*
X138916337Y-85282927D01*
X138656561Y-85159527D01*
X138377703Y-85089177D01*
X138090479Y-85074583D01*
X137805926Y-85116303D01*
X137534980Y-85212735D01*
X137403663Y-85282927D01*
X137329054Y-85529449D01*
X134859609Y-85529449D01*
X130380711Y-81050551D01*
X137329054Y-81050551D01*
X137403663Y-81297073D01*
X137663439Y-81420473D01*
X137942297Y-81490823D01*
X138229521Y-81505417D01*
X138514074Y-81463697D01*
X138785020Y-81367265D01*
X138916337Y-81297073D01*
X138990946Y-81050551D01*
X138160000Y-80219605D01*
X137329054Y-81050551D01*
X130380711Y-81050551D01*
X129439681Y-80109521D01*
X136694583Y-80109521D01*
X136736303Y-80394074D01*
X136832735Y-80665020D01*
X136902927Y-80796337D01*
X137149449Y-80870946D01*
X137980395Y-80040000D01*
X138339605Y-80040000D01*
X139170551Y-80870946D01*
X139417073Y-80796337D01*
X139540473Y-80536561D01*
X139610823Y-80257703D01*
X139625417Y-79970479D01*
X139614527Y-79896203D01*
X141200000Y-79896203D01*
X141200000Y-80183797D01*
X141256107Y-80465866D01*
X141366165Y-80731569D01*
X141525944Y-80970696D01*
X141729304Y-81174056D01*
X141968431Y-81333835D01*
X142234134Y-81443893D01*
X142516203Y-81500000D01*
X142803797Y-81500000D01*
X143085866Y-81443893D01*
X143351569Y-81333835D01*
X143590696Y-81174056D01*
X143794056Y-80970696D01*
X143953835Y-80731569D01*
X144063893Y-80465866D01*
X144120000Y-80183797D01*
X144120000Y-79896203D01*
X144063893Y-79614134D01*
X143953835Y-79348431D01*
X143794056Y-79109304D01*
X143590696Y-78905944D01*
X143351569Y-78746165D01*
X143085866Y-78636107D01*
X142803797Y-78580000D01*
X142516203Y-78580000D01*
X142234134Y-78636107D01*
X141968431Y-78746165D01*
X141729304Y-78905944D01*
X141525944Y-79109304D01*
X141366165Y-79348431D01*
X141256107Y-79614134D01*
X141200000Y-79896203D01*
X139614527Y-79896203D01*
X139583697Y-79685926D01*
X139487265Y-79414980D01*
X139417073Y-79283663D01*
X139170551Y-79209054D01*
X138339605Y-80040000D01*
X137980395Y-80040000D01*
X137149449Y-79209054D01*
X136902927Y-79283663D01*
X136779527Y-79543439D01*
X136709177Y-79822297D01*
X136694583Y-80109521D01*
X129439681Y-80109521D01*
X128359609Y-79029449D01*
X137329054Y-79029449D01*
X138160000Y-79860395D01*
X138990946Y-79029449D01*
X138916337Y-78782927D01*
X138656561Y-78659527D01*
X138377703Y-78589177D01*
X138090479Y-78574583D01*
X137805926Y-78616303D01*
X137534980Y-78712735D01*
X137403663Y-78782927D01*
X137329054Y-79029449D01*
X128359609Y-79029449D01*
X117572349Y-68242190D01*
X117547766Y-68212236D01*
X117428235Y-68114138D01*
X117291862Y-68041246D01*
X117143889Y-67996359D01*
X117028563Y-67985000D01*
X117028555Y-67985000D01*
X116990002Y-67981203D01*
X116951449Y-67985000D01*
X109918552Y-67985000D01*
X109879999Y-67981203D01*
X109841446Y-67985000D01*
X109841439Y-67985000D01*
X109740490Y-67994943D01*
X109726112Y-67996359D01*
X109691672Y-68006806D01*
X109578140Y-68041246D01*
X109441767Y-68114138D01*
X109381559Y-68163550D01*
X109352187Y-68187655D01*
X109352184Y-68187658D01*
X109322236Y-68212236D01*
X109297658Y-68242184D01*
X107559684Y-69980159D01*
X107529736Y-70004737D01*
X107505158Y-70034685D01*
X107505154Y-70034689D01*
X107472189Y-70074857D01*
X107431638Y-70124268D01*
X107418746Y-70148388D01*
X107358745Y-70260642D01*
X107313858Y-70408615D01*
X107298702Y-70562501D01*
X107302500Y-70601064D01*
X107302499Y-72539454D01*
X107256433Y-72548617D01*
X107049876Y-72634176D01*
X106863980Y-72758388D01*
X106705888Y-72916480D01*
X106581676Y-73102376D01*
X106496117Y-73308933D01*
X106452500Y-73528212D01*
X106452500Y-73751788D01*
X106496117Y-73971067D01*
X106581676Y-74177624D01*
X106705888Y-74363520D01*
X106863980Y-74521612D01*
X107049876Y-74645824D01*
X107256433Y-74731383D01*
X107475712Y-74775000D01*
X107699288Y-74775000D01*
X107918567Y-74731383D01*
X108125124Y-74645824D01*
X108311020Y-74521612D01*
X108469112Y-74363520D01*
X108593324Y-74177624D01*
X108678883Y-73971067D01*
X108722500Y-73751788D01*
X108722500Y-73603653D01*
X108743361Y-73578234D01*
X108816253Y-73441861D01*
X108861140Y-73293888D01*
X108862551Y-73279560D01*
X108874176Y-73307624D01*
X108998388Y-73493520D01*
X109156480Y-73651612D01*
X109333660Y-73770000D01*
X109156480Y-73888388D01*
X108998388Y-74046480D01*
X108874176Y-74232376D01*
X108788617Y-74438933D01*
X108745000Y-74658212D01*
X108745000Y-74881788D01*
X108788617Y-75101067D01*
X108874176Y-75307624D01*
X108998388Y-75493520D01*
X109156480Y-75651612D01*
X109333660Y-75770000D01*
X109156480Y-75888388D01*
X108998388Y-76046480D01*
X108874176Y-76232376D01*
X108788617Y-76438933D01*
X108745000Y-76658212D01*
X108745000Y-76881788D01*
X108788617Y-77101067D01*
X108874176Y-77307624D01*
X108998388Y-77493520D01*
X109156480Y-77651612D01*
X109333660Y-77770000D01*
X109156480Y-77888388D01*
X108998388Y-78046480D01*
X108874176Y-78232376D01*
X108788617Y-78438933D01*
X108745000Y-78658212D01*
X108745000Y-78881788D01*
X108788617Y-79101067D01*
X108874176Y-79307624D01*
X108998388Y-79493520D01*
X109156480Y-79651612D01*
X109342376Y-79775824D01*
X109548933Y-79861383D01*
X109768212Y-79905000D01*
X109904843Y-79905000D01*
X110115001Y-80115158D01*
X110115000Y-92643520D01*
X110058574Y-92620147D01*
X109781335Y-92565000D01*
X109498665Y-92565000D01*
X109221426Y-92620147D01*
X108960273Y-92728320D01*
X108725241Y-92885363D01*
X108525363Y-93085241D01*
X108368320Y-93320273D01*
X108260147Y-93581426D01*
X108205000Y-93858665D01*
X108205000Y-94141335D01*
X108260147Y-94418574D01*
X108368320Y-94679727D01*
X108525363Y-94914759D01*
X108725241Y-95114637D01*
X108960273Y-95271680D01*
X109221426Y-95379853D01*
X109498665Y-95435000D01*
X109781335Y-95435000D01*
X110058574Y-95379853D01*
X110115000Y-95356481D01*
X110115000Y-100024842D01*
X109926055Y-100213787D01*
X109781335Y-100185000D01*
X109498665Y-100185000D01*
X109221426Y-100240147D01*
X108960273Y-100348320D01*
X108725241Y-100505363D01*
X108525363Y-100705241D01*
X108368320Y-100940273D01*
X108260147Y-101201426D01*
X108205000Y-101478665D01*
X108205000Y-101761335D01*
X108260147Y-102038574D01*
X108368320Y-102299727D01*
X108525363Y-102534759D01*
X108725241Y-102734637D01*
X108960273Y-102891680D01*
X109221426Y-102999853D01*
X109498665Y-103055000D01*
X109781335Y-103055000D01*
X110058574Y-102999853D01*
X110319727Y-102891680D01*
X110554759Y-102734637D01*
X110754637Y-102534759D01*
X110910000Y-102302241D01*
X111065363Y-102534759D01*
X111265241Y-102734637D01*
X111500273Y-102891680D01*
X111761426Y-102999853D01*
X112038665Y-103055000D01*
X112321335Y-103055000D01*
X112598574Y-102999853D01*
X112859727Y-102891680D01*
X113094759Y-102734637D01*
X113294637Y-102534759D01*
X113450000Y-102302241D01*
X113605363Y-102534759D01*
X113805241Y-102734637D01*
X114040273Y-102891680D01*
X114301426Y-102999853D01*
X114578665Y-103055000D01*
X114861335Y-103055000D01*
X115138574Y-102999853D01*
X115399727Y-102891680D01*
X115634759Y-102734637D01*
X115834637Y-102534759D01*
X115990000Y-102302241D01*
X116145363Y-102534759D01*
X116345241Y-102734637D01*
X116580273Y-102891680D01*
X116841426Y-102999853D01*
X117118665Y-103055000D01*
X117401335Y-103055000D01*
X117678574Y-102999853D01*
X117939727Y-102891680D01*
X118174759Y-102734637D01*
X118374637Y-102534759D01*
X118530000Y-102302241D01*
X118685363Y-102534759D01*
X118885241Y-102734637D01*
X119120273Y-102891680D01*
X119381426Y-102999853D01*
X119658665Y-103055000D01*
X119941335Y-103055000D01*
X120218574Y-102999853D01*
X120479727Y-102891680D01*
X120714759Y-102734637D01*
X120914637Y-102534759D01*
X121070000Y-102302241D01*
X121225363Y-102534759D01*
X121425241Y-102734637D01*
X121660273Y-102891680D01*
X121921426Y-102999853D01*
X122198665Y-103055000D01*
X122481335Y-103055000D01*
X122758574Y-102999853D01*
X123019727Y-102891680D01*
X123254759Y-102734637D01*
X123454637Y-102534759D01*
X123610000Y-102302241D01*
X123765363Y-102534759D01*
X123965241Y-102734637D01*
X124200273Y-102891680D01*
X124461426Y-102999853D01*
X124738665Y-103055000D01*
X125021335Y-103055000D01*
X125298574Y-102999853D01*
X125559727Y-102891680D01*
X125794759Y-102734637D01*
X125994637Y-102534759D01*
X126151680Y-102299727D01*
X126156067Y-102289135D01*
X126267615Y-102475131D01*
X126456586Y-102683519D01*
X126682580Y-102851037D01*
X126936913Y-102971246D01*
X127070961Y-103011904D01*
X127293000Y-102889915D01*
X127293000Y-101747000D01*
X127273000Y-101747000D01*
X127273000Y-101493000D01*
X127293000Y-101493000D01*
X127293000Y-100350085D01*
X127547000Y-100350085D01*
X127547000Y-101493000D01*
X127567000Y-101493000D01*
X127567000Y-101747000D01*
X127547000Y-101747000D01*
X127547000Y-102889915D01*
X127769039Y-103011904D01*
X127903087Y-102971246D01*
X128157420Y-102851037D01*
X128383414Y-102683519D01*
X128572385Y-102475131D01*
X128683933Y-102289135D01*
X128688320Y-102299727D01*
X128845363Y-102534759D01*
X129045241Y-102734637D01*
X129280273Y-102891680D01*
X129541426Y-102999853D01*
X129818665Y-103055000D01*
X130101335Y-103055000D01*
X130378574Y-102999853D01*
X130639727Y-102891680D01*
X130874759Y-102734637D01*
X131074637Y-102534759D01*
X131230000Y-102302241D01*
X131385363Y-102534759D01*
X131585241Y-102734637D01*
X131820273Y-102891680D01*
X132081426Y-102999853D01*
X132358665Y-103055000D01*
X132641335Y-103055000D01*
X132918574Y-102999853D01*
X133179727Y-102891680D01*
X133414759Y-102734637D01*
X133614637Y-102534759D01*
X133770000Y-102302241D01*
X133925363Y-102534759D01*
X134125241Y-102734637D01*
X134360273Y-102891680D01*
X134621426Y-102999853D01*
X134898665Y-103055000D01*
X135181335Y-103055000D01*
X135458574Y-102999853D01*
X135719727Y-102891680D01*
X135954759Y-102734637D01*
X136154637Y-102534759D01*
X136310000Y-102302241D01*
X136465363Y-102534759D01*
X136665241Y-102734637D01*
X136900273Y-102891680D01*
X137161426Y-102999853D01*
X137438665Y-103055000D01*
X137721335Y-103055000D01*
X137998574Y-102999853D01*
X138259727Y-102891680D01*
X138494759Y-102734637D01*
X138694637Y-102534759D01*
X138850000Y-102302241D01*
X139005363Y-102534759D01*
X139205241Y-102734637D01*
X139440273Y-102891680D01*
X139701426Y-102999853D01*
X139978665Y-103055000D01*
X140261335Y-103055000D01*
X140538574Y-102999853D01*
X140799727Y-102891680D01*
X141034759Y-102734637D01*
X141234637Y-102534759D01*
X141390000Y-102302241D01*
X141545363Y-102534759D01*
X141745241Y-102734637D01*
X141980273Y-102891680D01*
X142241426Y-102999853D01*
X142518665Y-103055000D01*
X142801335Y-103055000D01*
X143078574Y-102999853D01*
X143339727Y-102891680D01*
X143574759Y-102734637D01*
X143774637Y-102534759D01*
X143931680Y-102299727D01*
X144039853Y-102038574D01*
X144095000Y-101761335D01*
X144095000Y-101478665D01*
X144039853Y-101201426D01*
X143931680Y-100940273D01*
X143774637Y-100705241D01*
X143574759Y-100505363D01*
X143339727Y-100348320D01*
X143078574Y-100240147D01*
X142801335Y-100185000D01*
X142518665Y-100185000D01*
X142241426Y-100240147D01*
X141980273Y-100348320D01*
X141745241Y-100505363D01*
X141545363Y-100705241D01*
X141390000Y-100937759D01*
X141234637Y-100705241D01*
X141034759Y-100505363D01*
X140799727Y-100348320D01*
X140538574Y-100240147D01*
X140261335Y-100185000D01*
X139978665Y-100185000D01*
X139701426Y-100240147D01*
X139440273Y-100348320D01*
X139205241Y-100505363D01*
X139005363Y-100705241D01*
X138850000Y-100937759D01*
X138694637Y-100705241D01*
X138494759Y-100505363D01*
X138259727Y-100348320D01*
X137998574Y-100240147D01*
X137721335Y-100185000D01*
X137438665Y-100185000D01*
X137161426Y-100240147D01*
X136900273Y-100348320D01*
X136665241Y-100505363D01*
X136465363Y-100705241D01*
X136310000Y-100937759D01*
X136154637Y-100705241D01*
X135954759Y-100505363D01*
X135719727Y-100348320D01*
X135458574Y-100240147D01*
X135181335Y-100185000D01*
X134898665Y-100185000D01*
X134621426Y-100240147D01*
X134360273Y-100348320D01*
X134125241Y-100505363D01*
X133925363Y-100705241D01*
X133770000Y-100937759D01*
X133614637Y-100705241D01*
X133414759Y-100505363D01*
X133179727Y-100348320D01*
X132918574Y-100240147D01*
X132641335Y-100185000D01*
X132358665Y-100185000D01*
X132081426Y-100240147D01*
X131820273Y-100348320D01*
X131585241Y-100505363D01*
X131385363Y-100705241D01*
X131230000Y-100937759D01*
X131074637Y-100705241D01*
X130874759Y-100505363D01*
X130639727Y-100348320D01*
X130378574Y-100240147D01*
X130101335Y-100185000D01*
X129818665Y-100185000D01*
X129541426Y-100240147D01*
X129280273Y-100348320D01*
X129045241Y-100505363D01*
X128845363Y-100705241D01*
X128688320Y-100940273D01*
X128683933Y-100950865D01*
X128572385Y-100764869D01*
X128383414Y-100556481D01*
X128157420Y-100388963D01*
X127903087Y-100268754D01*
X127769039Y-100228096D01*
X127547000Y-100350085D01*
X127293000Y-100350085D01*
X127070961Y-100228096D01*
X126936913Y-100268754D01*
X126682580Y-100388963D01*
X126456586Y-100556481D01*
X126267615Y-100764869D01*
X126156067Y-100950865D01*
X126151680Y-100940273D01*
X125994637Y-100705241D01*
X125794759Y-100505363D01*
X125559727Y-100348320D01*
X125298574Y-100240147D01*
X125021335Y-100185000D01*
X124738665Y-100185000D01*
X124461426Y-100240147D01*
X124200273Y-100348320D01*
X123965241Y-100505363D01*
X123765363Y-100705241D01*
X123610000Y-100937759D01*
X123454637Y-100705241D01*
X123254759Y-100505363D01*
X123019727Y-100348320D01*
X122758574Y-100240147D01*
X122481335Y-100185000D01*
X122198665Y-100185000D01*
X121921426Y-100240147D01*
X121895001Y-100251093D01*
X121895001Y-95368907D01*
X121921426Y-95379853D01*
X122198665Y-95435000D01*
X122481335Y-95435000D01*
X122758574Y-95379853D01*
X123019727Y-95271680D01*
X123254759Y-95114637D01*
X123454637Y-94914759D01*
X123611680Y-94679727D01*
X123616067Y-94669135D01*
X123727615Y-94855131D01*
X123916586Y-95063519D01*
X124142580Y-95231037D01*
X124396913Y-95351246D01*
X124530961Y-95391904D01*
X124753000Y-95269915D01*
X124753000Y-94127000D01*
X124733000Y-94127000D01*
X124733000Y-93873000D01*
X124753000Y-93873000D01*
X124753000Y-92730085D01*
X124530961Y-92608096D01*
X124396913Y-92648754D01*
X124142580Y-92768963D01*
X123916586Y-92936481D01*
X123727615Y-93144869D01*
X123616067Y-93330865D01*
X123611680Y-93320273D01*
X123454637Y-93085241D01*
X123254759Y-92885363D01*
X123019727Y-92728320D01*
X122758574Y-92620147D01*
X122481335Y-92565000D01*
X122198665Y-92565000D01*
X121921426Y-92620147D01*
X121895001Y-92631093D01*
X121895001Y-79648553D01*
X121898798Y-79610000D01*
X121895001Y-79571447D01*
X121895001Y-79571440D01*
X121883642Y-79456114D01*
X121880966Y-79447290D01*
X121865089Y-79394953D01*
X121838755Y-79308141D01*
X121765863Y-79171768D01*
X121711743Y-79105824D01*
X121692346Y-79082188D01*
X121692343Y-79082185D01*
X121667765Y-79052237D01*
X121637817Y-79027659D01*
X118327645Y-75717487D01*
X118391180Y-75653952D01*
X120663795Y-75653952D01*
X137574843Y-92565000D01*
X137438665Y-92565000D01*
X137161426Y-92620147D01*
X136900273Y-92728320D01*
X136665241Y-92885363D01*
X136465363Y-93085241D01*
X136310000Y-93317759D01*
X136154637Y-93085241D01*
X135954759Y-92885363D01*
X135719727Y-92728320D01*
X135458574Y-92620147D01*
X135181335Y-92565000D01*
X134898665Y-92565000D01*
X134621426Y-92620147D01*
X134360273Y-92728320D01*
X134125241Y-92885363D01*
X133925363Y-93085241D01*
X133770000Y-93317759D01*
X133614637Y-93085241D01*
X133414759Y-92885363D01*
X133179727Y-92728320D01*
X132918574Y-92620147D01*
X132641335Y-92565000D01*
X132358665Y-92565000D01*
X132081426Y-92620147D01*
X131820273Y-92728320D01*
X131585241Y-92885363D01*
X131385363Y-93085241D01*
X131230000Y-93317759D01*
X131074637Y-93085241D01*
X130874759Y-92885363D01*
X130639727Y-92728320D01*
X130378574Y-92620147D01*
X130101335Y-92565000D01*
X129818665Y-92565000D01*
X129541426Y-92620147D01*
X129280273Y-92728320D01*
X129045241Y-92885363D01*
X128845363Y-93085241D01*
X128690000Y-93317759D01*
X128534637Y-93085241D01*
X128334759Y-92885363D01*
X128099727Y-92728320D01*
X127838574Y-92620147D01*
X127561335Y-92565000D01*
X127278665Y-92565000D01*
X127001426Y-92620147D01*
X126740273Y-92728320D01*
X126505241Y-92885363D01*
X126305363Y-93085241D01*
X126148320Y-93320273D01*
X126143933Y-93330865D01*
X126032385Y-93144869D01*
X125843414Y-92936481D01*
X125617420Y-92768963D01*
X125363087Y-92648754D01*
X125229039Y-92608096D01*
X125007000Y-92730085D01*
X125007000Y-93873000D01*
X125027000Y-93873000D01*
X125027000Y-94127000D01*
X125007000Y-94127000D01*
X125007000Y-95269915D01*
X125229039Y-95391904D01*
X125363087Y-95351246D01*
X125617420Y-95231037D01*
X125843414Y-95063519D01*
X126032385Y-94855131D01*
X126143933Y-94669135D01*
X126148320Y-94679727D01*
X126305363Y-94914759D01*
X126505241Y-95114637D01*
X126740273Y-95271680D01*
X127001426Y-95379853D01*
X127278665Y-95435000D01*
X127561335Y-95435000D01*
X127838574Y-95379853D01*
X128099727Y-95271680D01*
X128334759Y-95114637D01*
X128534637Y-94914759D01*
X128690000Y-94682241D01*
X128845363Y-94914759D01*
X129045241Y-95114637D01*
X129280273Y-95271680D01*
X129541426Y-95379853D01*
X129818665Y-95435000D01*
X130101335Y-95435000D01*
X130378574Y-95379853D01*
X130639727Y-95271680D01*
X130874759Y-95114637D01*
X131074637Y-94914759D01*
X131230000Y-94682241D01*
X131385363Y-94914759D01*
X131585241Y-95114637D01*
X131820273Y-95271680D01*
X132081426Y-95379853D01*
X132358665Y-95435000D01*
X132641335Y-95435000D01*
X132918574Y-95379853D01*
X133179727Y-95271680D01*
X133414759Y-95114637D01*
X133614637Y-94914759D01*
X133770000Y-94682241D01*
X133925363Y-94914759D01*
X134125241Y-95114637D01*
X134360273Y-95271680D01*
X134621426Y-95379853D01*
X134898665Y-95435000D01*
X135181335Y-95435000D01*
X135458574Y-95379853D01*
X135719727Y-95271680D01*
X135954759Y-95114637D01*
X136154637Y-94914759D01*
X136310000Y-94682241D01*
X136465363Y-94914759D01*
X136665241Y-95114637D01*
X136900273Y-95271680D01*
X137161426Y-95379853D01*
X137438665Y-95435000D01*
X137721335Y-95435000D01*
X137998574Y-95379853D01*
X138259727Y-95271680D01*
X138494759Y-95114637D01*
X138694637Y-94914759D01*
X138850000Y-94682241D01*
X139005363Y-94914759D01*
X139205241Y-95114637D01*
X139440273Y-95271680D01*
X139701426Y-95379853D01*
X139978665Y-95435000D01*
X140261335Y-95435000D01*
X140538574Y-95379853D01*
X140799727Y-95271680D01*
X141034759Y-95114637D01*
X141233357Y-94916039D01*
X141234188Y-94924482D01*
X141270498Y-95044180D01*
X141329463Y-95154494D01*
X141408815Y-95251185D01*
X141505506Y-95330537D01*
X141615820Y-95389502D01*
X141735518Y-95425812D01*
X141860000Y-95438072D01*
X142846494Y-95438072D01*
X144945001Y-97536580D01*
X144945000Y-103073421D01*
X143593422Y-104425000D01*
X115231388Y-104425000D01*
X115187919Y-104420719D01*
X115144450Y-104425000D01*
X115144442Y-104425000D01*
X115014429Y-104437805D01*
X114847606Y-104488411D01*
X114700575Y-104567000D01*
X114693860Y-104570589D01*
X114592872Y-104653468D01*
X114592870Y-104653470D01*
X114559102Y-104681183D01*
X114531389Y-104714951D01*
X111584951Y-107661390D01*
X111578370Y-107666791D01*
X107025000Y-103113422D01*
X107025000Y-91858450D01*
X107145824Y-91677624D01*
X107231383Y-91471067D01*
X107275000Y-91251788D01*
X107275000Y-91028212D01*
X107231383Y-90808933D01*
X107145824Y-90602376D01*
X107021612Y-90416480D01*
X106863520Y-90258388D01*
X106677624Y-90134176D01*
X106471067Y-90048617D01*
X106251788Y-90005000D01*
X106028212Y-90005000D01*
X105808933Y-90048617D01*
X105602376Y-90134176D01*
X105416480Y-90258388D01*
X105258388Y-90416480D01*
X105134176Y-90602376D01*
X105048617Y-90808933D01*
X105005000Y-91028212D01*
X105005000Y-91251788D01*
X105048617Y-91471067D01*
X105134176Y-91677624D01*
X105255000Y-91858450D01*
X105255001Y-103436521D01*
X105250719Y-103480000D01*
X105267805Y-103653490D01*
X105318412Y-103820313D01*
X105400590Y-103974059D01*
X105483468Y-104075046D01*
X105483471Y-104075049D01*
X105511184Y-104108817D01*
X105544952Y-104136530D01*
X109451770Y-108043348D01*
X109206842Y-108092068D01*
X108936589Y-108204010D01*
X108693368Y-108366525D01*
X108486525Y-108573368D01*
X108370000Y-108747760D01*
X108253475Y-108573368D01*
X108046632Y-108366525D01*
X107803411Y-108204010D01*
X107533158Y-108092068D01*
X107246260Y-108035000D01*
X106953740Y-108035000D01*
X106666842Y-108092068D01*
X106396589Y-108204010D01*
X106153368Y-108366525D01*
X105946525Y-108573368D01*
X105784010Y-108816589D01*
X105672068Y-109086842D01*
X105615000Y-109373740D01*
X105615000Y-109666260D01*
X105672068Y-109953158D01*
X105784010Y-110223411D01*
X105946525Y-110466632D01*
X106153368Y-110673475D01*
X106396589Y-110835990D01*
X106666842Y-110947932D01*
X106953740Y-111005000D01*
X107246260Y-111005000D01*
X107533158Y-110947932D01*
X107803411Y-110835990D01*
X108046632Y-110673475D01*
X108253475Y-110466632D01*
X108370000Y-110292240D01*
X108486525Y-110466632D01*
X108505001Y-110485108D01*
X108505000Y-113414893D01*
X108486525Y-113433368D01*
X108370000Y-113607760D01*
X108253475Y-113433368D01*
X108046632Y-113226525D01*
X107803411Y-113064010D01*
X107533158Y-112952068D01*
X107246260Y-112895000D01*
X106953740Y-112895000D01*
X106666842Y-112952068D01*
X106396589Y-113064010D01*
X106153368Y-113226525D01*
X105946525Y-113433368D01*
X105784010Y-113676589D01*
X105672068Y-113946842D01*
X105615000Y-114233740D01*
X105615000Y-114526260D01*
X105668456Y-114795001D01*
X105046580Y-114795001D01*
X99633811Y-109382233D01*
X99591383Y-109168933D01*
X99505824Y-108962376D01*
X99381612Y-108776480D01*
X99223520Y-108618388D01*
X99037624Y-108494176D01*
X98831067Y-108408617D01*
X98611788Y-108365000D01*
X98388212Y-108365000D01*
X98168933Y-108408617D01*
X97962376Y-108494176D01*
X97776480Y-108618388D01*
X97618388Y-108776480D01*
X97494176Y-108962376D01*
X97408617Y-109168933D01*
X97365000Y-109388212D01*
X97365000Y-109611788D01*
X97408617Y-109831067D01*
X97494176Y-110037624D01*
X97618388Y-110223520D01*
X97776480Y-110381612D01*
X97962376Y-110505824D01*
X98168933Y-110591383D01*
X98382233Y-110633811D01*
X103448421Y-115700000D01*
X83859392Y-115700000D01*
X83061917Y-115628827D01*
X82318110Y-115425344D01*
X81622096Y-115093363D01*
X80995870Y-114643374D01*
X80459223Y-114089597D01*
X80029129Y-113449549D01*
X79719171Y-112743447D01*
X79537935Y-111988543D01*
X79490000Y-111335793D01*
X79490000Y-108265000D01*
X87551928Y-108265000D01*
X87551928Y-110015000D01*
X87581001Y-110310186D01*
X87667104Y-110594028D01*
X87806927Y-110855618D01*
X87995097Y-111084903D01*
X88224382Y-111273073D01*
X88485972Y-111412896D01*
X88769814Y-111498999D01*
X89065000Y-111528072D01*
X90815000Y-111528072D01*
X91110186Y-111498999D01*
X91394028Y-111412896D01*
X91655618Y-111273073D01*
X91884903Y-111084903D01*
X92073073Y-110855618D01*
X92212896Y-110594028D01*
X92298999Y-110310186D01*
X92328072Y-110015000D01*
X92328072Y-108265000D01*
X92298999Y-107969814D01*
X92212896Y-107685972D01*
X92073073Y-107424382D01*
X91884903Y-107195097D01*
X91655618Y-107006927D01*
X91394028Y-106867104D01*
X91265357Y-106828072D01*
X94690000Y-106828072D01*
X94814482Y-106815812D01*
X94934180Y-106779502D01*
X95044494Y-106720537D01*
X95141185Y-106641185D01*
X95220537Y-106544494D01*
X95279502Y-106434180D01*
X95315812Y-106314482D01*
X95328072Y-106190000D01*
X95328072Y-102690000D01*
X95315812Y-102565518D01*
X95279502Y-102445820D01*
X95220537Y-102335506D01*
X95141185Y-102238815D01*
X95044494Y-102159463D01*
X94934180Y-102100498D01*
X94814482Y-102064188D01*
X94690000Y-102051928D01*
X91190000Y-102051928D01*
X91065518Y-102064188D01*
X90945820Y-102100498D01*
X90835506Y-102159463D01*
X90738815Y-102238815D01*
X90659463Y-102335506D01*
X90600498Y-102445820D01*
X90564188Y-102565518D01*
X90551928Y-102690000D01*
X90551928Y-106190000D01*
X90564188Y-106314482D01*
X90600498Y-106434180D01*
X90659463Y-106544494D01*
X90738815Y-106641185D01*
X90835506Y-106720537D01*
X90912131Y-106761494D01*
X90815000Y-106751928D01*
X89065000Y-106751928D01*
X88769814Y-106781001D01*
X88485972Y-106867104D01*
X88224382Y-107006927D01*
X87995097Y-107195097D01*
X87806927Y-107424382D01*
X87667104Y-107685972D01*
X87581001Y-107969814D01*
X87551928Y-108265000D01*
X79490000Y-108265000D01*
X79490000Y-106190000D01*
X84801928Y-106190000D01*
X84814188Y-106314482D01*
X84850498Y-106434180D01*
X84909463Y-106544494D01*
X84988815Y-106641185D01*
X85085506Y-106720537D01*
X85195820Y-106779502D01*
X85315518Y-106815812D01*
X85440000Y-106828072D01*
X86654250Y-106825000D01*
X86813000Y-106666250D01*
X86813000Y-104567000D01*
X87067000Y-104567000D01*
X87067000Y-106666250D01*
X87225750Y-106825000D01*
X88440000Y-106828072D01*
X88564482Y-106815812D01*
X88684180Y-106779502D01*
X88794494Y-106720537D01*
X88891185Y-106641185D01*
X88970537Y-106544494D01*
X89029502Y-106434180D01*
X89065812Y-106314482D01*
X89078072Y-106190000D01*
X89075000Y-104725750D01*
X88916250Y-104567000D01*
X87067000Y-104567000D01*
X86813000Y-104567000D01*
X84963750Y-104567000D01*
X84805000Y-104725750D01*
X84801928Y-106190000D01*
X79490000Y-106190000D01*
X79490000Y-102690000D01*
X84801928Y-102690000D01*
X84805000Y-104154250D01*
X84963750Y-104313000D01*
X86813000Y-104313000D01*
X86813000Y-102213750D01*
X87067000Y-102213750D01*
X87067000Y-104313000D01*
X88916250Y-104313000D01*
X89075000Y-104154250D01*
X89078072Y-102690000D01*
X89065812Y-102565518D01*
X89029502Y-102445820D01*
X88970537Y-102335506D01*
X88891185Y-102238815D01*
X88794494Y-102159463D01*
X88684180Y-102100498D01*
X88564482Y-102064188D01*
X88440000Y-102051928D01*
X87225750Y-102055000D01*
X87067000Y-102213750D01*
X86813000Y-102213750D01*
X86654250Y-102055000D01*
X85440000Y-102051928D01*
X85315518Y-102064188D01*
X85195820Y-102100498D01*
X85085506Y-102159463D01*
X84988815Y-102238815D01*
X84909463Y-102335506D01*
X84850498Y-102445820D01*
X84814188Y-102565518D01*
X84801928Y-102690000D01*
X79490000Y-102690000D01*
X79490000Y-98368212D01*
X94565000Y-98368212D01*
X94565000Y-98591788D01*
X94608617Y-98811067D01*
X94694176Y-99017624D01*
X94818388Y-99203520D01*
X94976480Y-99361612D01*
X95162376Y-99485824D01*
X95368933Y-99571383D01*
X95588212Y-99615000D01*
X95811788Y-99615000D01*
X96031067Y-99571383D01*
X96237624Y-99485824D01*
X96423520Y-99361612D01*
X96581612Y-99203520D01*
X96705824Y-99017624D01*
X96791383Y-98811067D01*
X96833811Y-98597768D01*
X98165050Y-97266529D01*
X98198817Y-97238817D01*
X98309411Y-97104059D01*
X98391589Y-96950313D01*
X98442195Y-96783490D01*
X98455000Y-96653477D01*
X98455000Y-96653467D01*
X98459281Y-96610001D01*
X98455000Y-96566535D01*
X98455000Y-88898450D01*
X98575824Y-88717624D01*
X98661383Y-88511067D01*
X98705000Y-88291788D01*
X98705000Y-88068212D01*
X98661383Y-87848933D01*
X98575824Y-87642376D01*
X98451612Y-87456480D01*
X98293520Y-87298388D01*
X98107624Y-87174176D01*
X97901067Y-87088617D01*
X97681788Y-87045000D01*
X97458212Y-87045000D01*
X97238933Y-87088617D01*
X97032376Y-87174176D01*
X96846480Y-87298388D01*
X96688388Y-87456480D01*
X96564176Y-87642376D01*
X96478617Y-87848933D01*
X96435000Y-88068212D01*
X96435000Y-88291788D01*
X96478617Y-88511067D01*
X96564176Y-88717624D01*
X96685001Y-88898451D01*
X96685000Y-96243421D01*
X95582232Y-97346189D01*
X95368933Y-97388617D01*
X95162376Y-97474176D01*
X94976480Y-97598388D01*
X94818388Y-97756480D01*
X94694176Y-97942376D01*
X94608617Y-98148933D01*
X94565000Y-98368212D01*
X79490000Y-98368212D01*
X79490000Y-86888212D01*
X84845000Y-86888212D01*
X84845000Y-87111788D01*
X84888617Y-87331067D01*
X84974176Y-87537624D01*
X85098388Y-87723520D01*
X85256480Y-87881612D01*
X85442376Y-88005824D01*
X85648933Y-88091383D01*
X85868212Y-88135000D01*
X86091788Y-88135000D01*
X86311067Y-88091383D01*
X86517624Y-88005824D01*
X86703520Y-87881612D01*
X86861612Y-87723520D01*
X86985824Y-87537624D01*
X87071383Y-87331067D01*
X87115000Y-87111788D01*
X87115000Y-86888212D01*
X87071383Y-86668933D01*
X86985824Y-86462376D01*
X86865000Y-86281550D01*
X86865000Y-86256578D01*
X91493366Y-81628212D01*
X91865000Y-81628212D01*
X91865000Y-81851788D01*
X91908617Y-82071067D01*
X91994176Y-82277624D01*
X92118388Y-82463520D01*
X92215001Y-82560133D01*
X92215000Y-87729868D01*
X92118388Y-87826480D01*
X91994176Y-88012376D01*
X91908617Y-88218933D01*
X91865000Y-88438212D01*
X91865000Y-88661788D01*
X91908617Y-88881067D01*
X91994176Y-89087624D01*
X92118388Y-89273520D01*
X92276480Y-89431612D01*
X92462376Y-89555824D01*
X92668933Y-89641383D01*
X92888212Y-89685000D01*
X93111788Y-89685000D01*
X93331067Y-89641383D01*
X93537624Y-89555824D01*
X93723520Y-89431612D01*
X93881612Y-89273520D01*
X94005824Y-89087624D01*
X94091383Y-88881067D01*
X94135000Y-88661788D01*
X94135000Y-88438212D01*
X94091383Y-88218933D01*
X94005824Y-88012376D01*
X93881612Y-87826480D01*
X93785000Y-87729868D01*
X93785000Y-84348212D01*
X93855000Y-84348212D01*
X93855000Y-84571788D01*
X93898617Y-84791067D01*
X93984176Y-84997624D01*
X94108388Y-85183520D01*
X94266480Y-85341612D01*
X94452376Y-85465824D01*
X94658933Y-85551383D01*
X94878212Y-85595000D01*
X95101788Y-85595000D01*
X95321067Y-85551383D01*
X95527624Y-85465824D01*
X95713520Y-85341612D01*
X95810132Y-85245000D01*
X97971447Y-85245000D01*
X98010000Y-85248797D01*
X98048553Y-85245000D01*
X98048561Y-85245000D01*
X98163887Y-85233641D01*
X98311860Y-85188754D01*
X98448233Y-85115862D01*
X98567764Y-85017764D01*
X98592347Y-84987811D01*
X99207816Y-84372341D01*
X99237764Y-84347764D01*
X99335862Y-84228233D01*
X99408754Y-84091860D01*
X99430016Y-84021768D01*
X99453641Y-83943888D01*
X99457743Y-83902236D01*
X99465000Y-83828561D01*
X99465000Y-83828554D01*
X99468797Y-83790001D01*
X99465000Y-83751448D01*
X99465000Y-77423212D01*
X99965000Y-77423212D01*
X99965000Y-77646788D01*
X100008617Y-77866067D01*
X100094176Y-78072624D01*
X100218388Y-78258520D01*
X100376480Y-78416612D01*
X100562376Y-78540824D01*
X100768933Y-78626383D01*
X100988212Y-78670000D01*
X101211788Y-78670000D01*
X101431067Y-78626383D01*
X101637624Y-78540824D01*
X101823520Y-78416612D01*
X101981612Y-78258520D01*
X102105824Y-78072624D01*
X102191383Y-77866067D01*
X102235000Y-77646788D01*
X102235000Y-77423212D01*
X102191383Y-77203933D01*
X102105824Y-76997376D01*
X101981612Y-76811480D01*
X101823520Y-76653388D01*
X101637624Y-76529176D01*
X101431067Y-76443617D01*
X101211788Y-76400000D01*
X100988212Y-76400000D01*
X100768933Y-76443617D01*
X100562376Y-76529176D01*
X100376480Y-76653388D01*
X100218388Y-76811480D01*
X100094176Y-76997376D01*
X100008617Y-77203933D01*
X99965000Y-77423212D01*
X99465000Y-77423212D01*
X99465000Y-71850132D01*
X99561612Y-71753520D01*
X99685824Y-71567624D01*
X99771383Y-71361067D01*
X99815000Y-71141788D01*
X99815000Y-70918212D01*
X99771383Y-70698933D01*
X99685824Y-70492376D01*
X99561612Y-70306480D01*
X99403520Y-70148388D01*
X99217624Y-70024176D01*
X99011067Y-69938617D01*
X98791788Y-69895000D01*
X98568212Y-69895000D01*
X98348933Y-69938617D01*
X98142376Y-70024176D01*
X97956480Y-70148388D01*
X97798388Y-70306480D01*
X97674176Y-70492376D01*
X97588617Y-70698933D01*
X97545000Y-70918212D01*
X97545000Y-71141788D01*
X97588617Y-71361067D01*
X97674176Y-71567624D01*
X97798388Y-71753520D01*
X97895001Y-71850133D01*
X97895000Y-81338560D01*
X97895001Y-81338570D01*
X97895000Y-83464842D01*
X97684843Y-83675000D01*
X95810132Y-83675000D01*
X95713520Y-83578388D01*
X95527624Y-83454176D01*
X95321067Y-83368617D01*
X95101788Y-83325000D01*
X94878212Y-83325000D01*
X94658933Y-83368617D01*
X94452376Y-83454176D01*
X94266480Y-83578388D01*
X94108388Y-83736480D01*
X93984176Y-83922376D01*
X93898617Y-84128933D01*
X93855000Y-84348212D01*
X93785000Y-84348212D01*
X93785000Y-82560132D01*
X93881612Y-82463520D01*
X94005824Y-82277624D01*
X94091383Y-82071067D01*
X94135000Y-81851788D01*
X94135000Y-81628212D01*
X94091383Y-81408933D01*
X94005824Y-81202376D01*
X93881612Y-81016480D01*
X93723520Y-80858388D01*
X93537624Y-80734176D01*
X93331067Y-80648617D01*
X93111788Y-80605000D01*
X92888212Y-80605000D01*
X92668933Y-80648617D01*
X92462376Y-80734176D01*
X92276480Y-80858388D01*
X92118388Y-81016480D01*
X91994176Y-81202376D01*
X91908617Y-81408933D01*
X91865000Y-81628212D01*
X91493366Y-81628212D01*
X93177769Y-79943810D01*
X93391067Y-79901383D01*
X93597624Y-79815824D01*
X93783520Y-79691612D01*
X93941612Y-79533520D01*
X94065824Y-79347624D01*
X94151383Y-79141067D01*
X94195000Y-78921788D01*
X94195000Y-78698212D01*
X94151383Y-78478933D01*
X94065824Y-78272376D01*
X93941612Y-78086480D01*
X93783520Y-77928388D01*
X93597624Y-77804176D01*
X93391067Y-77718617D01*
X93171788Y-77675000D01*
X92948212Y-77675000D01*
X92728933Y-77718617D01*
X92522376Y-77804176D01*
X92336480Y-77928388D01*
X92178388Y-78086480D01*
X92054176Y-78272376D01*
X91968617Y-78478933D01*
X91926190Y-78692231D01*
X85384956Y-85233466D01*
X85351183Y-85261183D01*
X85240589Y-85395942D01*
X85158411Y-85549688D01*
X85107805Y-85716511D01*
X85095000Y-85846524D01*
X85095000Y-85846531D01*
X85090719Y-85890000D01*
X85095000Y-85933470D01*
X85095000Y-86281550D01*
X84974176Y-86462376D01*
X84888617Y-86668933D01*
X84845000Y-86888212D01*
X79490000Y-86888212D01*
X79490000Y-76048212D01*
X84165000Y-76048212D01*
X84165000Y-76271788D01*
X84208617Y-76491067D01*
X84294176Y-76697624D01*
X84418388Y-76883520D01*
X84576480Y-77041612D01*
X84762376Y-77165824D01*
X84968933Y-77251383D01*
X85188212Y-77295000D01*
X85411788Y-77295000D01*
X85631067Y-77251383D01*
X85837624Y-77165824D01*
X86023520Y-77041612D01*
X86181612Y-76883520D01*
X86305824Y-76697624D01*
X86391383Y-76491067D01*
X86435000Y-76271788D01*
X86435000Y-76048212D01*
X86391383Y-75828933D01*
X86305824Y-75622376D01*
X86181612Y-75436480D01*
X86023520Y-75278388D01*
X85837624Y-75154176D01*
X85631067Y-75068617D01*
X85411788Y-75025000D01*
X85188212Y-75025000D01*
X84968933Y-75068617D01*
X84762376Y-75154176D01*
X84576480Y-75278388D01*
X84418388Y-75436480D01*
X84294176Y-75622376D01*
X84208617Y-75828933D01*
X84165000Y-76048212D01*
X79490000Y-76048212D01*
X79490000Y-71648212D01*
X84165000Y-71648212D01*
X84165000Y-71871788D01*
X84208617Y-72091067D01*
X84294176Y-72297624D01*
X84418388Y-72483520D01*
X84576480Y-72641612D01*
X84762376Y-72765824D01*
X84968933Y-72851383D01*
X85188212Y-72895000D01*
X85411788Y-72895000D01*
X85631067Y-72851383D01*
X85837624Y-72765824D01*
X86023520Y-72641612D01*
X86181612Y-72483520D01*
X86305824Y-72297624D01*
X86391383Y-72091067D01*
X86435000Y-71871788D01*
X86435000Y-71648212D01*
X86391383Y-71428933D01*
X86305824Y-71222376D01*
X86181612Y-71036480D01*
X86023520Y-70878388D01*
X85837624Y-70754176D01*
X85631067Y-70668617D01*
X85411788Y-70625000D01*
X85188212Y-70625000D01*
X84968933Y-70668617D01*
X84762376Y-70754176D01*
X84576480Y-70878388D01*
X84418388Y-71036480D01*
X84294176Y-71222376D01*
X84208617Y-71428933D01*
X84165000Y-71648212D01*
X79490000Y-71648212D01*
X79490000Y-66588212D01*
X91155000Y-66588212D01*
X91155000Y-66811788D01*
X91198617Y-67031067D01*
X91284176Y-67237624D01*
X91408388Y-67423520D01*
X91505000Y-67520132D01*
X91505001Y-74801437D01*
X91501203Y-74840000D01*
X91516359Y-74993886D01*
X91561246Y-75141859D01*
X91567830Y-75154176D01*
X91634139Y-75278233D01*
X91657899Y-75307184D01*
X91707655Y-75367812D01*
X91707659Y-75367816D01*
X91732237Y-75397764D01*
X91762185Y-75422342D01*
X92647653Y-76307810D01*
X92672236Y-76337764D01*
X92791767Y-76435862D01*
X92918348Y-76503520D01*
X92928140Y-76508754D01*
X93076113Y-76553642D01*
X93151026Y-76561020D01*
X93191439Y-76565000D01*
X93191444Y-76565000D01*
X93230000Y-76568797D01*
X93268556Y-76565000D01*
X93719868Y-76565000D01*
X93816480Y-76661612D01*
X94002376Y-76785824D01*
X94208933Y-76871383D01*
X94428212Y-76915000D01*
X94651788Y-76915000D01*
X94871067Y-76871383D01*
X95077624Y-76785824D01*
X95263520Y-76661612D01*
X95421612Y-76503520D01*
X95545824Y-76317624D01*
X95631383Y-76111067D01*
X95675000Y-75891788D01*
X95675000Y-75668212D01*
X95631383Y-75448933D01*
X95545824Y-75242376D01*
X95421612Y-75056480D01*
X95263520Y-74898388D01*
X95077624Y-74774176D01*
X94871067Y-74688617D01*
X94705000Y-74655584D01*
X94705000Y-74478212D01*
X94661383Y-74258933D01*
X94575824Y-74052376D01*
X94451612Y-73866480D01*
X94355000Y-73769868D01*
X94355000Y-63300130D01*
X94451612Y-63203518D01*
X94575824Y-63017622D01*
X94661383Y-62811065D01*
X94705000Y-62591786D01*
X94705000Y-62368210D01*
X94661383Y-62148931D01*
X94575824Y-61942374D01*
X94451612Y-61756478D01*
X94293520Y-61598386D01*
X94107624Y-61474174D01*
X93901067Y-61388615D01*
X93681788Y-61344998D01*
X93458212Y-61344998D01*
X93238933Y-61388615D01*
X93032376Y-61474174D01*
X92846480Y-61598386D01*
X92688388Y-61756478D01*
X92564176Y-61942374D01*
X92478617Y-62148931D01*
X92435000Y-62368210D01*
X92435000Y-62591786D01*
X92478617Y-62811065D01*
X92564176Y-63017622D01*
X92688388Y-63203518D01*
X92785001Y-63300131D01*
X92785001Y-65676521D01*
X92621067Y-65608617D01*
X92401788Y-65565000D01*
X92178212Y-65565000D01*
X91958933Y-65608617D01*
X91752376Y-65694176D01*
X91566480Y-65818388D01*
X91408388Y-65976480D01*
X91284176Y-66162376D01*
X91198617Y-66368933D01*
X91155000Y-66588212D01*
X79490000Y-66588212D01*
X79490000Y-58392419D01*
X79493193Y-58360000D01*
X79492894Y-58356965D01*
X79561173Y-57591917D01*
X79764656Y-56848109D01*
X80096638Y-56152095D01*
X80546626Y-55525870D01*
X81100403Y-54989223D01*
X81740451Y-54559129D01*
X82446553Y-54249171D01*
X83201457Y-54067935D01*
X83854207Y-54020000D01*
X143545510Y-54020000D01*
X144870000Y-55422402D01*
G36*
X120325002Y-79935160D02*
G01*
X120325001Y-92664231D01*
X120218574Y-92620147D01*
X119941335Y-92565000D01*
X119658665Y-92565000D01*
X119381426Y-92620147D01*
X119315000Y-92647662D01*
X119315000Y-81458555D01*
X119318797Y-81420000D01*
X119315000Y-81381444D01*
X119315000Y-81381439D01*
X119306805Y-81298232D01*
X119303642Y-81266113D01*
X119258754Y-81118140D01*
X119239107Y-81081383D01*
X119185862Y-80981767D01*
X119087764Y-80862236D01*
X119057816Y-80837658D01*
X111015000Y-72794843D01*
X111015000Y-72658212D01*
X110971383Y-72438933D01*
X110885824Y-72232376D01*
X110761612Y-72046480D01*
X110603520Y-71888388D01*
X110426340Y-71770000D01*
X110603520Y-71651612D01*
X110700132Y-71555000D01*
X111944843Y-71555000D01*
X120325002Y-79935160D01*
G37*
X120325002Y-79935160D02*
X120325001Y-92664231D01*
X120218574Y-92620147D01*
X119941335Y-92565000D01*
X119658665Y-92565000D01*
X119381426Y-92620147D01*
X119315000Y-92647662D01*
X119315000Y-81458555D01*
X119318797Y-81420000D01*
X119315000Y-81381444D01*
X119315000Y-81381439D01*
X119306805Y-81298232D01*
X119303642Y-81266113D01*
X119258754Y-81118140D01*
X119239107Y-81081383D01*
X119185862Y-80981767D01*
X119087764Y-80862236D01*
X119057816Y-80837658D01*
X111015000Y-72794843D01*
X111015000Y-72658212D01*
X110971383Y-72438933D01*
X110885824Y-72232376D01*
X110761612Y-72046480D01*
X110603520Y-71888388D01*
X110426340Y-71770000D01*
X110603520Y-71651612D01*
X110700132Y-71555000D01*
X111944843Y-71555000D01*
X120325002Y-79935160D01*
M02*
