G04 #@! TF.GenerationSoftware,KiCad,Pcbnew,(5.1.5)-3*
G04 #@! TF.CreationDate,2020-05-21T02:42:04+09:00*
G04 #@! TF.ProjectId,custom_arduino,63757374-6f6d-45f6-9172-6475696e6f2e,rev?*
G04 #@! TF.SameCoordinates,Original*
G04 #@! TF.FileFunction,Soldermask,Bot*
G04 #@! TF.FilePolarity,Negative*
%FSLAX46Y46*%
G04 Gerber Fmt 4.6, Leading zero omitted, Abs format (unit mm)*
G04 Created by KiCad (PCBNEW (5.1.5)-3) date 2020-05-21 02:42:04*
%MOMM*%
%LPD*%
G04 APERTURE LIST*
%ADD10C,0.100000*%
G04 APERTURE END LIST*
D10*
G36*
X143561000Y-115281000D02*
G01*
X141759000Y-115281000D01*
X141759000Y-113479000D01*
X143561000Y-113479000D01*
X143561000Y-115281000D01*
G37*
G36*
X140233512Y-113483927D02*
G01*
X140382812Y-113513624D01*
X140546784Y-113581544D01*
X140694354Y-113680147D01*
X140819853Y-113805646D01*
X140918456Y-113953216D01*
X140986376Y-114117188D01*
X141021000Y-114291259D01*
X141021000Y-114468741D01*
X140986376Y-114642812D01*
X140918456Y-114806784D01*
X140819853Y-114954354D01*
X140694354Y-115079853D01*
X140546784Y-115178456D01*
X140382812Y-115246376D01*
X140233512Y-115276073D01*
X140208742Y-115281000D01*
X140031258Y-115281000D01*
X140006488Y-115276073D01*
X139857188Y-115246376D01*
X139693216Y-115178456D01*
X139545646Y-115079853D01*
X139420147Y-114954354D01*
X139321544Y-114806784D01*
X139253624Y-114642812D01*
X139219000Y-114468741D01*
X139219000Y-114291259D01*
X139253624Y-114117188D01*
X139321544Y-113953216D01*
X139420147Y-113805646D01*
X139545646Y-113680147D01*
X139693216Y-113581544D01*
X139857188Y-113513624D01*
X140006488Y-113483927D01*
X140031258Y-113479000D01*
X140208742Y-113479000D01*
X140233512Y-113483927D01*
G37*
G36*
X125781000Y-115281000D02*
G01*
X123979000Y-115281000D01*
X123979000Y-113479000D01*
X125781000Y-113479000D01*
X125781000Y-115281000D01*
G37*
G36*
X122453512Y-113483927D02*
G01*
X122602812Y-113513624D01*
X122766784Y-113581544D01*
X122914354Y-113680147D01*
X123039853Y-113805646D01*
X123138456Y-113953216D01*
X123206376Y-114117188D01*
X123241000Y-114291259D01*
X123241000Y-114468741D01*
X123206376Y-114642812D01*
X123138456Y-114806784D01*
X123039853Y-114954354D01*
X122914354Y-115079853D01*
X122766784Y-115178456D01*
X122602812Y-115246376D01*
X122453512Y-115276073D01*
X122428742Y-115281000D01*
X122251258Y-115281000D01*
X122226488Y-115276073D01*
X122077188Y-115246376D01*
X121913216Y-115178456D01*
X121765646Y-115079853D01*
X121640147Y-114954354D01*
X121541544Y-114806784D01*
X121473624Y-114642812D01*
X121439000Y-114468741D01*
X121439000Y-114291259D01*
X121473624Y-114117188D01*
X121541544Y-113953216D01*
X121640147Y-113805646D01*
X121765646Y-113680147D01*
X121913216Y-113581544D01*
X122077188Y-113513624D01*
X122226488Y-113483927D01*
X122251258Y-113479000D01*
X122428742Y-113479000D01*
X122453512Y-113483927D01*
G37*
G36*
X119913512Y-113483927D02*
G01*
X120062812Y-113513624D01*
X120226784Y-113581544D01*
X120374354Y-113680147D01*
X120499853Y-113805646D01*
X120598456Y-113953216D01*
X120666376Y-114117188D01*
X120701000Y-114291259D01*
X120701000Y-114468741D01*
X120666376Y-114642812D01*
X120598456Y-114806784D01*
X120499853Y-114954354D01*
X120374354Y-115079853D01*
X120226784Y-115178456D01*
X120062812Y-115246376D01*
X119913512Y-115276073D01*
X119888742Y-115281000D01*
X119711258Y-115281000D01*
X119686488Y-115276073D01*
X119537188Y-115246376D01*
X119373216Y-115178456D01*
X119225646Y-115079853D01*
X119100147Y-114954354D01*
X119001544Y-114806784D01*
X118933624Y-114642812D01*
X118899000Y-114468741D01*
X118899000Y-114291259D01*
X118933624Y-114117188D01*
X119001544Y-113953216D01*
X119100147Y-113805646D01*
X119225646Y-113680147D01*
X119373216Y-113581544D01*
X119537188Y-113513624D01*
X119686488Y-113483927D01*
X119711258Y-113479000D01*
X119888742Y-113479000D01*
X119913512Y-113483927D01*
G37*
G36*
X117373512Y-113483927D02*
G01*
X117522812Y-113513624D01*
X117686784Y-113581544D01*
X117834354Y-113680147D01*
X117959853Y-113805646D01*
X118058456Y-113953216D01*
X118126376Y-114117188D01*
X118161000Y-114291259D01*
X118161000Y-114468741D01*
X118126376Y-114642812D01*
X118058456Y-114806784D01*
X117959853Y-114954354D01*
X117834354Y-115079853D01*
X117686784Y-115178456D01*
X117522812Y-115246376D01*
X117373512Y-115276073D01*
X117348742Y-115281000D01*
X117171258Y-115281000D01*
X117146488Y-115276073D01*
X116997188Y-115246376D01*
X116833216Y-115178456D01*
X116685646Y-115079853D01*
X116560147Y-114954354D01*
X116461544Y-114806784D01*
X116393624Y-114642812D01*
X116359000Y-114468741D01*
X116359000Y-114291259D01*
X116393624Y-114117188D01*
X116461544Y-113953216D01*
X116560147Y-113805646D01*
X116685646Y-113680147D01*
X116833216Y-113581544D01*
X116997188Y-113513624D01*
X117146488Y-113483927D01*
X117171258Y-113479000D01*
X117348742Y-113479000D01*
X117373512Y-113483927D01*
G37*
G36*
X114833512Y-113483927D02*
G01*
X114982812Y-113513624D01*
X115146784Y-113581544D01*
X115294354Y-113680147D01*
X115419853Y-113805646D01*
X115518456Y-113953216D01*
X115586376Y-114117188D01*
X115621000Y-114291259D01*
X115621000Y-114468741D01*
X115586376Y-114642812D01*
X115518456Y-114806784D01*
X115419853Y-114954354D01*
X115294354Y-115079853D01*
X115146784Y-115178456D01*
X114982812Y-115246376D01*
X114833512Y-115276073D01*
X114808742Y-115281000D01*
X114631258Y-115281000D01*
X114606488Y-115276073D01*
X114457188Y-115246376D01*
X114293216Y-115178456D01*
X114145646Y-115079853D01*
X114020147Y-114954354D01*
X113921544Y-114806784D01*
X113853624Y-114642812D01*
X113819000Y-114468741D01*
X113819000Y-114291259D01*
X113853624Y-114117188D01*
X113921544Y-113953216D01*
X114020147Y-113805646D01*
X114145646Y-113680147D01*
X114293216Y-113581544D01*
X114457188Y-113513624D01*
X114606488Y-113483927D01*
X114631258Y-113479000D01*
X114808742Y-113479000D01*
X114833512Y-113483927D01*
G37*
G36*
X112293512Y-113483927D02*
G01*
X112442812Y-113513624D01*
X112606784Y-113581544D01*
X112754354Y-113680147D01*
X112879853Y-113805646D01*
X112978456Y-113953216D01*
X113046376Y-114117188D01*
X113081000Y-114291259D01*
X113081000Y-114468741D01*
X113046376Y-114642812D01*
X112978456Y-114806784D01*
X112879853Y-114954354D01*
X112754354Y-115079853D01*
X112606784Y-115178456D01*
X112442812Y-115246376D01*
X112293512Y-115276073D01*
X112268742Y-115281000D01*
X112091258Y-115281000D01*
X112066488Y-115276073D01*
X111917188Y-115246376D01*
X111753216Y-115178456D01*
X111605646Y-115079853D01*
X111480147Y-114954354D01*
X111381544Y-114806784D01*
X111313624Y-114642812D01*
X111279000Y-114468741D01*
X111279000Y-114291259D01*
X111313624Y-114117188D01*
X111381544Y-113953216D01*
X111480147Y-113805646D01*
X111605646Y-113680147D01*
X111753216Y-113581544D01*
X111917188Y-113513624D01*
X112066488Y-113483927D01*
X112091258Y-113479000D01*
X112268742Y-113479000D01*
X112293512Y-113483927D01*
G37*
G36*
X109753512Y-113483927D02*
G01*
X109902812Y-113513624D01*
X110066784Y-113581544D01*
X110214354Y-113680147D01*
X110339853Y-113805646D01*
X110438456Y-113953216D01*
X110506376Y-114117188D01*
X110541000Y-114291259D01*
X110541000Y-114468741D01*
X110506376Y-114642812D01*
X110438456Y-114806784D01*
X110339853Y-114954354D01*
X110214354Y-115079853D01*
X110066784Y-115178456D01*
X109902812Y-115246376D01*
X109753512Y-115276073D01*
X109728742Y-115281000D01*
X109551258Y-115281000D01*
X109526488Y-115276073D01*
X109377188Y-115246376D01*
X109213216Y-115178456D01*
X109065646Y-115079853D01*
X108940147Y-114954354D01*
X108841544Y-114806784D01*
X108773624Y-114642812D01*
X108739000Y-114468741D01*
X108739000Y-114291259D01*
X108773624Y-114117188D01*
X108841544Y-113953216D01*
X108940147Y-113805646D01*
X109065646Y-113680147D01*
X109213216Y-113581544D01*
X109377188Y-113513624D01*
X109526488Y-113483927D01*
X109551258Y-113479000D01*
X109728742Y-113479000D01*
X109753512Y-113483927D01*
G37*
G36*
X107213512Y-113483927D02*
G01*
X107362812Y-113513624D01*
X107526784Y-113581544D01*
X107674354Y-113680147D01*
X107799853Y-113805646D01*
X107898456Y-113953216D01*
X107966376Y-114117188D01*
X108001000Y-114291259D01*
X108001000Y-114468741D01*
X107966376Y-114642812D01*
X107898456Y-114806784D01*
X107799853Y-114954354D01*
X107674354Y-115079853D01*
X107526784Y-115178456D01*
X107362812Y-115246376D01*
X107213512Y-115276073D01*
X107188742Y-115281000D01*
X107011258Y-115281000D01*
X106986488Y-115276073D01*
X106837188Y-115246376D01*
X106673216Y-115178456D01*
X106525646Y-115079853D01*
X106400147Y-114954354D01*
X106301544Y-114806784D01*
X106233624Y-114642812D01*
X106199000Y-114468741D01*
X106199000Y-114291259D01*
X106233624Y-114117188D01*
X106301544Y-113953216D01*
X106400147Y-113805646D01*
X106525646Y-113680147D01*
X106673216Y-113581544D01*
X106837188Y-113513624D01*
X106986488Y-113483927D01*
X107011258Y-113479000D01*
X107188742Y-113479000D01*
X107213512Y-113483927D01*
G37*
G36*
X137693512Y-113483927D02*
G01*
X137842812Y-113513624D01*
X138006784Y-113581544D01*
X138154354Y-113680147D01*
X138279853Y-113805646D01*
X138378456Y-113953216D01*
X138446376Y-114117188D01*
X138481000Y-114291259D01*
X138481000Y-114468741D01*
X138446376Y-114642812D01*
X138378456Y-114806784D01*
X138279853Y-114954354D01*
X138154354Y-115079853D01*
X138006784Y-115178456D01*
X137842812Y-115246376D01*
X137693512Y-115276073D01*
X137668742Y-115281000D01*
X137491258Y-115281000D01*
X137466488Y-115276073D01*
X137317188Y-115246376D01*
X137153216Y-115178456D01*
X137005646Y-115079853D01*
X136880147Y-114954354D01*
X136781544Y-114806784D01*
X136713624Y-114642812D01*
X136679000Y-114468741D01*
X136679000Y-114291259D01*
X136713624Y-114117188D01*
X136781544Y-113953216D01*
X136880147Y-113805646D01*
X137005646Y-113680147D01*
X137153216Y-113581544D01*
X137317188Y-113513624D01*
X137466488Y-113483927D01*
X137491258Y-113479000D01*
X137668742Y-113479000D01*
X137693512Y-113483927D01*
G37*
G36*
X135153512Y-113483927D02*
G01*
X135302812Y-113513624D01*
X135466784Y-113581544D01*
X135614354Y-113680147D01*
X135739853Y-113805646D01*
X135838456Y-113953216D01*
X135906376Y-114117188D01*
X135941000Y-114291259D01*
X135941000Y-114468741D01*
X135906376Y-114642812D01*
X135838456Y-114806784D01*
X135739853Y-114954354D01*
X135614354Y-115079853D01*
X135466784Y-115178456D01*
X135302812Y-115246376D01*
X135153512Y-115276073D01*
X135128742Y-115281000D01*
X134951258Y-115281000D01*
X134926488Y-115276073D01*
X134777188Y-115246376D01*
X134613216Y-115178456D01*
X134465646Y-115079853D01*
X134340147Y-114954354D01*
X134241544Y-114806784D01*
X134173624Y-114642812D01*
X134139000Y-114468741D01*
X134139000Y-114291259D01*
X134173624Y-114117188D01*
X134241544Y-113953216D01*
X134340147Y-113805646D01*
X134465646Y-113680147D01*
X134613216Y-113581544D01*
X134777188Y-113513624D01*
X134926488Y-113483927D01*
X134951258Y-113479000D01*
X135128742Y-113479000D01*
X135153512Y-113483927D01*
G37*
G36*
X132613512Y-113483927D02*
G01*
X132762812Y-113513624D01*
X132926784Y-113581544D01*
X133074354Y-113680147D01*
X133199853Y-113805646D01*
X133298456Y-113953216D01*
X133366376Y-114117188D01*
X133401000Y-114291259D01*
X133401000Y-114468741D01*
X133366376Y-114642812D01*
X133298456Y-114806784D01*
X133199853Y-114954354D01*
X133074354Y-115079853D01*
X132926784Y-115178456D01*
X132762812Y-115246376D01*
X132613512Y-115276073D01*
X132588742Y-115281000D01*
X132411258Y-115281000D01*
X132386488Y-115276073D01*
X132237188Y-115246376D01*
X132073216Y-115178456D01*
X131925646Y-115079853D01*
X131800147Y-114954354D01*
X131701544Y-114806784D01*
X131633624Y-114642812D01*
X131599000Y-114468741D01*
X131599000Y-114291259D01*
X131633624Y-114117188D01*
X131701544Y-113953216D01*
X131800147Y-113805646D01*
X131925646Y-113680147D01*
X132073216Y-113581544D01*
X132237188Y-113513624D01*
X132386488Y-113483927D01*
X132411258Y-113479000D01*
X132588742Y-113479000D01*
X132613512Y-113483927D01*
G37*
G36*
X130073512Y-113483927D02*
G01*
X130222812Y-113513624D01*
X130386784Y-113581544D01*
X130534354Y-113680147D01*
X130659853Y-113805646D01*
X130758456Y-113953216D01*
X130826376Y-114117188D01*
X130861000Y-114291259D01*
X130861000Y-114468741D01*
X130826376Y-114642812D01*
X130758456Y-114806784D01*
X130659853Y-114954354D01*
X130534354Y-115079853D01*
X130386784Y-115178456D01*
X130222812Y-115246376D01*
X130073512Y-115276073D01*
X130048742Y-115281000D01*
X129871258Y-115281000D01*
X129846488Y-115276073D01*
X129697188Y-115246376D01*
X129533216Y-115178456D01*
X129385646Y-115079853D01*
X129260147Y-114954354D01*
X129161544Y-114806784D01*
X129093624Y-114642812D01*
X129059000Y-114468741D01*
X129059000Y-114291259D01*
X129093624Y-114117188D01*
X129161544Y-113953216D01*
X129260147Y-113805646D01*
X129385646Y-113680147D01*
X129533216Y-113581544D01*
X129697188Y-113513624D01*
X129846488Y-113483927D01*
X129871258Y-113479000D01*
X130048742Y-113479000D01*
X130073512Y-113483927D01*
G37*
G36*
X91066366Y-107355695D02*
G01*
X91223460Y-107403349D01*
X91368231Y-107480731D01*
X91495128Y-107584872D01*
X91599269Y-107711769D01*
X91676651Y-107856540D01*
X91724305Y-108013634D01*
X91741000Y-108183140D01*
X91741000Y-110096860D01*
X91724305Y-110266366D01*
X91676651Y-110423460D01*
X91599269Y-110568231D01*
X91495128Y-110695128D01*
X91368231Y-110799269D01*
X91223460Y-110876651D01*
X91066366Y-110924305D01*
X90896860Y-110941000D01*
X88983140Y-110941000D01*
X88813634Y-110924305D01*
X88656540Y-110876651D01*
X88511769Y-110799269D01*
X88384872Y-110695128D01*
X88280731Y-110568231D01*
X88203349Y-110423460D01*
X88155695Y-110266366D01*
X88139000Y-110096860D01*
X88139000Y-108183140D01*
X88155695Y-108013634D01*
X88203349Y-107856540D01*
X88280731Y-107711769D01*
X88384872Y-107584872D01*
X88511769Y-107480731D01*
X88656540Y-107403349D01*
X88813634Y-107355695D01*
X88983140Y-107339000D01*
X90896860Y-107339000D01*
X91066366Y-107355695D01*
G37*
G36*
X119913512Y-108623927D02*
G01*
X120062812Y-108653624D01*
X120226784Y-108721544D01*
X120374354Y-108820147D01*
X120499853Y-108945646D01*
X120598456Y-109093216D01*
X120666376Y-109257188D01*
X120701000Y-109431259D01*
X120701000Y-109608741D01*
X120666376Y-109782812D01*
X120598456Y-109946784D01*
X120499853Y-110094354D01*
X120374354Y-110219853D01*
X120226784Y-110318456D01*
X120062812Y-110386376D01*
X119913512Y-110416073D01*
X119888742Y-110421000D01*
X119711258Y-110421000D01*
X119686488Y-110416073D01*
X119537188Y-110386376D01*
X119373216Y-110318456D01*
X119225646Y-110219853D01*
X119100147Y-110094354D01*
X119001544Y-109946784D01*
X118933624Y-109782812D01*
X118899000Y-109608741D01*
X118899000Y-109431259D01*
X118933624Y-109257188D01*
X119001544Y-109093216D01*
X119100147Y-108945646D01*
X119225646Y-108820147D01*
X119373216Y-108721544D01*
X119537188Y-108653624D01*
X119686488Y-108623927D01*
X119711258Y-108619000D01*
X119888742Y-108619000D01*
X119913512Y-108623927D01*
G37*
G36*
X112293512Y-108623927D02*
G01*
X112442812Y-108653624D01*
X112606784Y-108721544D01*
X112754354Y-108820147D01*
X112879853Y-108945646D01*
X112978456Y-109093216D01*
X113046376Y-109257188D01*
X113081000Y-109431259D01*
X113081000Y-109608741D01*
X113046376Y-109782812D01*
X112978456Y-109946784D01*
X112879853Y-110094354D01*
X112754354Y-110219853D01*
X112606784Y-110318456D01*
X112442812Y-110386376D01*
X112293512Y-110416073D01*
X112268742Y-110421000D01*
X112091258Y-110421000D01*
X112066488Y-110416073D01*
X111917188Y-110386376D01*
X111753216Y-110318456D01*
X111605646Y-110219853D01*
X111480147Y-110094354D01*
X111381544Y-109946784D01*
X111313624Y-109782812D01*
X111279000Y-109608741D01*
X111279000Y-109431259D01*
X111313624Y-109257188D01*
X111381544Y-109093216D01*
X111480147Y-108945646D01*
X111605646Y-108820147D01*
X111753216Y-108721544D01*
X111917188Y-108653624D01*
X112066488Y-108623927D01*
X112091258Y-108619000D01*
X112268742Y-108619000D01*
X112293512Y-108623927D01*
G37*
G36*
X117373512Y-108623927D02*
G01*
X117522812Y-108653624D01*
X117686784Y-108721544D01*
X117834354Y-108820147D01*
X117959853Y-108945646D01*
X118058456Y-109093216D01*
X118126376Y-109257188D01*
X118161000Y-109431259D01*
X118161000Y-109608741D01*
X118126376Y-109782812D01*
X118058456Y-109946784D01*
X117959853Y-110094354D01*
X117834354Y-110219853D01*
X117686784Y-110318456D01*
X117522812Y-110386376D01*
X117373512Y-110416073D01*
X117348742Y-110421000D01*
X117171258Y-110421000D01*
X117146488Y-110416073D01*
X116997188Y-110386376D01*
X116833216Y-110318456D01*
X116685646Y-110219853D01*
X116560147Y-110094354D01*
X116461544Y-109946784D01*
X116393624Y-109782812D01*
X116359000Y-109608741D01*
X116359000Y-109431259D01*
X116393624Y-109257188D01*
X116461544Y-109093216D01*
X116560147Y-108945646D01*
X116685646Y-108820147D01*
X116833216Y-108721544D01*
X116997188Y-108653624D01*
X117146488Y-108623927D01*
X117171258Y-108619000D01*
X117348742Y-108619000D01*
X117373512Y-108623927D01*
G37*
G36*
X122453512Y-108623927D02*
G01*
X122602812Y-108653624D01*
X122766784Y-108721544D01*
X122914354Y-108820147D01*
X123039853Y-108945646D01*
X123138456Y-109093216D01*
X123206376Y-109257188D01*
X123241000Y-109431259D01*
X123241000Y-109608741D01*
X123206376Y-109782812D01*
X123138456Y-109946784D01*
X123039853Y-110094354D01*
X122914354Y-110219853D01*
X122766784Y-110318456D01*
X122602812Y-110386376D01*
X122453512Y-110416073D01*
X122428742Y-110421000D01*
X122251258Y-110421000D01*
X122226488Y-110416073D01*
X122077188Y-110386376D01*
X121913216Y-110318456D01*
X121765646Y-110219853D01*
X121640147Y-110094354D01*
X121541544Y-109946784D01*
X121473624Y-109782812D01*
X121439000Y-109608741D01*
X121439000Y-109431259D01*
X121473624Y-109257188D01*
X121541544Y-109093216D01*
X121640147Y-108945646D01*
X121765646Y-108820147D01*
X121913216Y-108721544D01*
X122077188Y-108653624D01*
X122226488Y-108623927D01*
X122251258Y-108619000D01*
X122428742Y-108619000D01*
X122453512Y-108623927D01*
G37*
G36*
X125781000Y-110421000D02*
G01*
X123979000Y-110421000D01*
X123979000Y-108619000D01*
X125781000Y-108619000D01*
X125781000Y-110421000D01*
G37*
G36*
X114833512Y-108623927D02*
G01*
X114982812Y-108653624D01*
X115146784Y-108721544D01*
X115294354Y-108820147D01*
X115419853Y-108945646D01*
X115518456Y-109093216D01*
X115586376Y-109257188D01*
X115621000Y-109431259D01*
X115621000Y-109608741D01*
X115586376Y-109782812D01*
X115518456Y-109946784D01*
X115419853Y-110094354D01*
X115294354Y-110219853D01*
X115146784Y-110318456D01*
X114982812Y-110386376D01*
X114833512Y-110416073D01*
X114808742Y-110421000D01*
X114631258Y-110421000D01*
X114606488Y-110416073D01*
X114457188Y-110386376D01*
X114293216Y-110318456D01*
X114145646Y-110219853D01*
X114020147Y-110094354D01*
X113921544Y-109946784D01*
X113853624Y-109782812D01*
X113819000Y-109608741D01*
X113819000Y-109431259D01*
X113853624Y-109257188D01*
X113921544Y-109093216D01*
X114020147Y-108945646D01*
X114145646Y-108820147D01*
X114293216Y-108721544D01*
X114457188Y-108653624D01*
X114606488Y-108623927D01*
X114631258Y-108619000D01*
X114808742Y-108619000D01*
X114833512Y-108623927D01*
G37*
G36*
X130073512Y-108623927D02*
G01*
X130222812Y-108653624D01*
X130386784Y-108721544D01*
X130534354Y-108820147D01*
X130659853Y-108945646D01*
X130758456Y-109093216D01*
X130826376Y-109257188D01*
X130861000Y-109431259D01*
X130861000Y-109608741D01*
X130826376Y-109782812D01*
X130758456Y-109946784D01*
X130659853Y-110094354D01*
X130534354Y-110219853D01*
X130386784Y-110318456D01*
X130222812Y-110386376D01*
X130073512Y-110416073D01*
X130048742Y-110421000D01*
X129871258Y-110421000D01*
X129846488Y-110416073D01*
X129697188Y-110386376D01*
X129533216Y-110318456D01*
X129385646Y-110219853D01*
X129260147Y-110094354D01*
X129161544Y-109946784D01*
X129093624Y-109782812D01*
X129059000Y-109608741D01*
X129059000Y-109431259D01*
X129093624Y-109257188D01*
X129161544Y-109093216D01*
X129260147Y-108945646D01*
X129385646Y-108820147D01*
X129533216Y-108721544D01*
X129697188Y-108653624D01*
X129846488Y-108623927D01*
X129871258Y-108619000D01*
X130048742Y-108619000D01*
X130073512Y-108623927D01*
G37*
G36*
X135153512Y-108623927D02*
G01*
X135302812Y-108653624D01*
X135466784Y-108721544D01*
X135614354Y-108820147D01*
X135739853Y-108945646D01*
X135838456Y-109093216D01*
X135906376Y-109257188D01*
X135941000Y-109431259D01*
X135941000Y-109608741D01*
X135906376Y-109782812D01*
X135838456Y-109946784D01*
X135739853Y-110094354D01*
X135614354Y-110219853D01*
X135466784Y-110318456D01*
X135302812Y-110386376D01*
X135153512Y-110416073D01*
X135128742Y-110421000D01*
X134951258Y-110421000D01*
X134926488Y-110416073D01*
X134777188Y-110386376D01*
X134613216Y-110318456D01*
X134465646Y-110219853D01*
X134340147Y-110094354D01*
X134241544Y-109946784D01*
X134173624Y-109782812D01*
X134139000Y-109608741D01*
X134139000Y-109431259D01*
X134173624Y-109257188D01*
X134241544Y-109093216D01*
X134340147Y-108945646D01*
X134465646Y-108820147D01*
X134613216Y-108721544D01*
X134777188Y-108653624D01*
X134926488Y-108623927D01*
X134951258Y-108619000D01*
X135128742Y-108619000D01*
X135153512Y-108623927D01*
G37*
G36*
X137693512Y-108623927D02*
G01*
X137842812Y-108653624D01*
X138006784Y-108721544D01*
X138154354Y-108820147D01*
X138279853Y-108945646D01*
X138378456Y-109093216D01*
X138446376Y-109257188D01*
X138481000Y-109431259D01*
X138481000Y-109608741D01*
X138446376Y-109782812D01*
X138378456Y-109946784D01*
X138279853Y-110094354D01*
X138154354Y-110219853D01*
X138006784Y-110318456D01*
X137842812Y-110386376D01*
X137693512Y-110416073D01*
X137668742Y-110421000D01*
X137491258Y-110421000D01*
X137466488Y-110416073D01*
X137317188Y-110386376D01*
X137153216Y-110318456D01*
X137005646Y-110219853D01*
X136880147Y-110094354D01*
X136781544Y-109946784D01*
X136713624Y-109782812D01*
X136679000Y-109608741D01*
X136679000Y-109431259D01*
X136713624Y-109257188D01*
X136781544Y-109093216D01*
X136880147Y-108945646D01*
X137005646Y-108820147D01*
X137153216Y-108721544D01*
X137317188Y-108653624D01*
X137466488Y-108623927D01*
X137491258Y-108619000D01*
X137668742Y-108619000D01*
X137693512Y-108623927D01*
G37*
G36*
X140233512Y-108623927D02*
G01*
X140382812Y-108653624D01*
X140546784Y-108721544D01*
X140694354Y-108820147D01*
X140819853Y-108945646D01*
X140918456Y-109093216D01*
X140986376Y-109257188D01*
X141021000Y-109431259D01*
X141021000Y-109608741D01*
X140986376Y-109782812D01*
X140918456Y-109946784D01*
X140819853Y-110094354D01*
X140694354Y-110219853D01*
X140546784Y-110318456D01*
X140382812Y-110386376D01*
X140233512Y-110416073D01*
X140208742Y-110421000D01*
X140031258Y-110421000D01*
X140006488Y-110416073D01*
X139857188Y-110386376D01*
X139693216Y-110318456D01*
X139545646Y-110219853D01*
X139420147Y-110094354D01*
X139321544Y-109946784D01*
X139253624Y-109782812D01*
X139219000Y-109608741D01*
X139219000Y-109431259D01*
X139253624Y-109257188D01*
X139321544Y-109093216D01*
X139420147Y-108945646D01*
X139545646Y-108820147D01*
X139693216Y-108721544D01*
X139857188Y-108653624D01*
X140006488Y-108623927D01*
X140031258Y-108619000D01*
X140208742Y-108619000D01*
X140233512Y-108623927D01*
G37*
G36*
X109753512Y-108623927D02*
G01*
X109902812Y-108653624D01*
X110066784Y-108721544D01*
X110214354Y-108820147D01*
X110339853Y-108945646D01*
X110438456Y-109093216D01*
X110506376Y-109257188D01*
X110541000Y-109431259D01*
X110541000Y-109608741D01*
X110506376Y-109782812D01*
X110438456Y-109946784D01*
X110339853Y-110094354D01*
X110214354Y-110219853D01*
X110066784Y-110318456D01*
X109902812Y-110386376D01*
X109753512Y-110416073D01*
X109728742Y-110421000D01*
X109551258Y-110421000D01*
X109526488Y-110416073D01*
X109377188Y-110386376D01*
X109213216Y-110318456D01*
X109065646Y-110219853D01*
X108940147Y-110094354D01*
X108841544Y-109946784D01*
X108773624Y-109782812D01*
X108739000Y-109608741D01*
X108739000Y-109431259D01*
X108773624Y-109257188D01*
X108841544Y-109093216D01*
X108940147Y-108945646D01*
X109065646Y-108820147D01*
X109213216Y-108721544D01*
X109377188Y-108653624D01*
X109526488Y-108623927D01*
X109551258Y-108619000D01*
X109728742Y-108619000D01*
X109753512Y-108623927D01*
G37*
G36*
X143561000Y-110421000D02*
G01*
X141759000Y-110421000D01*
X141759000Y-108619000D01*
X143561000Y-108619000D01*
X143561000Y-110421000D01*
G37*
G36*
X107213512Y-108623927D02*
G01*
X107362812Y-108653624D01*
X107526784Y-108721544D01*
X107674354Y-108820147D01*
X107799853Y-108945646D01*
X107898456Y-109093216D01*
X107966376Y-109257188D01*
X108001000Y-109431259D01*
X108001000Y-109608741D01*
X107966376Y-109782812D01*
X107898456Y-109946784D01*
X107799853Y-110094354D01*
X107674354Y-110219853D01*
X107526784Y-110318456D01*
X107362812Y-110386376D01*
X107213512Y-110416073D01*
X107188742Y-110421000D01*
X107011258Y-110421000D01*
X106986488Y-110416073D01*
X106837188Y-110386376D01*
X106673216Y-110318456D01*
X106525646Y-110219853D01*
X106400147Y-110094354D01*
X106301544Y-109946784D01*
X106233624Y-109782812D01*
X106199000Y-109608741D01*
X106199000Y-109431259D01*
X106233624Y-109257188D01*
X106301544Y-109093216D01*
X106400147Y-108945646D01*
X106525646Y-108820147D01*
X106673216Y-108721544D01*
X106837188Y-108653624D01*
X106986488Y-108623927D01*
X107011258Y-108619000D01*
X107188742Y-108619000D01*
X107213512Y-108623927D01*
G37*
G36*
X132613512Y-108623927D02*
G01*
X132762812Y-108653624D01*
X132926784Y-108721544D01*
X133074354Y-108820147D01*
X133199853Y-108945646D01*
X133298456Y-109093216D01*
X133366376Y-109257188D01*
X133401000Y-109431259D01*
X133401000Y-109608741D01*
X133366376Y-109782812D01*
X133298456Y-109946784D01*
X133199853Y-110094354D01*
X133074354Y-110219853D01*
X132926784Y-110318456D01*
X132762812Y-110386376D01*
X132613512Y-110416073D01*
X132588742Y-110421000D01*
X132411258Y-110421000D01*
X132386488Y-110416073D01*
X132237188Y-110386376D01*
X132073216Y-110318456D01*
X131925646Y-110219853D01*
X131800147Y-110094354D01*
X131701544Y-109946784D01*
X131633624Y-109782812D01*
X131599000Y-109608741D01*
X131599000Y-109431259D01*
X131633624Y-109257188D01*
X131701544Y-109093216D01*
X131800147Y-108945646D01*
X131925646Y-108820147D01*
X132073216Y-108721544D01*
X132237188Y-108653624D01*
X132386488Y-108623927D01*
X132411258Y-108619000D01*
X132588742Y-108619000D01*
X132613512Y-108623927D01*
G37*
G36*
X87916979Y-102653293D02*
G01*
X88050625Y-102693834D01*
X88173784Y-102759664D01*
X88281740Y-102848260D01*
X88370336Y-102956216D01*
X88436166Y-103079375D01*
X88476707Y-103213021D01*
X88491000Y-103358140D01*
X88491000Y-105521860D01*
X88476707Y-105666979D01*
X88436166Y-105800625D01*
X88370336Y-105923784D01*
X88281740Y-106031740D01*
X88173784Y-106120336D01*
X88050625Y-106186166D01*
X87916979Y-106226707D01*
X87771860Y-106241000D01*
X86108140Y-106241000D01*
X85963021Y-106226707D01*
X85829375Y-106186166D01*
X85706216Y-106120336D01*
X85598260Y-106031740D01*
X85509664Y-105923784D01*
X85443834Y-105800625D01*
X85403293Y-105666979D01*
X85389000Y-105521860D01*
X85389000Y-103358140D01*
X85403293Y-103213021D01*
X85443834Y-103079375D01*
X85509664Y-102956216D01*
X85598260Y-102848260D01*
X85706216Y-102759664D01*
X85829375Y-102693834D01*
X85963021Y-102653293D01*
X86108140Y-102639000D01*
X87771860Y-102639000D01*
X87916979Y-102653293D01*
G37*
G36*
X94741000Y-106241000D02*
G01*
X91139000Y-106241000D01*
X91139000Y-102639000D01*
X94741000Y-102639000D01*
X94741000Y-106241000D01*
G37*
G36*
X127668228Y-100801703D02*
G01*
X127823100Y-100865853D01*
X127962481Y-100958985D01*
X128081015Y-101077519D01*
X128174147Y-101216900D01*
X128238297Y-101371772D01*
X128271000Y-101536184D01*
X128271000Y-101703816D01*
X128238297Y-101868228D01*
X128174147Y-102023100D01*
X128081015Y-102162481D01*
X127962481Y-102281015D01*
X127823100Y-102374147D01*
X127668228Y-102438297D01*
X127503816Y-102471000D01*
X127336184Y-102471000D01*
X127171772Y-102438297D01*
X127016900Y-102374147D01*
X126877519Y-102281015D01*
X126758985Y-102162481D01*
X126665853Y-102023100D01*
X126601703Y-101868228D01*
X126569000Y-101703816D01*
X126569000Y-101536184D01*
X126601703Y-101371772D01*
X126665853Y-101216900D01*
X126758985Y-101077519D01*
X126877519Y-100958985D01*
X127016900Y-100865853D01*
X127171772Y-100801703D01*
X127336184Y-100769000D01*
X127503816Y-100769000D01*
X127668228Y-100801703D01*
G37*
G36*
X109888228Y-100801703D02*
G01*
X110043100Y-100865853D01*
X110182481Y-100958985D01*
X110301015Y-101077519D01*
X110394147Y-101216900D01*
X110458297Y-101371772D01*
X110491000Y-101536184D01*
X110491000Y-101703816D01*
X110458297Y-101868228D01*
X110394147Y-102023100D01*
X110301015Y-102162481D01*
X110182481Y-102281015D01*
X110043100Y-102374147D01*
X109888228Y-102438297D01*
X109723816Y-102471000D01*
X109556184Y-102471000D01*
X109391772Y-102438297D01*
X109236900Y-102374147D01*
X109097519Y-102281015D01*
X108978985Y-102162481D01*
X108885853Y-102023100D01*
X108821703Y-101868228D01*
X108789000Y-101703816D01*
X108789000Y-101536184D01*
X108821703Y-101371772D01*
X108885853Y-101216900D01*
X108978985Y-101077519D01*
X109097519Y-100958985D01*
X109236900Y-100865853D01*
X109391772Y-100801703D01*
X109556184Y-100769000D01*
X109723816Y-100769000D01*
X109888228Y-100801703D01*
G37*
G36*
X112428228Y-100801703D02*
G01*
X112583100Y-100865853D01*
X112722481Y-100958985D01*
X112841015Y-101077519D01*
X112934147Y-101216900D01*
X112998297Y-101371772D01*
X113031000Y-101536184D01*
X113031000Y-101703816D01*
X112998297Y-101868228D01*
X112934147Y-102023100D01*
X112841015Y-102162481D01*
X112722481Y-102281015D01*
X112583100Y-102374147D01*
X112428228Y-102438297D01*
X112263816Y-102471000D01*
X112096184Y-102471000D01*
X111931772Y-102438297D01*
X111776900Y-102374147D01*
X111637519Y-102281015D01*
X111518985Y-102162481D01*
X111425853Y-102023100D01*
X111361703Y-101868228D01*
X111329000Y-101703816D01*
X111329000Y-101536184D01*
X111361703Y-101371772D01*
X111425853Y-101216900D01*
X111518985Y-101077519D01*
X111637519Y-100958985D01*
X111776900Y-100865853D01*
X111931772Y-100801703D01*
X112096184Y-100769000D01*
X112263816Y-100769000D01*
X112428228Y-100801703D01*
G37*
G36*
X114968228Y-100801703D02*
G01*
X115123100Y-100865853D01*
X115262481Y-100958985D01*
X115381015Y-101077519D01*
X115474147Y-101216900D01*
X115538297Y-101371772D01*
X115571000Y-101536184D01*
X115571000Y-101703816D01*
X115538297Y-101868228D01*
X115474147Y-102023100D01*
X115381015Y-102162481D01*
X115262481Y-102281015D01*
X115123100Y-102374147D01*
X114968228Y-102438297D01*
X114803816Y-102471000D01*
X114636184Y-102471000D01*
X114471772Y-102438297D01*
X114316900Y-102374147D01*
X114177519Y-102281015D01*
X114058985Y-102162481D01*
X113965853Y-102023100D01*
X113901703Y-101868228D01*
X113869000Y-101703816D01*
X113869000Y-101536184D01*
X113901703Y-101371772D01*
X113965853Y-101216900D01*
X114058985Y-101077519D01*
X114177519Y-100958985D01*
X114316900Y-100865853D01*
X114471772Y-100801703D01*
X114636184Y-100769000D01*
X114803816Y-100769000D01*
X114968228Y-100801703D01*
G37*
G36*
X117508228Y-100801703D02*
G01*
X117663100Y-100865853D01*
X117802481Y-100958985D01*
X117921015Y-101077519D01*
X118014147Y-101216900D01*
X118078297Y-101371772D01*
X118111000Y-101536184D01*
X118111000Y-101703816D01*
X118078297Y-101868228D01*
X118014147Y-102023100D01*
X117921015Y-102162481D01*
X117802481Y-102281015D01*
X117663100Y-102374147D01*
X117508228Y-102438297D01*
X117343816Y-102471000D01*
X117176184Y-102471000D01*
X117011772Y-102438297D01*
X116856900Y-102374147D01*
X116717519Y-102281015D01*
X116598985Y-102162481D01*
X116505853Y-102023100D01*
X116441703Y-101868228D01*
X116409000Y-101703816D01*
X116409000Y-101536184D01*
X116441703Y-101371772D01*
X116505853Y-101216900D01*
X116598985Y-101077519D01*
X116717519Y-100958985D01*
X116856900Y-100865853D01*
X117011772Y-100801703D01*
X117176184Y-100769000D01*
X117343816Y-100769000D01*
X117508228Y-100801703D01*
G37*
G36*
X120048228Y-100801703D02*
G01*
X120203100Y-100865853D01*
X120342481Y-100958985D01*
X120461015Y-101077519D01*
X120554147Y-101216900D01*
X120618297Y-101371772D01*
X120651000Y-101536184D01*
X120651000Y-101703816D01*
X120618297Y-101868228D01*
X120554147Y-102023100D01*
X120461015Y-102162481D01*
X120342481Y-102281015D01*
X120203100Y-102374147D01*
X120048228Y-102438297D01*
X119883816Y-102471000D01*
X119716184Y-102471000D01*
X119551772Y-102438297D01*
X119396900Y-102374147D01*
X119257519Y-102281015D01*
X119138985Y-102162481D01*
X119045853Y-102023100D01*
X118981703Y-101868228D01*
X118949000Y-101703816D01*
X118949000Y-101536184D01*
X118981703Y-101371772D01*
X119045853Y-101216900D01*
X119138985Y-101077519D01*
X119257519Y-100958985D01*
X119396900Y-100865853D01*
X119551772Y-100801703D01*
X119716184Y-100769000D01*
X119883816Y-100769000D01*
X120048228Y-100801703D01*
G37*
G36*
X122588228Y-100801703D02*
G01*
X122743100Y-100865853D01*
X122882481Y-100958985D01*
X123001015Y-101077519D01*
X123094147Y-101216900D01*
X123158297Y-101371772D01*
X123191000Y-101536184D01*
X123191000Y-101703816D01*
X123158297Y-101868228D01*
X123094147Y-102023100D01*
X123001015Y-102162481D01*
X122882481Y-102281015D01*
X122743100Y-102374147D01*
X122588228Y-102438297D01*
X122423816Y-102471000D01*
X122256184Y-102471000D01*
X122091772Y-102438297D01*
X121936900Y-102374147D01*
X121797519Y-102281015D01*
X121678985Y-102162481D01*
X121585853Y-102023100D01*
X121521703Y-101868228D01*
X121489000Y-101703816D01*
X121489000Y-101536184D01*
X121521703Y-101371772D01*
X121585853Y-101216900D01*
X121678985Y-101077519D01*
X121797519Y-100958985D01*
X121936900Y-100865853D01*
X122091772Y-100801703D01*
X122256184Y-100769000D01*
X122423816Y-100769000D01*
X122588228Y-100801703D01*
G37*
G36*
X125128228Y-100801703D02*
G01*
X125283100Y-100865853D01*
X125422481Y-100958985D01*
X125541015Y-101077519D01*
X125634147Y-101216900D01*
X125698297Y-101371772D01*
X125731000Y-101536184D01*
X125731000Y-101703816D01*
X125698297Y-101868228D01*
X125634147Y-102023100D01*
X125541015Y-102162481D01*
X125422481Y-102281015D01*
X125283100Y-102374147D01*
X125128228Y-102438297D01*
X124963816Y-102471000D01*
X124796184Y-102471000D01*
X124631772Y-102438297D01*
X124476900Y-102374147D01*
X124337519Y-102281015D01*
X124218985Y-102162481D01*
X124125853Y-102023100D01*
X124061703Y-101868228D01*
X124029000Y-101703816D01*
X124029000Y-101536184D01*
X124061703Y-101371772D01*
X124125853Y-101216900D01*
X124218985Y-101077519D01*
X124337519Y-100958985D01*
X124476900Y-100865853D01*
X124631772Y-100801703D01*
X124796184Y-100769000D01*
X124963816Y-100769000D01*
X125128228Y-100801703D01*
G37*
G36*
X130208228Y-100801703D02*
G01*
X130363100Y-100865853D01*
X130502481Y-100958985D01*
X130621015Y-101077519D01*
X130714147Y-101216900D01*
X130778297Y-101371772D01*
X130811000Y-101536184D01*
X130811000Y-101703816D01*
X130778297Y-101868228D01*
X130714147Y-102023100D01*
X130621015Y-102162481D01*
X130502481Y-102281015D01*
X130363100Y-102374147D01*
X130208228Y-102438297D01*
X130043816Y-102471000D01*
X129876184Y-102471000D01*
X129711772Y-102438297D01*
X129556900Y-102374147D01*
X129417519Y-102281015D01*
X129298985Y-102162481D01*
X129205853Y-102023100D01*
X129141703Y-101868228D01*
X129109000Y-101703816D01*
X129109000Y-101536184D01*
X129141703Y-101371772D01*
X129205853Y-101216900D01*
X129298985Y-101077519D01*
X129417519Y-100958985D01*
X129556900Y-100865853D01*
X129711772Y-100801703D01*
X129876184Y-100769000D01*
X130043816Y-100769000D01*
X130208228Y-100801703D01*
G37*
G36*
X132748228Y-100801703D02*
G01*
X132903100Y-100865853D01*
X133042481Y-100958985D01*
X133161015Y-101077519D01*
X133254147Y-101216900D01*
X133318297Y-101371772D01*
X133351000Y-101536184D01*
X133351000Y-101703816D01*
X133318297Y-101868228D01*
X133254147Y-102023100D01*
X133161015Y-102162481D01*
X133042481Y-102281015D01*
X132903100Y-102374147D01*
X132748228Y-102438297D01*
X132583816Y-102471000D01*
X132416184Y-102471000D01*
X132251772Y-102438297D01*
X132096900Y-102374147D01*
X131957519Y-102281015D01*
X131838985Y-102162481D01*
X131745853Y-102023100D01*
X131681703Y-101868228D01*
X131649000Y-101703816D01*
X131649000Y-101536184D01*
X131681703Y-101371772D01*
X131745853Y-101216900D01*
X131838985Y-101077519D01*
X131957519Y-100958985D01*
X132096900Y-100865853D01*
X132251772Y-100801703D01*
X132416184Y-100769000D01*
X132583816Y-100769000D01*
X132748228Y-100801703D01*
G37*
G36*
X135288228Y-100801703D02*
G01*
X135443100Y-100865853D01*
X135582481Y-100958985D01*
X135701015Y-101077519D01*
X135794147Y-101216900D01*
X135858297Y-101371772D01*
X135891000Y-101536184D01*
X135891000Y-101703816D01*
X135858297Y-101868228D01*
X135794147Y-102023100D01*
X135701015Y-102162481D01*
X135582481Y-102281015D01*
X135443100Y-102374147D01*
X135288228Y-102438297D01*
X135123816Y-102471000D01*
X134956184Y-102471000D01*
X134791772Y-102438297D01*
X134636900Y-102374147D01*
X134497519Y-102281015D01*
X134378985Y-102162481D01*
X134285853Y-102023100D01*
X134221703Y-101868228D01*
X134189000Y-101703816D01*
X134189000Y-101536184D01*
X134221703Y-101371772D01*
X134285853Y-101216900D01*
X134378985Y-101077519D01*
X134497519Y-100958985D01*
X134636900Y-100865853D01*
X134791772Y-100801703D01*
X134956184Y-100769000D01*
X135123816Y-100769000D01*
X135288228Y-100801703D01*
G37*
G36*
X137828228Y-100801703D02*
G01*
X137983100Y-100865853D01*
X138122481Y-100958985D01*
X138241015Y-101077519D01*
X138334147Y-101216900D01*
X138398297Y-101371772D01*
X138431000Y-101536184D01*
X138431000Y-101703816D01*
X138398297Y-101868228D01*
X138334147Y-102023100D01*
X138241015Y-102162481D01*
X138122481Y-102281015D01*
X137983100Y-102374147D01*
X137828228Y-102438297D01*
X137663816Y-102471000D01*
X137496184Y-102471000D01*
X137331772Y-102438297D01*
X137176900Y-102374147D01*
X137037519Y-102281015D01*
X136918985Y-102162481D01*
X136825853Y-102023100D01*
X136761703Y-101868228D01*
X136729000Y-101703816D01*
X136729000Y-101536184D01*
X136761703Y-101371772D01*
X136825853Y-101216900D01*
X136918985Y-101077519D01*
X137037519Y-100958985D01*
X137176900Y-100865853D01*
X137331772Y-100801703D01*
X137496184Y-100769000D01*
X137663816Y-100769000D01*
X137828228Y-100801703D01*
G37*
G36*
X140368228Y-100801703D02*
G01*
X140523100Y-100865853D01*
X140662481Y-100958985D01*
X140781015Y-101077519D01*
X140874147Y-101216900D01*
X140938297Y-101371772D01*
X140971000Y-101536184D01*
X140971000Y-101703816D01*
X140938297Y-101868228D01*
X140874147Y-102023100D01*
X140781015Y-102162481D01*
X140662481Y-102281015D01*
X140523100Y-102374147D01*
X140368228Y-102438297D01*
X140203816Y-102471000D01*
X140036184Y-102471000D01*
X139871772Y-102438297D01*
X139716900Y-102374147D01*
X139577519Y-102281015D01*
X139458985Y-102162481D01*
X139365853Y-102023100D01*
X139301703Y-101868228D01*
X139269000Y-101703816D01*
X139269000Y-101536184D01*
X139301703Y-101371772D01*
X139365853Y-101216900D01*
X139458985Y-101077519D01*
X139577519Y-100958985D01*
X139716900Y-100865853D01*
X139871772Y-100801703D01*
X140036184Y-100769000D01*
X140203816Y-100769000D01*
X140368228Y-100801703D01*
G37*
G36*
X142908228Y-100801703D02*
G01*
X143063100Y-100865853D01*
X143202481Y-100958985D01*
X143321015Y-101077519D01*
X143414147Y-101216900D01*
X143478297Y-101371772D01*
X143511000Y-101536184D01*
X143511000Y-101703816D01*
X143478297Y-101868228D01*
X143414147Y-102023100D01*
X143321015Y-102162481D01*
X143202481Y-102281015D01*
X143063100Y-102374147D01*
X142908228Y-102438297D01*
X142743816Y-102471000D01*
X142576184Y-102471000D01*
X142411772Y-102438297D01*
X142256900Y-102374147D01*
X142117519Y-102281015D01*
X141998985Y-102162481D01*
X141905853Y-102023100D01*
X141841703Y-101868228D01*
X141809000Y-101703816D01*
X141809000Y-101536184D01*
X141841703Y-101371772D01*
X141905853Y-101216900D01*
X141998985Y-101077519D01*
X142117519Y-100958985D01*
X142256900Y-100865853D01*
X142411772Y-100801703D01*
X142576184Y-100769000D01*
X142743816Y-100769000D01*
X142908228Y-100801703D01*
G37*
G36*
X109888228Y-93181703D02*
G01*
X110043100Y-93245853D01*
X110182481Y-93338985D01*
X110301015Y-93457519D01*
X110394147Y-93596900D01*
X110458297Y-93751772D01*
X110491000Y-93916184D01*
X110491000Y-94083816D01*
X110458297Y-94248228D01*
X110394147Y-94403100D01*
X110301015Y-94542481D01*
X110182481Y-94661015D01*
X110043100Y-94754147D01*
X109888228Y-94818297D01*
X109723816Y-94851000D01*
X109556184Y-94851000D01*
X109391772Y-94818297D01*
X109236900Y-94754147D01*
X109097519Y-94661015D01*
X108978985Y-94542481D01*
X108885853Y-94403100D01*
X108821703Y-94248228D01*
X108789000Y-94083816D01*
X108789000Y-93916184D01*
X108821703Y-93751772D01*
X108885853Y-93596900D01*
X108978985Y-93457519D01*
X109097519Y-93338985D01*
X109236900Y-93245853D01*
X109391772Y-93181703D01*
X109556184Y-93149000D01*
X109723816Y-93149000D01*
X109888228Y-93181703D01*
G37*
G36*
X112428228Y-93181703D02*
G01*
X112583100Y-93245853D01*
X112722481Y-93338985D01*
X112841015Y-93457519D01*
X112934147Y-93596900D01*
X112998297Y-93751772D01*
X113031000Y-93916184D01*
X113031000Y-94083816D01*
X112998297Y-94248228D01*
X112934147Y-94403100D01*
X112841015Y-94542481D01*
X112722481Y-94661015D01*
X112583100Y-94754147D01*
X112428228Y-94818297D01*
X112263816Y-94851000D01*
X112096184Y-94851000D01*
X111931772Y-94818297D01*
X111776900Y-94754147D01*
X111637519Y-94661015D01*
X111518985Y-94542481D01*
X111425853Y-94403100D01*
X111361703Y-94248228D01*
X111329000Y-94083816D01*
X111329000Y-93916184D01*
X111361703Y-93751772D01*
X111425853Y-93596900D01*
X111518985Y-93457519D01*
X111637519Y-93338985D01*
X111776900Y-93245853D01*
X111931772Y-93181703D01*
X112096184Y-93149000D01*
X112263816Y-93149000D01*
X112428228Y-93181703D01*
G37*
G36*
X140368228Y-93181703D02*
G01*
X140523100Y-93245853D01*
X140662481Y-93338985D01*
X140781015Y-93457519D01*
X140874147Y-93596900D01*
X140938297Y-93751772D01*
X140971000Y-93916184D01*
X140971000Y-94083816D01*
X140938297Y-94248228D01*
X140874147Y-94403100D01*
X140781015Y-94542481D01*
X140662481Y-94661015D01*
X140523100Y-94754147D01*
X140368228Y-94818297D01*
X140203816Y-94851000D01*
X140036184Y-94851000D01*
X139871772Y-94818297D01*
X139716900Y-94754147D01*
X139577519Y-94661015D01*
X139458985Y-94542481D01*
X139365853Y-94403100D01*
X139301703Y-94248228D01*
X139269000Y-94083816D01*
X139269000Y-93916184D01*
X139301703Y-93751772D01*
X139365853Y-93596900D01*
X139458985Y-93457519D01*
X139577519Y-93338985D01*
X139716900Y-93245853D01*
X139871772Y-93181703D01*
X140036184Y-93149000D01*
X140203816Y-93149000D01*
X140368228Y-93181703D01*
G37*
G36*
X137828228Y-93181703D02*
G01*
X137983100Y-93245853D01*
X138122481Y-93338985D01*
X138241015Y-93457519D01*
X138334147Y-93596900D01*
X138398297Y-93751772D01*
X138431000Y-93916184D01*
X138431000Y-94083816D01*
X138398297Y-94248228D01*
X138334147Y-94403100D01*
X138241015Y-94542481D01*
X138122481Y-94661015D01*
X137983100Y-94754147D01*
X137828228Y-94818297D01*
X137663816Y-94851000D01*
X137496184Y-94851000D01*
X137331772Y-94818297D01*
X137176900Y-94754147D01*
X137037519Y-94661015D01*
X136918985Y-94542481D01*
X136825853Y-94403100D01*
X136761703Y-94248228D01*
X136729000Y-94083816D01*
X136729000Y-93916184D01*
X136761703Y-93751772D01*
X136825853Y-93596900D01*
X136918985Y-93457519D01*
X137037519Y-93338985D01*
X137176900Y-93245853D01*
X137331772Y-93181703D01*
X137496184Y-93149000D01*
X137663816Y-93149000D01*
X137828228Y-93181703D01*
G37*
G36*
X143511000Y-94851000D02*
G01*
X141809000Y-94851000D01*
X141809000Y-93149000D01*
X143511000Y-93149000D01*
X143511000Y-94851000D01*
G37*
G36*
X117508228Y-93181703D02*
G01*
X117663100Y-93245853D01*
X117802481Y-93338985D01*
X117921015Y-93457519D01*
X118014147Y-93596900D01*
X118078297Y-93751772D01*
X118111000Y-93916184D01*
X118111000Y-94083816D01*
X118078297Y-94248228D01*
X118014147Y-94403100D01*
X117921015Y-94542481D01*
X117802481Y-94661015D01*
X117663100Y-94754147D01*
X117508228Y-94818297D01*
X117343816Y-94851000D01*
X117176184Y-94851000D01*
X117011772Y-94818297D01*
X116856900Y-94754147D01*
X116717519Y-94661015D01*
X116598985Y-94542481D01*
X116505853Y-94403100D01*
X116441703Y-94248228D01*
X116409000Y-94083816D01*
X116409000Y-93916184D01*
X116441703Y-93751772D01*
X116505853Y-93596900D01*
X116598985Y-93457519D01*
X116717519Y-93338985D01*
X116856900Y-93245853D01*
X117011772Y-93181703D01*
X117176184Y-93149000D01*
X117343816Y-93149000D01*
X117508228Y-93181703D01*
G37*
G36*
X127668228Y-93181703D02*
G01*
X127823100Y-93245853D01*
X127962481Y-93338985D01*
X128081015Y-93457519D01*
X128174147Y-93596900D01*
X128238297Y-93751772D01*
X128271000Y-93916184D01*
X128271000Y-94083816D01*
X128238297Y-94248228D01*
X128174147Y-94403100D01*
X128081015Y-94542481D01*
X127962481Y-94661015D01*
X127823100Y-94754147D01*
X127668228Y-94818297D01*
X127503816Y-94851000D01*
X127336184Y-94851000D01*
X127171772Y-94818297D01*
X127016900Y-94754147D01*
X126877519Y-94661015D01*
X126758985Y-94542481D01*
X126665853Y-94403100D01*
X126601703Y-94248228D01*
X126569000Y-94083816D01*
X126569000Y-93916184D01*
X126601703Y-93751772D01*
X126665853Y-93596900D01*
X126758985Y-93457519D01*
X126877519Y-93338985D01*
X127016900Y-93245853D01*
X127171772Y-93181703D01*
X127336184Y-93149000D01*
X127503816Y-93149000D01*
X127668228Y-93181703D01*
G37*
G36*
X130208228Y-93181703D02*
G01*
X130363100Y-93245853D01*
X130502481Y-93338985D01*
X130621015Y-93457519D01*
X130714147Y-93596900D01*
X130778297Y-93751772D01*
X130811000Y-93916184D01*
X130811000Y-94083816D01*
X130778297Y-94248228D01*
X130714147Y-94403100D01*
X130621015Y-94542481D01*
X130502481Y-94661015D01*
X130363100Y-94754147D01*
X130208228Y-94818297D01*
X130043816Y-94851000D01*
X129876184Y-94851000D01*
X129711772Y-94818297D01*
X129556900Y-94754147D01*
X129417519Y-94661015D01*
X129298985Y-94542481D01*
X129205853Y-94403100D01*
X129141703Y-94248228D01*
X129109000Y-94083816D01*
X129109000Y-93916184D01*
X129141703Y-93751772D01*
X129205853Y-93596900D01*
X129298985Y-93457519D01*
X129417519Y-93338985D01*
X129556900Y-93245853D01*
X129711772Y-93181703D01*
X129876184Y-93149000D01*
X130043816Y-93149000D01*
X130208228Y-93181703D01*
G37*
G36*
X132748228Y-93181703D02*
G01*
X132903100Y-93245853D01*
X133042481Y-93338985D01*
X133161015Y-93457519D01*
X133254147Y-93596900D01*
X133318297Y-93751772D01*
X133351000Y-93916184D01*
X133351000Y-94083816D01*
X133318297Y-94248228D01*
X133254147Y-94403100D01*
X133161015Y-94542481D01*
X133042481Y-94661015D01*
X132903100Y-94754147D01*
X132748228Y-94818297D01*
X132583816Y-94851000D01*
X132416184Y-94851000D01*
X132251772Y-94818297D01*
X132096900Y-94754147D01*
X131957519Y-94661015D01*
X131838985Y-94542481D01*
X131745853Y-94403100D01*
X131681703Y-94248228D01*
X131649000Y-94083816D01*
X131649000Y-93916184D01*
X131681703Y-93751772D01*
X131745853Y-93596900D01*
X131838985Y-93457519D01*
X131957519Y-93338985D01*
X132096900Y-93245853D01*
X132251772Y-93181703D01*
X132416184Y-93149000D01*
X132583816Y-93149000D01*
X132748228Y-93181703D01*
G37*
G36*
X114968228Y-93181703D02*
G01*
X115123100Y-93245853D01*
X115262481Y-93338985D01*
X115381015Y-93457519D01*
X115474147Y-93596900D01*
X115538297Y-93751772D01*
X115571000Y-93916184D01*
X115571000Y-94083816D01*
X115538297Y-94248228D01*
X115474147Y-94403100D01*
X115381015Y-94542481D01*
X115262481Y-94661015D01*
X115123100Y-94754147D01*
X114968228Y-94818297D01*
X114803816Y-94851000D01*
X114636184Y-94851000D01*
X114471772Y-94818297D01*
X114316900Y-94754147D01*
X114177519Y-94661015D01*
X114058985Y-94542481D01*
X113965853Y-94403100D01*
X113901703Y-94248228D01*
X113869000Y-94083816D01*
X113869000Y-93916184D01*
X113901703Y-93751772D01*
X113965853Y-93596900D01*
X114058985Y-93457519D01*
X114177519Y-93338985D01*
X114316900Y-93245853D01*
X114471772Y-93181703D01*
X114636184Y-93149000D01*
X114803816Y-93149000D01*
X114968228Y-93181703D01*
G37*
G36*
X135288228Y-93181703D02*
G01*
X135443100Y-93245853D01*
X135582481Y-93338985D01*
X135701015Y-93457519D01*
X135794147Y-93596900D01*
X135858297Y-93751772D01*
X135891000Y-93916184D01*
X135891000Y-94083816D01*
X135858297Y-94248228D01*
X135794147Y-94403100D01*
X135701015Y-94542481D01*
X135582481Y-94661015D01*
X135443100Y-94754147D01*
X135288228Y-94818297D01*
X135123816Y-94851000D01*
X134956184Y-94851000D01*
X134791772Y-94818297D01*
X134636900Y-94754147D01*
X134497519Y-94661015D01*
X134378985Y-94542481D01*
X134285853Y-94403100D01*
X134221703Y-94248228D01*
X134189000Y-94083816D01*
X134189000Y-93916184D01*
X134221703Y-93751772D01*
X134285853Y-93596900D01*
X134378985Y-93457519D01*
X134497519Y-93338985D01*
X134636900Y-93245853D01*
X134791772Y-93181703D01*
X134956184Y-93149000D01*
X135123816Y-93149000D01*
X135288228Y-93181703D01*
G37*
G36*
X122588228Y-93181703D02*
G01*
X122743100Y-93245853D01*
X122882481Y-93338985D01*
X123001015Y-93457519D01*
X123094147Y-93596900D01*
X123158297Y-93751772D01*
X123191000Y-93916184D01*
X123191000Y-94083816D01*
X123158297Y-94248228D01*
X123094147Y-94403100D01*
X123001015Y-94542481D01*
X122882481Y-94661015D01*
X122743100Y-94754147D01*
X122588228Y-94818297D01*
X122423816Y-94851000D01*
X122256184Y-94851000D01*
X122091772Y-94818297D01*
X121936900Y-94754147D01*
X121797519Y-94661015D01*
X121678985Y-94542481D01*
X121585853Y-94403100D01*
X121521703Y-94248228D01*
X121489000Y-94083816D01*
X121489000Y-93916184D01*
X121521703Y-93751772D01*
X121585853Y-93596900D01*
X121678985Y-93457519D01*
X121797519Y-93338985D01*
X121936900Y-93245853D01*
X122091772Y-93181703D01*
X122256184Y-93149000D01*
X122423816Y-93149000D01*
X122588228Y-93181703D01*
G37*
G36*
X120048228Y-93181703D02*
G01*
X120203100Y-93245853D01*
X120342481Y-93338985D01*
X120461015Y-93457519D01*
X120554147Y-93596900D01*
X120618297Y-93751772D01*
X120651000Y-93916184D01*
X120651000Y-94083816D01*
X120618297Y-94248228D01*
X120554147Y-94403100D01*
X120461015Y-94542481D01*
X120342481Y-94661015D01*
X120203100Y-94754147D01*
X120048228Y-94818297D01*
X119883816Y-94851000D01*
X119716184Y-94851000D01*
X119551772Y-94818297D01*
X119396900Y-94754147D01*
X119257519Y-94661015D01*
X119138985Y-94542481D01*
X119045853Y-94403100D01*
X118981703Y-94248228D01*
X118949000Y-94083816D01*
X118949000Y-93916184D01*
X118981703Y-93751772D01*
X119045853Y-93596900D01*
X119138985Y-93457519D01*
X119257519Y-93338985D01*
X119396900Y-93245853D01*
X119551772Y-93181703D01*
X119716184Y-93149000D01*
X119883816Y-93149000D01*
X120048228Y-93181703D01*
G37*
G36*
X125128228Y-93181703D02*
G01*
X125283100Y-93245853D01*
X125422481Y-93338985D01*
X125541015Y-93457519D01*
X125634147Y-93596900D01*
X125698297Y-93751772D01*
X125731000Y-93916184D01*
X125731000Y-94083816D01*
X125698297Y-94248228D01*
X125634147Y-94403100D01*
X125541015Y-94542481D01*
X125422481Y-94661015D01*
X125283100Y-94754147D01*
X125128228Y-94818297D01*
X124963816Y-94851000D01*
X124796184Y-94851000D01*
X124631772Y-94818297D01*
X124476900Y-94754147D01*
X124337519Y-94661015D01*
X124218985Y-94542481D01*
X124125853Y-94403100D01*
X124061703Y-94248228D01*
X124029000Y-94083816D01*
X124029000Y-93916184D01*
X124061703Y-93751772D01*
X124125853Y-93596900D01*
X124218985Y-93457519D01*
X124337519Y-93338985D01*
X124476900Y-93245853D01*
X124631772Y-93181703D01*
X124796184Y-93149000D01*
X124963816Y-93149000D01*
X125128228Y-93181703D01*
G37*
G36*
X138330899Y-85680832D02*
G01*
X138415520Y-85697664D01*
X138574942Y-85763699D01*
X138718418Y-85859566D01*
X138840434Y-85981582D01*
X138936301Y-86125058D01*
X139002336Y-86284480D01*
X139036000Y-86453721D01*
X139036000Y-86626279D01*
X139002336Y-86795520D01*
X138936301Y-86954942D01*
X138840434Y-87098418D01*
X138718418Y-87220434D01*
X138574942Y-87316301D01*
X138415520Y-87382336D01*
X138246280Y-87416000D01*
X138073720Y-87416000D01*
X137904480Y-87382336D01*
X137745058Y-87316301D01*
X137601582Y-87220434D01*
X137479566Y-87098418D01*
X137383699Y-86954942D01*
X137317664Y-86795520D01*
X137284000Y-86626279D01*
X137284000Y-86453721D01*
X137317664Y-86284480D01*
X137383699Y-86125058D01*
X137479566Y-85981582D01*
X137601582Y-85859566D01*
X137745058Y-85763699D01*
X137904480Y-85697664D01*
X138073720Y-85664000D01*
X138246280Y-85664000D01*
X138330899Y-85680832D01*
G37*
G36*
X142830899Y-85680832D02*
G01*
X142915520Y-85697664D01*
X143074942Y-85763699D01*
X143218418Y-85859566D01*
X143340434Y-85981582D01*
X143436301Y-86125058D01*
X143502336Y-86284480D01*
X143536000Y-86453721D01*
X143536000Y-86626279D01*
X143502336Y-86795520D01*
X143436301Y-86954942D01*
X143340434Y-87098418D01*
X143218418Y-87220434D01*
X143074942Y-87316301D01*
X142915520Y-87382336D01*
X142746280Y-87416000D01*
X142573720Y-87416000D01*
X142404480Y-87382336D01*
X142245058Y-87316301D01*
X142101582Y-87220434D01*
X141979566Y-87098418D01*
X141883699Y-86954942D01*
X141817664Y-86795520D01*
X141784000Y-86626279D01*
X141784000Y-86453721D01*
X141817664Y-86284480D01*
X141883699Y-86125058D01*
X141979566Y-85981582D01*
X142101582Y-85859566D01*
X142245058Y-85763699D01*
X142404480Y-85697664D01*
X142573720Y-85664000D01*
X142746280Y-85664000D01*
X142830899Y-85680832D01*
G37*
G36*
X138415520Y-79197664D02*
G01*
X138574942Y-79263699D01*
X138718418Y-79359566D01*
X138840434Y-79481582D01*
X138936301Y-79625058D01*
X139002336Y-79784480D01*
X139036000Y-79953721D01*
X139036000Y-80126279D01*
X139002336Y-80295520D01*
X138936301Y-80454942D01*
X138840434Y-80598418D01*
X138718418Y-80720434D01*
X138574942Y-80816301D01*
X138415520Y-80882336D01*
X138330899Y-80899168D01*
X138246280Y-80916000D01*
X138073720Y-80916000D01*
X137989101Y-80899168D01*
X137904480Y-80882336D01*
X137745058Y-80816301D01*
X137601582Y-80720434D01*
X137479566Y-80598418D01*
X137383699Y-80454942D01*
X137317664Y-80295520D01*
X137284000Y-80126279D01*
X137284000Y-79953721D01*
X137317664Y-79784480D01*
X137383699Y-79625058D01*
X137479566Y-79481582D01*
X137601582Y-79359566D01*
X137745058Y-79263699D01*
X137904480Y-79197664D01*
X138073720Y-79164000D01*
X138246280Y-79164000D01*
X138415520Y-79197664D01*
G37*
G36*
X142915520Y-79197664D02*
G01*
X143074942Y-79263699D01*
X143218418Y-79359566D01*
X143340434Y-79481582D01*
X143436301Y-79625058D01*
X143502336Y-79784480D01*
X143536000Y-79953721D01*
X143536000Y-80126279D01*
X143502336Y-80295520D01*
X143436301Y-80454942D01*
X143340434Y-80598418D01*
X143218418Y-80720434D01*
X143074942Y-80816301D01*
X142915520Y-80882336D01*
X142830899Y-80899168D01*
X142746280Y-80916000D01*
X142573720Y-80916000D01*
X142489101Y-80899168D01*
X142404480Y-80882336D01*
X142245058Y-80816301D01*
X142101582Y-80720434D01*
X141979566Y-80598418D01*
X141883699Y-80454942D01*
X141817664Y-80295520D01*
X141784000Y-80126279D01*
X141784000Y-79953721D01*
X141817664Y-79784480D01*
X141883699Y-79625058D01*
X141979566Y-79481582D01*
X142101582Y-79359566D01*
X142245058Y-79263699D01*
X142404480Y-79197664D01*
X142573720Y-79164000D01*
X142746280Y-79164000D01*
X142915520Y-79197664D01*
G37*
G36*
X85460721Y-75630174D02*
G01*
X85560995Y-75671709D01*
X85560996Y-75671710D01*
X85651242Y-75732010D01*
X85727990Y-75808758D01*
X85727991Y-75808760D01*
X85788291Y-75899005D01*
X85829826Y-75999279D01*
X85851000Y-76105730D01*
X85851000Y-76214270D01*
X85829826Y-76320721D01*
X85788291Y-76420995D01*
X85788290Y-76420996D01*
X85727990Y-76511242D01*
X85651242Y-76587990D01*
X85605812Y-76618345D01*
X85560995Y-76648291D01*
X85460721Y-76689826D01*
X85354270Y-76711000D01*
X85245730Y-76711000D01*
X85139279Y-76689826D01*
X85039005Y-76648291D01*
X84994188Y-76618345D01*
X84948758Y-76587990D01*
X84872010Y-76511242D01*
X84811710Y-76420996D01*
X84811709Y-76420995D01*
X84770174Y-76320721D01*
X84749000Y-76214270D01*
X84749000Y-76105730D01*
X84770174Y-75999279D01*
X84811709Y-75899005D01*
X84872009Y-75808760D01*
X84872010Y-75808758D01*
X84948758Y-75732010D01*
X85039004Y-75671710D01*
X85039005Y-75671709D01*
X85139279Y-75630174D01*
X85245730Y-75609000D01*
X85354270Y-75609000D01*
X85460721Y-75630174D01*
G37*
G36*
X85460721Y-71230174D02*
G01*
X85560995Y-71271709D01*
X85560996Y-71271710D01*
X85651242Y-71332010D01*
X85727990Y-71408758D01*
X85727991Y-71408760D01*
X85788291Y-71499005D01*
X85829826Y-71599279D01*
X85851000Y-71705730D01*
X85851000Y-71814270D01*
X85829826Y-71920721D01*
X85788291Y-72020995D01*
X85788290Y-72020996D01*
X85727990Y-72111242D01*
X85651242Y-72187990D01*
X85605812Y-72218345D01*
X85560995Y-72248291D01*
X85460721Y-72289826D01*
X85354270Y-72311000D01*
X85245730Y-72311000D01*
X85139279Y-72289826D01*
X85039005Y-72248291D01*
X84994188Y-72218345D01*
X84948758Y-72187990D01*
X84872010Y-72111242D01*
X84811710Y-72020996D01*
X84811709Y-72020995D01*
X84770174Y-71920721D01*
X84749000Y-71814270D01*
X84749000Y-71705730D01*
X84770174Y-71599279D01*
X84811709Y-71499005D01*
X84872009Y-71408760D01*
X84872010Y-71408758D01*
X84948758Y-71332010D01*
X85039004Y-71271710D01*
X85039005Y-71271709D01*
X85139279Y-71230174D01*
X85245730Y-71209000D01*
X85354270Y-71209000D01*
X85460721Y-71230174D01*
G37*
G36*
X115853512Y-60363927D02*
G01*
X116002812Y-60393624D01*
X116166784Y-60461544D01*
X116314354Y-60560147D01*
X116439853Y-60685646D01*
X116538456Y-60833216D01*
X116606376Y-60997188D01*
X116641000Y-61171259D01*
X116641000Y-61348741D01*
X116606376Y-61522812D01*
X116538456Y-61686784D01*
X116439853Y-61834354D01*
X116314354Y-61959853D01*
X116166784Y-62058456D01*
X116002812Y-62126376D01*
X115853512Y-62156073D01*
X115828742Y-62161000D01*
X115651258Y-62161000D01*
X115626488Y-62156073D01*
X115477188Y-62126376D01*
X115313216Y-62058456D01*
X115165646Y-61959853D01*
X115040147Y-61834354D01*
X114941544Y-61686784D01*
X114873624Y-61522812D01*
X114839000Y-61348741D01*
X114839000Y-61171259D01*
X114873624Y-60997188D01*
X114941544Y-60833216D01*
X115040147Y-60685646D01*
X115165646Y-60560147D01*
X115313216Y-60461544D01*
X115477188Y-60393624D01*
X115626488Y-60363927D01*
X115651258Y-60359000D01*
X115828742Y-60359000D01*
X115853512Y-60363927D01*
G37*
G36*
X113313512Y-60363927D02*
G01*
X113462812Y-60393624D01*
X113626784Y-60461544D01*
X113774354Y-60560147D01*
X113899853Y-60685646D01*
X113998456Y-60833216D01*
X114066376Y-60997188D01*
X114101000Y-61171259D01*
X114101000Y-61348741D01*
X114066376Y-61522812D01*
X113998456Y-61686784D01*
X113899853Y-61834354D01*
X113774354Y-61959853D01*
X113626784Y-62058456D01*
X113462812Y-62126376D01*
X113313512Y-62156073D01*
X113288742Y-62161000D01*
X113111258Y-62161000D01*
X113086488Y-62156073D01*
X112937188Y-62126376D01*
X112773216Y-62058456D01*
X112625646Y-61959853D01*
X112500147Y-61834354D01*
X112401544Y-61686784D01*
X112333624Y-61522812D01*
X112299000Y-61348741D01*
X112299000Y-61171259D01*
X112333624Y-60997188D01*
X112401544Y-60833216D01*
X112500147Y-60685646D01*
X112625646Y-60560147D01*
X112773216Y-60461544D01*
X112937188Y-60393624D01*
X113086488Y-60363927D01*
X113111258Y-60359000D01*
X113288742Y-60359000D01*
X113313512Y-60363927D01*
G37*
G36*
X108233512Y-60363927D02*
G01*
X108382812Y-60393624D01*
X108546784Y-60461544D01*
X108694354Y-60560147D01*
X108819853Y-60685646D01*
X108918456Y-60833216D01*
X108986376Y-60997188D01*
X109021000Y-61171259D01*
X109021000Y-61348741D01*
X108986376Y-61522812D01*
X108918456Y-61686784D01*
X108819853Y-61834354D01*
X108694354Y-61959853D01*
X108546784Y-62058456D01*
X108382812Y-62126376D01*
X108233512Y-62156073D01*
X108208742Y-62161000D01*
X108031258Y-62161000D01*
X108006488Y-62156073D01*
X107857188Y-62126376D01*
X107693216Y-62058456D01*
X107545646Y-61959853D01*
X107420147Y-61834354D01*
X107321544Y-61686784D01*
X107253624Y-61522812D01*
X107219000Y-61348741D01*
X107219000Y-61171259D01*
X107253624Y-60997188D01*
X107321544Y-60833216D01*
X107420147Y-60685646D01*
X107545646Y-60560147D01*
X107693216Y-60461544D01*
X107857188Y-60393624D01*
X108006488Y-60363927D01*
X108031258Y-60359000D01*
X108208742Y-60359000D01*
X108233512Y-60363927D01*
G37*
G36*
X105693512Y-60363927D02*
G01*
X105842812Y-60393624D01*
X106006784Y-60461544D01*
X106154354Y-60560147D01*
X106279853Y-60685646D01*
X106378456Y-60833216D01*
X106446376Y-60997188D01*
X106481000Y-61171259D01*
X106481000Y-61348741D01*
X106446376Y-61522812D01*
X106378456Y-61686784D01*
X106279853Y-61834354D01*
X106154354Y-61959853D01*
X106006784Y-62058456D01*
X105842812Y-62126376D01*
X105693512Y-62156073D01*
X105668742Y-62161000D01*
X105491258Y-62161000D01*
X105466488Y-62156073D01*
X105317188Y-62126376D01*
X105153216Y-62058456D01*
X105005646Y-61959853D01*
X104880147Y-61834354D01*
X104781544Y-61686784D01*
X104713624Y-61522812D01*
X104679000Y-61348741D01*
X104679000Y-61171259D01*
X104713624Y-60997188D01*
X104781544Y-60833216D01*
X104880147Y-60685646D01*
X105005646Y-60560147D01*
X105153216Y-60461544D01*
X105317188Y-60393624D01*
X105466488Y-60363927D01*
X105491258Y-60359000D01*
X105668742Y-60359000D01*
X105693512Y-60363927D01*
G37*
G36*
X118393512Y-60363927D02*
G01*
X118542812Y-60393624D01*
X118706784Y-60461544D01*
X118854354Y-60560147D01*
X118979853Y-60685646D01*
X119078456Y-60833216D01*
X119146376Y-60997188D01*
X119181000Y-61171259D01*
X119181000Y-61348741D01*
X119146376Y-61522812D01*
X119078456Y-61686784D01*
X118979853Y-61834354D01*
X118854354Y-61959853D01*
X118706784Y-62058456D01*
X118542812Y-62126376D01*
X118393512Y-62156073D01*
X118368742Y-62161000D01*
X118191258Y-62161000D01*
X118166488Y-62156073D01*
X118017188Y-62126376D01*
X117853216Y-62058456D01*
X117705646Y-61959853D01*
X117580147Y-61834354D01*
X117481544Y-61686784D01*
X117413624Y-61522812D01*
X117379000Y-61348741D01*
X117379000Y-61171259D01*
X117413624Y-60997188D01*
X117481544Y-60833216D01*
X117580147Y-60685646D01*
X117705646Y-60560147D01*
X117853216Y-60461544D01*
X118017188Y-60393624D01*
X118166488Y-60363927D01*
X118191258Y-60359000D01*
X118368742Y-60359000D01*
X118393512Y-60363927D01*
G37*
G36*
X120933512Y-60363927D02*
G01*
X121082812Y-60393624D01*
X121246784Y-60461544D01*
X121394354Y-60560147D01*
X121519853Y-60685646D01*
X121618456Y-60833216D01*
X121686376Y-60997188D01*
X121721000Y-61171259D01*
X121721000Y-61348741D01*
X121686376Y-61522812D01*
X121618456Y-61686784D01*
X121519853Y-61834354D01*
X121394354Y-61959853D01*
X121246784Y-62058456D01*
X121082812Y-62126376D01*
X120933512Y-62156073D01*
X120908742Y-62161000D01*
X120731258Y-62161000D01*
X120706488Y-62156073D01*
X120557188Y-62126376D01*
X120393216Y-62058456D01*
X120245646Y-61959853D01*
X120120147Y-61834354D01*
X120021544Y-61686784D01*
X119953624Y-61522812D01*
X119919000Y-61348741D01*
X119919000Y-61171259D01*
X119953624Y-60997188D01*
X120021544Y-60833216D01*
X120120147Y-60685646D01*
X120245646Y-60560147D01*
X120393216Y-60461544D01*
X120557188Y-60393624D01*
X120706488Y-60363927D01*
X120731258Y-60359000D01*
X120908742Y-60359000D01*
X120933512Y-60363927D01*
G37*
G36*
X103153512Y-60363927D02*
G01*
X103302812Y-60393624D01*
X103466784Y-60461544D01*
X103614354Y-60560147D01*
X103739853Y-60685646D01*
X103838456Y-60833216D01*
X103906376Y-60997188D01*
X103941000Y-61171259D01*
X103941000Y-61348741D01*
X103906376Y-61522812D01*
X103838456Y-61686784D01*
X103739853Y-61834354D01*
X103614354Y-61959853D01*
X103466784Y-62058456D01*
X103302812Y-62126376D01*
X103153512Y-62156073D01*
X103128742Y-62161000D01*
X102951258Y-62161000D01*
X102926488Y-62156073D01*
X102777188Y-62126376D01*
X102613216Y-62058456D01*
X102465646Y-61959853D01*
X102340147Y-61834354D01*
X102241544Y-61686784D01*
X102173624Y-61522812D01*
X102139000Y-61348741D01*
X102139000Y-61171259D01*
X102173624Y-60997188D01*
X102241544Y-60833216D01*
X102340147Y-60685646D01*
X102465646Y-60560147D01*
X102613216Y-60461544D01*
X102777188Y-60393624D01*
X102926488Y-60363927D01*
X102951258Y-60359000D01*
X103128742Y-60359000D01*
X103153512Y-60363927D01*
G37*
G36*
X100613512Y-60363927D02*
G01*
X100762812Y-60393624D01*
X100926784Y-60461544D01*
X101074354Y-60560147D01*
X101199853Y-60685646D01*
X101298456Y-60833216D01*
X101366376Y-60997188D01*
X101401000Y-61171259D01*
X101401000Y-61348741D01*
X101366376Y-61522812D01*
X101298456Y-61686784D01*
X101199853Y-61834354D01*
X101074354Y-61959853D01*
X100926784Y-62058456D01*
X100762812Y-62126376D01*
X100613512Y-62156073D01*
X100588742Y-62161000D01*
X100411258Y-62161000D01*
X100386488Y-62156073D01*
X100237188Y-62126376D01*
X100073216Y-62058456D01*
X99925646Y-61959853D01*
X99800147Y-61834354D01*
X99701544Y-61686784D01*
X99633624Y-61522812D01*
X99599000Y-61348741D01*
X99599000Y-61171259D01*
X99633624Y-60997188D01*
X99701544Y-60833216D01*
X99800147Y-60685646D01*
X99925646Y-60560147D01*
X100073216Y-60461544D01*
X100237188Y-60393624D01*
X100386488Y-60363927D01*
X100411258Y-60359000D01*
X100588742Y-60359000D01*
X100613512Y-60363927D01*
G37*
G36*
X98861000Y-62161000D02*
G01*
X97059000Y-62161000D01*
X97059000Y-60359000D01*
X98861000Y-60359000D01*
X98861000Y-62161000D01*
G37*
G36*
X140233512Y-60363927D02*
G01*
X140382812Y-60393624D01*
X140546784Y-60461544D01*
X140694354Y-60560147D01*
X140819853Y-60685646D01*
X140918456Y-60833216D01*
X140986376Y-60997188D01*
X141021000Y-61171259D01*
X141021000Y-61348741D01*
X140986376Y-61522812D01*
X140918456Y-61686784D01*
X140819853Y-61834354D01*
X140694354Y-61959853D01*
X140546784Y-62058456D01*
X140382812Y-62126376D01*
X140233512Y-62156073D01*
X140208742Y-62161000D01*
X140031258Y-62161000D01*
X140006488Y-62156073D01*
X139857188Y-62126376D01*
X139693216Y-62058456D01*
X139545646Y-61959853D01*
X139420147Y-61834354D01*
X139321544Y-61686784D01*
X139253624Y-61522812D01*
X139219000Y-61348741D01*
X139219000Y-61171259D01*
X139253624Y-60997188D01*
X139321544Y-60833216D01*
X139420147Y-60685646D01*
X139545646Y-60560147D01*
X139693216Y-60461544D01*
X139857188Y-60393624D01*
X140006488Y-60363927D01*
X140031258Y-60359000D01*
X140208742Y-60359000D01*
X140233512Y-60363927D01*
G37*
G36*
X142773512Y-60363927D02*
G01*
X142922812Y-60393624D01*
X143086784Y-60461544D01*
X143234354Y-60560147D01*
X143359853Y-60685646D01*
X143458456Y-60833216D01*
X143526376Y-60997188D01*
X143561000Y-61171259D01*
X143561000Y-61348741D01*
X143526376Y-61522812D01*
X143458456Y-61686784D01*
X143359853Y-61834354D01*
X143234354Y-61959853D01*
X143086784Y-62058456D01*
X142922812Y-62126376D01*
X142773512Y-62156073D01*
X142748742Y-62161000D01*
X142571258Y-62161000D01*
X142546488Y-62156073D01*
X142397188Y-62126376D01*
X142233216Y-62058456D01*
X142085646Y-61959853D01*
X141960147Y-61834354D01*
X141861544Y-61686784D01*
X141793624Y-61522812D01*
X141759000Y-61348741D01*
X141759000Y-61171259D01*
X141793624Y-60997188D01*
X141861544Y-60833216D01*
X141960147Y-60685646D01*
X142085646Y-60560147D01*
X142233216Y-60461544D01*
X142397188Y-60393624D01*
X142546488Y-60363927D01*
X142571258Y-60359000D01*
X142748742Y-60359000D01*
X142773512Y-60363927D01*
G37*
G36*
X110773512Y-60363927D02*
G01*
X110922812Y-60393624D01*
X111086784Y-60461544D01*
X111234354Y-60560147D01*
X111359853Y-60685646D01*
X111458456Y-60833216D01*
X111526376Y-60997188D01*
X111561000Y-61171259D01*
X111561000Y-61348741D01*
X111526376Y-61522812D01*
X111458456Y-61686784D01*
X111359853Y-61834354D01*
X111234354Y-61959853D01*
X111086784Y-62058456D01*
X110922812Y-62126376D01*
X110773512Y-62156073D01*
X110748742Y-62161000D01*
X110571258Y-62161000D01*
X110546488Y-62156073D01*
X110397188Y-62126376D01*
X110233216Y-62058456D01*
X110085646Y-61959853D01*
X109960147Y-61834354D01*
X109861544Y-61686784D01*
X109793624Y-61522812D01*
X109759000Y-61348741D01*
X109759000Y-61171259D01*
X109793624Y-60997188D01*
X109861544Y-60833216D01*
X109960147Y-60685646D01*
X110085646Y-60560147D01*
X110233216Y-60461544D01*
X110397188Y-60393624D01*
X110546488Y-60363927D01*
X110571258Y-60359000D01*
X110748742Y-60359000D01*
X110773512Y-60363927D01*
G37*
G36*
X125781000Y-62161000D02*
G01*
X123979000Y-62161000D01*
X123979000Y-60359000D01*
X125781000Y-60359000D01*
X125781000Y-62161000D01*
G37*
G36*
X127533512Y-60363927D02*
G01*
X127682812Y-60393624D01*
X127846784Y-60461544D01*
X127994354Y-60560147D01*
X128119853Y-60685646D01*
X128218456Y-60833216D01*
X128286376Y-60997188D01*
X128321000Y-61171259D01*
X128321000Y-61348741D01*
X128286376Y-61522812D01*
X128218456Y-61686784D01*
X128119853Y-61834354D01*
X127994354Y-61959853D01*
X127846784Y-62058456D01*
X127682812Y-62126376D01*
X127533512Y-62156073D01*
X127508742Y-62161000D01*
X127331258Y-62161000D01*
X127306488Y-62156073D01*
X127157188Y-62126376D01*
X126993216Y-62058456D01*
X126845646Y-61959853D01*
X126720147Y-61834354D01*
X126621544Y-61686784D01*
X126553624Y-61522812D01*
X126519000Y-61348741D01*
X126519000Y-61171259D01*
X126553624Y-60997188D01*
X126621544Y-60833216D01*
X126720147Y-60685646D01*
X126845646Y-60560147D01*
X126993216Y-60461544D01*
X127157188Y-60393624D01*
X127306488Y-60363927D01*
X127331258Y-60359000D01*
X127508742Y-60359000D01*
X127533512Y-60363927D01*
G37*
G36*
X130073512Y-60363927D02*
G01*
X130222812Y-60393624D01*
X130386784Y-60461544D01*
X130534354Y-60560147D01*
X130659853Y-60685646D01*
X130758456Y-60833216D01*
X130826376Y-60997188D01*
X130861000Y-61171259D01*
X130861000Y-61348741D01*
X130826376Y-61522812D01*
X130758456Y-61686784D01*
X130659853Y-61834354D01*
X130534354Y-61959853D01*
X130386784Y-62058456D01*
X130222812Y-62126376D01*
X130073512Y-62156073D01*
X130048742Y-62161000D01*
X129871258Y-62161000D01*
X129846488Y-62156073D01*
X129697188Y-62126376D01*
X129533216Y-62058456D01*
X129385646Y-61959853D01*
X129260147Y-61834354D01*
X129161544Y-61686784D01*
X129093624Y-61522812D01*
X129059000Y-61348741D01*
X129059000Y-61171259D01*
X129093624Y-60997188D01*
X129161544Y-60833216D01*
X129260147Y-60685646D01*
X129385646Y-60560147D01*
X129533216Y-60461544D01*
X129697188Y-60393624D01*
X129846488Y-60363927D01*
X129871258Y-60359000D01*
X130048742Y-60359000D01*
X130073512Y-60363927D01*
G37*
G36*
X132613512Y-60363927D02*
G01*
X132762812Y-60393624D01*
X132926784Y-60461544D01*
X133074354Y-60560147D01*
X133199853Y-60685646D01*
X133298456Y-60833216D01*
X133366376Y-60997188D01*
X133401000Y-61171259D01*
X133401000Y-61348741D01*
X133366376Y-61522812D01*
X133298456Y-61686784D01*
X133199853Y-61834354D01*
X133074354Y-61959853D01*
X132926784Y-62058456D01*
X132762812Y-62126376D01*
X132613512Y-62156073D01*
X132588742Y-62161000D01*
X132411258Y-62161000D01*
X132386488Y-62156073D01*
X132237188Y-62126376D01*
X132073216Y-62058456D01*
X131925646Y-61959853D01*
X131800147Y-61834354D01*
X131701544Y-61686784D01*
X131633624Y-61522812D01*
X131599000Y-61348741D01*
X131599000Y-61171259D01*
X131633624Y-60997188D01*
X131701544Y-60833216D01*
X131800147Y-60685646D01*
X131925646Y-60560147D01*
X132073216Y-60461544D01*
X132237188Y-60393624D01*
X132386488Y-60363927D01*
X132411258Y-60359000D01*
X132588742Y-60359000D01*
X132613512Y-60363927D01*
G37*
G36*
X135153512Y-60363927D02*
G01*
X135302812Y-60393624D01*
X135466784Y-60461544D01*
X135614354Y-60560147D01*
X135739853Y-60685646D01*
X135838456Y-60833216D01*
X135906376Y-60997188D01*
X135941000Y-61171259D01*
X135941000Y-61348741D01*
X135906376Y-61522812D01*
X135838456Y-61686784D01*
X135739853Y-61834354D01*
X135614354Y-61959853D01*
X135466784Y-62058456D01*
X135302812Y-62126376D01*
X135153512Y-62156073D01*
X135128742Y-62161000D01*
X134951258Y-62161000D01*
X134926488Y-62156073D01*
X134777188Y-62126376D01*
X134613216Y-62058456D01*
X134465646Y-61959853D01*
X134340147Y-61834354D01*
X134241544Y-61686784D01*
X134173624Y-61522812D01*
X134139000Y-61348741D01*
X134139000Y-61171259D01*
X134173624Y-60997188D01*
X134241544Y-60833216D01*
X134340147Y-60685646D01*
X134465646Y-60560147D01*
X134613216Y-60461544D01*
X134777188Y-60393624D01*
X134926488Y-60363927D01*
X134951258Y-60359000D01*
X135128742Y-60359000D01*
X135153512Y-60363927D01*
G37*
G36*
X137693512Y-60363927D02*
G01*
X137842812Y-60393624D01*
X138006784Y-60461544D01*
X138154354Y-60560147D01*
X138279853Y-60685646D01*
X138378456Y-60833216D01*
X138446376Y-60997188D01*
X138481000Y-61171259D01*
X138481000Y-61348741D01*
X138446376Y-61522812D01*
X138378456Y-61686784D01*
X138279853Y-61834354D01*
X138154354Y-61959853D01*
X138006784Y-62058456D01*
X137842812Y-62126376D01*
X137693512Y-62156073D01*
X137668742Y-62161000D01*
X137491258Y-62161000D01*
X137466488Y-62156073D01*
X137317188Y-62126376D01*
X137153216Y-62058456D01*
X137005646Y-61959853D01*
X136880147Y-61834354D01*
X136781544Y-61686784D01*
X136713624Y-61522812D01*
X136679000Y-61348741D01*
X136679000Y-61171259D01*
X136713624Y-60997188D01*
X136781544Y-60833216D01*
X136880147Y-60685646D01*
X137005646Y-60560147D01*
X137153216Y-60461544D01*
X137317188Y-60393624D01*
X137466488Y-60363927D01*
X137491258Y-60359000D01*
X137668742Y-60359000D01*
X137693512Y-60363927D01*
G37*
G36*
X98861000Y-57301000D02*
G01*
X97059000Y-57301000D01*
X97059000Y-55499000D01*
X98861000Y-55499000D01*
X98861000Y-57301000D01*
G37*
G36*
X100613512Y-55503927D02*
G01*
X100762812Y-55533624D01*
X100926784Y-55601544D01*
X101074354Y-55700147D01*
X101199853Y-55825646D01*
X101298456Y-55973216D01*
X101366376Y-56137188D01*
X101401000Y-56311259D01*
X101401000Y-56488741D01*
X101366376Y-56662812D01*
X101298456Y-56826784D01*
X101199853Y-56974354D01*
X101074354Y-57099853D01*
X100926784Y-57198456D01*
X100762812Y-57266376D01*
X100613512Y-57296073D01*
X100588742Y-57301000D01*
X100411258Y-57301000D01*
X100386488Y-57296073D01*
X100237188Y-57266376D01*
X100073216Y-57198456D01*
X99925646Y-57099853D01*
X99800147Y-56974354D01*
X99701544Y-56826784D01*
X99633624Y-56662812D01*
X99599000Y-56488741D01*
X99599000Y-56311259D01*
X99633624Y-56137188D01*
X99701544Y-55973216D01*
X99800147Y-55825646D01*
X99925646Y-55700147D01*
X100073216Y-55601544D01*
X100237188Y-55533624D01*
X100386488Y-55503927D01*
X100411258Y-55499000D01*
X100588742Y-55499000D01*
X100613512Y-55503927D01*
G37*
G36*
X103153512Y-55503927D02*
G01*
X103302812Y-55533624D01*
X103466784Y-55601544D01*
X103614354Y-55700147D01*
X103739853Y-55825646D01*
X103838456Y-55973216D01*
X103906376Y-56137188D01*
X103941000Y-56311259D01*
X103941000Y-56488741D01*
X103906376Y-56662812D01*
X103838456Y-56826784D01*
X103739853Y-56974354D01*
X103614354Y-57099853D01*
X103466784Y-57198456D01*
X103302812Y-57266376D01*
X103153512Y-57296073D01*
X103128742Y-57301000D01*
X102951258Y-57301000D01*
X102926488Y-57296073D01*
X102777188Y-57266376D01*
X102613216Y-57198456D01*
X102465646Y-57099853D01*
X102340147Y-56974354D01*
X102241544Y-56826784D01*
X102173624Y-56662812D01*
X102139000Y-56488741D01*
X102139000Y-56311259D01*
X102173624Y-56137188D01*
X102241544Y-55973216D01*
X102340147Y-55825646D01*
X102465646Y-55700147D01*
X102613216Y-55601544D01*
X102777188Y-55533624D01*
X102926488Y-55503927D01*
X102951258Y-55499000D01*
X103128742Y-55499000D01*
X103153512Y-55503927D01*
G37*
G36*
X105693512Y-55503927D02*
G01*
X105842812Y-55533624D01*
X106006784Y-55601544D01*
X106154354Y-55700147D01*
X106279853Y-55825646D01*
X106378456Y-55973216D01*
X106446376Y-56137188D01*
X106481000Y-56311259D01*
X106481000Y-56488741D01*
X106446376Y-56662812D01*
X106378456Y-56826784D01*
X106279853Y-56974354D01*
X106154354Y-57099853D01*
X106006784Y-57198456D01*
X105842812Y-57266376D01*
X105693512Y-57296073D01*
X105668742Y-57301000D01*
X105491258Y-57301000D01*
X105466488Y-57296073D01*
X105317188Y-57266376D01*
X105153216Y-57198456D01*
X105005646Y-57099853D01*
X104880147Y-56974354D01*
X104781544Y-56826784D01*
X104713624Y-56662812D01*
X104679000Y-56488741D01*
X104679000Y-56311259D01*
X104713624Y-56137188D01*
X104781544Y-55973216D01*
X104880147Y-55825646D01*
X105005646Y-55700147D01*
X105153216Y-55601544D01*
X105317188Y-55533624D01*
X105466488Y-55503927D01*
X105491258Y-55499000D01*
X105668742Y-55499000D01*
X105693512Y-55503927D01*
G37*
G36*
X108233512Y-55503927D02*
G01*
X108382812Y-55533624D01*
X108546784Y-55601544D01*
X108694354Y-55700147D01*
X108819853Y-55825646D01*
X108918456Y-55973216D01*
X108986376Y-56137188D01*
X109021000Y-56311259D01*
X109021000Y-56488741D01*
X108986376Y-56662812D01*
X108918456Y-56826784D01*
X108819853Y-56974354D01*
X108694354Y-57099853D01*
X108546784Y-57198456D01*
X108382812Y-57266376D01*
X108233512Y-57296073D01*
X108208742Y-57301000D01*
X108031258Y-57301000D01*
X108006488Y-57296073D01*
X107857188Y-57266376D01*
X107693216Y-57198456D01*
X107545646Y-57099853D01*
X107420147Y-56974354D01*
X107321544Y-56826784D01*
X107253624Y-56662812D01*
X107219000Y-56488741D01*
X107219000Y-56311259D01*
X107253624Y-56137188D01*
X107321544Y-55973216D01*
X107420147Y-55825646D01*
X107545646Y-55700147D01*
X107693216Y-55601544D01*
X107857188Y-55533624D01*
X108006488Y-55503927D01*
X108031258Y-55499000D01*
X108208742Y-55499000D01*
X108233512Y-55503927D01*
G37*
G36*
X110773512Y-55503927D02*
G01*
X110922812Y-55533624D01*
X111086784Y-55601544D01*
X111234354Y-55700147D01*
X111359853Y-55825646D01*
X111458456Y-55973216D01*
X111526376Y-56137188D01*
X111561000Y-56311259D01*
X111561000Y-56488741D01*
X111526376Y-56662812D01*
X111458456Y-56826784D01*
X111359853Y-56974354D01*
X111234354Y-57099853D01*
X111086784Y-57198456D01*
X110922812Y-57266376D01*
X110773512Y-57296073D01*
X110748742Y-57301000D01*
X110571258Y-57301000D01*
X110546488Y-57296073D01*
X110397188Y-57266376D01*
X110233216Y-57198456D01*
X110085646Y-57099853D01*
X109960147Y-56974354D01*
X109861544Y-56826784D01*
X109793624Y-56662812D01*
X109759000Y-56488741D01*
X109759000Y-56311259D01*
X109793624Y-56137188D01*
X109861544Y-55973216D01*
X109960147Y-55825646D01*
X110085646Y-55700147D01*
X110233216Y-55601544D01*
X110397188Y-55533624D01*
X110546488Y-55503927D01*
X110571258Y-55499000D01*
X110748742Y-55499000D01*
X110773512Y-55503927D01*
G37*
G36*
X142773512Y-55503927D02*
G01*
X142922812Y-55533624D01*
X143086784Y-55601544D01*
X143234354Y-55700147D01*
X143359853Y-55825646D01*
X143458456Y-55973216D01*
X143526376Y-56137188D01*
X143561000Y-56311259D01*
X143561000Y-56488741D01*
X143526376Y-56662812D01*
X143458456Y-56826784D01*
X143359853Y-56974354D01*
X143234354Y-57099853D01*
X143086784Y-57198456D01*
X142922812Y-57266376D01*
X142773512Y-57296073D01*
X142748742Y-57301000D01*
X142571258Y-57301000D01*
X142546488Y-57296073D01*
X142397188Y-57266376D01*
X142233216Y-57198456D01*
X142085646Y-57099853D01*
X141960147Y-56974354D01*
X141861544Y-56826784D01*
X141793624Y-56662812D01*
X141759000Y-56488741D01*
X141759000Y-56311259D01*
X141793624Y-56137188D01*
X141861544Y-55973216D01*
X141960147Y-55825646D01*
X142085646Y-55700147D01*
X142233216Y-55601544D01*
X142397188Y-55533624D01*
X142546488Y-55503927D01*
X142571258Y-55499000D01*
X142748742Y-55499000D01*
X142773512Y-55503927D01*
G37*
G36*
X140233512Y-55503927D02*
G01*
X140382812Y-55533624D01*
X140546784Y-55601544D01*
X140694354Y-55700147D01*
X140819853Y-55825646D01*
X140918456Y-55973216D01*
X140986376Y-56137188D01*
X141021000Y-56311259D01*
X141021000Y-56488741D01*
X140986376Y-56662812D01*
X140918456Y-56826784D01*
X140819853Y-56974354D01*
X140694354Y-57099853D01*
X140546784Y-57198456D01*
X140382812Y-57266376D01*
X140233512Y-57296073D01*
X140208742Y-57301000D01*
X140031258Y-57301000D01*
X140006488Y-57296073D01*
X139857188Y-57266376D01*
X139693216Y-57198456D01*
X139545646Y-57099853D01*
X139420147Y-56974354D01*
X139321544Y-56826784D01*
X139253624Y-56662812D01*
X139219000Y-56488741D01*
X139219000Y-56311259D01*
X139253624Y-56137188D01*
X139321544Y-55973216D01*
X139420147Y-55825646D01*
X139545646Y-55700147D01*
X139693216Y-55601544D01*
X139857188Y-55533624D01*
X140006488Y-55503927D01*
X140031258Y-55499000D01*
X140208742Y-55499000D01*
X140233512Y-55503927D01*
G37*
G36*
X113313512Y-55503927D02*
G01*
X113462812Y-55533624D01*
X113626784Y-55601544D01*
X113774354Y-55700147D01*
X113899853Y-55825646D01*
X113998456Y-55973216D01*
X114066376Y-56137188D01*
X114101000Y-56311259D01*
X114101000Y-56488741D01*
X114066376Y-56662812D01*
X113998456Y-56826784D01*
X113899853Y-56974354D01*
X113774354Y-57099853D01*
X113626784Y-57198456D01*
X113462812Y-57266376D01*
X113313512Y-57296073D01*
X113288742Y-57301000D01*
X113111258Y-57301000D01*
X113086488Y-57296073D01*
X112937188Y-57266376D01*
X112773216Y-57198456D01*
X112625646Y-57099853D01*
X112500147Y-56974354D01*
X112401544Y-56826784D01*
X112333624Y-56662812D01*
X112299000Y-56488741D01*
X112299000Y-56311259D01*
X112333624Y-56137188D01*
X112401544Y-55973216D01*
X112500147Y-55825646D01*
X112625646Y-55700147D01*
X112773216Y-55601544D01*
X112937188Y-55533624D01*
X113086488Y-55503927D01*
X113111258Y-55499000D01*
X113288742Y-55499000D01*
X113313512Y-55503927D01*
G37*
G36*
X135153512Y-55503927D02*
G01*
X135302812Y-55533624D01*
X135466784Y-55601544D01*
X135614354Y-55700147D01*
X135739853Y-55825646D01*
X135838456Y-55973216D01*
X135906376Y-56137188D01*
X135941000Y-56311259D01*
X135941000Y-56488741D01*
X135906376Y-56662812D01*
X135838456Y-56826784D01*
X135739853Y-56974354D01*
X135614354Y-57099853D01*
X135466784Y-57198456D01*
X135302812Y-57266376D01*
X135153512Y-57296073D01*
X135128742Y-57301000D01*
X134951258Y-57301000D01*
X134926488Y-57296073D01*
X134777188Y-57266376D01*
X134613216Y-57198456D01*
X134465646Y-57099853D01*
X134340147Y-56974354D01*
X134241544Y-56826784D01*
X134173624Y-56662812D01*
X134139000Y-56488741D01*
X134139000Y-56311259D01*
X134173624Y-56137188D01*
X134241544Y-55973216D01*
X134340147Y-55825646D01*
X134465646Y-55700147D01*
X134613216Y-55601544D01*
X134777188Y-55533624D01*
X134926488Y-55503927D01*
X134951258Y-55499000D01*
X135128742Y-55499000D01*
X135153512Y-55503927D01*
G37*
G36*
X132613512Y-55503927D02*
G01*
X132762812Y-55533624D01*
X132926784Y-55601544D01*
X133074354Y-55700147D01*
X133199853Y-55825646D01*
X133298456Y-55973216D01*
X133366376Y-56137188D01*
X133401000Y-56311259D01*
X133401000Y-56488741D01*
X133366376Y-56662812D01*
X133298456Y-56826784D01*
X133199853Y-56974354D01*
X133074354Y-57099853D01*
X132926784Y-57198456D01*
X132762812Y-57266376D01*
X132613512Y-57296073D01*
X132588742Y-57301000D01*
X132411258Y-57301000D01*
X132386488Y-57296073D01*
X132237188Y-57266376D01*
X132073216Y-57198456D01*
X131925646Y-57099853D01*
X131800147Y-56974354D01*
X131701544Y-56826784D01*
X131633624Y-56662812D01*
X131599000Y-56488741D01*
X131599000Y-56311259D01*
X131633624Y-56137188D01*
X131701544Y-55973216D01*
X131800147Y-55825646D01*
X131925646Y-55700147D01*
X132073216Y-55601544D01*
X132237188Y-55533624D01*
X132386488Y-55503927D01*
X132411258Y-55499000D01*
X132588742Y-55499000D01*
X132613512Y-55503927D01*
G37*
G36*
X130073512Y-55503927D02*
G01*
X130222812Y-55533624D01*
X130386784Y-55601544D01*
X130534354Y-55700147D01*
X130659853Y-55825646D01*
X130758456Y-55973216D01*
X130826376Y-56137188D01*
X130861000Y-56311259D01*
X130861000Y-56488741D01*
X130826376Y-56662812D01*
X130758456Y-56826784D01*
X130659853Y-56974354D01*
X130534354Y-57099853D01*
X130386784Y-57198456D01*
X130222812Y-57266376D01*
X130073512Y-57296073D01*
X130048742Y-57301000D01*
X129871258Y-57301000D01*
X129846488Y-57296073D01*
X129697188Y-57266376D01*
X129533216Y-57198456D01*
X129385646Y-57099853D01*
X129260147Y-56974354D01*
X129161544Y-56826784D01*
X129093624Y-56662812D01*
X129059000Y-56488741D01*
X129059000Y-56311259D01*
X129093624Y-56137188D01*
X129161544Y-55973216D01*
X129260147Y-55825646D01*
X129385646Y-55700147D01*
X129533216Y-55601544D01*
X129697188Y-55533624D01*
X129846488Y-55503927D01*
X129871258Y-55499000D01*
X130048742Y-55499000D01*
X130073512Y-55503927D01*
G37*
G36*
X127533512Y-55503927D02*
G01*
X127682812Y-55533624D01*
X127846784Y-55601544D01*
X127994354Y-55700147D01*
X128119853Y-55825646D01*
X128218456Y-55973216D01*
X128286376Y-56137188D01*
X128321000Y-56311259D01*
X128321000Y-56488741D01*
X128286376Y-56662812D01*
X128218456Y-56826784D01*
X128119853Y-56974354D01*
X127994354Y-57099853D01*
X127846784Y-57198456D01*
X127682812Y-57266376D01*
X127533512Y-57296073D01*
X127508742Y-57301000D01*
X127331258Y-57301000D01*
X127306488Y-57296073D01*
X127157188Y-57266376D01*
X126993216Y-57198456D01*
X126845646Y-57099853D01*
X126720147Y-56974354D01*
X126621544Y-56826784D01*
X126553624Y-56662812D01*
X126519000Y-56488741D01*
X126519000Y-56311259D01*
X126553624Y-56137188D01*
X126621544Y-55973216D01*
X126720147Y-55825646D01*
X126845646Y-55700147D01*
X126993216Y-55601544D01*
X127157188Y-55533624D01*
X127306488Y-55503927D01*
X127331258Y-55499000D01*
X127508742Y-55499000D01*
X127533512Y-55503927D01*
G37*
G36*
X125781000Y-57301000D02*
G01*
X123979000Y-57301000D01*
X123979000Y-55499000D01*
X125781000Y-55499000D01*
X125781000Y-57301000D01*
G37*
G36*
X120933512Y-55503927D02*
G01*
X121082812Y-55533624D01*
X121246784Y-55601544D01*
X121394354Y-55700147D01*
X121519853Y-55825646D01*
X121618456Y-55973216D01*
X121686376Y-56137188D01*
X121721000Y-56311259D01*
X121721000Y-56488741D01*
X121686376Y-56662812D01*
X121618456Y-56826784D01*
X121519853Y-56974354D01*
X121394354Y-57099853D01*
X121246784Y-57198456D01*
X121082812Y-57266376D01*
X120933512Y-57296073D01*
X120908742Y-57301000D01*
X120731258Y-57301000D01*
X120706488Y-57296073D01*
X120557188Y-57266376D01*
X120393216Y-57198456D01*
X120245646Y-57099853D01*
X120120147Y-56974354D01*
X120021544Y-56826784D01*
X119953624Y-56662812D01*
X119919000Y-56488741D01*
X119919000Y-56311259D01*
X119953624Y-56137188D01*
X120021544Y-55973216D01*
X120120147Y-55825646D01*
X120245646Y-55700147D01*
X120393216Y-55601544D01*
X120557188Y-55533624D01*
X120706488Y-55503927D01*
X120731258Y-55499000D01*
X120908742Y-55499000D01*
X120933512Y-55503927D01*
G37*
G36*
X118393512Y-55503927D02*
G01*
X118542812Y-55533624D01*
X118706784Y-55601544D01*
X118854354Y-55700147D01*
X118979853Y-55825646D01*
X119078456Y-55973216D01*
X119146376Y-56137188D01*
X119181000Y-56311259D01*
X119181000Y-56488741D01*
X119146376Y-56662812D01*
X119078456Y-56826784D01*
X118979853Y-56974354D01*
X118854354Y-57099853D01*
X118706784Y-57198456D01*
X118542812Y-57266376D01*
X118393512Y-57296073D01*
X118368742Y-57301000D01*
X118191258Y-57301000D01*
X118166488Y-57296073D01*
X118017188Y-57266376D01*
X117853216Y-57198456D01*
X117705646Y-57099853D01*
X117580147Y-56974354D01*
X117481544Y-56826784D01*
X117413624Y-56662812D01*
X117379000Y-56488741D01*
X117379000Y-56311259D01*
X117413624Y-56137188D01*
X117481544Y-55973216D01*
X117580147Y-55825646D01*
X117705646Y-55700147D01*
X117853216Y-55601544D01*
X118017188Y-55533624D01*
X118166488Y-55503927D01*
X118191258Y-55499000D01*
X118368742Y-55499000D01*
X118393512Y-55503927D01*
G37*
G36*
X115853512Y-55503927D02*
G01*
X116002812Y-55533624D01*
X116166784Y-55601544D01*
X116314354Y-55700147D01*
X116439853Y-55825646D01*
X116538456Y-55973216D01*
X116606376Y-56137188D01*
X116641000Y-56311259D01*
X116641000Y-56488741D01*
X116606376Y-56662812D01*
X116538456Y-56826784D01*
X116439853Y-56974354D01*
X116314354Y-57099853D01*
X116166784Y-57198456D01*
X116002812Y-57266376D01*
X115853512Y-57296073D01*
X115828742Y-57301000D01*
X115651258Y-57301000D01*
X115626488Y-57296073D01*
X115477188Y-57266376D01*
X115313216Y-57198456D01*
X115165646Y-57099853D01*
X115040147Y-56974354D01*
X114941544Y-56826784D01*
X114873624Y-56662812D01*
X114839000Y-56488741D01*
X114839000Y-56311259D01*
X114873624Y-56137188D01*
X114941544Y-55973216D01*
X115040147Y-55825646D01*
X115165646Y-55700147D01*
X115313216Y-55601544D01*
X115477188Y-55533624D01*
X115626488Y-55503927D01*
X115651258Y-55499000D01*
X115828742Y-55499000D01*
X115853512Y-55503927D01*
G37*
G36*
X137693512Y-55503927D02*
G01*
X137842812Y-55533624D01*
X138006784Y-55601544D01*
X138154354Y-55700147D01*
X138279853Y-55825646D01*
X138378456Y-55973216D01*
X138446376Y-56137188D01*
X138481000Y-56311259D01*
X138481000Y-56488741D01*
X138446376Y-56662812D01*
X138378456Y-56826784D01*
X138279853Y-56974354D01*
X138154354Y-57099853D01*
X138006784Y-57198456D01*
X137842812Y-57266376D01*
X137693512Y-57296073D01*
X137668742Y-57301000D01*
X137491258Y-57301000D01*
X137466488Y-57296073D01*
X137317188Y-57266376D01*
X137153216Y-57198456D01*
X137005646Y-57099853D01*
X136880147Y-56974354D01*
X136781544Y-56826784D01*
X136713624Y-56662812D01*
X136679000Y-56488741D01*
X136679000Y-56311259D01*
X136713624Y-56137188D01*
X136781544Y-55973216D01*
X136880147Y-55825646D01*
X137005646Y-55700147D01*
X137153216Y-55601544D01*
X137317188Y-55533624D01*
X137466488Y-55503927D01*
X137491258Y-55499000D01*
X137668742Y-55499000D01*
X137693512Y-55503927D01*
G37*
M02*
