G04 #@! TF.GenerationSoftware,KiCad,Pcbnew,(5.1.5)-3*
G04 #@! TF.CreationDate,2020-05-22T01:35:11+09:00*
G04 #@! TF.ProjectId,custom_arduino,63757374-6f6d-45f6-9172-6475696e6f2e,rev?*
G04 #@! TF.SameCoordinates,Original*
G04 #@! TF.FileFunction,Soldermask,Top*
G04 #@! TF.FilePolarity,Negative*
%FSLAX46Y46*%
G04 Gerber Fmt 4.6, Leading zero omitted, Abs format (unit mm)*
G04 Created by KiCad (PCBNEW (5.1.5)-3) date 2020-05-22 01:35:11*
%MOMM*%
%LPD*%
G04 APERTURE LIST*
%ADD10C,0.100000*%
G04 APERTURE END LIST*
D10*
G36*
X125781000Y-115281000D02*
G01*
X123979000Y-115281000D01*
X123979000Y-113479000D01*
X125781000Y-113479000D01*
X125781000Y-115281000D01*
G37*
G36*
X140233512Y-113483927D02*
G01*
X140382812Y-113513624D01*
X140546784Y-113581544D01*
X140694354Y-113680147D01*
X140819853Y-113805646D01*
X140918456Y-113953216D01*
X140986376Y-114117188D01*
X141021000Y-114291259D01*
X141021000Y-114468741D01*
X140986376Y-114642812D01*
X140918456Y-114806784D01*
X140819853Y-114954354D01*
X140694354Y-115079853D01*
X140546784Y-115178456D01*
X140382812Y-115246376D01*
X140233512Y-115276073D01*
X140208742Y-115281000D01*
X140031258Y-115281000D01*
X140006488Y-115276073D01*
X139857188Y-115246376D01*
X139693216Y-115178456D01*
X139545646Y-115079853D01*
X139420147Y-114954354D01*
X139321544Y-114806784D01*
X139253624Y-114642812D01*
X139219000Y-114468741D01*
X139219000Y-114291259D01*
X139253624Y-114117188D01*
X139321544Y-113953216D01*
X139420147Y-113805646D01*
X139545646Y-113680147D01*
X139693216Y-113581544D01*
X139857188Y-113513624D01*
X140006488Y-113483927D01*
X140031258Y-113479000D01*
X140208742Y-113479000D01*
X140233512Y-113483927D01*
G37*
G36*
X130073512Y-113483927D02*
G01*
X130222812Y-113513624D01*
X130386784Y-113581544D01*
X130534354Y-113680147D01*
X130659853Y-113805646D01*
X130758456Y-113953216D01*
X130826376Y-114117188D01*
X130861000Y-114291259D01*
X130861000Y-114468741D01*
X130826376Y-114642812D01*
X130758456Y-114806784D01*
X130659853Y-114954354D01*
X130534354Y-115079853D01*
X130386784Y-115178456D01*
X130222812Y-115246376D01*
X130073512Y-115276073D01*
X130048742Y-115281000D01*
X129871258Y-115281000D01*
X129846488Y-115276073D01*
X129697188Y-115246376D01*
X129533216Y-115178456D01*
X129385646Y-115079853D01*
X129260147Y-114954354D01*
X129161544Y-114806784D01*
X129093624Y-114642812D01*
X129059000Y-114468741D01*
X129059000Y-114291259D01*
X129093624Y-114117188D01*
X129161544Y-113953216D01*
X129260147Y-113805646D01*
X129385646Y-113680147D01*
X129533216Y-113581544D01*
X129697188Y-113513624D01*
X129846488Y-113483927D01*
X129871258Y-113479000D01*
X130048742Y-113479000D01*
X130073512Y-113483927D01*
G37*
G36*
X132613512Y-113483927D02*
G01*
X132762812Y-113513624D01*
X132926784Y-113581544D01*
X133074354Y-113680147D01*
X133199853Y-113805646D01*
X133298456Y-113953216D01*
X133366376Y-114117188D01*
X133401000Y-114291259D01*
X133401000Y-114468741D01*
X133366376Y-114642812D01*
X133298456Y-114806784D01*
X133199853Y-114954354D01*
X133074354Y-115079853D01*
X132926784Y-115178456D01*
X132762812Y-115246376D01*
X132613512Y-115276073D01*
X132588742Y-115281000D01*
X132411258Y-115281000D01*
X132386488Y-115276073D01*
X132237188Y-115246376D01*
X132073216Y-115178456D01*
X131925646Y-115079853D01*
X131800147Y-114954354D01*
X131701544Y-114806784D01*
X131633624Y-114642812D01*
X131599000Y-114468741D01*
X131599000Y-114291259D01*
X131633624Y-114117188D01*
X131701544Y-113953216D01*
X131800147Y-113805646D01*
X131925646Y-113680147D01*
X132073216Y-113581544D01*
X132237188Y-113513624D01*
X132386488Y-113483927D01*
X132411258Y-113479000D01*
X132588742Y-113479000D01*
X132613512Y-113483927D01*
G37*
G36*
X135153512Y-113483927D02*
G01*
X135302812Y-113513624D01*
X135466784Y-113581544D01*
X135614354Y-113680147D01*
X135739853Y-113805646D01*
X135838456Y-113953216D01*
X135906376Y-114117188D01*
X135941000Y-114291259D01*
X135941000Y-114468741D01*
X135906376Y-114642812D01*
X135838456Y-114806784D01*
X135739853Y-114954354D01*
X135614354Y-115079853D01*
X135466784Y-115178456D01*
X135302812Y-115246376D01*
X135153512Y-115276073D01*
X135128742Y-115281000D01*
X134951258Y-115281000D01*
X134926488Y-115276073D01*
X134777188Y-115246376D01*
X134613216Y-115178456D01*
X134465646Y-115079853D01*
X134340147Y-114954354D01*
X134241544Y-114806784D01*
X134173624Y-114642812D01*
X134139000Y-114468741D01*
X134139000Y-114291259D01*
X134173624Y-114117188D01*
X134241544Y-113953216D01*
X134340147Y-113805646D01*
X134465646Y-113680147D01*
X134613216Y-113581544D01*
X134777188Y-113513624D01*
X134926488Y-113483927D01*
X134951258Y-113479000D01*
X135128742Y-113479000D01*
X135153512Y-113483927D01*
G37*
G36*
X137693512Y-113483927D02*
G01*
X137842812Y-113513624D01*
X138006784Y-113581544D01*
X138154354Y-113680147D01*
X138279853Y-113805646D01*
X138378456Y-113953216D01*
X138446376Y-114117188D01*
X138481000Y-114291259D01*
X138481000Y-114468741D01*
X138446376Y-114642812D01*
X138378456Y-114806784D01*
X138279853Y-114954354D01*
X138154354Y-115079853D01*
X138006784Y-115178456D01*
X137842812Y-115246376D01*
X137693512Y-115276073D01*
X137668742Y-115281000D01*
X137491258Y-115281000D01*
X137466488Y-115276073D01*
X137317188Y-115246376D01*
X137153216Y-115178456D01*
X137005646Y-115079853D01*
X136880147Y-114954354D01*
X136781544Y-114806784D01*
X136713624Y-114642812D01*
X136679000Y-114468741D01*
X136679000Y-114291259D01*
X136713624Y-114117188D01*
X136781544Y-113953216D01*
X136880147Y-113805646D01*
X137005646Y-113680147D01*
X137153216Y-113581544D01*
X137317188Y-113513624D01*
X137466488Y-113483927D01*
X137491258Y-113479000D01*
X137668742Y-113479000D01*
X137693512Y-113483927D01*
G37*
G36*
X143561000Y-115281000D02*
G01*
X141759000Y-115281000D01*
X141759000Y-113479000D01*
X143561000Y-113479000D01*
X143561000Y-115281000D01*
G37*
G36*
X107213512Y-113483927D02*
G01*
X107362812Y-113513624D01*
X107526784Y-113581544D01*
X107674354Y-113680147D01*
X107799853Y-113805646D01*
X107898456Y-113953216D01*
X107966376Y-114117188D01*
X108001000Y-114291259D01*
X108001000Y-114468741D01*
X107966376Y-114642812D01*
X107898456Y-114806784D01*
X107799853Y-114954354D01*
X107674354Y-115079853D01*
X107526784Y-115178456D01*
X107362812Y-115246376D01*
X107213512Y-115276073D01*
X107188742Y-115281000D01*
X107011258Y-115281000D01*
X106986488Y-115276073D01*
X106837188Y-115246376D01*
X106673216Y-115178456D01*
X106525646Y-115079853D01*
X106400147Y-114954354D01*
X106301544Y-114806784D01*
X106233624Y-114642812D01*
X106199000Y-114468741D01*
X106199000Y-114291259D01*
X106233624Y-114117188D01*
X106301544Y-113953216D01*
X106400147Y-113805646D01*
X106525646Y-113680147D01*
X106673216Y-113581544D01*
X106837188Y-113513624D01*
X106986488Y-113483927D01*
X107011258Y-113479000D01*
X107188742Y-113479000D01*
X107213512Y-113483927D01*
G37*
G36*
X112293512Y-113483927D02*
G01*
X112442812Y-113513624D01*
X112606784Y-113581544D01*
X112754354Y-113680147D01*
X112879853Y-113805646D01*
X112978456Y-113953216D01*
X113046376Y-114117188D01*
X113081000Y-114291259D01*
X113081000Y-114468741D01*
X113046376Y-114642812D01*
X112978456Y-114806784D01*
X112879853Y-114954354D01*
X112754354Y-115079853D01*
X112606784Y-115178456D01*
X112442812Y-115246376D01*
X112293512Y-115276073D01*
X112268742Y-115281000D01*
X112091258Y-115281000D01*
X112066488Y-115276073D01*
X111917188Y-115246376D01*
X111753216Y-115178456D01*
X111605646Y-115079853D01*
X111480147Y-114954354D01*
X111381544Y-114806784D01*
X111313624Y-114642812D01*
X111279000Y-114468741D01*
X111279000Y-114291259D01*
X111313624Y-114117188D01*
X111381544Y-113953216D01*
X111480147Y-113805646D01*
X111605646Y-113680147D01*
X111753216Y-113581544D01*
X111917188Y-113513624D01*
X112066488Y-113483927D01*
X112091258Y-113479000D01*
X112268742Y-113479000D01*
X112293512Y-113483927D01*
G37*
G36*
X114833512Y-113483927D02*
G01*
X114982812Y-113513624D01*
X115146784Y-113581544D01*
X115294354Y-113680147D01*
X115419853Y-113805646D01*
X115518456Y-113953216D01*
X115586376Y-114117188D01*
X115621000Y-114291259D01*
X115621000Y-114468741D01*
X115586376Y-114642812D01*
X115518456Y-114806784D01*
X115419853Y-114954354D01*
X115294354Y-115079853D01*
X115146784Y-115178456D01*
X114982812Y-115246376D01*
X114833512Y-115276073D01*
X114808742Y-115281000D01*
X114631258Y-115281000D01*
X114606488Y-115276073D01*
X114457188Y-115246376D01*
X114293216Y-115178456D01*
X114145646Y-115079853D01*
X114020147Y-114954354D01*
X113921544Y-114806784D01*
X113853624Y-114642812D01*
X113819000Y-114468741D01*
X113819000Y-114291259D01*
X113853624Y-114117188D01*
X113921544Y-113953216D01*
X114020147Y-113805646D01*
X114145646Y-113680147D01*
X114293216Y-113581544D01*
X114457188Y-113513624D01*
X114606488Y-113483927D01*
X114631258Y-113479000D01*
X114808742Y-113479000D01*
X114833512Y-113483927D01*
G37*
G36*
X117373512Y-113483927D02*
G01*
X117522812Y-113513624D01*
X117686784Y-113581544D01*
X117834354Y-113680147D01*
X117959853Y-113805646D01*
X118058456Y-113953216D01*
X118126376Y-114117188D01*
X118161000Y-114291259D01*
X118161000Y-114468741D01*
X118126376Y-114642812D01*
X118058456Y-114806784D01*
X117959853Y-114954354D01*
X117834354Y-115079853D01*
X117686784Y-115178456D01*
X117522812Y-115246376D01*
X117373512Y-115276073D01*
X117348742Y-115281000D01*
X117171258Y-115281000D01*
X117146488Y-115276073D01*
X116997188Y-115246376D01*
X116833216Y-115178456D01*
X116685646Y-115079853D01*
X116560147Y-114954354D01*
X116461544Y-114806784D01*
X116393624Y-114642812D01*
X116359000Y-114468741D01*
X116359000Y-114291259D01*
X116393624Y-114117188D01*
X116461544Y-113953216D01*
X116560147Y-113805646D01*
X116685646Y-113680147D01*
X116833216Y-113581544D01*
X116997188Y-113513624D01*
X117146488Y-113483927D01*
X117171258Y-113479000D01*
X117348742Y-113479000D01*
X117373512Y-113483927D01*
G37*
G36*
X119913512Y-113483927D02*
G01*
X120062812Y-113513624D01*
X120226784Y-113581544D01*
X120374354Y-113680147D01*
X120499853Y-113805646D01*
X120598456Y-113953216D01*
X120666376Y-114117188D01*
X120701000Y-114291259D01*
X120701000Y-114468741D01*
X120666376Y-114642812D01*
X120598456Y-114806784D01*
X120499853Y-114954354D01*
X120374354Y-115079853D01*
X120226784Y-115178456D01*
X120062812Y-115246376D01*
X119913512Y-115276073D01*
X119888742Y-115281000D01*
X119711258Y-115281000D01*
X119686488Y-115276073D01*
X119537188Y-115246376D01*
X119373216Y-115178456D01*
X119225646Y-115079853D01*
X119100147Y-114954354D01*
X119001544Y-114806784D01*
X118933624Y-114642812D01*
X118899000Y-114468741D01*
X118899000Y-114291259D01*
X118933624Y-114117188D01*
X119001544Y-113953216D01*
X119100147Y-113805646D01*
X119225646Y-113680147D01*
X119373216Y-113581544D01*
X119537188Y-113513624D01*
X119686488Y-113483927D01*
X119711258Y-113479000D01*
X119888742Y-113479000D01*
X119913512Y-113483927D01*
G37*
G36*
X122453512Y-113483927D02*
G01*
X122602812Y-113513624D01*
X122766784Y-113581544D01*
X122914354Y-113680147D01*
X123039853Y-113805646D01*
X123138456Y-113953216D01*
X123206376Y-114117188D01*
X123241000Y-114291259D01*
X123241000Y-114468741D01*
X123206376Y-114642812D01*
X123138456Y-114806784D01*
X123039853Y-114954354D01*
X122914354Y-115079853D01*
X122766784Y-115178456D01*
X122602812Y-115246376D01*
X122453512Y-115276073D01*
X122428742Y-115281000D01*
X122251258Y-115281000D01*
X122226488Y-115276073D01*
X122077188Y-115246376D01*
X121913216Y-115178456D01*
X121765646Y-115079853D01*
X121640147Y-114954354D01*
X121541544Y-114806784D01*
X121473624Y-114642812D01*
X121439000Y-114468741D01*
X121439000Y-114291259D01*
X121473624Y-114117188D01*
X121541544Y-113953216D01*
X121640147Y-113805646D01*
X121765646Y-113680147D01*
X121913216Y-113581544D01*
X122077188Y-113513624D01*
X122226488Y-113483927D01*
X122251258Y-113479000D01*
X122428742Y-113479000D01*
X122453512Y-113483927D01*
G37*
G36*
X109753512Y-113483927D02*
G01*
X109902812Y-113513624D01*
X110066784Y-113581544D01*
X110214354Y-113680147D01*
X110339853Y-113805646D01*
X110438456Y-113953216D01*
X110506376Y-114117188D01*
X110541000Y-114291259D01*
X110541000Y-114468741D01*
X110506376Y-114642812D01*
X110438456Y-114806784D01*
X110339853Y-114954354D01*
X110214354Y-115079853D01*
X110066784Y-115178456D01*
X109902812Y-115246376D01*
X109753512Y-115276073D01*
X109728742Y-115281000D01*
X109551258Y-115281000D01*
X109526488Y-115276073D01*
X109377188Y-115246376D01*
X109213216Y-115178456D01*
X109065646Y-115079853D01*
X108940147Y-114954354D01*
X108841544Y-114806784D01*
X108773624Y-114642812D01*
X108739000Y-114468741D01*
X108739000Y-114291259D01*
X108773624Y-114117188D01*
X108841544Y-113953216D01*
X108940147Y-113805646D01*
X109065646Y-113680147D01*
X109213216Y-113581544D01*
X109377188Y-113513624D01*
X109526488Y-113483927D01*
X109551258Y-113479000D01*
X109728742Y-113479000D01*
X109753512Y-113483927D01*
G37*
G36*
X91066366Y-107355695D02*
G01*
X91223460Y-107403349D01*
X91368231Y-107480731D01*
X91495128Y-107584872D01*
X91599269Y-107711769D01*
X91676651Y-107856540D01*
X91724305Y-108013634D01*
X91741000Y-108183140D01*
X91741000Y-110096860D01*
X91724305Y-110266366D01*
X91676651Y-110423460D01*
X91599269Y-110568231D01*
X91495128Y-110695128D01*
X91368231Y-110799269D01*
X91223460Y-110876651D01*
X91066366Y-110924305D01*
X90896860Y-110941000D01*
X88983140Y-110941000D01*
X88813634Y-110924305D01*
X88656540Y-110876651D01*
X88511769Y-110799269D01*
X88384872Y-110695128D01*
X88280731Y-110568231D01*
X88203349Y-110423460D01*
X88155695Y-110266366D01*
X88139000Y-110096860D01*
X88139000Y-108183140D01*
X88155695Y-108013634D01*
X88203349Y-107856540D01*
X88280731Y-107711769D01*
X88384872Y-107584872D01*
X88511769Y-107480731D01*
X88656540Y-107403349D01*
X88813634Y-107355695D01*
X88983140Y-107339000D01*
X90896860Y-107339000D01*
X91066366Y-107355695D01*
G37*
G36*
X119913512Y-108623927D02*
G01*
X120062812Y-108653624D01*
X120226784Y-108721544D01*
X120374354Y-108820147D01*
X120499853Y-108945646D01*
X120598456Y-109093216D01*
X120666376Y-109257188D01*
X120701000Y-109431259D01*
X120701000Y-109608741D01*
X120666376Y-109782812D01*
X120598456Y-109946784D01*
X120499853Y-110094354D01*
X120374354Y-110219853D01*
X120226784Y-110318456D01*
X120062812Y-110386376D01*
X119913512Y-110416073D01*
X119888742Y-110421000D01*
X119711258Y-110421000D01*
X119686488Y-110416073D01*
X119537188Y-110386376D01*
X119373216Y-110318456D01*
X119225646Y-110219853D01*
X119100147Y-110094354D01*
X119001544Y-109946784D01*
X118933624Y-109782812D01*
X118899000Y-109608741D01*
X118899000Y-109431259D01*
X118933624Y-109257188D01*
X119001544Y-109093216D01*
X119100147Y-108945646D01*
X119225646Y-108820147D01*
X119373216Y-108721544D01*
X119537188Y-108653624D01*
X119686488Y-108623927D01*
X119711258Y-108619000D01*
X119888742Y-108619000D01*
X119913512Y-108623927D01*
G37*
G36*
X122453512Y-108623927D02*
G01*
X122602812Y-108653624D01*
X122766784Y-108721544D01*
X122914354Y-108820147D01*
X123039853Y-108945646D01*
X123138456Y-109093216D01*
X123206376Y-109257188D01*
X123241000Y-109431259D01*
X123241000Y-109608741D01*
X123206376Y-109782812D01*
X123138456Y-109946784D01*
X123039853Y-110094354D01*
X122914354Y-110219853D01*
X122766784Y-110318456D01*
X122602812Y-110386376D01*
X122453512Y-110416073D01*
X122428742Y-110421000D01*
X122251258Y-110421000D01*
X122226488Y-110416073D01*
X122077188Y-110386376D01*
X121913216Y-110318456D01*
X121765646Y-110219853D01*
X121640147Y-110094354D01*
X121541544Y-109946784D01*
X121473624Y-109782812D01*
X121439000Y-109608741D01*
X121439000Y-109431259D01*
X121473624Y-109257188D01*
X121541544Y-109093216D01*
X121640147Y-108945646D01*
X121765646Y-108820147D01*
X121913216Y-108721544D01*
X122077188Y-108653624D01*
X122226488Y-108623927D01*
X122251258Y-108619000D01*
X122428742Y-108619000D01*
X122453512Y-108623927D01*
G37*
G36*
X117373512Y-108623927D02*
G01*
X117522812Y-108653624D01*
X117686784Y-108721544D01*
X117834354Y-108820147D01*
X117959853Y-108945646D01*
X118058456Y-109093216D01*
X118126376Y-109257188D01*
X118161000Y-109431259D01*
X118161000Y-109608741D01*
X118126376Y-109782812D01*
X118058456Y-109946784D01*
X117959853Y-110094354D01*
X117834354Y-110219853D01*
X117686784Y-110318456D01*
X117522812Y-110386376D01*
X117373512Y-110416073D01*
X117348742Y-110421000D01*
X117171258Y-110421000D01*
X117146488Y-110416073D01*
X116997188Y-110386376D01*
X116833216Y-110318456D01*
X116685646Y-110219853D01*
X116560147Y-110094354D01*
X116461544Y-109946784D01*
X116393624Y-109782812D01*
X116359000Y-109608741D01*
X116359000Y-109431259D01*
X116393624Y-109257188D01*
X116461544Y-109093216D01*
X116560147Y-108945646D01*
X116685646Y-108820147D01*
X116833216Y-108721544D01*
X116997188Y-108653624D01*
X117146488Y-108623927D01*
X117171258Y-108619000D01*
X117348742Y-108619000D01*
X117373512Y-108623927D01*
G37*
G36*
X114833512Y-108623927D02*
G01*
X114982812Y-108653624D01*
X115146784Y-108721544D01*
X115294354Y-108820147D01*
X115419853Y-108945646D01*
X115518456Y-109093216D01*
X115586376Y-109257188D01*
X115621000Y-109431259D01*
X115621000Y-109608741D01*
X115586376Y-109782812D01*
X115518456Y-109946784D01*
X115419853Y-110094354D01*
X115294354Y-110219853D01*
X115146784Y-110318456D01*
X114982812Y-110386376D01*
X114833512Y-110416073D01*
X114808742Y-110421000D01*
X114631258Y-110421000D01*
X114606488Y-110416073D01*
X114457188Y-110386376D01*
X114293216Y-110318456D01*
X114145646Y-110219853D01*
X114020147Y-110094354D01*
X113921544Y-109946784D01*
X113853624Y-109782812D01*
X113819000Y-109608741D01*
X113819000Y-109431259D01*
X113853624Y-109257188D01*
X113921544Y-109093216D01*
X114020147Y-108945646D01*
X114145646Y-108820147D01*
X114293216Y-108721544D01*
X114457188Y-108653624D01*
X114606488Y-108623927D01*
X114631258Y-108619000D01*
X114808742Y-108619000D01*
X114833512Y-108623927D01*
G37*
G36*
X112293512Y-108623927D02*
G01*
X112442812Y-108653624D01*
X112606784Y-108721544D01*
X112754354Y-108820147D01*
X112879853Y-108945646D01*
X112978456Y-109093216D01*
X113046376Y-109257188D01*
X113081000Y-109431259D01*
X113081000Y-109608741D01*
X113046376Y-109782812D01*
X112978456Y-109946784D01*
X112879853Y-110094354D01*
X112754354Y-110219853D01*
X112606784Y-110318456D01*
X112442812Y-110386376D01*
X112293512Y-110416073D01*
X112268742Y-110421000D01*
X112091258Y-110421000D01*
X112066488Y-110416073D01*
X111917188Y-110386376D01*
X111753216Y-110318456D01*
X111605646Y-110219853D01*
X111480147Y-110094354D01*
X111381544Y-109946784D01*
X111313624Y-109782812D01*
X111279000Y-109608741D01*
X111279000Y-109431259D01*
X111313624Y-109257188D01*
X111381544Y-109093216D01*
X111480147Y-108945646D01*
X111605646Y-108820147D01*
X111753216Y-108721544D01*
X111917188Y-108653624D01*
X112066488Y-108623927D01*
X112091258Y-108619000D01*
X112268742Y-108619000D01*
X112293512Y-108623927D01*
G37*
G36*
X109753512Y-108623927D02*
G01*
X109902812Y-108653624D01*
X110066784Y-108721544D01*
X110214354Y-108820147D01*
X110339853Y-108945646D01*
X110438456Y-109093216D01*
X110506376Y-109257188D01*
X110541000Y-109431259D01*
X110541000Y-109608741D01*
X110506376Y-109782812D01*
X110438456Y-109946784D01*
X110339853Y-110094354D01*
X110214354Y-110219853D01*
X110066784Y-110318456D01*
X109902812Y-110386376D01*
X109753512Y-110416073D01*
X109728742Y-110421000D01*
X109551258Y-110421000D01*
X109526488Y-110416073D01*
X109377188Y-110386376D01*
X109213216Y-110318456D01*
X109065646Y-110219853D01*
X108940147Y-110094354D01*
X108841544Y-109946784D01*
X108773624Y-109782812D01*
X108739000Y-109608741D01*
X108739000Y-109431259D01*
X108773624Y-109257188D01*
X108841544Y-109093216D01*
X108940147Y-108945646D01*
X109065646Y-108820147D01*
X109213216Y-108721544D01*
X109377188Y-108653624D01*
X109526488Y-108623927D01*
X109551258Y-108619000D01*
X109728742Y-108619000D01*
X109753512Y-108623927D01*
G37*
G36*
X107213512Y-108623927D02*
G01*
X107362812Y-108653624D01*
X107526784Y-108721544D01*
X107674354Y-108820147D01*
X107799853Y-108945646D01*
X107898456Y-109093216D01*
X107966376Y-109257188D01*
X108001000Y-109431259D01*
X108001000Y-109608741D01*
X107966376Y-109782812D01*
X107898456Y-109946784D01*
X107799853Y-110094354D01*
X107674354Y-110219853D01*
X107526784Y-110318456D01*
X107362812Y-110386376D01*
X107213512Y-110416073D01*
X107188742Y-110421000D01*
X107011258Y-110421000D01*
X106986488Y-110416073D01*
X106837188Y-110386376D01*
X106673216Y-110318456D01*
X106525646Y-110219853D01*
X106400147Y-110094354D01*
X106301544Y-109946784D01*
X106233624Y-109782812D01*
X106199000Y-109608741D01*
X106199000Y-109431259D01*
X106233624Y-109257188D01*
X106301544Y-109093216D01*
X106400147Y-108945646D01*
X106525646Y-108820147D01*
X106673216Y-108721544D01*
X106837188Y-108653624D01*
X106986488Y-108623927D01*
X107011258Y-108619000D01*
X107188742Y-108619000D01*
X107213512Y-108623927D01*
G37*
G36*
X140233512Y-108623927D02*
G01*
X140382812Y-108653624D01*
X140546784Y-108721544D01*
X140694354Y-108820147D01*
X140819853Y-108945646D01*
X140918456Y-109093216D01*
X140986376Y-109257188D01*
X141021000Y-109431259D01*
X141021000Y-109608741D01*
X140986376Y-109782812D01*
X140918456Y-109946784D01*
X140819853Y-110094354D01*
X140694354Y-110219853D01*
X140546784Y-110318456D01*
X140382812Y-110386376D01*
X140233512Y-110416073D01*
X140208742Y-110421000D01*
X140031258Y-110421000D01*
X140006488Y-110416073D01*
X139857188Y-110386376D01*
X139693216Y-110318456D01*
X139545646Y-110219853D01*
X139420147Y-110094354D01*
X139321544Y-109946784D01*
X139253624Y-109782812D01*
X139219000Y-109608741D01*
X139219000Y-109431259D01*
X139253624Y-109257188D01*
X139321544Y-109093216D01*
X139420147Y-108945646D01*
X139545646Y-108820147D01*
X139693216Y-108721544D01*
X139857188Y-108653624D01*
X140006488Y-108623927D01*
X140031258Y-108619000D01*
X140208742Y-108619000D01*
X140233512Y-108623927D01*
G37*
G36*
X137693512Y-108623927D02*
G01*
X137842812Y-108653624D01*
X138006784Y-108721544D01*
X138154354Y-108820147D01*
X138279853Y-108945646D01*
X138378456Y-109093216D01*
X138446376Y-109257188D01*
X138481000Y-109431259D01*
X138481000Y-109608741D01*
X138446376Y-109782812D01*
X138378456Y-109946784D01*
X138279853Y-110094354D01*
X138154354Y-110219853D01*
X138006784Y-110318456D01*
X137842812Y-110386376D01*
X137693512Y-110416073D01*
X137668742Y-110421000D01*
X137491258Y-110421000D01*
X137466488Y-110416073D01*
X137317188Y-110386376D01*
X137153216Y-110318456D01*
X137005646Y-110219853D01*
X136880147Y-110094354D01*
X136781544Y-109946784D01*
X136713624Y-109782812D01*
X136679000Y-109608741D01*
X136679000Y-109431259D01*
X136713624Y-109257188D01*
X136781544Y-109093216D01*
X136880147Y-108945646D01*
X137005646Y-108820147D01*
X137153216Y-108721544D01*
X137317188Y-108653624D01*
X137466488Y-108623927D01*
X137491258Y-108619000D01*
X137668742Y-108619000D01*
X137693512Y-108623927D01*
G37*
G36*
X135153512Y-108623927D02*
G01*
X135302812Y-108653624D01*
X135466784Y-108721544D01*
X135614354Y-108820147D01*
X135739853Y-108945646D01*
X135838456Y-109093216D01*
X135906376Y-109257188D01*
X135941000Y-109431259D01*
X135941000Y-109608741D01*
X135906376Y-109782812D01*
X135838456Y-109946784D01*
X135739853Y-110094354D01*
X135614354Y-110219853D01*
X135466784Y-110318456D01*
X135302812Y-110386376D01*
X135153512Y-110416073D01*
X135128742Y-110421000D01*
X134951258Y-110421000D01*
X134926488Y-110416073D01*
X134777188Y-110386376D01*
X134613216Y-110318456D01*
X134465646Y-110219853D01*
X134340147Y-110094354D01*
X134241544Y-109946784D01*
X134173624Y-109782812D01*
X134139000Y-109608741D01*
X134139000Y-109431259D01*
X134173624Y-109257188D01*
X134241544Y-109093216D01*
X134340147Y-108945646D01*
X134465646Y-108820147D01*
X134613216Y-108721544D01*
X134777188Y-108653624D01*
X134926488Y-108623927D01*
X134951258Y-108619000D01*
X135128742Y-108619000D01*
X135153512Y-108623927D01*
G37*
G36*
X125781000Y-110421000D02*
G01*
X123979000Y-110421000D01*
X123979000Y-108619000D01*
X125781000Y-108619000D01*
X125781000Y-110421000D01*
G37*
G36*
X132613512Y-108623927D02*
G01*
X132762812Y-108653624D01*
X132926784Y-108721544D01*
X133074354Y-108820147D01*
X133199853Y-108945646D01*
X133298456Y-109093216D01*
X133366376Y-109257188D01*
X133401000Y-109431259D01*
X133401000Y-109608741D01*
X133366376Y-109782812D01*
X133298456Y-109946784D01*
X133199853Y-110094354D01*
X133074354Y-110219853D01*
X132926784Y-110318456D01*
X132762812Y-110386376D01*
X132613512Y-110416073D01*
X132588742Y-110421000D01*
X132411258Y-110421000D01*
X132386488Y-110416073D01*
X132237188Y-110386376D01*
X132073216Y-110318456D01*
X131925646Y-110219853D01*
X131800147Y-110094354D01*
X131701544Y-109946784D01*
X131633624Y-109782812D01*
X131599000Y-109608741D01*
X131599000Y-109431259D01*
X131633624Y-109257188D01*
X131701544Y-109093216D01*
X131800147Y-108945646D01*
X131925646Y-108820147D01*
X132073216Y-108721544D01*
X132237188Y-108653624D01*
X132386488Y-108623927D01*
X132411258Y-108619000D01*
X132588742Y-108619000D01*
X132613512Y-108623927D01*
G37*
G36*
X130073512Y-108623927D02*
G01*
X130222812Y-108653624D01*
X130386784Y-108721544D01*
X130534354Y-108820147D01*
X130659853Y-108945646D01*
X130758456Y-109093216D01*
X130826376Y-109257188D01*
X130861000Y-109431259D01*
X130861000Y-109608741D01*
X130826376Y-109782812D01*
X130758456Y-109946784D01*
X130659853Y-110094354D01*
X130534354Y-110219853D01*
X130386784Y-110318456D01*
X130222812Y-110386376D01*
X130073512Y-110416073D01*
X130048742Y-110421000D01*
X129871258Y-110421000D01*
X129846488Y-110416073D01*
X129697188Y-110386376D01*
X129533216Y-110318456D01*
X129385646Y-110219853D01*
X129260147Y-110094354D01*
X129161544Y-109946784D01*
X129093624Y-109782812D01*
X129059000Y-109608741D01*
X129059000Y-109431259D01*
X129093624Y-109257188D01*
X129161544Y-109093216D01*
X129260147Y-108945646D01*
X129385646Y-108820147D01*
X129533216Y-108721544D01*
X129697188Y-108653624D01*
X129846488Y-108623927D01*
X129871258Y-108619000D01*
X130048742Y-108619000D01*
X130073512Y-108623927D01*
G37*
G36*
X143561000Y-110421000D02*
G01*
X141759000Y-110421000D01*
X141759000Y-108619000D01*
X143561000Y-108619000D01*
X143561000Y-110421000D01*
G37*
G36*
X104379591Y-106515585D02*
G01*
X104413569Y-106525893D01*
X104444890Y-106542634D01*
X104472339Y-106565161D01*
X104494866Y-106592610D01*
X104511607Y-106623931D01*
X104521915Y-106657909D01*
X104526000Y-106699390D01*
X104526000Y-107300610D01*
X104521915Y-107342091D01*
X104511607Y-107376069D01*
X104494866Y-107407390D01*
X104472339Y-107434839D01*
X104444890Y-107457366D01*
X104413569Y-107474107D01*
X104379591Y-107484415D01*
X104338110Y-107488500D01*
X103661890Y-107488500D01*
X103620409Y-107484415D01*
X103586431Y-107474107D01*
X103555110Y-107457366D01*
X103527661Y-107434839D01*
X103505134Y-107407390D01*
X103488393Y-107376069D01*
X103478085Y-107342091D01*
X103474000Y-107300610D01*
X103474000Y-106699390D01*
X103478085Y-106657909D01*
X103488393Y-106623931D01*
X103505134Y-106592610D01*
X103527661Y-106565161D01*
X103555110Y-106542634D01*
X103586431Y-106525893D01*
X103620409Y-106515585D01*
X103661890Y-106511500D01*
X104338110Y-106511500D01*
X104379591Y-106515585D01*
G37*
G36*
X123811938Y-106636716D02*
G01*
X123832557Y-106642971D01*
X123851553Y-106653124D01*
X123868208Y-106666792D01*
X123881876Y-106683447D01*
X123892029Y-106702443D01*
X123898284Y-106723062D01*
X123901000Y-106750640D01*
X123901000Y-107209360D01*
X123898284Y-107236938D01*
X123892029Y-107257557D01*
X123881876Y-107276553D01*
X123868208Y-107293208D01*
X123851553Y-107306876D01*
X123832557Y-107317029D01*
X123811938Y-107323284D01*
X123784360Y-107326000D01*
X123275640Y-107326000D01*
X123248062Y-107323284D01*
X123227443Y-107317029D01*
X123208447Y-107306876D01*
X123191792Y-107293208D01*
X123178124Y-107276553D01*
X123167971Y-107257557D01*
X123161716Y-107236938D01*
X123159000Y-107209360D01*
X123159000Y-106750640D01*
X123161716Y-106723062D01*
X123167971Y-106702443D01*
X123178124Y-106683447D01*
X123191792Y-106666792D01*
X123208447Y-106653124D01*
X123227443Y-106642971D01*
X123248062Y-106636716D01*
X123275640Y-106634000D01*
X123784360Y-106634000D01*
X123811938Y-106636716D01*
G37*
G36*
X126691938Y-106616716D02*
G01*
X126712557Y-106622971D01*
X126731553Y-106633124D01*
X126748208Y-106646792D01*
X126761876Y-106663447D01*
X126772029Y-106682443D01*
X126778284Y-106703062D01*
X126781000Y-106730640D01*
X126781000Y-107189360D01*
X126778284Y-107216938D01*
X126772029Y-107237557D01*
X126761876Y-107256553D01*
X126748208Y-107273208D01*
X126731553Y-107286876D01*
X126712557Y-107297029D01*
X126691938Y-107303284D01*
X126664360Y-107306000D01*
X126155640Y-107306000D01*
X126128062Y-107303284D01*
X126107443Y-107297029D01*
X126088447Y-107286876D01*
X126071792Y-107273208D01*
X126058124Y-107256553D01*
X126047971Y-107237557D01*
X126041716Y-107216938D01*
X126039000Y-107189360D01*
X126039000Y-106730640D01*
X126041716Y-106703062D01*
X126047971Y-106682443D01*
X126058124Y-106663447D01*
X126071792Y-106646792D01*
X126088447Y-106633124D01*
X126107443Y-106622971D01*
X126128062Y-106616716D01*
X126155640Y-106614000D01*
X126664360Y-106614000D01*
X126691938Y-106616716D01*
G37*
G36*
X123811938Y-105666716D02*
G01*
X123832557Y-105672971D01*
X123851553Y-105683124D01*
X123868208Y-105696792D01*
X123881876Y-105713447D01*
X123892029Y-105732443D01*
X123898284Y-105753062D01*
X123901000Y-105780640D01*
X123901000Y-106239360D01*
X123898284Y-106266938D01*
X123892029Y-106287557D01*
X123881876Y-106306553D01*
X123868208Y-106323208D01*
X123851553Y-106336876D01*
X123832557Y-106347029D01*
X123811938Y-106353284D01*
X123784360Y-106356000D01*
X123275640Y-106356000D01*
X123248062Y-106353284D01*
X123227443Y-106347029D01*
X123208447Y-106336876D01*
X123191792Y-106323208D01*
X123178124Y-106306553D01*
X123167971Y-106287557D01*
X123161716Y-106266938D01*
X123159000Y-106239360D01*
X123159000Y-105780640D01*
X123161716Y-105753062D01*
X123167971Y-105732443D01*
X123178124Y-105713447D01*
X123191792Y-105696792D01*
X123208447Y-105683124D01*
X123227443Y-105672971D01*
X123248062Y-105666716D01*
X123275640Y-105664000D01*
X123784360Y-105664000D01*
X123811938Y-105666716D01*
G37*
G36*
X126691938Y-105646716D02*
G01*
X126712557Y-105652971D01*
X126731553Y-105663124D01*
X126748208Y-105676792D01*
X126761876Y-105693447D01*
X126772029Y-105712443D01*
X126778284Y-105733062D01*
X126781000Y-105760640D01*
X126781000Y-106219360D01*
X126778284Y-106246938D01*
X126772029Y-106267557D01*
X126761876Y-106286553D01*
X126748208Y-106303208D01*
X126731553Y-106316876D01*
X126712557Y-106327029D01*
X126691938Y-106333284D01*
X126664360Y-106336000D01*
X126155640Y-106336000D01*
X126128062Y-106333284D01*
X126107443Y-106327029D01*
X126088447Y-106316876D01*
X126071792Y-106303208D01*
X126058124Y-106286553D01*
X126047971Y-106267557D01*
X126041716Y-106246938D01*
X126039000Y-106219360D01*
X126039000Y-105760640D01*
X126041716Y-105733062D01*
X126047971Y-105712443D01*
X126058124Y-105693447D01*
X126071792Y-105676792D01*
X126088447Y-105663124D01*
X126107443Y-105652971D01*
X126128062Y-105646716D01*
X126155640Y-105644000D01*
X126664360Y-105644000D01*
X126691938Y-105646716D01*
G37*
G36*
X94741000Y-106241000D02*
G01*
X91139000Y-106241000D01*
X91139000Y-102639000D01*
X94741000Y-102639000D01*
X94741000Y-106241000D01*
G37*
G36*
X87916979Y-102653293D02*
G01*
X88050625Y-102693834D01*
X88173784Y-102759664D01*
X88281740Y-102848260D01*
X88370336Y-102956216D01*
X88436166Y-103079375D01*
X88476707Y-103213021D01*
X88491000Y-103358140D01*
X88491000Y-105521860D01*
X88476707Y-105666979D01*
X88436166Y-105800625D01*
X88370336Y-105923784D01*
X88281740Y-106031740D01*
X88173784Y-106120336D01*
X88050625Y-106186166D01*
X87916979Y-106226707D01*
X87771860Y-106241000D01*
X86108140Y-106241000D01*
X85963021Y-106226707D01*
X85829375Y-106186166D01*
X85706216Y-106120336D01*
X85598260Y-106031740D01*
X85509664Y-105923784D01*
X85443834Y-105800625D01*
X85403293Y-105666979D01*
X85389000Y-105521860D01*
X85389000Y-103358140D01*
X85403293Y-103213021D01*
X85443834Y-103079375D01*
X85509664Y-102956216D01*
X85598260Y-102848260D01*
X85706216Y-102759664D01*
X85829375Y-102693834D01*
X85963021Y-102653293D01*
X86108140Y-102639000D01*
X87771860Y-102639000D01*
X87916979Y-102653293D01*
G37*
G36*
X104379591Y-104940585D02*
G01*
X104413569Y-104950893D01*
X104444890Y-104967634D01*
X104472339Y-104990161D01*
X104494866Y-105017610D01*
X104511607Y-105048931D01*
X104521915Y-105082909D01*
X104526000Y-105124390D01*
X104526000Y-105725610D01*
X104521915Y-105767091D01*
X104511607Y-105801069D01*
X104494866Y-105832390D01*
X104472339Y-105859839D01*
X104444890Y-105882366D01*
X104413569Y-105899107D01*
X104379591Y-105909415D01*
X104338110Y-105913500D01*
X103661890Y-105913500D01*
X103620409Y-105909415D01*
X103586431Y-105899107D01*
X103555110Y-105882366D01*
X103527661Y-105859839D01*
X103505134Y-105832390D01*
X103488393Y-105801069D01*
X103478085Y-105767091D01*
X103474000Y-105725610D01*
X103474000Y-105124390D01*
X103478085Y-105082909D01*
X103488393Y-105048931D01*
X103505134Y-105017610D01*
X103527661Y-104990161D01*
X103555110Y-104967634D01*
X103586431Y-104950893D01*
X103620409Y-104940585D01*
X103661890Y-104936500D01*
X104338110Y-104936500D01*
X104379591Y-104940585D01*
G37*
G36*
X100801000Y-105091000D02*
G01*
X99799000Y-105091000D01*
X99799000Y-103789000D01*
X100801000Y-103789000D01*
X100801000Y-105091000D01*
G37*
G36*
X97501000Y-105091000D02*
G01*
X96499000Y-105091000D01*
X96499000Y-103789000D01*
X97501000Y-103789000D01*
X97501000Y-105091000D01*
G37*
G36*
X104379591Y-102090585D02*
G01*
X104413569Y-102100893D01*
X104444890Y-102117634D01*
X104472339Y-102140161D01*
X104494866Y-102167610D01*
X104511607Y-102198931D01*
X104521915Y-102232909D01*
X104526000Y-102274390D01*
X104526000Y-102875610D01*
X104521915Y-102917091D01*
X104511607Y-102951069D01*
X104494866Y-102982390D01*
X104472339Y-103009839D01*
X104444890Y-103032366D01*
X104413569Y-103049107D01*
X104379591Y-103059415D01*
X104338110Y-103063500D01*
X103661890Y-103063500D01*
X103620409Y-103059415D01*
X103586431Y-103049107D01*
X103555110Y-103032366D01*
X103527661Y-103009839D01*
X103505134Y-102982390D01*
X103488393Y-102951069D01*
X103478085Y-102917091D01*
X103474000Y-102875610D01*
X103474000Y-102274390D01*
X103478085Y-102232909D01*
X103488393Y-102198931D01*
X103505134Y-102167610D01*
X103527661Y-102140161D01*
X103555110Y-102117634D01*
X103586431Y-102100893D01*
X103620409Y-102090585D01*
X103661890Y-102086500D01*
X104338110Y-102086500D01*
X104379591Y-102090585D01*
G37*
G36*
X132748228Y-100801703D02*
G01*
X132903100Y-100865853D01*
X133042481Y-100958985D01*
X133161015Y-101077519D01*
X133254147Y-101216900D01*
X133318297Y-101371772D01*
X133351000Y-101536184D01*
X133351000Y-101703816D01*
X133318297Y-101868228D01*
X133254147Y-102023100D01*
X133161015Y-102162481D01*
X133042481Y-102281015D01*
X132903100Y-102374147D01*
X132748228Y-102438297D01*
X132583816Y-102471000D01*
X132416184Y-102471000D01*
X132251772Y-102438297D01*
X132096900Y-102374147D01*
X131957519Y-102281015D01*
X131838985Y-102162481D01*
X131745853Y-102023100D01*
X131681703Y-101868228D01*
X131649000Y-101703816D01*
X131649000Y-101536184D01*
X131681703Y-101371772D01*
X131745853Y-101216900D01*
X131838985Y-101077519D01*
X131957519Y-100958985D01*
X132096900Y-100865853D01*
X132251772Y-100801703D01*
X132416184Y-100769000D01*
X132583816Y-100769000D01*
X132748228Y-100801703D01*
G37*
G36*
X130208228Y-100801703D02*
G01*
X130363100Y-100865853D01*
X130502481Y-100958985D01*
X130621015Y-101077519D01*
X130714147Y-101216900D01*
X130778297Y-101371772D01*
X130811000Y-101536184D01*
X130811000Y-101703816D01*
X130778297Y-101868228D01*
X130714147Y-102023100D01*
X130621015Y-102162481D01*
X130502481Y-102281015D01*
X130363100Y-102374147D01*
X130208228Y-102438297D01*
X130043816Y-102471000D01*
X129876184Y-102471000D01*
X129711772Y-102438297D01*
X129556900Y-102374147D01*
X129417519Y-102281015D01*
X129298985Y-102162481D01*
X129205853Y-102023100D01*
X129141703Y-101868228D01*
X129109000Y-101703816D01*
X129109000Y-101536184D01*
X129141703Y-101371772D01*
X129205853Y-101216900D01*
X129298985Y-101077519D01*
X129417519Y-100958985D01*
X129556900Y-100865853D01*
X129711772Y-100801703D01*
X129876184Y-100769000D01*
X130043816Y-100769000D01*
X130208228Y-100801703D01*
G37*
G36*
X127668228Y-100801703D02*
G01*
X127823100Y-100865853D01*
X127962481Y-100958985D01*
X128081015Y-101077519D01*
X128174147Y-101216900D01*
X128238297Y-101371772D01*
X128271000Y-101536184D01*
X128271000Y-101703816D01*
X128238297Y-101868228D01*
X128174147Y-102023100D01*
X128081015Y-102162481D01*
X127962481Y-102281015D01*
X127823100Y-102374147D01*
X127668228Y-102438297D01*
X127503816Y-102471000D01*
X127336184Y-102471000D01*
X127171772Y-102438297D01*
X127016900Y-102374147D01*
X126877519Y-102281015D01*
X126758985Y-102162481D01*
X126665853Y-102023100D01*
X126601703Y-101868228D01*
X126569000Y-101703816D01*
X126569000Y-101536184D01*
X126601703Y-101371772D01*
X126665853Y-101216900D01*
X126758985Y-101077519D01*
X126877519Y-100958985D01*
X127016900Y-100865853D01*
X127171772Y-100801703D01*
X127336184Y-100769000D01*
X127503816Y-100769000D01*
X127668228Y-100801703D01*
G37*
G36*
X125128228Y-100801703D02*
G01*
X125283100Y-100865853D01*
X125422481Y-100958985D01*
X125541015Y-101077519D01*
X125634147Y-101216900D01*
X125698297Y-101371772D01*
X125731000Y-101536184D01*
X125731000Y-101703816D01*
X125698297Y-101868228D01*
X125634147Y-102023100D01*
X125541015Y-102162481D01*
X125422481Y-102281015D01*
X125283100Y-102374147D01*
X125128228Y-102438297D01*
X124963816Y-102471000D01*
X124796184Y-102471000D01*
X124631772Y-102438297D01*
X124476900Y-102374147D01*
X124337519Y-102281015D01*
X124218985Y-102162481D01*
X124125853Y-102023100D01*
X124061703Y-101868228D01*
X124029000Y-101703816D01*
X124029000Y-101536184D01*
X124061703Y-101371772D01*
X124125853Y-101216900D01*
X124218985Y-101077519D01*
X124337519Y-100958985D01*
X124476900Y-100865853D01*
X124631772Y-100801703D01*
X124796184Y-100769000D01*
X124963816Y-100769000D01*
X125128228Y-100801703D01*
G37*
G36*
X122588228Y-100801703D02*
G01*
X122743100Y-100865853D01*
X122882481Y-100958985D01*
X123001015Y-101077519D01*
X123094147Y-101216900D01*
X123158297Y-101371772D01*
X123191000Y-101536184D01*
X123191000Y-101703816D01*
X123158297Y-101868228D01*
X123094147Y-102023100D01*
X123001015Y-102162481D01*
X122882481Y-102281015D01*
X122743100Y-102374147D01*
X122588228Y-102438297D01*
X122423816Y-102471000D01*
X122256184Y-102471000D01*
X122091772Y-102438297D01*
X121936900Y-102374147D01*
X121797519Y-102281015D01*
X121678985Y-102162481D01*
X121585853Y-102023100D01*
X121521703Y-101868228D01*
X121489000Y-101703816D01*
X121489000Y-101536184D01*
X121521703Y-101371772D01*
X121585853Y-101216900D01*
X121678985Y-101077519D01*
X121797519Y-100958985D01*
X121936900Y-100865853D01*
X122091772Y-100801703D01*
X122256184Y-100769000D01*
X122423816Y-100769000D01*
X122588228Y-100801703D01*
G37*
G36*
X120048228Y-100801703D02*
G01*
X120203100Y-100865853D01*
X120342481Y-100958985D01*
X120461015Y-101077519D01*
X120554147Y-101216900D01*
X120618297Y-101371772D01*
X120651000Y-101536184D01*
X120651000Y-101703816D01*
X120618297Y-101868228D01*
X120554147Y-102023100D01*
X120461015Y-102162481D01*
X120342481Y-102281015D01*
X120203100Y-102374147D01*
X120048228Y-102438297D01*
X119883816Y-102471000D01*
X119716184Y-102471000D01*
X119551772Y-102438297D01*
X119396900Y-102374147D01*
X119257519Y-102281015D01*
X119138985Y-102162481D01*
X119045853Y-102023100D01*
X118981703Y-101868228D01*
X118949000Y-101703816D01*
X118949000Y-101536184D01*
X118981703Y-101371772D01*
X119045853Y-101216900D01*
X119138985Y-101077519D01*
X119257519Y-100958985D01*
X119396900Y-100865853D01*
X119551772Y-100801703D01*
X119716184Y-100769000D01*
X119883816Y-100769000D01*
X120048228Y-100801703D01*
G37*
G36*
X117508228Y-100801703D02*
G01*
X117663100Y-100865853D01*
X117802481Y-100958985D01*
X117921015Y-101077519D01*
X118014147Y-101216900D01*
X118078297Y-101371772D01*
X118111000Y-101536184D01*
X118111000Y-101703816D01*
X118078297Y-101868228D01*
X118014147Y-102023100D01*
X117921015Y-102162481D01*
X117802481Y-102281015D01*
X117663100Y-102374147D01*
X117508228Y-102438297D01*
X117343816Y-102471000D01*
X117176184Y-102471000D01*
X117011772Y-102438297D01*
X116856900Y-102374147D01*
X116717519Y-102281015D01*
X116598985Y-102162481D01*
X116505853Y-102023100D01*
X116441703Y-101868228D01*
X116409000Y-101703816D01*
X116409000Y-101536184D01*
X116441703Y-101371772D01*
X116505853Y-101216900D01*
X116598985Y-101077519D01*
X116717519Y-100958985D01*
X116856900Y-100865853D01*
X117011772Y-100801703D01*
X117176184Y-100769000D01*
X117343816Y-100769000D01*
X117508228Y-100801703D01*
G37*
G36*
X112428228Y-100801703D02*
G01*
X112583100Y-100865853D01*
X112722481Y-100958985D01*
X112841015Y-101077519D01*
X112934147Y-101216900D01*
X112998297Y-101371772D01*
X113031000Y-101536184D01*
X113031000Y-101703816D01*
X112998297Y-101868228D01*
X112934147Y-102023100D01*
X112841015Y-102162481D01*
X112722481Y-102281015D01*
X112583100Y-102374147D01*
X112428228Y-102438297D01*
X112263816Y-102471000D01*
X112096184Y-102471000D01*
X111931772Y-102438297D01*
X111776900Y-102374147D01*
X111637519Y-102281015D01*
X111518985Y-102162481D01*
X111425853Y-102023100D01*
X111361703Y-101868228D01*
X111329000Y-101703816D01*
X111329000Y-101536184D01*
X111361703Y-101371772D01*
X111425853Y-101216900D01*
X111518985Y-101077519D01*
X111637519Y-100958985D01*
X111776900Y-100865853D01*
X111931772Y-100801703D01*
X112096184Y-100769000D01*
X112263816Y-100769000D01*
X112428228Y-100801703D01*
G37*
G36*
X109888228Y-100801703D02*
G01*
X110043100Y-100865853D01*
X110182481Y-100958985D01*
X110301015Y-101077519D01*
X110394147Y-101216900D01*
X110458297Y-101371772D01*
X110491000Y-101536184D01*
X110491000Y-101703816D01*
X110458297Y-101868228D01*
X110394147Y-102023100D01*
X110301015Y-102162481D01*
X110182481Y-102281015D01*
X110043100Y-102374147D01*
X109888228Y-102438297D01*
X109723816Y-102471000D01*
X109556184Y-102471000D01*
X109391772Y-102438297D01*
X109236900Y-102374147D01*
X109097519Y-102281015D01*
X108978985Y-102162481D01*
X108885853Y-102023100D01*
X108821703Y-101868228D01*
X108789000Y-101703816D01*
X108789000Y-101536184D01*
X108821703Y-101371772D01*
X108885853Y-101216900D01*
X108978985Y-101077519D01*
X109097519Y-100958985D01*
X109236900Y-100865853D01*
X109391772Y-100801703D01*
X109556184Y-100769000D01*
X109723816Y-100769000D01*
X109888228Y-100801703D01*
G37*
G36*
X140368228Y-100801703D02*
G01*
X140523100Y-100865853D01*
X140662481Y-100958985D01*
X140781015Y-101077519D01*
X140874147Y-101216900D01*
X140938297Y-101371772D01*
X140971000Y-101536184D01*
X140971000Y-101703816D01*
X140938297Y-101868228D01*
X140874147Y-102023100D01*
X140781015Y-102162481D01*
X140662481Y-102281015D01*
X140523100Y-102374147D01*
X140368228Y-102438297D01*
X140203816Y-102471000D01*
X140036184Y-102471000D01*
X139871772Y-102438297D01*
X139716900Y-102374147D01*
X139577519Y-102281015D01*
X139458985Y-102162481D01*
X139365853Y-102023100D01*
X139301703Y-101868228D01*
X139269000Y-101703816D01*
X139269000Y-101536184D01*
X139301703Y-101371772D01*
X139365853Y-101216900D01*
X139458985Y-101077519D01*
X139577519Y-100958985D01*
X139716900Y-100865853D01*
X139871772Y-100801703D01*
X140036184Y-100769000D01*
X140203816Y-100769000D01*
X140368228Y-100801703D01*
G37*
G36*
X137828228Y-100801703D02*
G01*
X137983100Y-100865853D01*
X138122481Y-100958985D01*
X138241015Y-101077519D01*
X138334147Y-101216900D01*
X138398297Y-101371772D01*
X138431000Y-101536184D01*
X138431000Y-101703816D01*
X138398297Y-101868228D01*
X138334147Y-102023100D01*
X138241015Y-102162481D01*
X138122481Y-102281015D01*
X137983100Y-102374147D01*
X137828228Y-102438297D01*
X137663816Y-102471000D01*
X137496184Y-102471000D01*
X137331772Y-102438297D01*
X137176900Y-102374147D01*
X137037519Y-102281015D01*
X136918985Y-102162481D01*
X136825853Y-102023100D01*
X136761703Y-101868228D01*
X136729000Y-101703816D01*
X136729000Y-101536184D01*
X136761703Y-101371772D01*
X136825853Y-101216900D01*
X136918985Y-101077519D01*
X137037519Y-100958985D01*
X137176900Y-100865853D01*
X137331772Y-100801703D01*
X137496184Y-100769000D01*
X137663816Y-100769000D01*
X137828228Y-100801703D01*
G37*
G36*
X142908228Y-100801703D02*
G01*
X143063100Y-100865853D01*
X143202481Y-100958985D01*
X143321015Y-101077519D01*
X143414147Y-101216900D01*
X143478297Y-101371772D01*
X143511000Y-101536184D01*
X143511000Y-101703816D01*
X143478297Y-101868228D01*
X143414147Y-102023100D01*
X143321015Y-102162481D01*
X143202481Y-102281015D01*
X143063100Y-102374147D01*
X142908228Y-102438297D01*
X142743816Y-102471000D01*
X142576184Y-102471000D01*
X142411772Y-102438297D01*
X142256900Y-102374147D01*
X142117519Y-102281015D01*
X141998985Y-102162481D01*
X141905853Y-102023100D01*
X141841703Y-101868228D01*
X141809000Y-101703816D01*
X141809000Y-101536184D01*
X141841703Y-101371772D01*
X141905853Y-101216900D01*
X141998985Y-101077519D01*
X142117519Y-100958985D01*
X142256900Y-100865853D01*
X142411772Y-100801703D01*
X142576184Y-100769000D01*
X142743816Y-100769000D01*
X142908228Y-100801703D01*
G37*
G36*
X135288228Y-100801703D02*
G01*
X135443100Y-100865853D01*
X135582481Y-100958985D01*
X135701015Y-101077519D01*
X135794147Y-101216900D01*
X135858297Y-101371772D01*
X135891000Y-101536184D01*
X135891000Y-101703816D01*
X135858297Y-101868228D01*
X135794147Y-102023100D01*
X135701015Y-102162481D01*
X135582481Y-102281015D01*
X135443100Y-102374147D01*
X135288228Y-102438297D01*
X135123816Y-102471000D01*
X134956184Y-102471000D01*
X134791772Y-102438297D01*
X134636900Y-102374147D01*
X134497519Y-102281015D01*
X134378985Y-102162481D01*
X134285853Y-102023100D01*
X134221703Y-101868228D01*
X134189000Y-101703816D01*
X134189000Y-101536184D01*
X134221703Y-101371772D01*
X134285853Y-101216900D01*
X134378985Y-101077519D01*
X134497519Y-100958985D01*
X134636900Y-100865853D01*
X134791772Y-100801703D01*
X134956184Y-100769000D01*
X135123816Y-100769000D01*
X135288228Y-100801703D01*
G37*
G36*
X114968228Y-100801703D02*
G01*
X115123100Y-100865853D01*
X115262481Y-100958985D01*
X115381015Y-101077519D01*
X115474147Y-101216900D01*
X115538297Y-101371772D01*
X115571000Y-101536184D01*
X115571000Y-101703816D01*
X115538297Y-101868228D01*
X115474147Y-102023100D01*
X115381015Y-102162481D01*
X115262481Y-102281015D01*
X115123100Y-102374147D01*
X114968228Y-102438297D01*
X114803816Y-102471000D01*
X114636184Y-102471000D01*
X114471772Y-102438297D01*
X114316900Y-102374147D01*
X114177519Y-102281015D01*
X114058985Y-102162481D01*
X113965853Y-102023100D01*
X113901703Y-101868228D01*
X113869000Y-101703816D01*
X113869000Y-101536184D01*
X113901703Y-101371772D01*
X113965853Y-101216900D01*
X114058985Y-101077519D01*
X114177519Y-100958985D01*
X114316900Y-100865853D01*
X114471772Y-100801703D01*
X114636184Y-100769000D01*
X114803816Y-100769000D01*
X114968228Y-100801703D01*
G37*
G36*
X104379591Y-100515585D02*
G01*
X104413569Y-100525893D01*
X104444890Y-100542634D01*
X104472339Y-100565161D01*
X104494866Y-100592610D01*
X104511607Y-100623931D01*
X104521915Y-100657909D01*
X104526000Y-100699390D01*
X104526000Y-101300610D01*
X104521915Y-101342091D01*
X104511607Y-101376069D01*
X104494866Y-101407390D01*
X104472339Y-101434839D01*
X104444890Y-101457366D01*
X104413569Y-101474107D01*
X104379591Y-101484415D01*
X104338110Y-101488500D01*
X103661890Y-101488500D01*
X103620409Y-101484415D01*
X103586431Y-101474107D01*
X103555110Y-101457366D01*
X103527661Y-101434839D01*
X103505134Y-101407390D01*
X103488393Y-101376069D01*
X103478085Y-101342091D01*
X103474000Y-101300610D01*
X103474000Y-100699390D01*
X103478085Y-100657909D01*
X103488393Y-100623931D01*
X103505134Y-100592610D01*
X103527661Y-100565161D01*
X103555110Y-100542634D01*
X103586431Y-100525893D01*
X103620409Y-100515585D01*
X103661890Y-100511500D01*
X104338110Y-100511500D01*
X104379591Y-100515585D01*
G37*
G36*
X105226938Y-98781716D02*
G01*
X105247557Y-98787971D01*
X105266553Y-98798124D01*
X105283208Y-98811792D01*
X105296876Y-98828447D01*
X105307029Y-98847443D01*
X105313284Y-98868062D01*
X105316000Y-98895640D01*
X105316000Y-99404360D01*
X105313284Y-99431938D01*
X105307029Y-99452557D01*
X105296876Y-99471553D01*
X105283208Y-99488208D01*
X105266553Y-99501876D01*
X105247557Y-99512029D01*
X105226938Y-99518284D01*
X105199360Y-99521000D01*
X104740640Y-99521000D01*
X104713062Y-99518284D01*
X104692443Y-99512029D01*
X104673447Y-99501876D01*
X104656792Y-99488208D01*
X104643124Y-99471553D01*
X104632971Y-99452557D01*
X104626716Y-99431938D01*
X104624000Y-99404360D01*
X104624000Y-98895640D01*
X104626716Y-98868062D01*
X104632971Y-98847443D01*
X104643124Y-98828447D01*
X104656792Y-98811792D01*
X104673447Y-98798124D01*
X104692443Y-98787971D01*
X104713062Y-98781716D01*
X104740640Y-98779000D01*
X105199360Y-98779000D01*
X105226938Y-98781716D01*
G37*
G36*
X104256938Y-98781716D02*
G01*
X104277557Y-98787971D01*
X104296553Y-98798124D01*
X104313208Y-98811792D01*
X104326876Y-98828447D01*
X104337029Y-98847443D01*
X104343284Y-98868062D01*
X104346000Y-98895640D01*
X104346000Y-99404360D01*
X104343284Y-99431938D01*
X104337029Y-99452557D01*
X104326876Y-99471553D01*
X104313208Y-99488208D01*
X104296553Y-99501876D01*
X104277557Y-99512029D01*
X104256938Y-99518284D01*
X104229360Y-99521000D01*
X103770640Y-99521000D01*
X103743062Y-99518284D01*
X103722443Y-99512029D01*
X103703447Y-99501876D01*
X103686792Y-99488208D01*
X103673124Y-99471553D01*
X103662971Y-99452557D01*
X103656716Y-99431938D01*
X103654000Y-99404360D01*
X103654000Y-98895640D01*
X103656716Y-98868062D01*
X103662971Y-98847443D01*
X103673124Y-98828447D01*
X103686792Y-98811792D01*
X103703447Y-98798124D01*
X103722443Y-98787971D01*
X103743062Y-98781716D01*
X103770640Y-98779000D01*
X104229360Y-98779000D01*
X104256938Y-98781716D01*
G37*
G36*
X90705997Y-94753051D02*
G01*
X90739652Y-94763261D01*
X90770665Y-94779838D01*
X90797851Y-94802149D01*
X90820162Y-94829335D01*
X90836739Y-94860348D01*
X90846949Y-94894003D01*
X90851000Y-94935138D01*
X90851000Y-97664862D01*
X90846949Y-97705997D01*
X90836739Y-97739652D01*
X90820162Y-97770665D01*
X90797851Y-97797851D01*
X90770665Y-97820162D01*
X90739652Y-97836739D01*
X90705997Y-97846949D01*
X90664862Y-97851000D01*
X89335138Y-97851000D01*
X89294003Y-97846949D01*
X89260348Y-97836739D01*
X89229335Y-97820162D01*
X89202149Y-97797851D01*
X89179838Y-97770665D01*
X89163261Y-97739652D01*
X89153051Y-97705997D01*
X89149000Y-97664862D01*
X89149000Y-94935138D01*
X89153051Y-94894003D01*
X89163261Y-94860348D01*
X89179838Y-94829335D01*
X89202149Y-94802149D01*
X89229335Y-94779838D01*
X89260348Y-94763261D01*
X89294003Y-94753051D01*
X89335138Y-94749000D01*
X90664862Y-94749000D01*
X90705997Y-94753051D01*
G37*
G36*
X96751000Y-97101000D02*
G01*
X94649000Y-97101000D01*
X94649000Y-95499000D01*
X96751000Y-95499000D01*
X96751000Y-97101000D01*
G37*
G36*
X103051000Y-95951000D02*
G01*
X100949000Y-95951000D01*
X100949000Y-92049000D01*
X103051000Y-92049000D01*
X103051000Y-95951000D01*
G37*
G36*
X140368228Y-93181703D02*
G01*
X140523100Y-93245853D01*
X140662481Y-93338985D01*
X140781015Y-93457519D01*
X140874147Y-93596900D01*
X140938297Y-93751772D01*
X140971000Y-93916184D01*
X140971000Y-94083816D01*
X140938297Y-94248228D01*
X140874147Y-94403100D01*
X140781015Y-94542481D01*
X140662481Y-94661015D01*
X140523100Y-94754147D01*
X140368228Y-94818297D01*
X140203816Y-94851000D01*
X140036184Y-94851000D01*
X139871772Y-94818297D01*
X139716900Y-94754147D01*
X139577519Y-94661015D01*
X139458985Y-94542481D01*
X139365853Y-94403100D01*
X139301703Y-94248228D01*
X139269000Y-94083816D01*
X139269000Y-93916184D01*
X139301703Y-93751772D01*
X139365853Y-93596900D01*
X139458985Y-93457519D01*
X139577519Y-93338985D01*
X139716900Y-93245853D01*
X139871772Y-93181703D01*
X140036184Y-93149000D01*
X140203816Y-93149000D01*
X140368228Y-93181703D01*
G37*
G36*
X135288228Y-93181703D02*
G01*
X135443100Y-93245853D01*
X135582481Y-93338985D01*
X135701015Y-93457519D01*
X135794147Y-93596900D01*
X135858297Y-93751772D01*
X135891000Y-93916184D01*
X135891000Y-94083816D01*
X135858297Y-94248228D01*
X135794147Y-94403100D01*
X135701015Y-94542481D01*
X135582481Y-94661015D01*
X135443100Y-94754147D01*
X135288228Y-94818297D01*
X135123816Y-94851000D01*
X134956184Y-94851000D01*
X134791772Y-94818297D01*
X134636900Y-94754147D01*
X134497519Y-94661015D01*
X134378985Y-94542481D01*
X134285853Y-94403100D01*
X134221703Y-94248228D01*
X134189000Y-94083816D01*
X134189000Y-93916184D01*
X134221703Y-93751772D01*
X134285853Y-93596900D01*
X134378985Y-93457519D01*
X134497519Y-93338985D01*
X134636900Y-93245853D01*
X134791772Y-93181703D01*
X134956184Y-93149000D01*
X135123816Y-93149000D01*
X135288228Y-93181703D01*
G37*
G36*
X143511000Y-94851000D02*
G01*
X141809000Y-94851000D01*
X141809000Y-93149000D01*
X143511000Y-93149000D01*
X143511000Y-94851000D01*
G37*
G36*
X132748228Y-93181703D02*
G01*
X132903100Y-93245853D01*
X133042481Y-93338985D01*
X133161015Y-93457519D01*
X133254147Y-93596900D01*
X133318297Y-93751772D01*
X133351000Y-93916184D01*
X133351000Y-94083816D01*
X133318297Y-94248228D01*
X133254147Y-94403100D01*
X133161015Y-94542481D01*
X133042481Y-94661015D01*
X132903100Y-94754147D01*
X132748228Y-94818297D01*
X132583816Y-94851000D01*
X132416184Y-94851000D01*
X132251772Y-94818297D01*
X132096900Y-94754147D01*
X131957519Y-94661015D01*
X131838985Y-94542481D01*
X131745853Y-94403100D01*
X131681703Y-94248228D01*
X131649000Y-94083816D01*
X131649000Y-93916184D01*
X131681703Y-93751772D01*
X131745853Y-93596900D01*
X131838985Y-93457519D01*
X131957519Y-93338985D01*
X132096900Y-93245853D01*
X132251772Y-93181703D01*
X132416184Y-93149000D01*
X132583816Y-93149000D01*
X132748228Y-93181703D01*
G37*
G36*
X130208228Y-93181703D02*
G01*
X130363100Y-93245853D01*
X130502481Y-93338985D01*
X130621015Y-93457519D01*
X130714147Y-93596900D01*
X130778297Y-93751772D01*
X130811000Y-93916184D01*
X130811000Y-94083816D01*
X130778297Y-94248228D01*
X130714147Y-94403100D01*
X130621015Y-94542481D01*
X130502481Y-94661015D01*
X130363100Y-94754147D01*
X130208228Y-94818297D01*
X130043816Y-94851000D01*
X129876184Y-94851000D01*
X129711772Y-94818297D01*
X129556900Y-94754147D01*
X129417519Y-94661015D01*
X129298985Y-94542481D01*
X129205853Y-94403100D01*
X129141703Y-94248228D01*
X129109000Y-94083816D01*
X129109000Y-93916184D01*
X129141703Y-93751772D01*
X129205853Y-93596900D01*
X129298985Y-93457519D01*
X129417519Y-93338985D01*
X129556900Y-93245853D01*
X129711772Y-93181703D01*
X129876184Y-93149000D01*
X130043816Y-93149000D01*
X130208228Y-93181703D01*
G37*
G36*
X127668228Y-93181703D02*
G01*
X127823100Y-93245853D01*
X127962481Y-93338985D01*
X128081015Y-93457519D01*
X128174147Y-93596900D01*
X128238297Y-93751772D01*
X128271000Y-93916184D01*
X128271000Y-94083816D01*
X128238297Y-94248228D01*
X128174147Y-94403100D01*
X128081015Y-94542481D01*
X127962481Y-94661015D01*
X127823100Y-94754147D01*
X127668228Y-94818297D01*
X127503816Y-94851000D01*
X127336184Y-94851000D01*
X127171772Y-94818297D01*
X127016900Y-94754147D01*
X126877519Y-94661015D01*
X126758985Y-94542481D01*
X126665853Y-94403100D01*
X126601703Y-94248228D01*
X126569000Y-94083816D01*
X126569000Y-93916184D01*
X126601703Y-93751772D01*
X126665853Y-93596900D01*
X126758985Y-93457519D01*
X126877519Y-93338985D01*
X127016900Y-93245853D01*
X127171772Y-93181703D01*
X127336184Y-93149000D01*
X127503816Y-93149000D01*
X127668228Y-93181703D01*
G37*
G36*
X125128228Y-93181703D02*
G01*
X125283100Y-93245853D01*
X125422481Y-93338985D01*
X125541015Y-93457519D01*
X125634147Y-93596900D01*
X125698297Y-93751772D01*
X125731000Y-93916184D01*
X125731000Y-94083816D01*
X125698297Y-94248228D01*
X125634147Y-94403100D01*
X125541015Y-94542481D01*
X125422481Y-94661015D01*
X125283100Y-94754147D01*
X125128228Y-94818297D01*
X124963816Y-94851000D01*
X124796184Y-94851000D01*
X124631772Y-94818297D01*
X124476900Y-94754147D01*
X124337519Y-94661015D01*
X124218985Y-94542481D01*
X124125853Y-94403100D01*
X124061703Y-94248228D01*
X124029000Y-94083816D01*
X124029000Y-93916184D01*
X124061703Y-93751772D01*
X124125853Y-93596900D01*
X124218985Y-93457519D01*
X124337519Y-93338985D01*
X124476900Y-93245853D01*
X124631772Y-93181703D01*
X124796184Y-93149000D01*
X124963816Y-93149000D01*
X125128228Y-93181703D01*
G37*
G36*
X117508228Y-93181703D02*
G01*
X117663100Y-93245853D01*
X117802481Y-93338985D01*
X117921015Y-93457519D01*
X118014147Y-93596900D01*
X118078297Y-93751772D01*
X118111000Y-93916184D01*
X118111000Y-94083816D01*
X118078297Y-94248228D01*
X118014147Y-94403100D01*
X117921015Y-94542481D01*
X117802481Y-94661015D01*
X117663100Y-94754147D01*
X117508228Y-94818297D01*
X117343816Y-94851000D01*
X117176184Y-94851000D01*
X117011772Y-94818297D01*
X116856900Y-94754147D01*
X116717519Y-94661015D01*
X116598985Y-94542481D01*
X116505853Y-94403100D01*
X116441703Y-94248228D01*
X116409000Y-94083816D01*
X116409000Y-93916184D01*
X116441703Y-93751772D01*
X116505853Y-93596900D01*
X116598985Y-93457519D01*
X116717519Y-93338985D01*
X116856900Y-93245853D01*
X117011772Y-93181703D01*
X117176184Y-93149000D01*
X117343816Y-93149000D01*
X117508228Y-93181703D01*
G37*
G36*
X114968228Y-93181703D02*
G01*
X115123100Y-93245853D01*
X115262481Y-93338985D01*
X115381015Y-93457519D01*
X115474147Y-93596900D01*
X115538297Y-93751772D01*
X115571000Y-93916184D01*
X115571000Y-94083816D01*
X115538297Y-94248228D01*
X115474147Y-94403100D01*
X115381015Y-94542481D01*
X115262481Y-94661015D01*
X115123100Y-94754147D01*
X114968228Y-94818297D01*
X114803816Y-94851000D01*
X114636184Y-94851000D01*
X114471772Y-94818297D01*
X114316900Y-94754147D01*
X114177519Y-94661015D01*
X114058985Y-94542481D01*
X113965853Y-94403100D01*
X113901703Y-94248228D01*
X113869000Y-94083816D01*
X113869000Y-93916184D01*
X113901703Y-93751772D01*
X113965853Y-93596900D01*
X114058985Y-93457519D01*
X114177519Y-93338985D01*
X114316900Y-93245853D01*
X114471772Y-93181703D01*
X114636184Y-93149000D01*
X114803816Y-93149000D01*
X114968228Y-93181703D01*
G37*
G36*
X112428228Y-93181703D02*
G01*
X112583100Y-93245853D01*
X112722481Y-93338985D01*
X112841015Y-93457519D01*
X112934147Y-93596900D01*
X112998297Y-93751772D01*
X113031000Y-93916184D01*
X113031000Y-94083816D01*
X112998297Y-94248228D01*
X112934147Y-94403100D01*
X112841015Y-94542481D01*
X112722481Y-94661015D01*
X112583100Y-94754147D01*
X112428228Y-94818297D01*
X112263816Y-94851000D01*
X112096184Y-94851000D01*
X111931772Y-94818297D01*
X111776900Y-94754147D01*
X111637519Y-94661015D01*
X111518985Y-94542481D01*
X111425853Y-94403100D01*
X111361703Y-94248228D01*
X111329000Y-94083816D01*
X111329000Y-93916184D01*
X111361703Y-93751772D01*
X111425853Y-93596900D01*
X111518985Y-93457519D01*
X111637519Y-93338985D01*
X111776900Y-93245853D01*
X111931772Y-93181703D01*
X112096184Y-93149000D01*
X112263816Y-93149000D01*
X112428228Y-93181703D01*
G37*
G36*
X120048228Y-93181703D02*
G01*
X120203100Y-93245853D01*
X120342481Y-93338985D01*
X120461015Y-93457519D01*
X120554147Y-93596900D01*
X120618297Y-93751772D01*
X120651000Y-93916184D01*
X120651000Y-94083816D01*
X120618297Y-94248228D01*
X120554147Y-94403100D01*
X120461015Y-94542481D01*
X120342481Y-94661015D01*
X120203100Y-94754147D01*
X120048228Y-94818297D01*
X119883816Y-94851000D01*
X119716184Y-94851000D01*
X119551772Y-94818297D01*
X119396900Y-94754147D01*
X119257519Y-94661015D01*
X119138985Y-94542481D01*
X119045853Y-94403100D01*
X118981703Y-94248228D01*
X118949000Y-94083816D01*
X118949000Y-93916184D01*
X118981703Y-93751772D01*
X119045853Y-93596900D01*
X119138985Y-93457519D01*
X119257519Y-93338985D01*
X119396900Y-93245853D01*
X119551772Y-93181703D01*
X119716184Y-93149000D01*
X119883816Y-93149000D01*
X120048228Y-93181703D01*
G37*
G36*
X109888228Y-93181703D02*
G01*
X110043100Y-93245853D01*
X110182481Y-93338985D01*
X110301015Y-93457519D01*
X110394147Y-93596900D01*
X110458297Y-93751772D01*
X110491000Y-93916184D01*
X110491000Y-94083816D01*
X110458297Y-94248228D01*
X110394147Y-94403100D01*
X110301015Y-94542481D01*
X110182481Y-94661015D01*
X110043100Y-94754147D01*
X109888228Y-94818297D01*
X109723816Y-94851000D01*
X109556184Y-94851000D01*
X109391772Y-94818297D01*
X109236900Y-94754147D01*
X109097519Y-94661015D01*
X108978985Y-94542481D01*
X108885853Y-94403100D01*
X108821703Y-94248228D01*
X108789000Y-94083816D01*
X108789000Y-93916184D01*
X108821703Y-93751772D01*
X108885853Y-93596900D01*
X108978985Y-93457519D01*
X109097519Y-93338985D01*
X109236900Y-93245853D01*
X109391772Y-93181703D01*
X109556184Y-93149000D01*
X109723816Y-93149000D01*
X109888228Y-93181703D01*
G37*
G36*
X122588228Y-93181703D02*
G01*
X122743100Y-93245853D01*
X122882481Y-93338985D01*
X123001015Y-93457519D01*
X123094147Y-93596900D01*
X123158297Y-93751772D01*
X123191000Y-93916184D01*
X123191000Y-94083816D01*
X123158297Y-94248228D01*
X123094147Y-94403100D01*
X123001015Y-94542481D01*
X122882481Y-94661015D01*
X122743100Y-94754147D01*
X122588228Y-94818297D01*
X122423816Y-94851000D01*
X122256184Y-94851000D01*
X122091772Y-94818297D01*
X121936900Y-94754147D01*
X121797519Y-94661015D01*
X121678985Y-94542481D01*
X121585853Y-94403100D01*
X121521703Y-94248228D01*
X121489000Y-94083816D01*
X121489000Y-93916184D01*
X121521703Y-93751772D01*
X121585853Y-93596900D01*
X121678985Y-93457519D01*
X121797519Y-93338985D01*
X121936900Y-93245853D01*
X122091772Y-93181703D01*
X122256184Y-93149000D01*
X122423816Y-93149000D01*
X122588228Y-93181703D01*
G37*
G36*
X137828228Y-93181703D02*
G01*
X137983100Y-93245853D01*
X138122481Y-93338985D01*
X138241015Y-93457519D01*
X138334147Y-93596900D01*
X138398297Y-93751772D01*
X138431000Y-93916184D01*
X138431000Y-94083816D01*
X138398297Y-94248228D01*
X138334147Y-94403100D01*
X138241015Y-94542481D01*
X138122481Y-94661015D01*
X137983100Y-94754147D01*
X137828228Y-94818297D01*
X137663816Y-94851000D01*
X137496184Y-94851000D01*
X137331772Y-94818297D01*
X137176900Y-94754147D01*
X137037519Y-94661015D01*
X136918985Y-94542481D01*
X136825853Y-94403100D01*
X136761703Y-94248228D01*
X136729000Y-94083816D01*
X136729000Y-93916184D01*
X136761703Y-93751772D01*
X136825853Y-93596900D01*
X136918985Y-93457519D01*
X137037519Y-93338985D01*
X137176900Y-93245853D01*
X137331772Y-93181703D01*
X137496184Y-93149000D01*
X137663816Y-93149000D01*
X137828228Y-93181703D01*
G37*
G36*
X96751000Y-94801000D02*
G01*
X94649000Y-94801000D01*
X94649000Y-93199000D01*
X96751000Y-93199000D01*
X96751000Y-94801000D01*
G37*
G36*
X90705997Y-90353051D02*
G01*
X90739652Y-90363261D01*
X90770665Y-90379838D01*
X90797851Y-90402149D01*
X90820162Y-90429335D01*
X90836739Y-90460348D01*
X90846949Y-90494003D01*
X90851000Y-90535138D01*
X90851000Y-93264862D01*
X90846949Y-93305997D01*
X90836739Y-93339652D01*
X90820162Y-93370665D01*
X90797851Y-93397851D01*
X90770665Y-93420162D01*
X90739652Y-93436739D01*
X90705997Y-93446949D01*
X90664862Y-93451000D01*
X89335138Y-93451000D01*
X89294003Y-93446949D01*
X89260348Y-93436739D01*
X89229335Y-93420162D01*
X89202149Y-93397851D01*
X89179838Y-93370665D01*
X89163261Y-93339652D01*
X89153051Y-93305997D01*
X89149000Y-93264862D01*
X89149000Y-90535138D01*
X89153051Y-90494003D01*
X89163261Y-90460348D01*
X89179838Y-90429335D01*
X89202149Y-90402149D01*
X89229335Y-90379838D01*
X89260348Y-90363261D01*
X89294003Y-90353051D01*
X89335138Y-90349000D01*
X90664862Y-90349000D01*
X90705997Y-90353051D01*
G37*
G36*
X96751000Y-92501000D02*
G01*
X94649000Y-92501000D01*
X94649000Y-90899000D01*
X96751000Y-90899000D01*
X96751000Y-92501000D01*
G37*
G36*
X144577091Y-89478085D02*
G01*
X144611069Y-89488393D01*
X144642390Y-89505134D01*
X144669839Y-89527661D01*
X144692366Y-89555110D01*
X144709107Y-89586431D01*
X144719415Y-89620409D01*
X144723500Y-89661890D01*
X144723500Y-90338110D01*
X144719415Y-90379591D01*
X144709107Y-90413569D01*
X144692366Y-90444890D01*
X144669839Y-90472339D01*
X144642390Y-90494866D01*
X144611069Y-90511607D01*
X144577091Y-90521915D01*
X144535610Y-90526000D01*
X143934390Y-90526000D01*
X143892909Y-90521915D01*
X143858931Y-90511607D01*
X143827610Y-90494866D01*
X143800161Y-90472339D01*
X143777634Y-90444890D01*
X143760893Y-90413569D01*
X143750585Y-90379591D01*
X143746500Y-90338110D01*
X143746500Y-89661890D01*
X143750585Y-89620409D01*
X143760893Y-89586431D01*
X143777634Y-89555110D01*
X143800161Y-89527661D01*
X143827610Y-89505134D01*
X143858931Y-89488393D01*
X143892909Y-89478085D01*
X143934390Y-89474000D01*
X144535610Y-89474000D01*
X144577091Y-89478085D01*
G37*
G36*
X143002091Y-89478085D02*
G01*
X143036069Y-89488393D01*
X143067390Y-89505134D01*
X143094839Y-89527661D01*
X143117366Y-89555110D01*
X143134107Y-89586431D01*
X143144415Y-89620409D01*
X143148500Y-89661890D01*
X143148500Y-90338110D01*
X143144415Y-90379591D01*
X143134107Y-90413569D01*
X143117366Y-90444890D01*
X143094839Y-90472339D01*
X143067390Y-90494866D01*
X143036069Y-90511607D01*
X143002091Y-90521915D01*
X142960610Y-90526000D01*
X142359390Y-90526000D01*
X142317909Y-90521915D01*
X142283931Y-90511607D01*
X142252610Y-90494866D01*
X142225161Y-90472339D01*
X142202634Y-90444890D01*
X142185893Y-90413569D01*
X142175585Y-90379591D01*
X142171500Y-90338110D01*
X142171500Y-89661890D01*
X142175585Y-89620409D01*
X142185893Y-89586431D01*
X142202634Y-89555110D01*
X142225161Y-89527661D01*
X142252610Y-89505134D01*
X142283931Y-89488393D01*
X142317909Y-89478085D01*
X142359390Y-89474000D01*
X142960610Y-89474000D01*
X143002091Y-89478085D01*
G37*
G36*
X106421938Y-89396716D02*
G01*
X106442557Y-89402971D01*
X106461553Y-89413124D01*
X106478208Y-89426792D01*
X106491876Y-89443447D01*
X106502029Y-89462443D01*
X106508284Y-89483062D01*
X106511000Y-89510640D01*
X106511000Y-89969360D01*
X106508284Y-89996938D01*
X106502029Y-90017557D01*
X106491876Y-90036553D01*
X106478208Y-90053208D01*
X106461553Y-90066876D01*
X106442557Y-90077029D01*
X106421938Y-90083284D01*
X106394360Y-90086000D01*
X105885640Y-90086000D01*
X105858062Y-90083284D01*
X105837443Y-90077029D01*
X105818447Y-90066876D01*
X105801792Y-90053208D01*
X105788124Y-90036553D01*
X105777971Y-90017557D01*
X105771716Y-89996938D01*
X105769000Y-89969360D01*
X105769000Y-89510640D01*
X105771716Y-89483062D01*
X105777971Y-89462443D01*
X105788124Y-89443447D01*
X105801792Y-89426792D01*
X105818447Y-89413124D01*
X105837443Y-89402971D01*
X105858062Y-89396716D01*
X105885640Y-89394000D01*
X106394360Y-89394000D01*
X106421938Y-89396716D01*
G37*
G36*
X102705997Y-86453051D02*
G01*
X102739652Y-86463261D01*
X102770665Y-86479838D01*
X102797851Y-86502149D01*
X102820162Y-86529335D01*
X102836739Y-86560348D01*
X102846949Y-86594003D01*
X102851000Y-86635138D01*
X102851000Y-89364862D01*
X102846949Y-89405997D01*
X102836739Y-89439652D01*
X102820162Y-89470665D01*
X102797851Y-89497851D01*
X102770665Y-89520162D01*
X102739652Y-89536739D01*
X102705997Y-89546949D01*
X102664862Y-89551000D01*
X101335138Y-89551000D01*
X101294003Y-89546949D01*
X101260348Y-89536739D01*
X101229335Y-89520162D01*
X101202149Y-89497851D01*
X101179838Y-89470665D01*
X101163261Y-89439652D01*
X101153051Y-89405997D01*
X101149000Y-89364862D01*
X101149000Y-86635138D01*
X101153051Y-86594003D01*
X101163261Y-86560348D01*
X101179838Y-86529335D01*
X101202149Y-86502149D01*
X101229335Y-86479838D01*
X101260348Y-86463261D01*
X101294003Y-86453051D01*
X101335138Y-86449000D01*
X102664862Y-86449000D01*
X102705997Y-86453051D01*
G37*
G36*
X106421938Y-88426716D02*
G01*
X106442557Y-88432971D01*
X106461553Y-88443124D01*
X106478208Y-88456792D01*
X106491876Y-88473447D01*
X106502029Y-88492443D01*
X106508284Y-88513062D01*
X106511000Y-88540640D01*
X106511000Y-88999360D01*
X106508284Y-89026938D01*
X106502029Y-89047557D01*
X106491876Y-89066553D01*
X106478208Y-89083208D01*
X106461553Y-89096876D01*
X106442557Y-89107029D01*
X106421938Y-89113284D01*
X106394360Y-89116000D01*
X105885640Y-89116000D01*
X105858062Y-89113284D01*
X105837443Y-89107029D01*
X105818447Y-89096876D01*
X105801792Y-89083208D01*
X105788124Y-89066553D01*
X105777971Y-89047557D01*
X105771716Y-89026938D01*
X105769000Y-88999360D01*
X105769000Y-88540640D01*
X105771716Y-88513062D01*
X105777971Y-88492443D01*
X105788124Y-88473447D01*
X105801792Y-88456792D01*
X105818447Y-88443124D01*
X105837443Y-88432971D01*
X105858062Y-88426716D01*
X105885640Y-88424000D01*
X106394360Y-88424000D01*
X106421938Y-88426716D01*
G37*
G36*
X127721938Y-87756716D02*
G01*
X127742557Y-87762971D01*
X127761553Y-87773124D01*
X127778208Y-87786792D01*
X127791876Y-87803447D01*
X127802029Y-87822443D01*
X127808284Y-87843062D01*
X127811000Y-87870640D01*
X127811000Y-88329360D01*
X127808284Y-88356938D01*
X127802029Y-88377557D01*
X127791876Y-88396553D01*
X127778208Y-88413208D01*
X127761553Y-88426876D01*
X127742557Y-88437029D01*
X127721938Y-88443284D01*
X127694360Y-88446000D01*
X127185640Y-88446000D01*
X127158062Y-88443284D01*
X127137443Y-88437029D01*
X127118447Y-88426876D01*
X127101792Y-88413208D01*
X127088124Y-88396553D01*
X127077971Y-88377557D01*
X127071716Y-88356938D01*
X127069000Y-88329360D01*
X127069000Y-87870640D01*
X127071716Y-87843062D01*
X127077971Y-87822443D01*
X127088124Y-87803447D01*
X127101792Y-87786792D01*
X127118447Y-87773124D01*
X127137443Y-87762971D01*
X127158062Y-87756716D01*
X127185640Y-87754000D01*
X127694360Y-87754000D01*
X127721938Y-87756716D01*
G37*
G36*
X123566938Y-87241716D02*
G01*
X123587557Y-87247971D01*
X123606553Y-87258124D01*
X123623208Y-87271792D01*
X123636876Y-87288447D01*
X123647029Y-87307443D01*
X123653284Y-87328062D01*
X123656000Y-87355640D01*
X123656000Y-87864360D01*
X123653284Y-87891938D01*
X123647029Y-87912557D01*
X123636876Y-87931553D01*
X123623208Y-87948208D01*
X123606553Y-87961876D01*
X123587557Y-87972029D01*
X123566938Y-87978284D01*
X123539360Y-87981000D01*
X123080640Y-87981000D01*
X123053062Y-87978284D01*
X123032443Y-87972029D01*
X123013447Y-87961876D01*
X122996792Y-87948208D01*
X122983124Y-87931553D01*
X122972971Y-87912557D01*
X122966716Y-87891938D01*
X122964000Y-87864360D01*
X122964000Y-87355640D01*
X122966716Y-87328062D01*
X122972971Y-87307443D01*
X122983124Y-87288447D01*
X122996792Y-87271792D01*
X123013447Y-87258124D01*
X123032443Y-87247971D01*
X123053062Y-87241716D01*
X123080640Y-87239000D01*
X123539360Y-87239000D01*
X123566938Y-87241716D01*
G37*
G36*
X122596938Y-87241716D02*
G01*
X122617557Y-87247971D01*
X122636553Y-87258124D01*
X122653208Y-87271792D01*
X122666876Y-87288447D01*
X122677029Y-87307443D01*
X122683284Y-87328062D01*
X122686000Y-87355640D01*
X122686000Y-87864360D01*
X122683284Y-87891938D01*
X122677029Y-87912557D01*
X122666876Y-87931553D01*
X122653208Y-87948208D01*
X122636553Y-87961876D01*
X122617557Y-87972029D01*
X122596938Y-87978284D01*
X122569360Y-87981000D01*
X122110640Y-87981000D01*
X122083062Y-87978284D01*
X122062443Y-87972029D01*
X122043447Y-87961876D01*
X122026792Y-87948208D01*
X122013124Y-87931553D01*
X122002971Y-87912557D01*
X121996716Y-87891938D01*
X121994000Y-87864360D01*
X121994000Y-87355640D01*
X121996716Y-87328062D01*
X122002971Y-87307443D01*
X122013124Y-87288447D01*
X122026792Y-87271792D01*
X122043447Y-87258124D01*
X122062443Y-87247971D01*
X122083062Y-87241716D01*
X122110640Y-87239000D01*
X122569360Y-87239000D01*
X122596938Y-87241716D01*
G37*
G36*
X127721938Y-86786716D02*
G01*
X127742557Y-86792971D01*
X127761553Y-86803124D01*
X127778208Y-86816792D01*
X127791876Y-86833447D01*
X127802029Y-86852443D01*
X127808284Y-86873062D01*
X127811000Y-86900640D01*
X127811000Y-87359360D01*
X127808284Y-87386938D01*
X127802029Y-87407557D01*
X127791876Y-87426553D01*
X127778208Y-87443208D01*
X127761553Y-87456876D01*
X127742557Y-87467029D01*
X127721938Y-87473284D01*
X127694360Y-87476000D01*
X127185640Y-87476000D01*
X127158062Y-87473284D01*
X127137443Y-87467029D01*
X127118447Y-87456876D01*
X127101792Y-87443208D01*
X127088124Y-87426553D01*
X127077971Y-87407557D01*
X127071716Y-87386938D01*
X127069000Y-87359360D01*
X127069000Y-86900640D01*
X127071716Y-86873062D01*
X127077971Y-86852443D01*
X127088124Y-86833447D01*
X127101792Y-86816792D01*
X127118447Y-86803124D01*
X127137443Y-86792971D01*
X127158062Y-86786716D01*
X127185640Y-86784000D01*
X127694360Y-86784000D01*
X127721938Y-86786716D01*
G37*
G36*
X138279455Y-85670599D02*
G01*
X138415520Y-85697664D01*
X138574942Y-85763699D01*
X138718418Y-85859566D01*
X138840434Y-85981582D01*
X138936301Y-86125058D01*
X139001205Y-86281750D01*
X139002336Y-86284481D01*
X139036000Y-86453720D01*
X139036000Y-86626280D01*
X139025597Y-86678577D01*
X139002336Y-86795520D01*
X138936301Y-86954942D01*
X138840434Y-87098418D01*
X138718418Y-87220434D01*
X138574942Y-87316301D01*
X138415520Y-87382336D01*
X138331171Y-87399114D01*
X138246280Y-87416000D01*
X138073720Y-87416000D01*
X137988829Y-87399114D01*
X137904480Y-87382336D01*
X137745058Y-87316301D01*
X137601582Y-87220434D01*
X137479566Y-87098418D01*
X137383699Y-86954942D01*
X137317664Y-86795520D01*
X137294403Y-86678577D01*
X137284000Y-86626280D01*
X137284000Y-86453720D01*
X137317664Y-86284481D01*
X137318795Y-86281750D01*
X137383699Y-86125058D01*
X137479566Y-85981582D01*
X137601582Y-85859566D01*
X137745058Y-85763699D01*
X137904480Y-85697664D01*
X138040545Y-85670599D01*
X138073720Y-85664000D01*
X138246280Y-85664000D01*
X138279455Y-85670599D01*
G37*
G36*
X142779455Y-85670599D02*
G01*
X142915520Y-85697664D01*
X143074942Y-85763699D01*
X143218418Y-85859566D01*
X143340434Y-85981582D01*
X143436301Y-86125058D01*
X143501205Y-86281750D01*
X143502336Y-86284481D01*
X143536000Y-86453720D01*
X143536000Y-86626280D01*
X143525597Y-86678577D01*
X143502336Y-86795520D01*
X143436301Y-86954942D01*
X143340434Y-87098418D01*
X143218418Y-87220434D01*
X143074942Y-87316301D01*
X142915520Y-87382336D01*
X142831171Y-87399114D01*
X142746280Y-87416000D01*
X142573720Y-87416000D01*
X142488829Y-87399114D01*
X142404480Y-87382336D01*
X142245058Y-87316301D01*
X142101582Y-87220434D01*
X141979566Y-87098418D01*
X141883699Y-86954942D01*
X141817664Y-86795520D01*
X141794403Y-86678577D01*
X141784000Y-86626280D01*
X141784000Y-86453720D01*
X141817664Y-86284481D01*
X141818795Y-86281750D01*
X141883699Y-86125058D01*
X141979566Y-85981582D01*
X142101582Y-85859566D01*
X142245058Y-85763699D01*
X142404480Y-85697664D01*
X142540545Y-85670599D01*
X142573720Y-85664000D01*
X142746280Y-85664000D01*
X142779455Y-85670599D01*
G37*
G36*
X88984928Y-86651764D02*
G01*
X89006009Y-86658160D01*
X89025445Y-86668548D01*
X89042476Y-86682524D01*
X89056452Y-86699555D01*
X89066840Y-86718991D01*
X89073236Y-86740072D01*
X89076000Y-86768140D01*
X89076000Y-87231860D01*
X89073236Y-87259928D01*
X89066840Y-87281009D01*
X89056452Y-87300445D01*
X89042476Y-87317476D01*
X89025445Y-87331452D01*
X89006009Y-87341840D01*
X88984928Y-87348236D01*
X88956860Y-87351000D01*
X87143140Y-87351000D01*
X87115072Y-87348236D01*
X87093991Y-87341840D01*
X87074555Y-87331452D01*
X87057524Y-87317476D01*
X87043548Y-87300445D01*
X87033160Y-87281009D01*
X87026764Y-87259928D01*
X87024000Y-87231860D01*
X87024000Y-86768140D01*
X87026764Y-86740072D01*
X87033160Y-86718991D01*
X87043548Y-86699555D01*
X87057524Y-86682524D01*
X87074555Y-86668548D01*
X87093991Y-86658160D01*
X87115072Y-86651764D01*
X87143140Y-86649000D01*
X88956860Y-86649000D01*
X88984928Y-86651764D01*
G37*
G36*
X93934928Y-86651764D02*
G01*
X93956009Y-86658160D01*
X93975445Y-86668548D01*
X93992476Y-86682524D01*
X94006452Y-86699555D01*
X94016840Y-86718991D01*
X94023236Y-86740072D01*
X94026000Y-86768140D01*
X94026000Y-87231860D01*
X94023236Y-87259928D01*
X94016840Y-87281009D01*
X94006452Y-87300445D01*
X93992476Y-87317476D01*
X93975445Y-87331452D01*
X93956009Y-87341840D01*
X93934928Y-87348236D01*
X93906860Y-87351000D01*
X92093140Y-87351000D01*
X92065072Y-87348236D01*
X92043991Y-87341840D01*
X92024555Y-87331452D01*
X92007524Y-87317476D01*
X91993548Y-87300445D01*
X91983160Y-87281009D01*
X91976764Y-87259928D01*
X91974000Y-87231860D01*
X91974000Y-86768140D01*
X91976764Y-86740072D01*
X91983160Y-86718991D01*
X91993548Y-86699555D01*
X92007524Y-86682524D01*
X92024555Y-86668548D01*
X92043991Y-86658160D01*
X92065072Y-86651764D01*
X92093140Y-86649000D01*
X93906860Y-86649000D01*
X93934928Y-86651764D01*
G37*
G36*
X121291000Y-86671000D02*
G01*
X119989000Y-86671000D01*
X119989000Y-85169000D01*
X121291000Y-85169000D01*
X121291000Y-86671000D01*
G37*
G36*
X122991000Y-86671000D02*
G01*
X121689000Y-86671000D01*
X121689000Y-85169000D01*
X122991000Y-85169000D01*
X122991000Y-86671000D01*
G37*
G36*
X97917091Y-85478085D02*
G01*
X97951069Y-85488393D01*
X97982390Y-85505134D01*
X98009839Y-85527661D01*
X98032366Y-85555110D01*
X98049107Y-85586431D01*
X98059415Y-85620409D01*
X98063500Y-85661890D01*
X98063500Y-86338110D01*
X98059415Y-86379591D01*
X98049107Y-86413569D01*
X98032366Y-86444890D01*
X98009839Y-86472339D01*
X97982390Y-86494866D01*
X97951069Y-86511607D01*
X97917091Y-86521915D01*
X97875610Y-86526000D01*
X97274390Y-86526000D01*
X97232909Y-86521915D01*
X97198931Y-86511607D01*
X97167610Y-86494866D01*
X97140161Y-86472339D01*
X97117634Y-86444890D01*
X97100893Y-86413569D01*
X97090585Y-86379591D01*
X97086500Y-86338110D01*
X97086500Y-85661890D01*
X97090585Y-85620409D01*
X97100893Y-85586431D01*
X97117634Y-85555110D01*
X97140161Y-85527661D01*
X97167610Y-85505134D01*
X97198931Y-85488393D01*
X97232909Y-85478085D01*
X97274390Y-85474000D01*
X97875610Y-85474000D01*
X97917091Y-85478085D01*
G37*
G36*
X96342091Y-85478085D02*
G01*
X96376069Y-85488393D01*
X96407390Y-85505134D01*
X96434839Y-85527661D01*
X96457366Y-85555110D01*
X96474107Y-85586431D01*
X96484415Y-85620409D01*
X96488500Y-85661890D01*
X96488500Y-86338110D01*
X96484415Y-86379591D01*
X96474107Y-86413569D01*
X96457366Y-86444890D01*
X96434839Y-86472339D01*
X96407390Y-86494866D01*
X96376069Y-86511607D01*
X96342091Y-86521915D01*
X96300610Y-86526000D01*
X95699390Y-86526000D01*
X95657909Y-86521915D01*
X95623931Y-86511607D01*
X95592610Y-86494866D01*
X95565161Y-86472339D01*
X95542634Y-86444890D01*
X95525893Y-86413569D01*
X95515585Y-86379591D01*
X95511500Y-86338110D01*
X95511500Y-85661890D01*
X95515585Y-85620409D01*
X95525893Y-85586431D01*
X95542634Y-85555110D01*
X95565161Y-85527661D01*
X95592610Y-85505134D01*
X95623931Y-85488393D01*
X95657909Y-85478085D01*
X95699390Y-85474000D01*
X96300610Y-85474000D01*
X96342091Y-85478085D01*
G37*
G36*
X93934928Y-85381764D02*
G01*
X93956009Y-85388160D01*
X93975445Y-85398548D01*
X93992476Y-85412524D01*
X94006452Y-85429555D01*
X94016840Y-85448991D01*
X94023236Y-85470072D01*
X94026000Y-85498140D01*
X94026000Y-85961860D01*
X94023236Y-85989928D01*
X94016840Y-86011009D01*
X94006452Y-86030445D01*
X93992476Y-86047476D01*
X93975445Y-86061452D01*
X93956009Y-86071840D01*
X93934928Y-86078236D01*
X93906860Y-86081000D01*
X92093140Y-86081000D01*
X92065072Y-86078236D01*
X92043991Y-86071840D01*
X92024555Y-86061452D01*
X92007524Y-86047476D01*
X91993548Y-86030445D01*
X91983160Y-86011009D01*
X91976764Y-85989928D01*
X91974000Y-85961860D01*
X91974000Y-85498140D01*
X91976764Y-85470072D01*
X91983160Y-85448991D01*
X91993548Y-85429555D01*
X92007524Y-85412524D01*
X92024555Y-85398548D01*
X92043991Y-85388160D01*
X92065072Y-85381764D01*
X92093140Y-85379000D01*
X93906860Y-85379000D01*
X93934928Y-85381764D01*
G37*
G36*
X88984928Y-85381764D02*
G01*
X89006009Y-85388160D01*
X89025445Y-85398548D01*
X89042476Y-85412524D01*
X89056452Y-85429555D01*
X89066840Y-85448991D01*
X89073236Y-85470072D01*
X89076000Y-85498140D01*
X89076000Y-85961860D01*
X89073236Y-85989928D01*
X89066840Y-86011009D01*
X89056452Y-86030445D01*
X89042476Y-86047476D01*
X89025445Y-86061452D01*
X89006009Y-86071840D01*
X88984928Y-86078236D01*
X88956860Y-86081000D01*
X87143140Y-86081000D01*
X87115072Y-86078236D01*
X87093991Y-86071840D01*
X87074555Y-86061452D01*
X87057524Y-86047476D01*
X87043548Y-86030445D01*
X87033160Y-86011009D01*
X87026764Y-85989928D01*
X87024000Y-85961860D01*
X87024000Y-85498140D01*
X87026764Y-85470072D01*
X87033160Y-85448991D01*
X87043548Y-85429555D01*
X87057524Y-85412524D01*
X87074555Y-85398548D01*
X87093991Y-85388160D01*
X87115072Y-85381764D01*
X87143140Y-85379000D01*
X88956860Y-85379000D01*
X88984928Y-85381764D01*
G37*
G36*
X102705997Y-82053051D02*
G01*
X102739652Y-82063261D01*
X102770665Y-82079838D01*
X102797851Y-82102149D01*
X102820162Y-82129335D01*
X102836739Y-82160348D01*
X102846949Y-82194003D01*
X102851000Y-82235138D01*
X102851000Y-84964862D01*
X102846949Y-85005997D01*
X102836739Y-85039652D01*
X102820162Y-85070665D01*
X102797851Y-85097851D01*
X102770665Y-85120162D01*
X102739652Y-85136739D01*
X102705997Y-85146949D01*
X102664862Y-85151000D01*
X101335138Y-85151000D01*
X101294003Y-85146949D01*
X101260348Y-85136739D01*
X101229335Y-85120162D01*
X101202149Y-85097851D01*
X101179838Y-85070665D01*
X101163261Y-85039652D01*
X101153051Y-85005997D01*
X101149000Y-84964862D01*
X101149000Y-82235138D01*
X101153051Y-82194003D01*
X101163261Y-82160348D01*
X101179838Y-82129335D01*
X101202149Y-82102149D01*
X101229335Y-82079838D01*
X101260348Y-82063261D01*
X101294003Y-82053051D01*
X101335138Y-82049000D01*
X102664862Y-82049000D01*
X102705997Y-82053051D01*
G37*
G36*
X93934928Y-84111764D02*
G01*
X93956009Y-84118160D01*
X93975445Y-84128548D01*
X93992476Y-84142524D01*
X94006452Y-84159555D01*
X94016840Y-84178991D01*
X94023236Y-84200072D01*
X94026000Y-84228140D01*
X94026000Y-84691860D01*
X94023236Y-84719928D01*
X94016840Y-84741009D01*
X94006452Y-84760445D01*
X93992476Y-84777476D01*
X93975445Y-84791452D01*
X93956009Y-84801840D01*
X93934928Y-84808236D01*
X93906860Y-84811000D01*
X92093140Y-84811000D01*
X92065072Y-84808236D01*
X92043991Y-84801840D01*
X92024555Y-84791452D01*
X92007524Y-84777476D01*
X91993548Y-84760445D01*
X91983160Y-84741009D01*
X91976764Y-84719928D01*
X91974000Y-84691860D01*
X91974000Y-84228140D01*
X91976764Y-84200072D01*
X91983160Y-84178991D01*
X91993548Y-84159555D01*
X92007524Y-84142524D01*
X92024555Y-84128548D01*
X92043991Y-84118160D01*
X92065072Y-84111764D01*
X92093140Y-84109000D01*
X93906860Y-84109000D01*
X93934928Y-84111764D01*
G37*
G36*
X88984928Y-84111764D02*
G01*
X89006009Y-84118160D01*
X89025445Y-84128548D01*
X89042476Y-84142524D01*
X89056452Y-84159555D01*
X89066840Y-84178991D01*
X89073236Y-84200072D01*
X89076000Y-84228140D01*
X89076000Y-84691860D01*
X89073236Y-84719928D01*
X89066840Y-84741009D01*
X89056452Y-84760445D01*
X89042476Y-84777476D01*
X89025445Y-84791452D01*
X89006009Y-84801840D01*
X88984928Y-84808236D01*
X88956860Y-84811000D01*
X87143140Y-84811000D01*
X87115072Y-84808236D01*
X87093991Y-84801840D01*
X87074555Y-84791452D01*
X87057524Y-84777476D01*
X87043548Y-84760445D01*
X87033160Y-84741009D01*
X87026764Y-84719928D01*
X87024000Y-84691860D01*
X87024000Y-84228140D01*
X87026764Y-84200072D01*
X87033160Y-84178991D01*
X87043548Y-84159555D01*
X87057524Y-84142524D01*
X87074555Y-84128548D01*
X87093991Y-84118160D01*
X87115072Y-84111764D01*
X87143140Y-84109000D01*
X88956860Y-84109000D01*
X88984928Y-84111764D01*
G37*
G36*
X122991000Y-84471000D02*
G01*
X121689000Y-84471000D01*
X121689000Y-82969000D01*
X122991000Y-82969000D01*
X122991000Y-84471000D01*
G37*
G36*
X121291000Y-84471000D02*
G01*
X119989000Y-84471000D01*
X119989000Y-82969000D01*
X121291000Y-82969000D01*
X121291000Y-84471000D01*
G37*
G36*
X119411938Y-83376716D02*
G01*
X119432557Y-83382971D01*
X119451553Y-83393124D01*
X119468208Y-83406792D01*
X119481876Y-83423447D01*
X119492029Y-83442443D01*
X119498284Y-83463062D01*
X119501000Y-83490640D01*
X119501000Y-83949360D01*
X119498284Y-83976938D01*
X119492029Y-83997557D01*
X119481876Y-84016553D01*
X119468208Y-84033208D01*
X119451553Y-84046876D01*
X119432557Y-84057029D01*
X119411938Y-84063284D01*
X119384360Y-84066000D01*
X118875640Y-84066000D01*
X118848062Y-84063284D01*
X118827443Y-84057029D01*
X118808447Y-84046876D01*
X118791792Y-84033208D01*
X118778124Y-84016553D01*
X118767971Y-83997557D01*
X118761716Y-83976938D01*
X118759000Y-83949360D01*
X118759000Y-83490640D01*
X118761716Y-83463062D01*
X118767971Y-83442443D01*
X118778124Y-83423447D01*
X118791792Y-83406792D01*
X118808447Y-83393124D01*
X118827443Y-83382971D01*
X118848062Y-83376716D01*
X118875640Y-83374000D01*
X119384360Y-83374000D01*
X119411938Y-83376716D01*
G37*
G36*
X88984928Y-82841764D02*
G01*
X89006009Y-82848160D01*
X89025445Y-82858548D01*
X89042476Y-82872524D01*
X89056452Y-82889555D01*
X89066840Y-82908991D01*
X89073236Y-82930072D01*
X89076000Y-82958140D01*
X89076000Y-83421860D01*
X89073236Y-83449928D01*
X89066840Y-83471009D01*
X89056452Y-83490445D01*
X89042476Y-83507476D01*
X89025445Y-83521452D01*
X89006009Y-83531840D01*
X88984928Y-83538236D01*
X88956860Y-83541000D01*
X87143140Y-83541000D01*
X87115072Y-83538236D01*
X87093991Y-83531840D01*
X87074555Y-83521452D01*
X87057524Y-83507476D01*
X87043548Y-83490445D01*
X87033160Y-83471009D01*
X87026764Y-83449928D01*
X87024000Y-83421860D01*
X87024000Y-82958140D01*
X87026764Y-82930072D01*
X87033160Y-82908991D01*
X87043548Y-82889555D01*
X87057524Y-82872524D01*
X87074555Y-82858548D01*
X87093991Y-82848160D01*
X87115072Y-82841764D01*
X87143140Y-82839000D01*
X88956860Y-82839000D01*
X88984928Y-82841764D01*
G37*
G36*
X93934928Y-82841764D02*
G01*
X93956009Y-82848160D01*
X93975445Y-82858548D01*
X93992476Y-82872524D01*
X94006452Y-82889555D01*
X94016840Y-82908991D01*
X94023236Y-82930072D01*
X94026000Y-82958140D01*
X94026000Y-83421860D01*
X94023236Y-83449928D01*
X94016840Y-83471009D01*
X94006452Y-83490445D01*
X93992476Y-83507476D01*
X93975445Y-83521452D01*
X93956009Y-83531840D01*
X93934928Y-83538236D01*
X93906860Y-83541000D01*
X92093140Y-83541000D01*
X92065072Y-83538236D01*
X92043991Y-83531840D01*
X92024555Y-83521452D01*
X92007524Y-83507476D01*
X91993548Y-83490445D01*
X91983160Y-83471009D01*
X91976764Y-83449928D01*
X91974000Y-83421860D01*
X91974000Y-82958140D01*
X91976764Y-82930072D01*
X91983160Y-82908991D01*
X91993548Y-82889555D01*
X92007524Y-82872524D01*
X92024555Y-82858548D01*
X92043991Y-82848160D01*
X92065072Y-82841764D01*
X92093140Y-82839000D01*
X93906860Y-82839000D01*
X93934928Y-82841764D01*
G37*
G36*
X96342091Y-82478085D02*
G01*
X96376069Y-82488393D01*
X96407390Y-82505134D01*
X96434839Y-82527661D01*
X96457366Y-82555110D01*
X96474107Y-82586431D01*
X96484415Y-82620409D01*
X96488500Y-82661890D01*
X96488500Y-83338110D01*
X96484415Y-83379591D01*
X96474107Y-83413569D01*
X96457366Y-83444890D01*
X96434839Y-83472339D01*
X96407390Y-83494866D01*
X96376069Y-83511607D01*
X96342091Y-83521915D01*
X96300610Y-83526000D01*
X95699390Y-83526000D01*
X95657909Y-83521915D01*
X95623931Y-83511607D01*
X95592610Y-83494866D01*
X95565161Y-83472339D01*
X95542634Y-83444890D01*
X95525893Y-83413569D01*
X95515585Y-83379591D01*
X95511500Y-83338110D01*
X95511500Y-82661890D01*
X95515585Y-82620409D01*
X95525893Y-82586431D01*
X95542634Y-82555110D01*
X95565161Y-82527661D01*
X95592610Y-82505134D01*
X95623931Y-82488393D01*
X95657909Y-82478085D01*
X95699390Y-82474000D01*
X96300610Y-82474000D01*
X96342091Y-82478085D01*
G37*
G36*
X97917091Y-82478085D02*
G01*
X97951069Y-82488393D01*
X97982390Y-82505134D01*
X98009839Y-82527661D01*
X98032366Y-82555110D01*
X98049107Y-82586431D01*
X98059415Y-82620409D01*
X98063500Y-82661890D01*
X98063500Y-83338110D01*
X98059415Y-83379591D01*
X98049107Y-83413569D01*
X98032366Y-83444890D01*
X98009839Y-83472339D01*
X97982390Y-83494866D01*
X97951069Y-83511607D01*
X97917091Y-83521915D01*
X97875610Y-83526000D01*
X97274390Y-83526000D01*
X97232909Y-83521915D01*
X97198931Y-83511607D01*
X97167610Y-83494866D01*
X97140161Y-83472339D01*
X97117634Y-83444890D01*
X97100893Y-83413569D01*
X97090585Y-83379591D01*
X97086500Y-83338110D01*
X97086500Y-82661890D01*
X97090585Y-82620409D01*
X97100893Y-82586431D01*
X97117634Y-82555110D01*
X97140161Y-82527661D01*
X97167610Y-82505134D01*
X97198931Y-82488393D01*
X97232909Y-82478085D01*
X97274390Y-82474000D01*
X97875610Y-82474000D01*
X97917091Y-82478085D01*
G37*
G36*
X119411938Y-82406716D02*
G01*
X119432557Y-82412971D01*
X119451553Y-82423124D01*
X119468208Y-82436792D01*
X119481876Y-82453447D01*
X119492029Y-82472443D01*
X119498284Y-82493062D01*
X119501000Y-82520640D01*
X119501000Y-82979360D01*
X119498284Y-83006938D01*
X119492029Y-83027557D01*
X119481876Y-83046553D01*
X119468208Y-83063208D01*
X119451553Y-83076876D01*
X119432557Y-83087029D01*
X119411938Y-83093284D01*
X119384360Y-83096000D01*
X118875640Y-83096000D01*
X118848062Y-83093284D01*
X118827443Y-83087029D01*
X118808447Y-83076876D01*
X118791792Y-83063208D01*
X118778124Y-83046553D01*
X118767971Y-83027557D01*
X118761716Y-83006938D01*
X118759000Y-82979360D01*
X118759000Y-82520640D01*
X118761716Y-82493062D01*
X118767971Y-82472443D01*
X118778124Y-82453447D01*
X118791792Y-82436792D01*
X118808447Y-82423124D01*
X118827443Y-82412971D01*
X118848062Y-82406716D01*
X118875640Y-82404000D01*
X119384360Y-82404000D01*
X119411938Y-82406716D01*
G37*
G36*
X104282091Y-79938085D02*
G01*
X104316069Y-79948393D01*
X104347390Y-79965134D01*
X104374839Y-79987661D01*
X104397366Y-80015110D01*
X104414107Y-80046431D01*
X104424415Y-80080409D01*
X104428500Y-80121890D01*
X104428500Y-80798110D01*
X104424415Y-80839591D01*
X104414107Y-80873569D01*
X104397366Y-80904890D01*
X104374839Y-80932339D01*
X104347390Y-80954866D01*
X104316069Y-80971607D01*
X104282091Y-80981915D01*
X104240610Y-80986000D01*
X103639390Y-80986000D01*
X103597909Y-80981915D01*
X103563931Y-80971607D01*
X103532610Y-80954866D01*
X103505161Y-80932339D01*
X103482634Y-80904890D01*
X103465893Y-80873569D01*
X103455585Y-80839591D01*
X103451500Y-80798110D01*
X103451500Y-80121890D01*
X103455585Y-80080409D01*
X103465893Y-80046431D01*
X103482634Y-80015110D01*
X103505161Y-79987661D01*
X103532610Y-79965134D01*
X103563931Y-79948393D01*
X103597909Y-79938085D01*
X103639390Y-79934000D01*
X104240610Y-79934000D01*
X104282091Y-79938085D01*
G37*
G36*
X105857091Y-79938085D02*
G01*
X105891069Y-79948393D01*
X105922390Y-79965134D01*
X105949839Y-79987661D01*
X105972366Y-80015110D01*
X105989107Y-80046431D01*
X105999415Y-80080409D01*
X106003500Y-80121890D01*
X106003500Y-80798110D01*
X105999415Y-80839591D01*
X105989107Y-80873569D01*
X105972366Y-80904890D01*
X105949839Y-80932339D01*
X105922390Y-80954866D01*
X105891069Y-80971607D01*
X105857091Y-80981915D01*
X105815610Y-80986000D01*
X105214390Y-80986000D01*
X105172909Y-80981915D01*
X105138931Y-80971607D01*
X105107610Y-80954866D01*
X105080161Y-80932339D01*
X105057634Y-80904890D01*
X105040893Y-80873569D01*
X105030585Y-80839591D01*
X105026500Y-80798110D01*
X105026500Y-80121890D01*
X105030585Y-80080409D01*
X105040893Y-80046431D01*
X105057634Y-80015110D01*
X105080161Y-79987661D01*
X105107610Y-79965134D01*
X105138931Y-79948393D01*
X105172909Y-79938085D01*
X105214390Y-79934000D01*
X105815610Y-79934000D01*
X105857091Y-79938085D01*
G37*
G36*
X142915520Y-79197664D02*
G01*
X143074942Y-79263699D01*
X143218418Y-79359566D01*
X143340434Y-79481582D01*
X143436301Y-79625058D01*
X143502336Y-79784480D01*
X143502336Y-79784481D01*
X143535776Y-79952592D01*
X143536000Y-79953721D01*
X143536000Y-80126279D01*
X143502336Y-80295520D01*
X143436301Y-80454942D01*
X143340434Y-80598418D01*
X143218418Y-80720434D01*
X143074942Y-80816301D01*
X142915520Y-80882336D01*
X142830899Y-80899168D01*
X142746280Y-80916000D01*
X142573720Y-80916000D01*
X142489101Y-80899168D01*
X142404480Y-80882336D01*
X142245058Y-80816301D01*
X142101582Y-80720434D01*
X141979566Y-80598418D01*
X141883699Y-80454942D01*
X141817664Y-80295520D01*
X141784000Y-80126279D01*
X141784000Y-79953721D01*
X141784225Y-79952592D01*
X141817664Y-79784481D01*
X141817664Y-79784480D01*
X141883699Y-79625058D01*
X141979566Y-79481582D01*
X142101582Y-79359566D01*
X142245058Y-79263699D01*
X142404480Y-79197664D01*
X142573720Y-79164000D01*
X142746280Y-79164000D01*
X142915520Y-79197664D01*
G37*
G36*
X138415520Y-79197664D02*
G01*
X138574942Y-79263699D01*
X138718418Y-79359566D01*
X138840434Y-79481582D01*
X138936301Y-79625058D01*
X139002336Y-79784480D01*
X139002336Y-79784481D01*
X139035776Y-79952592D01*
X139036000Y-79953721D01*
X139036000Y-80126279D01*
X139002336Y-80295520D01*
X138936301Y-80454942D01*
X138840434Y-80598418D01*
X138718418Y-80720434D01*
X138574942Y-80816301D01*
X138415520Y-80882336D01*
X138330899Y-80899168D01*
X138246280Y-80916000D01*
X138073720Y-80916000D01*
X137989101Y-80899168D01*
X137904480Y-80882336D01*
X137745058Y-80816301D01*
X137601582Y-80720434D01*
X137479566Y-80598418D01*
X137383699Y-80454942D01*
X137317664Y-80295520D01*
X137284000Y-80126279D01*
X137284000Y-79953721D01*
X137284225Y-79952592D01*
X137317664Y-79784481D01*
X137317664Y-79784480D01*
X137383699Y-79625058D01*
X137479566Y-79481582D01*
X137601582Y-79359566D01*
X137745058Y-79263699D01*
X137904480Y-79197664D01*
X138073720Y-79164000D01*
X138246280Y-79164000D01*
X138415520Y-79197664D01*
G37*
G36*
X88801000Y-79461000D02*
G01*
X86999000Y-79461000D01*
X86999000Y-77359000D01*
X88801000Y-77359000D01*
X88801000Y-79461000D01*
G37*
G36*
X83351000Y-79461000D02*
G01*
X81549000Y-79461000D01*
X81549000Y-77359000D01*
X83351000Y-77359000D01*
X83351000Y-79461000D01*
G37*
G36*
X106354591Y-77663085D02*
G01*
X106388569Y-77673393D01*
X106419890Y-77690134D01*
X106447339Y-77712661D01*
X106469866Y-77740110D01*
X106486607Y-77771431D01*
X106496915Y-77805409D01*
X106501000Y-77846890D01*
X106501000Y-78523110D01*
X106496915Y-78564591D01*
X106486607Y-78598569D01*
X106469866Y-78629890D01*
X106447339Y-78657339D01*
X106419890Y-78679866D01*
X106388569Y-78696607D01*
X106354591Y-78706915D01*
X106313110Y-78711000D01*
X105711890Y-78711000D01*
X105670409Y-78706915D01*
X105636431Y-78696607D01*
X105605110Y-78679866D01*
X105577661Y-78657339D01*
X105555134Y-78629890D01*
X105538393Y-78598569D01*
X105528085Y-78564591D01*
X105524000Y-78523110D01*
X105524000Y-77846890D01*
X105528085Y-77805409D01*
X105538393Y-77771431D01*
X105555134Y-77740110D01*
X105577661Y-77712661D01*
X105605110Y-77690134D01*
X105636431Y-77673393D01*
X105670409Y-77663085D01*
X105711890Y-77659000D01*
X106313110Y-77659000D01*
X106354591Y-77663085D01*
G37*
G36*
X107929591Y-77663085D02*
G01*
X107963569Y-77673393D01*
X107994890Y-77690134D01*
X108022339Y-77712661D01*
X108044866Y-77740110D01*
X108061607Y-77771431D01*
X108071915Y-77805409D01*
X108076000Y-77846890D01*
X108076000Y-78523110D01*
X108071915Y-78564591D01*
X108061607Y-78598569D01*
X108044866Y-78629890D01*
X108022339Y-78657339D01*
X107994890Y-78679866D01*
X107963569Y-78696607D01*
X107929591Y-78706915D01*
X107888110Y-78711000D01*
X107286890Y-78711000D01*
X107245409Y-78706915D01*
X107211431Y-78696607D01*
X107180110Y-78679866D01*
X107152661Y-78657339D01*
X107130134Y-78629890D01*
X107113393Y-78598569D01*
X107103085Y-78564591D01*
X107099000Y-78523110D01*
X107099000Y-77846890D01*
X107103085Y-77805409D01*
X107113393Y-77771431D01*
X107130134Y-77740110D01*
X107152661Y-77712661D01*
X107180110Y-77690134D01*
X107211431Y-77673393D01*
X107245409Y-77663085D01*
X107286890Y-77659000D01*
X107888110Y-77659000D01*
X107929591Y-77663085D01*
G37*
G36*
X97666000Y-78461000D02*
G01*
X95814000Y-78461000D01*
X95814000Y-69459000D01*
X97666000Y-69459000D01*
X97666000Y-78461000D01*
G37*
G36*
X104866000Y-78461000D02*
G01*
X103014000Y-78461000D01*
X103014000Y-69459000D01*
X104866000Y-69459000D01*
X104866000Y-78461000D01*
G37*
G36*
X91611000Y-77951000D02*
G01*
X90709000Y-77951000D01*
X90709000Y-76949000D01*
X91611000Y-76949000D01*
X91611000Y-77951000D01*
G37*
G36*
X93511000Y-77951000D02*
G01*
X92609000Y-77951000D01*
X92609000Y-76949000D01*
X93511000Y-76949000D01*
X93511000Y-77951000D01*
G37*
G36*
X105971938Y-76151716D02*
G01*
X105992557Y-76157971D01*
X106011553Y-76168124D01*
X106028208Y-76181792D01*
X106041876Y-76198447D01*
X106052029Y-76217443D01*
X106058284Y-76238062D01*
X106061000Y-76265640D01*
X106061000Y-76774360D01*
X106058284Y-76801938D01*
X106052029Y-76822557D01*
X106041876Y-76841553D01*
X106028208Y-76858208D01*
X106011553Y-76871876D01*
X105992557Y-76882029D01*
X105971938Y-76888284D01*
X105944360Y-76891000D01*
X105485640Y-76891000D01*
X105458062Y-76888284D01*
X105437443Y-76882029D01*
X105418447Y-76871876D01*
X105401792Y-76858208D01*
X105388124Y-76841553D01*
X105377971Y-76822557D01*
X105371716Y-76801938D01*
X105369000Y-76774360D01*
X105369000Y-76265640D01*
X105371716Y-76238062D01*
X105377971Y-76217443D01*
X105388124Y-76198447D01*
X105401792Y-76181792D01*
X105418447Y-76168124D01*
X105437443Y-76157971D01*
X105458062Y-76151716D01*
X105485640Y-76149000D01*
X105944360Y-76149000D01*
X105971938Y-76151716D01*
G37*
G36*
X106941938Y-76151716D02*
G01*
X106962557Y-76157971D01*
X106981553Y-76168124D01*
X106998208Y-76181792D01*
X107011876Y-76198447D01*
X107022029Y-76217443D01*
X107028284Y-76238062D01*
X107031000Y-76265640D01*
X107031000Y-76774360D01*
X107028284Y-76801938D01*
X107022029Y-76822557D01*
X107011876Y-76841553D01*
X106998208Y-76858208D01*
X106981553Y-76871876D01*
X106962557Y-76882029D01*
X106941938Y-76888284D01*
X106914360Y-76891000D01*
X106455640Y-76891000D01*
X106428062Y-76888284D01*
X106407443Y-76882029D01*
X106388447Y-76871876D01*
X106371792Y-76858208D01*
X106358124Y-76841553D01*
X106347971Y-76822557D01*
X106341716Y-76801938D01*
X106339000Y-76774360D01*
X106339000Y-76265640D01*
X106341716Y-76238062D01*
X106347971Y-76217443D01*
X106358124Y-76198447D01*
X106371792Y-76181792D01*
X106388447Y-76168124D01*
X106407443Y-76157971D01*
X106428062Y-76151716D01*
X106455640Y-76149000D01*
X106914360Y-76149000D01*
X106941938Y-76151716D01*
G37*
G36*
X85460721Y-75630174D02*
G01*
X85560995Y-75671709D01*
X85605812Y-75701655D01*
X85651242Y-75732010D01*
X85727990Y-75808758D01*
X85727991Y-75808760D01*
X85788291Y-75899005D01*
X85829826Y-75999279D01*
X85851000Y-76105730D01*
X85851000Y-76214270D01*
X85829826Y-76320721D01*
X85788291Y-76420995D01*
X85788290Y-76420996D01*
X85727990Y-76511242D01*
X85651242Y-76587990D01*
X85619798Y-76609000D01*
X85560995Y-76648291D01*
X85460721Y-76689826D01*
X85354270Y-76711000D01*
X85245730Y-76711000D01*
X85139279Y-76689826D01*
X85039005Y-76648291D01*
X84980202Y-76609000D01*
X84948758Y-76587990D01*
X84872010Y-76511242D01*
X84811710Y-76420996D01*
X84811709Y-76420995D01*
X84770174Y-76320721D01*
X84749000Y-76214270D01*
X84749000Y-76105730D01*
X84770174Y-75999279D01*
X84811709Y-75899005D01*
X84872009Y-75808760D01*
X84872010Y-75808758D01*
X84948758Y-75732010D01*
X84994188Y-75701655D01*
X85039005Y-75671709D01*
X85139279Y-75630174D01*
X85245730Y-75609000D01*
X85354270Y-75609000D01*
X85460721Y-75630174D01*
G37*
G36*
X92561000Y-75951000D02*
G01*
X91659000Y-75951000D01*
X91659000Y-74949000D01*
X92561000Y-74949000D01*
X92561000Y-75951000D01*
G37*
G36*
X89051000Y-75861000D02*
G01*
X86949000Y-75861000D01*
X86949000Y-72059000D01*
X89051000Y-72059000D01*
X89051000Y-75861000D01*
G37*
G36*
X107929591Y-74708085D02*
G01*
X107963569Y-74718393D01*
X107994890Y-74735134D01*
X108022339Y-74757661D01*
X108044866Y-74785110D01*
X108061607Y-74816431D01*
X108071915Y-74850409D01*
X108076000Y-74891890D01*
X108076000Y-75568110D01*
X108071915Y-75609591D01*
X108061607Y-75643569D01*
X108044866Y-75674890D01*
X108022339Y-75702339D01*
X107994890Y-75724866D01*
X107963569Y-75741607D01*
X107929591Y-75751915D01*
X107888110Y-75756000D01*
X107286890Y-75756000D01*
X107245409Y-75751915D01*
X107211431Y-75741607D01*
X107180110Y-75724866D01*
X107152661Y-75702339D01*
X107130134Y-75674890D01*
X107113393Y-75643569D01*
X107103085Y-75609591D01*
X107099000Y-75568110D01*
X107099000Y-74891890D01*
X107103085Y-74850409D01*
X107113393Y-74816431D01*
X107130134Y-74785110D01*
X107152661Y-74757661D01*
X107180110Y-74735134D01*
X107211431Y-74718393D01*
X107245409Y-74708085D01*
X107286890Y-74704000D01*
X107888110Y-74704000D01*
X107929591Y-74708085D01*
G37*
G36*
X106354591Y-74708085D02*
G01*
X106388569Y-74718393D01*
X106419890Y-74735134D01*
X106447339Y-74757661D01*
X106469866Y-74785110D01*
X106486607Y-74816431D01*
X106496915Y-74850409D01*
X106501000Y-74891890D01*
X106501000Y-75568110D01*
X106496915Y-75609591D01*
X106486607Y-75643569D01*
X106469866Y-75674890D01*
X106447339Y-75702339D01*
X106419890Y-75724866D01*
X106388569Y-75741607D01*
X106354591Y-75751915D01*
X106313110Y-75756000D01*
X105711890Y-75756000D01*
X105670409Y-75751915D01*
X105636431Y-75741607D01*
X105605110Y-75724866D01*
X105577661Y-75702339D01*
X105555134Y-75674890D01*
X105538393Y-75643569D01*
X105528085Y-75609591D01*
X105524000Y-75568110D01*
X105524000Y-74891890D01*
X105528085Y-74850409D01*
X105538393Y-74816431D01*
X105555134Y-74785110D01*
X105577661Y-74757661D01*
X105605110Y-74735134D01*
X105636431Y-74718393D01*
X105670409Y-74708085D01*
X105711890Y-74704000D01*
X106313110Y-74704000D01*
X106354591Y-74708085D01*
G37*
G36*
X94276938Y-72811716D02*
G01*
X94297557Y-72817971D01*
X94316553Y-72828124D01*
X94333208Y-72841792D01*
X94346876Y-72858447D01*
X94357029Y-72877443D01*
X94363284Y-72898062D01*
X94366000Y-72925640D01*
X94366000Y-73434360D01*
X94363284Y-73461938D01*
X94357029Y-73482557D01*
X94346876Y-73501553D01*
X94333208Y-73518208D01*
X94316553Y-73531876D01*
X94297557Y-73542029D01*
X94276938Y-73548284D01*
X94249360Y-73551000D01*
X93790640Y-73551000D01*
X93763062Y-73548284D01*
X93742443Y-73542029D01*
X93723447Y-73531876D01*
X93706792Y-73518208D01*
X93693124Y-73501553D01*
X93682971Y-73482557D01*
X93676716Y-73461938D01*
X93674000Y-73434360D01*
X93674000Y-72925640D01*
X93676716Y-72898062D01*
X93682971Y-72877443D01*
X93693124Y-72858447D01*
X93706792Y-72841792D01*
X93723447Y-72828124D01*
X93742443Y-72817971D01*
X93763062Y-72811716D01*
X93790640Y-72809000D01*
X94249360Y-72809000D01*
X94276938Y-72811716D01*
G37*
G36*
X95246938Y-72811716D02*
G01*
X95267557Y-72817971D01*
X95286553Y-72828124D01*
X95303208Y-72841792D01*
X95316876Y-72858447D01*
X95327029Y-72877443D01*
X95333284Y-72898062D01*
X95336000Y-72925640D01*
X95336000Y-73434360D01*
X95333284Y-73461938D01*
X95327029Y-73482557D01*
X95316876Y-73501553D01*
X95303208Y-73518208D01*
X95286553Y-73531876D01*
X95267557Y-73542029D01*
X95246938Y-73548284D01*
X95219360Y-73551000D01*
X94760640Y-73551000D01*
X94733062Y-73548284D01*
X94712443Y-73542029D01*
X94693447Y-73531876D01*
X94676792Y-73518208D01*
X94663124Y-73501553D01*
X94652971Y-73482557D01*
X94646716Y-73461938D01*
X94644000Y-73434360D01*
X94644000Y-72925640D01*
X94646716Y-72898062D01*
X94652971Y-72877443D01*
X94663124Y-72858447D01*
X94676792Y-72841792D01*
X94693447Y-72828124D01*
X94712443Y-72817971D01*
X94733062Y-72811716D01*
X94760640Y-72809000D01*
X95219360Y-72809000D01*
X95246938Y-72811716D01*
G37*
G36*
X90877091Y-71838085D02*
G01*
X90911069Y-71848393D01*
X90942390Y-71865134D01*
X90969839Y-71887661D01*
X90992366Y-71915110D01*
X91009107Y-71946431D01*
X91019415Y-71980409D01*
X91023500Y-72021890D01*
X91023500Y-72698110D01*
X91019415Y-72739591D01*
X91009107Y-72773569D01*
X90992366Y-72804890D01*
X90969839Y-72832339D01*
X90942390Y-72854866D01*
X90911069Y-72871607D01*
X90877091Y-72881915D01*
X90835610Y-72886000D01*
X90234390Y-72886000D01*
X90192909Y-72881915D01*
X90158931Y-72871607D01*
X90127610Y-72854866D01*
X90100161Y-72832339D01*
X90077634Y-72804890D01*
X90060893Y-72773569D01*
X90050585Y-72739591D01*
X90046500Y-72698110D01*
X90046500Y-72021890D01*
X90050585Y-71980409D01*
X90060893Y-71946431D01*
X90077634Y-71915110D01*
X90100161Y-71887661D01*
X90127610Y-71865134D01*
X90158931Y-71848393D01*
X90192909Y-71838085D01*
X90234390Y-71834000D01*
X90835610Y-71834000D01*
X90877091Y-71838085D01*
G37*
G36*
X92452091Y-71838085D02*
G01*
X92486069Y-71848393D01*
X92517390Y-71865134D01*
X92544839Y-71887661D01*
X92567366Y-71915110D01*
X92584107Y-71946431D01*
X92594415Y-71980409D01*
X92598500Y-72021890D01*
X92598500Y-72698110D01*
X92594415Y-72739591D01*
X92584107Y-72773569D01*
X92567366Y-72804890D01*
X92544839Y-72832339D01*
X92517390Y-72854866D01*
X92486069Y-72871607D01*
X92452091Y-72881915D01*
X92410610Y-72886000D01*
X91809390Y-72886000D01*
X91767909Y-72881915D01*
X91733931Y-72871607D01*
X91702610Y-72854866D01*
X91675161Y-72832339D01*
X91652634Y-72804890D01*
X91635893Y-72773569D01*
X91625585Y-72739591D01*
X91621500Y-72698110D01*
X91621500Y-72021890D01*
X91625585Y-71980409D01*
X91635893Y-71946431D01*
X91652634Y-71915110D01*
X91675161Y-71887661D01*
X91702610Y-71865134D01*
X91733931Y-71848393D01*
X91767909Y-71838085D01*
X91809390Y-71834000D01*
X92410610Y-71834000D01*
X92452091Y-71838085D01*
G37*
G36*
X94276938Y-71781716D02*
G01*
X94297557Y-71787971D01*
X94316553Y-71798124D01*
X94333208Y-71811792D01*
X94346876Y-71828447D01*
X94357029Y-71847443D01*
X94363284Y-71868062D01*
X94366000Y-71895640D01*
X94366000Y-72404360D01*
X94363284Y-72431938D01*
X94357029Y-72452557D01*
X94346876Y-72471553D01*
X94333208Y-72488208D01*
X94316553Y-72501876D01*
X94297557Y-72512029D01*
X94276938Y-72518284D01*
X94249360Y-72521000D01*
X93790640Y-72521000D01*
X93763062Y-72518284D01*
X93742443Y-72512029D01*
X93723447Y-72501876D01*
X93706792Y-72488208D01*
X93693124Y-72471553D01*
X93682971Y-72452557D01*
X93676716Y-72431938D01*
X93674000Y-72404360D01*
X93674000Y-71895640D01*
X93676716Y-71868062D01*
X93682971Y-71847443D01*
X93693124Y-71828447D01*
X93706792Y-71811792D01*
X93723447Y-71798124D01*
X93742443Y-71787971D01*
X93763062Y-71781716D01*
X93790640Y-71779000D01*
X94249360Y-71779000D01*
X94276938Y-71781716D01*
G37*
G36*
X95246938Y-71781716D02*
G01*
X95267557Y-71787971D01*
X95286553Y-71798124D01*
X95303208Y-71811792D01*
X95316876Y-71828447D01*
X95327029Y-71847443D01*
X95333284Y-71868062D01*
X95336000Y-71895640D01*
X95336000Y-72404360D01*
X95333284Y-72431938D01*
X95327029Y-72452557D01*
X95316876Y-72471553D01*
X95303208Y-72488208D01*
X95286553Y-72501876D01*
X95267557Y-72512029D01*
X95246938Y-72518284D01*
X95219360Y-72521000D01*
X94760640Y-72521000D01*
X94733062Y-72518284D01*
X94712443Y-72512029D01*
X94693447Y-72501876D01*
X94676792Y-72488208D01*
X94663124Y-72471553D01*
X94652971Y-72452557D01*
X94646716Y-72431938D01*
X94644000Y-72404360D01*
X94644000Y-71895640D01*
X94646716Y-71868062D01*
X94652971Y-71847443D01*
X94663124Y-71828447D01*
X94676792Y-71811792D01*
X94693447Y-71798124D01*
X94712443Y-71787971D01*
X94733062Y-71781716D01*
X94760640Y-71779000D01*
X95219360Y-71779000D01*
X95246938Y-71781716D01*
G37*
G36*
X85460721Y-71230174D02*
G01*
X85560995Y-71271709D01*
X85560996Y-71271710D01*
X85651242Y-71332010D01*
X85727990Y-71408758D01*
X85758345Y-71454188D01*
X85788291Y-71499005D01*
X85829826Y-71599279D01*
X85851000Y-71705730D01*
X85851000Y-71814270D01*
X85829826Y-71920721D01*
X85788291Y-72020995D01*
X85788290Y-72020996D01*
X85727990Y-72111242D01*
X85651242Y-72187990D01*
X85605812Y-72218345D01*
X85560995Y-72248291D01*
X85460721Y-72289826D01*
X85354270Y-72311000D01*
X85245730Y-72311000D01*
X85139279Y-72289826D01*
X85039005Y-72248291D01*
X84994188Y-72218345D01*
X84948758Y-72187990D01*
X84872010Y-72111242D01*
X84811710Y-72020996D01*
X84811709Y-72020995D01*
X84770174Y-71920721D01*
X84749000Y-71814270D01*
X84749000Y-71705730D01*
X84770174Y-71599279D01*
X84811709Y-71499005D01*
X84841655Y-71454188D01*
X84872010Y-71408758D01*
X84948758Y-71332010D01*
X85039004Y-71271710D01*
X85039005Y-71271709D01*
X85139279Y-71230174D01*
X85245730Y-71209000D01*
X85354270Y-71209000D01*
X85460721Y-71230174D01*
G37*
G36*
X88801000Y-70561000D02*
G01*
X86999000Y-70561000D01*
X86999000Y-68459000D01*
X88801000Y-68459000D01*
X88801000Y-70561000D01*
G37*
G36*
X83351000Y-70561000D02*
G01*
X81549000Y-70561000D01*
X81549000Y-68459000D01*
X83351000Y-68459000D01*
X83351000Y-70561000D01*
G37*
G36*
X106887091Y-68688085D02*
G01*
X106921069Y-68698393D01*
X106952390Y-68715134D01*
X106979839Y-68737661D01*
X107002366Y-68765110D01*
X107019107Y-68796431D01*
X107029415Y-68830409D01*
X107033500Y-68871890D01*
X107033500Y-69548110D01*
X107029415Y-69589591D01*
X107019107Y-69623569D01*
X107002366Y-69654890D01*
X106979839Y-69682339D01*
X106952390Y-69704866D01*
X106921069Y-69721607D01*
X106887091Y-69731915D01*
X106845610Y-69736000D01*
X106244390Y-69736000D01*
X106202909Y-69731915D01*
X106168931Y-69721607D01*
X106137610Y-69704866D01*
X106110161Y-69682339D01*
X106087634Y-69654890D01*
X106070893Y-69623569D01*
X106060585Y-69589591D01*
X106056500Y-69548110D01*
X106056500Y-68871890D01*
X106060585Y-68830409D01*
X106070893Y-68796431D01*
X106087634Y-68765110D01*
X106110161Y-68737661D01*
X106137610Y-68715134D01*
X106168931Y-68698393D01*
X106202909Y-68688085D01*
X106244390Y-68684000D01*
X106845610Y-68684000D01*
X106887091Y-68688085D01*
G37*
G36*
X108462091Y-68688085D02*
G01*
X108496069Y-68698393D01*
X108527390Y-68715134D01*
X108554839Y-68737661D01*
X108577366Y-68765110D01*
X108594107Y-68796431D01*
X108604415Y-68830409D01*
X108608500Y-68871890D01*
X108608500Y-69548110D01*
X108604415Y-69589591D01*
X108594107Y-69623569D01*
X108577366Y-69654890D01*
X108554839Y-69682339D01*
X108527390Y-69704866D01*
X108496069Y-69721607D01*
X108462091Y-69731915D01*
X108420610Y-69736000D01*
X107819390Y-69736000D01*
X107777909Y-69731915D01*
X107743931Y-69721607D01*
X107712610Y-69704866D01*
X107685161Y-69682339D01*
X107662634Y-69654890D01*
X107645893Y-69623569D01*
X107635585Y-69589591D01*
X107631500Y-69548110D01*
X107631500Y-68871890D01*
X107635585Y-68830409D01*
X107645893Y-68796431D01*
X107662634Y-68765110D01*
X107685161Y-68737661D01*
X107712610Y-68715134D01*
X107743931Y-68698393D01*
X107777909Y-68688085D01*
X107819390Y-68684000D01*
X108420610Y-68684000D01*
X108462091Y-68688085D01*
G37*
G36*
X106887091Y-66778085D02*
G01*
X106921069Y-66788393D01*
X106952390Y-66805134D01*
X106979839Y-66827661D01*
X107002366Y-66855110D01*
X107019107Y-66886431D01*
X107029415Y-66920409D01*
X107033500Y-66961890D01*
X107033500Y-67638110D01*
X107029415Y-67679591D01*
X107019107Y-67713569D01*
X107002366Y-67744890D01*
X106979839Y-67772339D01*
X106952390Y-67794866D01*
X106921069Y-67811607D01*
X106887091Y-67821915D01*
X106845610Y-67826000D01*
X106244390Y-67826000D01*
X106202909Y-67821915D01*
X106168931Y-67811607D01*
X106137610Y-67794866D01*
X106110161Y-67772339D01*
X106087634Y-67744890D01*
X106070893Y-67713569D01*
X106060585Y-67679591D01*
X106056500Y-67638110D01*
X106056500Y-66961890D01*
X106060585Y-66920409D01*
X106070893Y-66886431D01*
X106087634Y-66855110D01*
X106110161Y-66827661D01*
X106137610Y-66805134D01*
X106168931Y-66788393D01*
X106202909Y-66778085D01*
X106244390Y-66774000D01*
X106845610Y-66774000D01*
X106887091Y-66778085D01*
G37*
G36*
X105312091Y-66778085D02*
G01*
X105346069Y-66788393D01*
X105377390Y-66805134D01*
X105404839Y-66827661D01*
X105427366Y-66855110D01*
X105444107Y-66886431D01*
X105454415Y-66920409D01*
X105458500Y-66961890D01*
X105458500Y-67638110D01*
X105454415Y-67679591D01*
X105444107Y-67713569D01*
X105427366Y-67744890D01*
X105404839Y-67772339D01*
X105377390Y-67794866D01*
X105346069Y-67811607D01*
X105312091Y-67821915D01*
X105270610Y-67826000D01*
X104669390Y-67826000D01*
X104627909Y-67821915D01*
X104593931Y-67811607D01*
X104562610Y-67794866D01*
X104535161Y-67772339D01*
X104512634Y-67744890D01*
X104495893Y-67713569D01*
X104485585Y-67679591D01*
X104481500Y-67638110D01*
X104481500Y-66961890D01*
X104485585Y-66920409D01*
X104495893Y-66886431D01*
X104512634Y-66855110D01*
X104535161Y-66827661D01*
X104562610Y-66805134D01*
X104593931Y-66788393D01*
X104627909Y-66778085D01*
X104669390Y-66774000D01*
X105270610Y-66774000D01*
X105312091Y-66778085D01*
G37*
G36*
X91054591Y-64478085D02*
G01*
X91088569Y-64488393D01*
X91119890Y-64505134D01*
X91147339Y-64527661D01*
X91169866Y-64555110D01*
X91186607Y-64586431D01*
X91196915Y-64620409D01*
X91201000Y-64661890D01*
X91201000Y-65338110D01*
X91196915Y-65379591D01*
X91186607Y-65413569D01*
X91169866Y-65444890D01*
X91147339Y-65472339D01*
X91119890Y-65494866D01*
X91088569Y-65511607D01*
X91054591Y-65521915D01*
X91013110Y-65526000D01*
X90411890Y-65526000D01*
X90370409Y-65521915D01*
X90336431Y-65511607D01*
X90305110Y-65494866D01*
X90277661Y-65472339D01*
X90255134Y-65444890D01*
X90238393Y-65413569D01*
X90228085Y-65379591D01*
X90224000Y-65338110D01*
X90224000Y-64661890D01*
X90228085Y-64620409D01*
X90238393Y-64586431D01*
X90255134Y-64555110D01*
X90277661Y-64527661D01*
X90305110Y-64505134D01*
X90336431Y-64488393D01*
X90370409Y-64478085D01*
X90411890Y-64474000D01*
X91013110Y-64474000D01*
X91054591Y-64478085D01*
G37*
G36*
X87554591Y-64478085D02*
G01*
X87588569Y-64488393D01*
X87619890Y-64505134D01*
X87647339Y-64527661D01*
X87669866Y-64555110D01*
X87686607Y-64586431D01*
X87696915Y-64620409D01*
X87701000Y-64661890D01*
X87701000Y-65338110D01*
X87696915Y-65379591D01*
X87686607Y-65413569D01*
X87669866Y-65444890D01*
X87647339Y-65472339D01*
X87619890Y-65494866D01*
X87588569Y-65511607D01*
X87554591Y-65521915D01*
X87513110Y-65526000D01*
X86911890Y-65526000D01*
X86870409Y-65521915D01*
X86836431Y-65511607D01*
X86805110Y-65494866D01*
X86777661Y-65472339D01*
X86755134Y-65444890D01*
X86738393Y-65413569D01*
X86728085Y-65379591D01*
X86724000Y-65338110D01*
X86724000Y-64661890D01*
X86728085Y-64620409D01*
X86738393Y-64586431D01*
X86755134Y-64555110D01*
X86777661Y-64527661D01*
X86805110Y-64505134D01*
X86836431Y-64488393D01*
X86870409Y-64478085D01*
X86911890Y-64474000D01*
X87513110Y-64474000D01*
X87554591Y-64478085D01*
G37*
G36*
X89129591Y-64478085D02*
G01*
X89163569Y-64488393D01*
X89194890Y-64505134D01*
X89222339Y-64527661D01*
X89244866Y-64555110D01*
X89261607Y-64586431D01*
X89271915Y-64620409D01*
X89276000Y-64661890D01*
X89276000Y-65338110D01*
X89271915Y-65379591D01*
X89261607Y-65413569D01*
X89244866Y-65444890D01*
X89222339Y-65472339D01*
X89194890Y-65494866D01*
X89163569Y-65511607D01*
X89129591Y-65521915D01*
X89088110Y-65526000D01*
X88486890Y-65526000D01*
X88445409Y-65521915D01*
X88411431Y-65511607D01*
X88380110Y-65494866D01*
X88352661Y-65472339D01*
X88330134Y-65444890D01*
X88313393Y-65413569D01*
X88303085Y-65379591D01*
X88299000Y-65338110D01*
X88299000Y-64661890D01*
X88303085Y-64620409D01*
X88313393Y-64586431D01*
X88330134Y-64555110D01*
X88352661Y-64527661D01*
X88380110Y-64505134D01*
X88411431Y-64488393D01*
X88445409Y-64478085D01*
X88486890Y-64474000D01*
X89088110Y-64474000D01*
X89129591Y-64478085D01*
G37*
G36*
X92629591Y-64478085D02*
G01*
X92663569Y-64488393D01*
X92694890Y-64505134D01*
X92722339Y-64527661D01*
X92744866Y-64555110D01*
X92761607Y-64586431D01*
X92771915Y-64620409D01*
X92776000Y-64661890D01*
X92776000Y-65338110D01*
X92771915Y-65379591D01*
X92761607Y-65413569D01*
X92744866Y-65444890D01*
X92722339Y-65472339D01*
X92694890Y-65494866D01*
X92663569Y-65511607D01*
X92629591Y-65521915D01*
X92588110Y-65526000D01*
X91986890Y-65526000D01*
X91945409Y-65521915D01*
X91911431Y-65511607D01*
X91880110Y-65494866D01*
X91852661Y-65472339D01*
X91830134Y-65444890D01*
X91813393Y-65413569D01*
X91803085Y-65379591D01*
X91799000Y-65338110D01*
X91799000Y-64661890D01*
X91803085Y-64620409D01*
X91813393Y-64586431D01*
X91830134Y-64555110D01*
X91852661Y-64527661D01*
X91880110Y-64505134D01*
X91911431Y-64488393D01*
X91945409Y-64478085D01*
X91986890Y-64474000D01*
X92588110Y-64474000D01*
X92629591Y-64478085D01*
G37*
G36*
X89129591Y-61978085D02*
G01*
X89163569Y-61988393D01*
X89194890Y-62005134D01*
X89222339Y-62027661D01*
X89244866Y-62055110D01*
X89261607Y-62086431D01*
X89271915Y-62120409D01*
X89276000Y-62161890D01*
X89276000Y-62838110D01*
X89271915Y-62879591D01*
X89261607Y-62913569D01*
X89244866Y-62944890D01*
X89222339Y-62972339D01*
X89194890Y-62994866D01*
X89163569Y-63011607D01*
X89129591Y-63021915D01*
X89088110Y-63026000D01*
X88486890Y-63026000D01*
X88445409Y-63021915D01*
X88411431Y-63011607D01*
X88380110Y-62994866D01*
X88352661Y-62972339D01*
X88330134Y-62944890D01*
X88313393Y-62913569D01*
X88303085Y-62879591D01*
X88299000Y-62838110D01*
X88299000Y-62161890D01*
X88303085Y-62120409D01*
X88313393Y-62086431D01*
X88330134Y-62055110D01*
X88352661Y-62027661D01*
X88380110Y-62005134D01*
X88411431Y-61988393D01*
X88445409Y-61978085D01*
X88486890Y-61974000D01*
X89088110Y-61974000D01*
X89129591Y-61978085D01*
G37*
G36*
X87554591Y-61978085D02*
G01*
X87588569Y-61988393D01*
X87619890Y-62005134D01*
X87647339Y-62027661D01*
X87669866Y-62055110D01*
X87686607Y-62086431D01*
X87696915Y-62120409D01*
X87701000Y-62161890D01*
X87701000Y-62838110D01*
X87696915Y-62879591D01*
X87686607Y-62913569D01*
X87669866Y-62944890D01*
X87647339Y-62972339D01*
X87619890Y-62994866D01*
X87588569Y-63011607D01*
X87554591Y-63021915D01*
X87513110Y-63026000D01*
X86911890Y-63026000D01*
X86870409Y-63021915D01*
X86836431Y-63011607D01*
X86805110Y-62994866D01*
X86777661Y-62972339D01*
X86755134Y-62944890D01*
X86738393Y-62913569D01*
X86728085Y-62879591D01*
X86724000Y-62838110D01*
X86724000Y-62161890D01*
X86728085Y-62120409D01*
X86738393Y-62086431D01*
X86755134Y-62055110D01*
X86777661Y-62027661D01*
X86805110Y-62005134D01*
X86836431Y-61988393D01*
X86870409Y-61978085D01*
X86911890Y-61974000D01*
X87513110Y-61974000D01*
X87554591Y-61978085D01*
G37*
G36*
X91054591Y-61978085D02*
G01*
X91088569Y-61988393D01*
X91119890Y-62005134D01*
X91147339Y-62027661D01*
X91169866Y-62055110D01*
X91186607Y-62086431D01*
X91196915Y-62120409D01*
X91201000Y-62161890D01*
X91201000Y-62838110D01*
X91196915Y-62879591D01*
X91186607Y-62913569D01*
X91169866Y-62944890D01*
X91147339Y-62972339D01*
X91119890Y-62994866D01*
X91088569Y-63011607D01*
X91054591Y-63021915D01*
X91013110Y-63026000D01*
X90411890Y-63026000D01*
X90370409Y-63021915D01*
X90336431Y-63011607D01*
X90305110Y-62994866D01*
X90277661Y-62972339D01*
X90255134Y-62944890D01*
X90238393Y-62913569D01*
X90228085Y-62879591D01*
X90224000Y-62838110D01*
X90224000Y-62161890D01*
X90228085Y-62120409D01*
X90238393Y-62086431D01*
X90255134Y-62055110D01*
X90277661Y-62027661D01*
X90305110Y-62005134D01*
X90336431Y-61988393D01*
X90370409Y-61978085D01*
X90411890Y-61974000D01*
X91013110Y-61974000D01*
X91054591Y-61978085D01*
G37*
G36*
X92629591Y-61978085D02*
G01*
X92663569Y-61988393D01*
X92694890Y-62005134D01*
X92722339Y-62027661D01*
X92744866Y-62055110D01*
X92761607Y-62086431D01*
X92771915Y-62120409D01*
X92776000Y-62161890D01*
X92776000Y-62838110D01*
X92771915Y-62879591D01*
X92761607Y-62913569D01*
X92744866Y-62944890D01*
X92722339Y-62972339D01*
X92694890Y-62994866D01*
X92663569Y-63011607D01*
X92629591Y-63021915D01*
X92588110Y-63026000D01*
X91986890Y-63026000D01*
X91945409Y-63021915D01*
X91911431Y-63011607D01*
X91880110Y-62994866D01*
X91852661Y-62972339D01*
X91830134Y-62944890D01*
X91813393Y-62913569D01*
X91803085Y-62879591D01*
X91799000Y-62838110D01*
X91799000Y-62161890D01*
X91803085Y-62120409D01*
X91813393Y-62086431D01*
X91830134Y-62055110D01*
X91852661Y-62027661D01*
X91880110Y-62005134D01*
X91911431Y-61988393D01*
X91945409Y-61978085D01*
X91986890Y-61974000D01*
X92588110Y-61974000D01*
X92629591Y-61978085D01*
G37*
G36*
X105693512Y-60363927D02*
G01*
X105842812Y-60393624D01*
X106006784Y-60461544D01*
X106154354Y-60560147D01*
X106279853Y-60685646D01*
X106378456Y-60833216D01*
X106446376Y-60997188D01*
X106481000Y-61171259D01*
X106481000Y-61348741D01*
X106446376Y-61522812D01*
X106378456Y-61686784D01*
X106279853Y-61834354D01*
X106154354Y-61959853D01*
X106006784Y-62058456D01*
X105842812Y-62126376D01*
X105693512Y-62156073D01*
X105668742Y-62161000D01*
X105491258Y-62161000D01*
X105466488Y-62156073D01*
X105317188Y-62126376D01*
X105153216Y-62058456D01*
X105005646Y-61959853D01*
X104880147Y-61834354D01*
X104781544Y-61686784D01*
X104713624Y-61522812D01*
X104679000Y-61348741D01*
X104679000Y-61171259D01*
X104713624Y-60997188D01*
X104781544Y-60833216D01*
X104880147Y-60685646D01*
X105005646Y-60560147D01*
X105153216Y-60461544D01*
X105317188Y-60393624D01*
X105466488Y-60363927D01*
X105491258Y-60359000D01*
X105668742Y-60359000D01*
X105693512Y-60363927D01*
G37*
G36*
X135153512Y-60363927D02*
G01*
X135302812Y-60393624D01*
X135466784Y-60461544D01*
X135614354Y-60560147D01*
X135739853Y-60685646D01*
X135838456Y-60833216D01*
X135906376Y-60997188D01*
X135941000Y-61171259D01*
X135941000Y-61348741D01*
X135906376Y-61522812D01*
X135838456Y-61686784D01*
X135739853Y-61834354D01*
X135614354Y-61959853D01*
X135466784Y-62058456D01*
X135302812Y-62126376D01*
X135153512Y-62156073D01*
X135128742Y-62161000D01*
X134951258Y-62161000D01*
X134926488Y-62156073D01*
X134777188Y-62126376D01*
X134613216Y-62058456D01*
X134465646Y-61959853D01*
X134340147Y-61834354D01*
X134241544Y-61686784D01*
X134173624Y-61522812D01*
X134139000Y-61348741D01*
X134139000Y-61171259D01*
X134173624Y-60997188D01*
X134241544Y-60833216D01*
X134340147Y-60685646D01*
X134465646Y-60560147D01*
X134613216Y-60461544D01*
X134777188Y-60393624D01*
X134926488Y-60363927D01*
X134951258Y-60359000D01*
X135128742Y-60359000D01*
X135153512Y-60363927D01*
G37*
G36*
X103153512Y-60363927D02*
G01*
X103302812Y-60393624D01*
X103466784Y-60461544D01*
X103614354Y-60560147D01*
X103739853Y-60685646D01*
X103838456Y-60833216D01*
X103906376Y-60997188D01*
X103941000Y-61171259D01*
X103941000Y-61348741D01*
X103906376Y-61522812D01*
X103838456Y-61686784D01*
X103739853Y-61834354D01*
X103614354Y-61959853D01*
X103466784Y-62058456D01*
X103302812Y-62126376D01*
X103153512Y-62156073D01*
X103128742Y-62161000D01*
X102951258Y-62161000D01*
X102926488Y-62156073D01*
X102777188Y-62126376D01*
X102613216Y-62058456D01*
X102465646Y-61959853D01*
X102340147Y-61834354D01*
X102241544Y-61686784D01*
X102173624Y-61522812D01*
X102139000Y-61348741D01*
X102139000Y-61171259D01*
X102173624Y-60997188D01*
X102241544Y-60833216D01*
X102340147Y-60685646D01*
X102465646Y-60560147D01*
X102613216Y-60461544D01*
X102777188Y-60393624D01*
X102926488Y-60363927D01*
X102951258Y-60359000D01*
X103128742Y-60359000D01*
X103153512Y-60363927D01*
G37*
G36*
X100613512Y-60363927D02*
G01*
X100762812Y-60393624D01*
X100926784Y-60461544D01*
X101074354Y-60560147D01*
X101199853Y-60685646D01*
X101298456Y-60833216D01*
X101366376Y-60997188D01*
X101401000Y-61171259D01*
X101401000Y-61348741D01*
X101366376Y-61522812D01*
X101298456Y-61686784D01*
X101199853Y-61834354D01*
X101074354Y-61959853D01*
X100926784Y-62058456D01*
X100762812Y-62126376D01*
X100613512Y-62156073D01*
X100588742Y-62161000D01*
X100411258Y-62161000D01*
X100386488Y-62156073D01*
X100237188Y-62126376D01*
X100073216Y-62058456D01*
X99925646Y-61959853D01*
X99800147Y-61834354D01*
X99701544Y-61686784D01*
X99633624Y-61522812D01*
X99599000Y-61348741D01*
X99599000Y-61171259D01*
X99633624Y-60997188D01*
X99701544Y-60833216D01*
X99800147Y-60685646D01*
X99925646Y-60560147D01*
X100073216Y-60461544D01*
X100237188Y-60393624D01*
X100386488Y-60363927D01*
X100411258Y-60359000D01*
X100588742Y-60359000D01*
X100613512Y-60363927D01*
G37*
G36*
X98861000Y-62161000D02*
G01*
X97059000Y-62161000D01*
X97059000Y-60359000D01*
X98861000Y-60359000D01*
X98861000Y-62161000D01*
G37*
G36*
X142773512Y-60363927D02*
G01*
X142922812Y-60393624D01*
X143086784Y-60461544D01*
X143234354Y-60560147D01*
X143359853Y-60685646D01*
X143458456Y-60833216D01*
X143526376Y-60997188D01*
X143561000Y-61171259D01*
X143561000Y-61348741D01*
X143526376Y-61522812D01*
X143458456Y-61686784D01*
X143359853Y-61834354D01*
X143234354Y-61959853D01*
X143086784Y-62058456D01*
X142922812Y-62126376D01*
X142773512Y-62156073D01*
X142748742Y-62161000D01*
X142571258Y-62161000D01*
X142546488Y-62156073D01*
X142397188Y-62126376D01*
X142233216Y-62058456D01*
X142085646Y-61959853D01*
X141960147Y-61834354D01*
X141861544Y-61686784D01*
X141793624Y-61522812D01*
X141759000Y-61348741D01*
X141759000Y-61171259D01*
X141793624Y-60997188D01*
X141861544Y-60833216D01*
X141960147Y-60685646D01*
X142085646Y-60560147D01*
X142233216Y-60461544D01*
X142397188Y-60393624D01*
X142546488Y-60363927D01*
X142571258Y-60359000D01*
X142748742Y-60359000D01*
X142773512Y-60363927D01*
G37*
G36*
X140233512Y-60363927D02*
G01*
X140382812Y-60393624D01*
X140546784Y-60461544D01*
X140694354Y-60560147D01*
X140819853Y-60685646D01*
X140918456Y-60833216D01*
X140986376Y-60997188D01*
X141021000Y-61171259D01*
X141021000Y-61348741D01*
X140986376Y-61522812D01*
X140918456Y-61686784D01*
X140819853Y-61834354D01*
X140694354Y-61959853D01*
X140546784Y-62058456D01*
X140382812Y-62126376D01*
X140233512Y-62156073D01*
X140208742Y-62161000D01*
X140031258Y-62161000D01*
X140006488Y-62156073D01*
X139857188Y-62126376D01*
X139693216Y-62058456D01*
X139545646Y-61959853D01*
X139420147Y-61834354D01*
X139321544Y-61686784D01*
X139253624Y-61522812D01*
X139219000Y-61348741D01*
X139219000Y-61171259D01*
X139253624Y-60997188D01*
X139321544Y-60833216D01*
X139420147Y-60685646D01*
X139545646Y-60560147D01*
X139693216Y-60461544D01*
X139857188Y-60393624D01*
X140006488Y-60363927D01*
X140031258Y-60359000D01*
X140208742Y-60359000D01*
X140233512Y-60363927D01*
G37*
G36*
X137693512Y-60363927D02*
G01*
X137842812Y-60393624D01*
X138006784Y-60461544D01*
X138154354Y-60560147D01*
X138279853Y-60685646D01*
X138378456Y-60833216D01*
X138446376Y-60997188D01*
X138481000Y-61171259D01*
X138481000Y-61348741D01*
X138446376Y-61522812D01*
X138378456Y-61686784D01*
X138279853Y-61834354D01*
X138154354Y-61959853D01*
X138006784Y-62058456D01*
X137842812Y-62126376D01*
X137693512Y-62156073D01*
X137668742Y-62161000D01*
X137491258Y-62161000D01*
X137466488Y-62156073D01*
X137317188Y-62126376D01*
X137153216Y-62058456D01*
X137005646Y-61959853D01*
X136880147Y-61834354D01*
X136781544Y-61686784D01*
X136713624Y-61522812D01*
X136679000Y-61348741D01*
X136679000Y-61171259D01*
X136713624Y-60997188D01*
X136781544Y-60833216D01*
X136880147Y-60685646D01*
X137005646Y-60560147D01*
X137153216Y-60461544D01*
X137317188Y-60393624D01*
X137466488Y-60363927D01*
X137491258Y-60359000D01*
X137668742Y-60359000D01*
X137693512Y-60363927D01*
G37*
G36*
X132613512Y-60363927D02*
G01*
X132762812Y-60393624D01*
X132926784Y-60461544D01*
X133074354Y-60560147D01*
X133199853Y-60685646D01*
X133298456Y-60833216D01*
X133366376Y-60997188D01*
X133401000Y-61171259D01*
X133401000Y-61348741D01*
X133366376Y-61522812D01*
X133298456Y-61686784D01*
X133199853Y-61834354D01*
X133074354Y-61959853D01*
X132926784Y-62058456D01*
X132762812Y-62126376D01*
X132613512Y-62156073D01*
X132588742Y-62161000D01*
X132411258Y-62161000D01*
X132386488Y-62156073D01*
X132237188Y-62126376D01*
X132073216Y-62058456D01*
X131925646Y-61959853D01*
X131800147Y-61834354D01*
X131701544Y-61686784D01*
X131633624Y-61522812D01*
X131599000Y-61348741D01*
X131599000Y-61171259D01*
X131633624Y-60997188D01*
X131701544Y-60833216D01*
X131800147Y-60685646D01*
X131925646Y-60560147D01*
X132073216Y-60461544D01*
X132237188Y-60393624D01*
X132386488Y-60363927D01*
X132411258Y-60359000D01*
X132588742Y-60359000D01*
X132613512Y-60363927D01*
G37*
G36*
X110773512Y-60363927D02*
G01*
X110922812Y-60393624D01*
X111086784Y-60461544D01*
X111234354Y-60560147D01*
X111359853Y-60685646D01*
X111458456Y-60833216D01*
X111526376Y-60997188D01*
X111561000Y-61171259D01*
X111561000Y-61348741D01*
X111526376Y-61522812D01*
X111458456Y-61686784D01*
X111359853Y-61834354D01*
X111234354Y-61959853D01*
X111086784Y-62058456D01*
X110922812Y-62126376D01*
X110773512Y-62156073D01*
X110748742Y-62161000D01*
X110571258Y-62161000D01*
X110546488Y-62156073D01*
X110397188Y-62126376D01*
X110233216Y-62058456D01*
X110085646Y-61959853D01*
X109960147Y-61834354D01*
X109861544Y-61686784D01*
X109793624Y-61522812D01*
X109759000Y-61348741D01*
X109759000Y-61171259D01*
X109793624Y-60997188D01*
X109861544Y-60833216D01*
X109960147Y-60685646D01*
X110085646Y-60560147D01*
X110233216Y-60461544D01*
X110397188Y-60393624D01*
X110546488Y-60363927D01*
X110571258Y-60359000D01*
X110748742Y-60359000D01*
X110773512Y-60363927D01*
G37*
G36*
X108233512Y-60363927D02*
G01*
X108382812Y-60393624D01*
X108546784Y-60461544D01*
X108694354Y-60560147D01*
X108819853Y-60685646D01*
X108918456Y-60833216D01*
X108986376Y-60997188D01*
X109021000Y-61171259D01*
X109021000Y-61348741D01*
X108986376Y-61522812D01*
X108918456Y-61686784D01*
X108819853Y-61834354D01*
X108694354Y-61959853D01*
X108546784Y-62058456D01*
X108382812Y-62126376D01*
X108233512Y-62156073D01*
X108208742Y-62161000D01*
X108031258Y-62161000D01*
X108006488Y-62156073D01*
X107857188Y-62126376D01*
X107693216Y-62058456D01*
X107545646Y-61959853D01*
X107420147Y-61834354D01*
X107321544Y-61686784D01*
X107253624Y-61522812D01*
X107219000Y-61348741D01*
X107219000Y-61171259D01*
X107253624Y-60997188D01*
X107321544Y-60833216D01*
X107420147Y-60685646D01*
X107545646Y-60560147D01*
X107693216Y-60461544D01*
X107857188Y-60393624D01*
X108006488Y-60363927D01*
X108031258Y-60359000D01*
X108208742Y-60359000D01*
X108233512Y-60363927D01*
G37*
G36*
X130073512Y-60363927D02*
G01*
X130222812Y-60393624D01*
X130386784Y-60461544D01*
X130534354Y-60560147D01*
X130659853Y-60685646D01*
X130758456Y-60833216D01*
X130826376Y-60997188D01*
X130861000Y-61171259D01*
X130861000Y-61348741D01*
X130826376Y-61522812D01*
X130758456Y-61686784D01*
X130659853Y-61834354D01*
X130534354Y-61959853D01*
X130386784Y-62058456D01*
X130222812Y-62126376D01*
X130073512Y-62156073D01*
X130048742Y-62161000D01*
X129871258Y-62161000D01*
X129846488Y-62156073D01*
X129697188Y-62126376D01*
X129533216Y-62058456D01*
X129385646Y-61959853D01*
X129260147Y-61834354D01*
X129161544Y-61686784D01*
X129093624Y-61522812D01*
X129059000Y-61348741D01*
X129059000Y-61171259D01*
X129093624Y-60997188D01*
X129161544Y-60833216D01*
X129260147Y-60685646D01*
X129385646Y-60560147D01*
X129533216Y-60461544D01*
X129697188Y-60393624D01*
X129846488Y-60363927D01*
X129871258Y-60359000D01*
X130048742Y-60359000D01*
X130073512Y-60363927D01*
G37*
G36*
X127533512Y-60363927D02*
G01*
X127682812Y-60393624D01*
X127846784Y-60461544D01*
X127994354Y-60560147D01*
X128119853Y-60685646D01*
X128218456Y-60833216D01*
X128286376Y-60997188D01*
X128321000Y-61171259D01*
X128321000Y-61348741D01*
X128286376Y-61522812D01*
X128218456Y-61686784D01*
X128119853Y-61834354D01*
X127994354Y-61959853D01*
X127846784Y-62058456D01*
X127682812Y-62126376D01*
X127533512Y-62156073D01*
X127508742Y-62161000D01*
X127331258Y-62161000D01*
X127306488Y-62156073D01*
X127157188Y-62126376D01*
X126993216Y-62058456D01*
X126845646Y-61959853D01*
X126720147Y-61834354D01*
X126621544Y-61686784D01*
X126553624Y-61522812D01*
X126519000Y-61348741D01*
X126519000Y-61171259D01*
X126553624Y-60997188D01*
X126621544Y-60833216D01*
X126720147Y-60685646D01*
X126845646Y-60560147D01*
X126993216Y-60461544D01*
X127157188Y-60393624D01*
X127306488Y-60363927D01*
X127331258Y-60359000D01*
X127508742Y-60359000D01*
X127533512Y-60363927D01*
G37*
G36*
X125781000Y-62161000D02*
G01*
X123979000Y-62161000D01*
X123979000Y-60359000D01*
X125781000Y-60359000D01*
X125781000Y-62161000D01*
G37*
G36*
X120933512Y-60363927D02*
G01*
X121082812Y-60393624D01*
X121246784Y-60461544D01*
X121394354Y-60560147D01*
X121519853Y-60685646D01*
X121618456Y-60833216D01*
X121686376Y-60997188D01*
X121721000Y-61171259D01*
X121721000Y-61348741D01*
X121686376Y-61522812D01*
X121618456Y-61686784D01*
X121519853Y-61834354D01*
X121394354Y-61959853D01*
X121246784Y-62058456D01*
X121082812Y-62126376D01*
X120933512Y-62156073D01*
X120908742Y-62161000D01*
X120731258Y-62161000D01*
X120706488Y-62156073D01*
X120557188Y-62126376D01*
X120393216Y-62058456D01*
X120245646Y-61959853D01*
X120120147Y-61834354D01*
X120021544Y-61686784D01*
X119953624Y-61522812D01*
X119919000Y-61348741D01*
X119919000Y-61171259D01*
X119953624Y-60997188D01*
X120021544Y-60833216D01*
X120120147Y-60685646D01*
X120245646Y-60560147D01*
X120393216Y-60461544D01*
X120557188Y-60393624D01*
X120706488Y-60363927D01*
X120731258Y-60359000D01*
X120908742Y-60359000D01*
X120933512Y-60363927D01*
G37*
G36*
X118393512Y-60363927D02*
G01*
X118542812Y-60393624D01*
X118706784Y-60461544D01*
X118854354Y-60560147D01*
X118979853Y-60685646D01*
X119078456Y-60833216D01*
X119146376Y-60997188D01*
X119181000Y-61171259D01*
X119181000Y-61348741D01*
X119146376Y-61522812D01*
X119078456Y-61686784D01*
X118979853Y-61834354D01*
X118854354Y-61959853D01*
X118706784Y-62058456D01*
X118542812Y-62126376D01*
X118393512Y-62156073D01*
X118368742Y-62161000D01*
X118191258Y-62161000D01*
X118166488Y-62156073D01*
X118017188Y-62126376D01*
X117853216Y-62058456D01*
X117705646Y-61959853D01*
X117580147Y-61834354D01*
X117481544Y-61686784D01*
X117413624Y-61522812D01*
X117379000Y-61348741D01*
X117379000Y-61171259D01*
X117413624Y-60997188D01*
X117481544Y-60833216D01*
X117580147Y-60685646D01*
X117705646Y-60560147D01*
X117853216Y-60461544D01*
X118017188Y-60393624D01*
X118166488Y-60363927D01*
X118191258Y-60359000D01*
X118368742Y-60359000D01*
X118393512Y-60363927D01*
G37*
G36*
X115853512Y-60363927D02*
G01*
X116002812Y-60393624D01*
X116166784Y-60461544D01*
X116314354Y-60560147D01*
X116439853Y-60685646D01*
X116538456Y-60833216D01*
X116606376Y-60997188D01*
X116641000Y-61171259D01*
X116641000Y-61348741D01*
X116606376Y-61522812D01*
X116538456Y-61686784D01*
X116439853Y-61834354D01*
X116314354Y-61959853D01*
X116166784Y-62058456D01*
X116002812Y-62126376D01*
X115853512Y-62156073D01*
X115828742Y-62161000D01*
X115651258Y-62161000D01*
X115626488Y-62156073D01*
X115477188Y-62126376D01*
X115313216Y-62058456D01*
X115165646Y-61959853D01*
X115040147Y-61834354D01*
X114941544Y-61686784D01*
X114873624Y-61522812D01*
X114839000Y-61348741D01*
X114839000Y-61171259D01*
X114873624Y-60997188D01*
X114941544Y-60833216D01*
X115040147Y-60685646D01*
X115165646Y-60560147D01*
X115313216Y-60461544D01*
X115477188Y-60393624D01*
X115626488Y-60363927D01*
X115651258Y-60359000D01*
X115828742Y-60359000D01*
X115853512Y-60363927D01*
G37*
G36*
X113313512Y-60363927D02*
G01*
X113462812Y-60393624D01*
X113626784Y-60461544D01*
X113774354Y-60560147D01*
X113899853Y-60685646D01*
X113998456Y-60833216D01*
X114066376Y-60997188D01*
X114101000Y-61171259D01*
X114101000Y-61348741D01*
X114066376Y-61522812D01*
X113998456Y-61686784D01*
X113899853Y-61834354D01*
X113774354Y-61959853D01*
X113626784Y-62058456D01*
X113462812Y-62126376D01*
X113313512Y-62156073D01*
X113288742Y-62161000D01*
X113111258Y-62161000D01*
X113086488Y-62156073D01*
X112937188Y-62126376D01*
X112773216Y-62058456D01*
X112625646Y-61959853D01*
X112500147Y-61834354D01*
X112401544Y-61686784D01*
X112333624Y-61522812D01*
X112299000Y-61348741D01*
X112299000Y-61171259D01*
X112333624Y-60997188D01*
X112401544Y-60833216D01*
X112500147Y-60685646D01*
X112625646Y-60560147D01*
X112773216Y-60461544D01*
X112937188Y-60393624D01*
X113086488Y-60363927D01*
X113111258Y-60359000D01*
X113288742Y-60359000D01*
X113313512Y-60363927D01*
G37*
G36*
X125781000Y-57301000D02*
G01*
X123979000Y-57301000D01*
X123979000Y-55499000D01*
X125781000Y-55499000D01*
X125781000Y-57301000D01*
G37*
G36*
X127533512Y-55503927D02*
G01*
X127682812Y-55533624D01*
X127846784Y-55601544D01*
X127994354Y-55700147D01*
X128119853Y-55825646D01*
X128218456Y-55973216D01*
X128286376Y-56137188D01*
X128321000Y-56311259D01*
X128321000Y-56488741D01*
X128286376Y-56662812D01*
X128218456Y-56826784D01*
X128119853Y-56974354D01*
X127994354Y-57099853D01*
X127846784Y-57198456D01*
X127682812Y-57266376D01*
X127533512Y-57296073D01*
X127508742Y-57301000D01*
X127331258Y-57301000D01*
X127306488Y-57296073D01*
X127157188Y-57266376D01*
X126993216Y-57198456D01*
X126845646Y-57099853D01*
X126720147Y-56974354D01*
X126621544Y-56826784D01*
X126553624Y-56662812D01*
X126519000Y-56488741D01*
X126519000Y-56311259D01*
X126553624Y-56137188D01*
X126621544Y-55973216D01*
X126720147Y-55825646D01*
X126845646Y-55700147D01*
X126993216Y-55601544D01*
X127157188Y-55533624D01*
X127306488Y-55503927D01*
X127331258Y-55499000D01*
X127508742Y-55499000D01*
X127533512Y-55503927D01*
G37*
G36*
X130073512Y-55503927D02*
G01*
X130222812Y-55533624D01*
X130386784Y-55601544D01*
X130534354Y-55700147D01*
X130659853Y-55825646D01*
X130758456Y-55973216D01*
X130826376Y-56137188D01*
X130861000Y-56311259D01*
X130861000Y-56488741D01*
X130826376Y-56662812D01*
X130758456Y-56826784D01*
X130659853Y-56974354D01*
X130534354Y-57099853D01*
X130386784Y-57198456D01*
X130222812Y-57266376D01*
X130073512Y-57296073D01*
X130048742Y-57301000D01*
X129871258Y-57301000D01*
X129846488Y-57296073D01*
X129697188Y-57266376D01*
X129533216Y-57198456D01*
X129385646Y-57099853D01*
X129260147Y-56974354D01*
X129161544Y-56826784D01*
X129093624Y-56662812D01*
X129059000Y-56488741D01*
X129059000Y-56311259D01*
X129093624Y-56137188D01*
X129161544Y-55973216D01*
X129260147Y-55825646D01*
X129385646Y-55700147D01*
X129533216Y-55601544D01*
X129697188Y-55533624D01*
X129846488Y-55503927D01*
X129871258Y-55499000D01*
X130048742Y-55499000D01*
X130073512Y-55503927D01*
G37*
G36*
X132613512Y-55503927D02*
G01*
X132762812Y-55533624D01*
X132926784Y-55601544D01*
X133074354Y-55700147D01*
X133199853Y-55825646D01*
X133298456Y-55973216D01*
X133366376Y-56137188D01*
X133401000Y-56311259D01*
X133401000Y-56488741D01*
X133366376Y-56662812D01*
X133298456Y-56826784D01*
X133199853Y-56974354D01*
X133074354Y-57099853D01*
X132926784Y-57198456D01*
X132762812Y-57266376D01*
X132613512Y-57296073D01*
X132588742Y-57301000D01*
X132411258Y-57301000D01*
X132386488Y-57296073D01*
X132237188Y-57266376D01*
X132073216Y-57198456D01*
X131925646Y-57099853D01*
X131800147Y-56974354D01*
X131701544Y-56826784D01*
X131633624Y-56662812D01*
X131599000Y-56488741D01*
X131599000Y-56311259D01*
X131633624Y-56137188D01*
X131701544Y-55973216D01*
X131800147Y-55825646D01*
X131925646Y-55700147D01*
X132073216Y-55601544D01*
X132237188Y-55533624D01*
X132386488Y-55503927D01*
X132411258Y-55499000D01*
X132588742Y-55499000D01*
X132613512Y-55503927D01*
G37*
G36*
X135153512Y-55503927D02*
G01*
X135302812Y-55533624D01*
X135466784Y-55601544D01*
X135614354Y-55700147D01*
X135739853Y-55825646D01*
X135838456Y-55973216D01*
X135906376Y-56137188D01*
X135941000Y-56311259D01*
X135941000Y-56488741D01*
X135906376Y-56662812D01*
X135838456Y-56826784D01*
X135739853Y-56974354D01*
X135614354Y-57099853D01*
X135466784Y-57198456D01*
X135302812Y-57266376D01*
X135153512Y-57296073D01*
X135128742Y-57301000D01*
X134951258Y-57301000D01*
X134926488Y-57296073D01*
X134777188Y-57266376D01*
X134613216Y-57198456D01*
X134465646Y-57099853D01*
X134340147Y-56974354D01*
X134241544Y-56826784D01*
X134173624Y-56662812D01*
X134139000Y-56488741D01*
X134139000Y-56311259D01*
X134173624Y-56137188D01*
X134241544Y-55973216D01*
X134340147Y-55825646D01*
X134465646Y-55700147D01*
X134613216Y-55601544D01*
X134777188Y-55533624D01*
X134926488Y-55503927D01*
X134951258Y-55499000D01*
X135128742Y-55499000D01*
X135153512Y-55503927D01*
G37*
G36*
X137693512Y-55503927D02*
G01*
X137842812Y-55533624D01*
X138006784Y-55601544D01*
X138154354Y-55700147D01*
X138279853Y-55825646D01*
X138378456Y-55973216D01*
X138446376Y-56137188D01*
X138481000Y-56311259D01*
X138481000Y-56488741D01*
X138446376Y-56662812D01*
X138378456Y-56826784D01*
X138279853Y-56974354D01*
X138154354Y-57099853D01*
X138006784Y-57198456D01*
X137842812Y-57266376D01*
X137693512Y-57296073D01*
X137668742Y-57301000D01*
X137491258Y-57301000D01*
X137466488Y-57296073D01*
X137317188Y-57266376D01*
X137153216Y-57198456D01*
X137005646Y-57099853D01*
X136880147Y-56974354D01*
X136781544Y-56826784D01*
X136713624Y-56662812D01*
X136679000Y-56488741D01*
X136679000Y-56311259D01*
X136713624Y-56137188D01*
X136781544Y-55973216D01*
X136880147Y-55825646D01*
X137005646Y-55700147D01*
X137153216Y-55601544D01*
X137317188Y-55533624D01*
X137466488Y-55503927D01*
X137491258Y-55499000D01*
X137668742Y-55499000D01*
X137693512Y-55503927D01*
G37*
G36*
X140233512Y-55503927D02*
G01*
X140382812Y-55533624D01*
X140546784Y-55601544D01*
X140694354Y-55700147D01*
X140819853Y-55825646D01*
X140918456Y-55973216D01*
X140986376Y-56137188D01*
X141021000Y-56311259D01*
X141021000Y-56488741D01*
X140986376Y-56662812D01*
X140918456Y-56826784D01*
X140819853Y-56974354D01*
X140694354Y-57099853D01*
X140546784Y-57198456D01*
X140382812Y-57266376D01*
X140233512Y-57296073D01*
X140208742Y-57301000D01*
X140031258Y-57301000D01*
X140006488Y-57296073D01*
X139857188Y-57266376D01*
X139693216Y-57198456D01*
X139545646Y-57099853D01*
X139420147Y-56974354D01*
X139321544Y-56826784D01*
X139253624Y-56662812D01*
X139219000Y-56488741D01*
X139219000Y-56311259D01*
X139253624Y-56137188D01*
X139321544Y-55973216D01*
X139420147Y-55825646D01*
X139545646Y-55700147D01*
X139693216Y-55601544D01*
X139857188Y-55533624D01*
X140006488Y-55503927D01*
X140031258Y-55499000D01*
X140208742Y-55499000D01*
X140233512Y-55503927D01*
G37*
G36*
X120933512Y-55503927D02*
G01*
X121082812Y-55533624D01*
X121246784Y-55601544D01*
X121394354Y-55700147D01*
X121519853Y-55825646D01*
X121618456Y-55973216D01*
X121686376Y-56137188D01*
X121721000Y-56311259D01*
X121721000Y-56488741D01*
X121686376Y-56662812D01*
X121618456Y-56826784D01*
X121519853Y-56974354D01*
X121394354Y-57099853D01*
X121246784Y-57198456D01*
X121082812Y-57266376D01*
X120933512Y-57296073D01*
X120908742Y-57301000D01*
X120731258Y-57301000D01*
X120706488Y-57296073D01*
X120557188Y-57266376D01*
X120393216Y-57198456D01*
X120245646Y-57099853D01*
X120120147Y-56974354D01*
X120021544Y-56826784D01*
X119953624Y-56662812D01*
X119919000Y-56488741D01*
X119919000Y-56311259D01*
X119953624Y-56137188D01*
X120021544Y-55973216D01*
X120120147Y-55825646D01*
X120245646Y-55700147D01*
X120393216Y-55601544D01*
X120557188Y-55533624D01*
X120706488Y-55503927D01*
X120731258Y-55499000D01*
X120908742Y-55499000D01*
X120933512Y-55503927D01*
G37*
G36*
X100613512Y-55503927D02*
G01*
X100762812Y-55533624D01*
X100926784Y-55601544D01*
X101074354Y-55700147D01*
X101199853Y-55825646D01*
X101298456Y-55973216D01*
X101366376Y-56137188D01*
X101401000Y-56311259D01*
X101401000Y-56488741D01*
X101366376Y-56662812D01*
X101298456Y-56826784D01*
X101199853Y-56974354D01*
X101074354Y-57099853D01*
X100926784Y-57198456D01*
X100762812Y-57266376D01*
X100613512Y-57296073D01*
X100588742Y-57301000D01*
X100411258Y-57301000D01*
X100386488Y-57296073D01*
X100237188Y-57266376D01*
X100073216Y-57198456D01*
X99925646Y-57099853D01*
X99800147Y-56974354D01*
X99701544Y-56826784D01*
X99633624Y-56662812D01*
X99599000Y-56488741D01*
X99599000Y-56311259D01*
X99633624Y-56137188D01*
X99701544Y-55973216D01*
X99800147Y-55825646D01*
X99925646Y-55700147D01*
X100073216Y-55601544D01*
X100237188Y-55533624D01*
X100386488Y-55503927D01*
X100411258Y-55499000D01*
X100588742Y-55499000D01*
X100613512Y-55503927D01*
G37*
G36*
X103153512Y-55503927D02*
G01*
X103302812Y-55533624D01*
X103466784Y-55601544D01*
X103614354Y-55700147D01*
X103739853Y-55825646D01*
X103838456Y-55973216D01*
X103906376Y-56137188D01*
X103941000Y-56311259D01*
X103941000Y-56488741D01*
X103906376Y-56662812D01*
X103838456Y-56826784D01*
X103739853Y-56974354D01*
X103614354Y-57099853D01*
X103466784Y-57198456D01*
X103302812Y-57266376D01*
X103153512Y-57296073D01*
X103128742Y-57301000D01*
X102951258Y-57301000D01*
X102926488Y-57296073D01*
X102777188Y-57266376D01*
X102613216Y-57198456D01*
X102465646Y-57099853D01*
X102340147Y-56974354D01*
X102241544Y-56826784D01*
X102173624Y-56662812D01*
X102139000Y-56488741D01*
X102139000Y-56311259D01*
X102173624Y-56137188D01*
X102241544Y-55973216D01*
X102340147Y-55825646D01*
X102465646Y-55700147D01*
X102613216Y-55601544D01*
X102777188Y-55533624D01*
X102926488Y-55503927D01*
X102951258Y-55499000D01*
X103128742Y-55499000D01*
X103153512Y-55503927D01*
G37*
G36*
X105693512Y-55503927D02*
G01*
X105842812Y-55533624D01*
X106006784Y-55601544D01*
X106154354Y-55700147D01*
X106279853Y-55825646D01*
X106378456Y-55973216D01*
X106446376Y-56137188D01*
X106481000Y-56311259D01*
X106481000Y-56488741D01*
X106446376Y-56662812D01*
X106378456Y-56826784D01*
X106279853Y-56974354D01*
X106154354Y-57099853D01*
X106006784Y-57198456D01*
X105842812Y-57266376D01*
X105693512Y-57296073D01*
X105668742Y-57301000D01*
X105491258Y-57301000D01*
X105466488Y-57296073D01*
X105317188Y-57266376D01*
X105153216Y-57198456D01*
X105005646Y-57099853D01*
X104880147Y-56974354D01*
X104781544Y-56826784D01*
X104713624Y-56662812D01*
X104679000Y-56488741D01*
X104679000Y-56311259D01*
X104713624Y-56137188D01*
X104781544Y-55973216D01*
X104880147Y-55825646D01*
X105005646Y-55700147D01*
X105153216Y-55601544D01*
X105317188Y-55533624D01*
X105466488Y-55503927D01*
X105491258Y-55499000D01*
X105668742Y-55499000D01*
X105693512Y-55503927D01*
G37*
G36*
X110773512Y-55503927D02*
G01*
X110922812Y-55533624D01*
X111086784Y-55601544D01*
X111234354Y-55700147D01*
X111359853Y-55825646D01*
X111458456Y-55973216D01*
X111526376Y-56137188D01*
X111561000Y-56311259D01*
X111561000Y-56488741D01*
X111526376Y-56662812D01*
X111458456Y-56826784D01*
X111359853Y-56974354D01*
X111234354Y-57099853D01*
X111086784Y-57198456D01*
X110922812Y-57266376D01*
X110773512Y-57296073D01*
X110748742Y-57301000D01*
X110571258Y-57301000D01*
X110546488Y-57296073D01*
X110397188Y-57266376D01*
X110233216Y-57198456D01*
X110085646Y-57099853D01*
X109960147Y-56974354D01*
X109861544Y-56826784D01*
X109793624Y-56662812D01*
X109759000Y-56488741D01*
X109759000Y-56311259D01*
X109793624Y-56137188D01*
X109861544Y-55973216D01*
X109960147Y-55825646D01*
X110085646Y-55700147D01*
X110233216Y-55601544D01*
X110397188Y-55533624D01*
X110546488Y-55503927D01*
X110571258Y-55499000D01*
X110748742Y-55499000D01*
X110773512Y-55503927D01*
G37*
G36*
X113313512Y-55503927D02*
G01*
X113462812Y-55533624D01*
X113626784Y-55601544D01*
X113774354Y-55700147D01*
X113899853Y-55825646D01*
X113998456Y-55973216D01*
X114066376Y-56137188D01*
X114101000Y-56311259D01*
X114101000Y-56488741D01*
X114066376Y-56662812D01*
X113998456Y-56826784D01*
X113899853Y-56974354D01*
X113774354Y-57099853D01*
X113626784Y-57198456D01*
X113462812Y-57266376D01*
X113313512Y-57296073D01*
X113288742Y-57301000D01*
X113111258Y-57301000D01*
X113086488Y-57296073D01*
X112937188Y-57266376D01*
X112773216Y-57198456D01*
X112625646Y-57099853D01*
X112500147Y-56974354D01*
X112401544Y-56826784D01*
X112333624Y-56662812D01*
X112299000Y-56488741D01*
X112299000Y-56311259D01*
X112333624Y-56137188D01*
X112401544Y-55973216D01*
X112500147Y-55825646D01*
X112625646Y-55700147D01*
X112773216Y-55601544D01*
X112937188Y-55533624D01*
X113086488Y-55503927D01*
X113111258Y-55499000D01*
X113288742Y-55499000D01*
X113313512Y-55503927D01*
G37*
G36*
X115853512Y-55503927D02*
G01*
X116002812Y-55533624D01*
X116166784Y-55601544D01*
X116314354Y-55700147D01*
X116439853Y-55825646D01*
X116538456Y-55973216D01*
X116606376Y-56137188D01*
X116641000Y-56311259D01*
X116641000Y-56488741D01*
X116606376Y-56662812D01*
X116538456Y-56826784D01*
X116439853Y-56974354D01*
X116314354Y-57099853D01*
X116166784Y-57198456D01*
X116002812Y-57266376D01*
X115853512Y-57296073D01*
X115828742Y-57301000D01*
X115651258Y-57301000D01*
X115626488Y-57296073D01*
X115477188Y-57266376D01*
X115313216Y-57198456D01*
X115165646Y-57099853D01*
X115040147Y-56974354D01*
X114941544Y-56826784D01*
X114873624Y-56662812D01*
X114839000Y-56488741D01*
X114839000Y-56311259D01*
X114873624Y-56137188D01*
X114941544Y-55973216D01*
X115040147Y-55825646D01*
X115165646Y-55700147D01*
X115313216Y-55601544D01*
X115477188Y-55533624D01*
X115626488Y-55503927D01*
X115651258Y-55499000D01*
X115828742Y-55499000D01*
X115853512Y-55503927D01*
G37*
G36*
X118393512Y-55503927D02*
G01*
X118542812Y-55533624D01*
X118706784Y-55601544D01*
X118854354Y-55700147D01*
X118979853Y-55825646D01*
X119078456Y-55973216D01*
X119146376Y-56137188D01*
X119181000Y-56311259D01*
X119181000Y-56488741D01*
X119146376Y-56662812D01*
X119078456Y-56826784D01*
X118979853Y-56974354D01*
X118854354Y-57099853D01*
X118706784Y-57198456D01*
X118542812Y-57266376D01*
X118393512Y-57296073D01*
X118368742Y-57301000D01*
X118191258Y-57301000D01*
X118166488Y-57296073D01*
X118017188Y-57266376D01*
X117853216Y-57198456D01*
X117705646Y-57099853D01*
X117580147Y-56974354D01*
X117481544Y-56826784D01*
X117413624Y-56662812D01*
X117379000Y-56488741D01*
X117379000Y-56311259D01*
X117413624Y-56137188D01*
X117481544Y-55973216D01*
X117580147Y-55825646D01*
X117705646Y-55700147D01*
X117853216Y-55601544D01*
X118017188Y-55533624D01*
X118166488Y-55503927D01*
X118191258Y-55499000D01*
X118368742Y-55499000D01*
X118393512Y-55503927D01*
G37*
G36*
X98861000Y-57301000D02*
G01*
X97059000Y-57301000D01*
X97059000Y-55499000D01*
X98861000Y-55499000D01*
X98861000Y-57301000D01*
G37*
G36*
X142773512Y-55503927D02*
G01*
X142922812Y-55533624D01*
X143086784Y-55601544D01*
X143234354Y-55700147D01*
X143359853Y-55825646D01*
X143458456Y-55973216D01*
X143526376Y-56137188D01*
X143561000Y-56311259D01*
X143561000Y-56488741D01*
X143526376Y-56662812D01*
X143458456Y-56826784D01*
X143359853Y-56974354D01*
X143234354Y-57099853D01*
X143086784Y-57198456D01*
X142922812Y-57266376D01*
X142773512Y-57296073D01*
X142748742Y-57301000D01*
X142571258Y-57301000D01*
X142546488Y-57296073D01*
X142397188Y-57266376D01*
X142233216Y-57198456D01*
X142085646Y-57099853D01*
X141960147Y-56974354D01*
X141861544Y-56826784D01*
X141793624Y-56662812D01*
X141759000Y-56488741D01*
X141759000Y-56311259D01*
X141793624Y-56137188D01*
X141861544Y-55973216D01*
X141960147Y-55825646D01*
X142085646Y-55700147D01*
X142233216Y-55601544D01*
X142397188Y-55533624D01*
X142546488Y-55503927D01*
X142571258Y-55499000D01*
X142748742Y-55499000D01*
X142773512Y-55503927D01*
G37*
G36*
X108233512Y-55503927D02*
G01*
X108382812Y-55533624D01*
X108546784Y-55601544D01*
X108694354Y-55700147D01*
X108819853Y-55825646D01*
X108918456Y-55973216D01*
X108986376Y-56137188D01*
X109021000Y-56311259D01*
X109021000Y-56488741D01*
X108986376Y-56662812D01*
X108918456Y-56826784D01*
X108819853Y-56974354D01*
X108694354Y-57099853D01*
X108546784Y-57198456D01*
X108382812Y-57266376D01*
X108233512Y-57296073D01*
X108208742Y-57301000D01*
X108031258Y-57301000D01*
X108006488Y-57296073D01*
X107857188Y-57266376D01*
X107693216Y-57198456D01*
X107545646Y-57099853D01*
X107420147Y-56974354D01*
X107321544Y-56826784D01*
X107253624Y-56662812D01*
X107219000Y-56488741D01*
X107219000Y-56311259D01*
X107253624Y-56137188D01*
X107321544Y-55973216D01*
X107420147Y-55825646D01*
X107545646Y-55700147D01*
X107693216Y-55601544D01*
X107857188Y-55533624D01*
X108006488Y-55503927D01*
X108031258Y-55499000D01*
X108208742Y-55499000D01*
X108233512Y-55503927D01*
G37*
M02*
