M48
; DRILL file {KiCad (5.1.5)-3} date 2020/5/22 1:35:05
; FORMAT={3:3/ absolute / metric / suppress leading zeros}
; #@! TF.CreationDate,2020-05-22T01:35:05+09:00
; #@! TF.GenerationSoftware,Kicad,Pcbnew,(5.1.5)-3
FMAT,2
METRIC,TZ
T1C0.800
T2C1.000
T3C1.100
T4C1.000
%
G90
G05
T1
X85950Y-93010
X85970Y-95960
X85980Y-87000
X85980Y-90030
X90520Y-86140
X92290Y-66700
X93000Y-81740
X93000Y-88550
X93060Y-78810
X93570Y-62480
X93570Y-74590
X94540Y-75780
X94540Y-77340
X94650Y-70810
X94790Y-80210
X94990Y-84460
X95530Y-64990
X95550Y-67060
X95700Y-98480
X96970Y-80210
X97570Y-88180
X97820Y-67060
X98500Y-109500
X98680Y-71030
X99240Y-90960
X99260Y-88830
X100080Y-67040
X101100Y-77535
X101780Y-74290
X102140Y-101010
X102190Y-102620
X102190Y-105430
X102210Y-106950
X104020Y-108870
X104370Y-86680
X104370Y-88860
X104370Y-91000
X105530Y-82260
X106140Y-91140
X107130Y-82260
X107160Y-83870
X107588Y-73640
X107980Y-86740
X108000Y-88820
X108020Y-91020
X108760Y-82250
X108760Y-83890
X109880Y-70770
X109880Y-72770
X109880Y-74770
X109880Y-76770
X109880Y-78770
X117571Y-74869
X120010Y-81420
X120150Y-87920
X122550Y-81340
X122800Y-56380
X122800Y-58900
X122800Y-61250
X124960Y-81380
X125000Y-83690
X125000Y-85890
X127320Y-83670
X127410Y-109490
X127410Y-111910
X127460Y-114380
X131290Y-79570
X133780Y-79540
X136780Y-88560
X144220Y-64750
X144220Y-67290
X144220Y-69670
X144260Y-72180
X146500Y-74540
X146590Y-78100
X146590Y-79990
X109640Y-94000
X109640Y-101620
X112180Y-94000
X112180Y-101620
X114720Y-94000
X114720Y-101620
X117260Y-94000
X117260Y-101620
X119800Y-94000
X119800Y-101620
X122340Y-94000
X122340Y-101620
X124880Y-94000
X124880Y-101620
X127420Y-94000
X127420Y-101620
X129960Y-94000
X129960Y-101620
X132500Y-94000
X132500Y-101620
X135040Y-94000
X135040Y-101620
X137580Y-94000
X137580Y-101620
X140120Y-94000
X140120Y-101620
X142660Y-94000
X142660Y-101620
T2
X129960Y-114380
X132500Y-114380
X135040Y-114380
X137580Y-114380
X140120Y-114380
X142660Y-114380
X97960Y-61260
X100500Y-61260
X103040Y-61260
X105580Y-61260
X108120Y-61260
X110660Y-61260
X113200Y-61260
X115740Y-61260
X118280Y-61260
X120820Y-61260
X129960Y-109520
X132500Y-109520
X135040Y-109520
X137580Y-109520
X140120Y-109520
X142660Y-109520
X97960Y-56400
X100500Y-56400
X103040Y-56400
X105580Y-56400
X108120Y-56400
X110660Y-56400
X113200Y-56400
X115740Y-56400
X118280Y-56400
X120820Y-56400
X124880Y-61260
X127420Y-61260
X129960Y-61260
X132500Y-61260
X135040Y-61260
X137580Y-61260
X140120Y-61260
X142660Y-61260
X124880Y-56400
X127420Y-56400
X129960Y-56400
X132500Y-56400
X135040Y-56400
X137580Y-56400
X140120Y-56400
X142660Y-56400
X107100Y-114380
X109640Y-114380
X112180Y-114380
X114720Y-114380
X117260Y-114380
X119800Y-114380
X122340Y-114380
X124880Y-114380
X107100Y-109520
X109640Y-109520
X112180Y-109520
X114720Y-109520
X117260Y-109520
X119800Y-109520
X122340Y-109520
X124880Y-109520
T3
X138160Y-80040
X138160Y-86540
X142660Y-80040
X142660Y-86540
T4
X85300Y-71760
X85300Y-76160
T2
G00X86940Y-103440
M15
G01X86940Y-105440
M16
G05
G00X88940Y-109140
M15
G01X90940Y-109140
M16
G05
G00X92940Y-103440
M15
G01X92940Y-105440
M16
G05
T0
M30
