G04 #@! TF.GenerationSoftware,KiCad,Pcbnew,(5.1.5)-3*
G04 #@! TF.CreationDate,2020-05-21T02:42:03+09:00*
G04 #@! TF.ProjectId,custom_arduino,63757374-6f6d-45f6-9172-6475696e6f2e,rev?*
G04 #@! TF.SameCoordinates,Original*
G04 #@! TF.FileFunction,Paste,Top*
G04 #@! TF.FilePolarity,Positive*
%FSLAX46Y46*%
G04 Gerber Fmt 4.6, Leading zero omitted, Abs format (unit mm)*
G04 Created by KiCad (PCBNEW (5.1.5)-3) date 2020-05-21 02:42:03*
%MOMM*%
%LPD*%
G04 APERTURE LIST*
%ADD10C,0.100000*%
%ADD11R,1.200000X1.400000*%
%ADD12R,1.750000X0.450000*%
%ADD13R,2.000000X1.500000*%
%ADD14R,2.000000X3.800000*%
%ADD15R,0.800000X0.900000*%
%ADD16R,1.700000X2.000000*%
%ADD17R,2.000000X0.500000*%
%ADD18R,0.900000X1.200000*%
G04 APERTURE END LIST*
D10*
G36*
X106326958Y-88475710D02*
G01*
X106341276Y-88477834D01*
X106355317Y-88481351D01*
X106368946Y-88486228D01*
X106382031Y-88492417D01*
X106394447Y-88499858D01*
X106406073Y-88508481D01*
X106416798Y-88518202D01*
X106426519Y-88528927D01*
X106435142Y-88540553D01*
X106442583Y-88552969D01*
X106448772Y-88566054D01*
X106453649Y-88579683D01*
X106457166Y-88593724D01*
X106459290Y-88608042D01*
X106460000Y-88622500D01*
X106460000Y-88917500D01*
X106459290Y-88931958D01*
X106457166Y-88946276D01*
X106453649Y-88960317D01*
X106448772Y-88973946D01*
X106442583Y-88987031D01*
X106435142Y-88999447D01*
X106426519Y-89011073D01*
X106416798Y-89021798D01*
X106406073Y-89031519D01*
X106394447Y-89040142D01*
X106382031Y-89047583D01*
X106368946Y-89053772D01*
X106355317Y-89058649D01*
X106341276Y-89062166D01*
X106326958Y-89064290D01*
X106312500Y-89065000D01*
X105967500Y-89065000D01*
X105953042Y-89064290D01*
X105938724Y-89062166D01*
X105924683Y-89058649D01*
X105911054Y-89053772D01*
X105897969Y-89047583D01*
X105885553Y-89040142D01*
X105873927Y-89031519D01*
X105863202Y-89021798D01*
X105853481Y-89011073D01*
X105844858Y-88999447D01*
X105837417Y-88987031D01*
X105831228Y-88973946D01*
X105826351Y-88960317D01*
X105822834Y-88946276D01*
X105820710Y-88931958D01*
X105820000Y-88917500D01*
X105820000Y-88622500D01*
X105820710Y-88608042D01*
X105822834Y-88593724D01*
X105826351Y-88579683D01*
X105831228Y-88566054D01*
X105837417Y-88552969D01*
X105844858Y-88540553D01*
X105853481Y-88528927D01*
X105863202Y-88518202D01*
X105873927Y-88508481D01*
X105885553Y-88499858D01*
X105897969Y-88492417D01*
X105911054Y-88486228D01*
X105924683Y-88481351D01*
X105938724Y-88477834D01*
X105953042Y-88475710D01*
X105967500Y-88475000D01*
X106312500Y-88475000D01*
X106326958Y-88475710D01*
G37*
G36*
X106326958Y-89445710D02*
G01*
X106341276Y-89447834D01*
X106355317Y-89451351D01*
X106368946Y-89456228D01*
X106382031Y-89462417D01*
X106394447Y-89469858D01*
X106406073Y-89478481D01*
X106416798Y-89488202D01*
X106426519Y-89498927D01*
X106435142Y-89510553D01*
X106442583Y-89522969D01*
X106448772Y-89536054D01*
X106453649Y-89549683D01*
X106457166Y-89563724D01*
X106459290Y-89578042D01*
X106460000Y-89592500D01*
X106460000Y-89887500D01*
X106459290Y-89901958D01*
X106457166Y-89916276D01*
X106453649Y-89930317D01*
X106448772Y-89943946D01*
X106442583Y-89957031D01*
X106435142Y-89969447D01*
X106426519Y-89981073D01*
X106416798Y-89991798D01*
X106406073Y-90001519D01*
X106394447Y-90010142D01*
X106382031Y-90017583D01*
X106368946Y-90023772D01*
X106355317Y-90028649D01*
X106341276Y-90032166D01*
X106326958Y-90034290D01*
X106312500Y-90035000D01*
X105967500Y-90035000D01*
X105953042Y-90034290D01*
X105938724Y-90032166D01*
X105924683Y-90028649D01*
X105911054Y-90023772D01*
X105897969Y-90017583D01*
X105885553Y-90010142D01*
X105873927Y-90001519D01*
X105863202Y-89991798D01*
X105853481Y-89981073D01*
X105844858Y-89969447D01*
X105837417Y-89957031D01*
X105831228Y-89943946D01*
X105826351Y-89930317D01*
X105822834Y-89916276D01*
X105820710Y-89901958D01*
X105820000Y-89887500D01*
X105820000Y-89592500D01*
X105820710Y-89578042D01*
X105822834Y-89563724D01*
X105826351Y-89549683D01*
X105831228Y-89536054D01*
X105837417Y-89522969D01*
X105844858Y-89510553D01*
X105853481Y-89498927D01*
X105863202Y-89488202D01*
X105873927Y-89478481D01*
X105885553Y-89469858D01*
X105897969Y-89462417D01*
X105911054Y-89456228D01*
X105924683Y-89451351D01*
X105938724Y-89447834D01*
X105953042Y-89445710D01*
X105967500Y-89445000D01*
X106312500Y-89445000D01*
X106326958Y-89445710D01*
G37*
D11*
X120640000Y-85920000D03*
X120640000Y-83720000D03*
X122340000Y-83720000D03*
X122340000Y-85920000D03*
D12*
X96740000Y-78185000D03*
X96740000Y-77535000D03*
X96740000Y-76885000D03*
X96740000Y-76235000D03*
X96740000Y-75585000D03*
X96740000Y-74935000D03*
X96740000Y-74285000D03*
X96740000Y-73635000D03*
X96740000Y-72985000D03*
X96740000Y-72335000D03*
X96740000Y-71685000D03*
X96740000Y-71035000D03*
X96740000Y-70385000D03*
X96740000Y-69735000D03*
X103940000Y-69735000D03*
X103940000Y-70385000D03*
X103940000Y-71035000D03*
X103940000Y-71685000D03*
X103940000Y-72335000D03*
X103940000Y-72985000D03*
X103940000Y-73635000D03*
X103940000Y-74285000D03*
X103940000Y-74935000D03*
X103940000Y-75585000D03*
X103940000Y-76235000D03*
X103940000Y-76885000D03*
X103940000Y-77535000D03*
X103940000Y-78185000D03*
D13*
X95700000Y-91700000D03*
X95700000Y-96300000D03*
X95700000Y-94000000D03*
D14*
X102000000Y-94000000D03*
D10*
G36*
X88889703Y-86700722D02*
G01*
X88904264Y-86702882D01*
X88918543Y-86706459D01*
X88932403Y-86711418D01*
X88945710Y-86717712D01*
X88958336Y-86725280D01*
X88970159Y-86734048D01*
X88981066Y-86743934D01*
X88990952Y-86754841D01*
X88999720Y-86766664D01*
X89007288Y-86779290D01*
X89013582Y-86792597D01*
X89018541Y-86806457D01*
X89022118Y-86820736D01*
X89024278Y-86835297D01*
X89025000Y-86850000D01*
X89025000Y-87150000D01*
X89024278Y-87164703D01*
X89022118Y-87179264D01*
X89018541Y-87193543D01*
X89013582Y-87207403D01*
X89007288Y-87220710D01*
X88999720Y-87233336D01*
X88990952Y-87245159D01*
X88981066Y-87256066D01*
X88970159Y-87265952D01*
X88958336Y-87274720D01*
X88945710Y-87282288D01*
X88932403Y-87288582D01*
X88918543Y-87293541D01*
X88904264Y-87297118D01*
X88889703Y-87299278D01*
X88875000Y-87300000D01*
X87225000Y-87300000D01*
X87210297Y-87299278D01*
X87195736Y-87297118D01*
X87181457Y-87293541D01*
X87167597Y-87288582D01*
X87154290Y-87282288D01*
X87141664Y-87274720D01*
X87129841Y-87265952D01*
X87118934Y-87256066D01*
X87109048Y-87245159D01*
X87100280Y-87233336D01*
X87092712Y-87220710D01*
X87086418Y-87207403D01*
X87081459Y-87193543D01*
X87077882Y-87179264D01*
X87075722Y-87164703D01*
X87075000Y-87150000D01*
X87075000Y-86850000D01*
X87075722Y-86835297D01*
X87077882Y-86820736D01*
X87081459Y-86806457D01*
X87086418Y-86792597D01*
X87092712Y-86779290D01*
X87100280Y-86766664D01*
X87109048Y-86754841D01*
X87118934Y-86743934D01*
X87129841Y-86734048D01*
X87141664Y-86725280D01*
X87154290Y-86717712D01*
X87167597Y-86711418D01*
X87181457Y-86706459D01*
X87195736Y-86702882D01*
X87210297Y-86700722D01*
X87225000Y-86700000D01*
X88875000Y-86700000D01*
X88889703Y-86700722D01*
G37*
G36*
X88889703Y-85430722D02*
G01*
X88904264Y-85432882D01*
X88918543Y-85436459D01*
X88932403Y-85441418D01*
X88945710Y-85447712D01*
X88958336Y-85455280D01*
X88970159Y-85464048D01*
X88981066Y-85473934D01*
X88990952Y-85484841D01*
X88999720Y-85496664D01*
X89007288Y-85509290D01*
X89013582Y-85522597D01*
X89018541Y-85536457D01*
X89022118Y-85550736D01*
X89024278Y-85565297D01*
X89025000Y-85580000D01*
X89025000Y-85880000D01*
X89024278Y-85894703D01*
X89022118Y-85909264D01*
X89018541Y-85923543D01*
X89013582Y-85937403D01*
X89007288Y-85950710D01*
X88999720Y-85963336D01*
X88990952Y-85975159D01*
X88981066Y-85986066D01*
X88970159Y-85995952D01*
X88958336Y-86004720D01*
X88945710Y-86012288D01*
X88932403Y-86018582D01*
X88918543Y-86023541D01*
X88904264Y-86027118D01*
X88889703Y-86029278D01*
X88875000Y-86030000D01*
X87225000Y-86030000D01*
X87210297Y-86029278D01*
X87195736Y-86027118D01*
X87181457Y-86023541D01*
X87167597Y-86018582D01*
X87154290Y-86012288D01*
X87141664Y-86004720D01*
X87129841Y-85995952D01*
X87118934Y-85986066D01*
X87109048Y-85975159D01*
X87100280Y-85963336D01*
X87092712Y-85950710D01*
X87086418Y-85937403D01*
X87081459Y-85923543D01*
X87077882Y-85909264D01*
X87075722Y-85894703D01*
X87075000Y-85880000D01*
X87075000Y-85580000D01*
X87075722Y-85565297D01*
X87077882Y-85550736D01*
X87081459Y-85536457D01*
X87086418Y-85522597D01*
X87092712Y-85509290D01*
X87100280Y-85496664D01*
X87109048Y-85484841D01*
X87118934Y-85473934D01*
X87129841Y-85464048D01*
X87141664Y-85455280D01*
X87154290Y-85447712D01*
X87167597Y-85441418D01*
X87181457Y-85436459D01*
X87195736Y-85432882D01*
X87210297Y-85430722D01*
X87225000Y-85430000D01*
X88875000Y-85430000D01*
X88889703Y-85430722D01*
G37*
G36*
X88889703Y-84160722D02*
G01*
X88904264Y-84162882D01*
X88918543Y-84166459D01*
X88932403Y-84171418D01*
X88945710Y-84177712D01*
X88958336Y-84185280D01*
X88970159Y-84194048D01*
X88981066Y-84203934D01*
X88990952Y-84214841D01*
X88999720Y-84226664D01*
X89007288Y-84239290D01*
X89013582Y-84252597D01*
X89018541Y-84266457D01*
X89022118Y-84280736D01*
X89024278Y-84295297D01*
X89025000Y-84310000D01*
X89025000Y-84610000D01*
X89024278Y-84624703D01*
X89022118Y-84639264D01*
X89018541Y-84653543D01*
X89013582Y-84667403D01*
X89007288Y-84680710D01*
X88999720Y-84693336D01*
X88990952Y-84705159D01*
X88981066Y-84716066D01*
X88970159Y-84725952D01*
X88958336Y-84734720D01*
X88945710Y-84742288D01*
X88932403Y-84748582D01*
X88918543Y-84753541D01*
X88904264Y-84757118D01*
X88889703Y-84759278D01*
X88875000Y-84760000D01*
X87225000Y-84760000D01*
X87210297Y-84759278D01*
X87195736Y-84757118D01*
X87181457Y-84753541D01*
X87167597Y-84748582D01*
X87154290Y-84742288D01*
X87141664Y-84734720D01*
X87129841Y-84725952D01*
X87118934Y-84716066D01*
X87109048Y-84705159D01*
X87100280Y-84693336D01*
X87092712Y-84680710D01*
X87086418Y-84667403D01*
X87081459Y-84653543D01*
X87077882Y-84639264D01*
X87075722Y-84624703D01*
X87075000Y-84610000D01*
X87075000Y-84310000D01*
X87075722Y-84295297D01*
X87077882Y-84280736D01*
X87081459Y-84266457D01*
X87086418Y-84252597D01*
X87092712Y-84239290D01*
X87100280Y-84226664D01*
X87109048Y-84214841D01*
X87118934Y-84203934D01*
X87129841Y-84194048D01*
X87141664Y-84185280D01*
X87154290Y-84177712D01*
X87167597Y-84171418D01*
X87181457Y-84166459D01*
X87195736Y-84162882D01*
X87210297Y-84160722D01*
X87225000Y-84160000D01*
X88875000Y-84160000D01*
X88889703Y-84160722D01*
G37*
G36*
X88889703Y-82890722D02*
G01*
X88904264Y-82892882D01*
X88918543Y-82896459D01*
X88932403Y-82901418D01*
X88945710Y-82907712D01*
X88958336Y-82915280D01*
X88970159Y-82924048D01*
X88981066Y-82933934D01*
X88990952Y-82944841D01*
X88999720Y-82956664D01*
X89007288Y-82969290D01*
X89013582Y-82982597D01*
X89018541Y-82996457D01*
X89022118Y-83010736D01*
X89024278Y-83025297D01*
X89025000Y-83040000D01*
X89025000Y-83340000D01*
X89024278Y-83354703D01*
X89022118Y-83369264D01*
X89018541Y-83383543D01*
X89013582Y-83397403D01*
X89007288Y-83410710D01*
X88999720Y-83423336D01*
X88990952Y-83435159D01*
X88981066Y-83446066D01*
X88970159Y-83455952D01*
X88958336Y-83464720D01*
X88945710Y-83472288D01*
X88932403Y-83478582D01*
X88918543Y-83483541D01*
X88904264Y-83487118D01*
X88889703Y-83489278D01*
X88875000Y-83490000D01*
X87225000Y-83490000D01*
X87210297Y-83489278D01*
X87195736Y-83487118D01*
X87181457Y-83483541D01*
X87167597Y-83478582D01*
X87154290Y-83472288D01*
X87141664Y-83464720D01*
X87129841Y-83455952D01*
X87118934Y-83446066D01*
X87109048Y-83435159D01*
X87100280Y-83423336D01*
X87092712Y-83410710D01*
X87086418Y-83397403D01*
X87081459Y-83383543D01*
X87077882Y-83369264D01*
X87075722Y-83354703D01*
X87075000Y-83340000D01*
X87075000Y-83040000D01*
X87075722Y-83025297D01*
X87077882Y-83010736D01*
X87081459Y-82996457D01*
X87086418Y-82982597D01*
X87092712Y-82969290D01*
X87100280Y-82956664D01*
X87109048Y-82944841D01*
X87118934Y-82933934D01*
X87129841Y-82924048D01*
X87141664Y-82915280D01*
X87154290Y-82907712D01*
X87167597Y-82901418D01*
X87181457Y-82896459D01*
X87195736Y-82892882D01*
X87210297Y-82890722D01*
X87225000Y-82890000D01*
X88875000Y-82890000D01*
X88889703Y-82890722D01*
G37*
G36*
X93839703Y-82890722D02*
G01*
X93854264Y-82892882D01*
X93868543Y-82896459D01*
X93882403Y-82901418D01*
X93895710Y-82907712D01*
X93908336Y-82915280D01*
X93920159Y-82924048D01*
X93931066Y-82933934D01*
X93940952Y-82944841D01*
X93949720Y-82956664D01*
X93957288Y-82969290D01*
X93963582Y-82982597D01*
X93968541Y-82996457D01*
X93972118Y-83010736D01*
X93974278Y-83025297D01*
X93975000Y-83040000D01*
X93975000Y-83340000D01*
X93974278Y-83354703D01*
X93972118Y-83369264D01*
X93968541Y-83383543D01*
X93963582Y-83397403D01*
X93957288Y-83410710D01*
X93949720Y-83423336D01*
X93940952Y-83435159D01*
X93931066Y-83446066D01*
X93920159Y-83455952D01*
X93908336Y-83464720D01*
X93895710Y-83472288D01*
X93882403Y-83478582D01*
X93868543Y-83483541D01*
X93854264Y-83487118D01*
X93839703Y-83489278D01*
X93825000Y-83490000D01*
X92175000Y-83490000D01*
X92160297Y-83489278D01*
X92145736Y-83487118D01*
X92131457Y-83483541D01*
X92117597Y-83478582D01*
X92104290Y-83472288D01*
X92091664Y-83464720D01*
X92079841Y-83455952D01*
X92068934Y-83446066D01*
X92059048Y-83435159D01*
X92050280Y-83423336D01*
X92042712Y-83410710D01*
X92036418Y-83397403D01*
X92031459Y-83383543D01*
X92027882Y-83369264D01*
X92025722Y-83354703D01*
X92025000Y-83340000D01*
X92025000Y-83040000D01*
X92025722Y-83025297D01*
X92027882Y-83010736D01*
X92031459Y-82996457D01*
X92036418Y-82982597D01*
X92042712Y-82969290D01*
X92050280Y-82956664D01*
X92059048Y-82944841D01*
X92068934Y-82933934D01*
X92079841Y-82924048D01*
X92091664Y-82915280D01*
X92104290Y-82907712D01*
X92117597Y-82901418D01*
X92131457Y-82896459D01*
X92145736Y-82892882D01*
X92160297Y-82890722D01*
X92175000Y-82890000D01*
X93825000Y-82890000D01*
X93839703Y-82890722D01*
G37*
G36*
X93839703Y-84160722D02*
G01*
X93854264Y-84162882D01*
X93868543Y-84166459D01*
X93882403Y-84171418D01*
X93895710Y-84177712D01*
X93908336Y-84185280D01*
X93920159Y-84194048D01*
X93931066Y-84203934D01*
X93940952Y-84214841D01*
X93949720Y-84226664D01*
X93957288Y-84239290D01*
X93963582Y-84252597D01*
X93968541Y-84266457D01*
X93972118Y-84280736D01*
X93974278Y-84295297D01*
X93975000Y-84310000D01*
X93975000Y-84610000D01*
X93974278Y-84624703D01*
X93972118Y-84639264D01*
X93968541Y-84653543D01*
X93963582Y-84667403D01*
X93957288Y-84680710D01*
X93949720Y-84693336D01*
X93940952Y-84705159D01*
X93931066Y-84716066D01*
X93920159Y-84725952D01*
X93908336Y-84734720D01*
X93895710Y-84742288D01*
X93882403Y-84748582D01*
X93868543Y-84753541D01*
X93854264Y-84757118D01*
X93839703Y-84759278D01*
X93825000Y-84760000D01*
X92175000Y-84760000D01*
X92160297Y-84759278D01*
X92145736Y-84757118D01*
X92131457Y-84753541D01*
X92117597Y-84748582D01*
X92104290Y-84742288D01*
X92091664Y-84734720D01*
X92079841Y-84725952D01*
X92068934Y-84716066D01*
X92059048Y-84705159D01*
X92050280Y-84693336D01*
X92042712Y-84680710D01*
X92036418Y-84667403D01*
X92031459Y-84653543D01*
X92027882Y-84639264D01*
X92025722Y-84624703D01*
X92025000Y-84610000D01*
X92025000Y-84310000D01*
X92025722Y-84295297D01*
X92027882Y-84280736D01*
X92031459Y-84266457D01*
X92036418Y-84252597D01*
X92042712Y-84239290D01*
X92050280Y-84226664D01*
X92059048Y-84214841D01*
X92068934Y-84203934D01*
X92079841Y-84194048D01*
X92091664Y-84185280D01*
X92104290Y-84177712D01*
X92117597Y-84171418D01*
X92131457Y-84166459D01*
X92145736Y-84162882D01*
X92160297Y-84160722D01*
X92175000Y-84160000D01*
X93825000Y-84160000D01*
X93839703Y-84160722D01*
G37*
G36*
X93839703Y-85430722D02*
G01*
X93854264Y-85432882D01*
X93868543Y-85436459D01*
X93882403Y-85441418D01*
X93895710Y-85447712D01*
X93908336Y-85455280D01*
X93920159Y-85464048D01*
X93931066Y-85473934D01*
X93940952Y-85484841D01*
X93949720Y-85496664D01*
X93957288Y-85509290D01*
X93963582Y-85522597D01*
X93968541Y-85536457D01*
X93972118Y-85550736D01*
X93974278Y-85565297D01*
X93975000Y-85580000D01*
X93975000Y-85880000D01*
X93974278Y-85894703D01*
X93972118Y-85909264D01*
X93968541Y-85923543D01*
X93963582Y-85937403D01*
X93957288Y-85950710D01*
X93949720Y-85963336D01*
X93940952Y-85975159D01*
X93931066Y-85986066D01*
X93920159Y-85995952D01*
X93908336Y-86004720D01*
X93895710Y-86012288D01*
X93882403Y-86018582D01*
X93868543Y-86023541D01*
X93854264Y-86027118D01*
X93839703Y-86029278D01*
X93825000Y-86030000D01*
X92175000Y-86030000D01*
X92160297Y-86029278D01*
X92145736Y-86027118D01*
X92131457Y-86023541D01*
X92117597Y-86018582D01*
X92104290Y-86012288D01*
X92091664Y-86004720D01*
X92079841Y-85995952D01*
X92068934Y-85986066D01*
X92059048Y-85975159D01*
X92050280Y-85963336D01*
X92042712Y-85950710D01*
X92036418Y-85937403D01*
X92031459Y-85923543D01*
X92027882Y-85909264D01*
X92025722Y-85894703D01*
X92025000Y-85880000D01*
X92025000Y-85580000D01*
X92025722Y-85565297D01*
X92027882Y-85550736D01*
X92031459Y-85536457D01*
X92036418Y-85522597D01*
X92042712Y-85509290D01*
X92050280Y-85496664D01*
X92059048Y-85484841D01*
X92068934Y-85473934D01*
X92079841Y-85464048D01*
X92091664Y-85455280D01*
X92104290Y-85447712D01*
X92117597Y-85441418D01*
X92131457Y-85436459D01*
X92145736Y-85432882D01*
X92160297Y-85430722D01*
X92175000Y-85430000D01*
X93825000Y-85430000D01*
X93839703Y-85430722D01*
G37*
G36*
X93839703Y-86700722D02*
G01*
X93854264Y-86702882D01*
X93868543Y-86706459D01*
X93882403Y-86711418D01*
X93895710Y-86717712D01*
X93908336Y-86725280D01*
X93920159Y-86734048D01*
X93931066Y-86743934D01*
X93940952Y-86754841D01*
X93949720Y-86766664D01*
X93957288Y-86779290D01*
X93963582Y-86792597D01*
X93968541Y-86806457D01*
X93972118Y-86820736D01*
X93974278Y-86835297D01*
X93975000Y-86850000D01*
X93975000Y-87150000D01*
X93974278Y-87164703D01*
X93972118Y-87179264D01*
X93968541Y-87193543D01*
X93963582Y-87207403D01*
X93957288Y-87220710D01*
X93949720Y-87233336D01*
X93940952Y-87245159D01*
X93931066Y-87256066D01*
X93920159Y-87265952D01*
X93908336Y-87274720D01*
X93895710Y-87282288D01*
X93882403Y-87288582D01*
X93868543Y-87293541D01*
X93854264Y-87297118D01*
X93839703Y-87299278D01*
X93825000Y-87300000D01*
X92175000Y-87300000D01*
X92160297Y-87299278D01*
X92145736Y-87297118D01*
X92131457Y-87293541D01*
X92117597Y-87288582D01*
X92104290Y-87282288D01*
X92091664Y-87274720D01*
X92079841Y-87265952D01*
X92068934Y-87256066D01*
X92059048Y-87245159D01*
X92050280Y-87233336D01*
X92042712Y-87220710D01*
X92036418Y-87207403D01*
X92031459Y-87193543D01*
X92027882Y-87179264D01*
X92025722Y-87164703D01*
X92025000Y-87150000D01*
X92025000Y-86850000D01*
X92025722Y-86835297D01*
X92027882Y-86820736D01*
X92031459Y-86806457D01*
X92036418Y-86792597D01*
X92042712Y-86779290D01*
X92050280Y-86766664D01*
X92059048Y-86754841D01*
X92068934Y-86743934D01*
X92079841Y-86734048D01*
X92091664Y-86725280D01*
X92104290Y-86717712D01*
X92117597Y-86711418D01*
X92131457Y-86706459D01*
X92145736Y-86702882D01*
X92160297Y-86700722D01*
X92175000Y-86700000D01*
X93825000Y-86700000D01*
X93839703Y-86700722D01*
G37*
G36*
X106785191Y-66826053D02*
G01*
X106806426Y-66829203D01*
X106827250Y-66834419D01*
X106847462Y-66841651D01*
X106866868Y-66850830D01*
X106885281Y-66861866D01*
X106902524Y-66874654D01*
X106918430Y-66889070D01*
X106932846Y-66904976D01*
X106945634Y-66922219D01*
X106956670Y-66940632D01*
X106965849Y-66960038D01*
X106973081Y-66980250D01*
X106978297Y-67001074D01*
X106981447Y-67022309D01*
X106982500Y-67043750D01*
X106982500Y-67556250D01*
X106981447Y-67577691D01*
X106978297Y-67598926D01*
X106973081Y-67619750D01*
X106965849Y-67639962D01*
X106956670Y-67659368D01*
X106945634Y-67677781D01*
X106932846Y-67695024D01*
X106918430Y-67710930D01*
X106902524Y-67725346D01*
X106885281Y-67738134D01*
X106866868Y-67749170D01*
X106847462Y-67758349D01*
X106827250Y-67765581D01*
X106806426Y-67770797D01*
X106785191Y-67773947D01*
X106763750Y-67775000D01*
X106326250Y-67775000D01*
X106304809Y-67773947D01*
X106283574Y-67770797D01*
X106262750Y-67765581D01*
X106242538Y-67758349D01*
X106223132Y-67749170D01*
X106204719Y-67738134D01*
X106187476Y-67725346D01*
X106171570Y-67710930D01*
X106157154Y-67695024D01*
X106144366Y-67677781D01*
X106133330Y-67659368D01*
X106124151Y-67639962D01*
X106116919Y-67619750D01*
X106111703Y-67598926D01*
X106108553Y-67577691D01*
X106107500Y-67556250D01*
X106107500Y-67043750D01*
X106108553Y-67022309D01*
X106111703Y-67001074D01*
X106116919Y-66980250D01*
X106124151Y-66960038D01*
X106133330Y-66940632D01*
X106144366Y-66922219D01*
X106157154Y-66904976D01*
X106171570Y-66889070D01*
X106187476Y-66874654D01*
X106204719Y-66861866D01*
X106223132Y-66850830D01*
X106242538Y-66841651D01*
X106262750Y-66834419D01*
X106283574Y-66829203D01*
X106304809Y-66826053D01*
X106326250Y-66825000D01*
X106763750Y-66825000D01*
X106785191Y-66826053D01*
G37*
G36*
X105210191Y-66826053D02*
G01*
X105231426Y-66829203D01*
X105252250Y-66834419D01*
X105272462Y-66841651D01*
X105291868Y-66850830D01*
X105310281Y-66861866D01*
X105327524Y-66874654D01*
X105343430Y-66889070D01*
X105357846Y-66904976D01*
X105370634Y-66922219D01*
X105381670Y-66940632D01*
X105390849Y-66960038D01*
X105398081Y-66980250D01*
X105403297Y-67001074D01*
X105406447Y-67022309D01*
X105407500Y-67043750D01*
X105407500Y-67556250D01*
X105406447Y-67577691D01*
X105403297Y-67598926D01*
X105398081Y-67619750D01*
X105390849Y-67639962D01*
X105381670Y-67659368D01*
X105370634Y-67677781D01*
X105357846Y-67695024D01*
X105343430Y-67710930D01*
X105327524Y-67725346D01*
X105310281Y-67738134D01*
X105291868Y-67749170D01*
X105272462Y-67758349D01*
X105252250Y-67765581D01*
X105231426Y-67770797D01*
X105210191Y-67773947D01*
X105188750Y-67775000D01*
X104751250Y-67775000D01*
X104729809Y-67773947D01*
X104708574Y-67770797D01*
X104687750Y-67765581D01*
X104667538Y-67758349D01*
X104648132Y-67749170D01*
X104629719Y-67738134D01*
X104612476Y-67725346D01*
X104596570Y-67710930D01*
X104582154Y-67695024D01*
X104569366Y-67677781D01*
X104558330Y-67659368D01*
X104549151Y-67639962D01*
X104541919Y-67619750D01*
X104536703Y-67598926D01*
X104533553Y-67577691D01*
X104532500Y-67556250D01*
X104532500Y-67043750D01*
X104533553Y-67022309D01*
X104536703Y-67001074D01*
X104541919Y-66980250D01*
X104549151Y-66960038D01*
X104558330Y-66940632D01*
X104569366Y-66922219D01*
X104582154Y-66904976D01*
X104596570Y-66889070D01*
X104612476Y-66874654D01*
X104629719Y-66861866D01*
X104648132Y-66850830D01*
X104667538Y-66841651D01*
X104687750Y-66834419D01*
X104708574Y-66829203D01*
X104729809Y-66826053D01*
X104751250Y-66825000D01*
X105188750Y-66825000D01*
X105210191Y-66826053D01*
G37*
G36*
X142900191Y-89526053D02*
G01*
X142921426Y-89529203D01*
X142942250Y-89534419D01*
X142962462Y-89541651D01*
X142981868Y-89550830D01*
X143000281Y-89561866D01*
X143017524Y-89574654D01*
X143033430Y-89589070D01*
X143047846Y-89604976D01*
X143060634Y-89622219D01*
X143071670Y-89640632D01*
X143080849Y-89660038D01*
X143088081Y-89680250D01*
X143093297Y-89701074D01*
X143096447Y-89722309D01*
X143097500Y-89743750D01*
X143097500Y-90256250D01*
X143096447Y-90277691D01*
X143093297Y-90298926D01*
X143088081Y-90319750D01*
X143080849Y-90339962D01*
X143071670Y-90359368D01*
X143060634Y-90377781D01*
X143047846Y-90395024D01*
X143033430Y-90410930D01*
X143017524Y-90425346D01*
X143000281Y-90438134D01*
X142981868Y-90449170D01*
X142962462Y-90458349D01*
X142942250Y-90465581D01*
X142921426Y-90470797D01*
X142900191Y-90473947D01*
X142878750Y-90475000D01*
X142441250Y-90475000D01*
X142419809Y-90473947D01*
X142398574Y-90470797D01*
X142377750Y-90465581D01*
X142357538Y-90458349D01*
X142338132Y-90449170D01*
X142319719Y-90438134D01*
X142302476Y-90425346D01*
X142286570Y-90410930D01*
X142272154Y-90395024D01*
X142259366Y-90377781D01*
X142248330Y-90359368D01*
X142239151Y-90339962D01*
X142231919Y-90319750D01*
X142226703Y-90298926D01*
X142223553Y-90277691D01*
X142222500Y-90256250D01*
X142222500Y-89743750D01*
X142223553Y-89722309D01*
X142226703Y-89701074D01*
X142231919Y-89680250D01*
X142239151Y-89660038D01*
X142248330Y-89640632D01*
X142259366Y-89622219D01*
X142272154Y-89604976D01*
X142286570Y-89589070D01*
X142302476Y-89574654D01*
X142319719Y-89561866D01*
X142338132Y-89550830D01*
X142357538Y-89541651D01*
X142377750Y-89534419D01*
X142398574Y-89529203D01*
X142419809Y-89526053D01*
X142441250Y-89525000D01*
X142878750Y-89525000D01*
X142900191Y-89526053D01*
G37*
G36*
X144475191Y-89526053D02*
G01*
X144496426Y-89529203D01*
X144517250Y-89534419D01*
X144537462Y-89541651D01*
X144556868Y-89550830D01*
X144575281Y-89561866D01*
X144592524Y-89574654D01*
X144608430Y-89589070D01*
X144622846Y-89604976D01*
X144635634Y-89622219D01*
X144646670Y-89640632D01*
X144655849Y-89660038D01*
X144663081Y-89680250D01*
X144668297Y-89701074D01*
X144671447Y-89722309D01*
X144672500Y-89743750D01*
X144672500Y-90256250D01*
X144671447Y-90277691D01*
X144668297Y-90298926D01*
X144663081Y-90319750D01*
X144655849Y-90339962D01*
X144646670Y-90359368D01*
X144635634Y-90377781D01*
X144622846Y-90395024D01*
X144608430Y-90410930D01*
X144592524Y-90425346D01*
X144575281Y-90438134D01*
X144556868Y-90449170D01*
X144537462Y-90458349D01*
X144517250Y-90465581D01*
X144496426Y-90470797D01*
X144475191Y-90473947D01*
X144453750Y-90475000D01*
X144016250Y-90475000D01*
X143994809Y-90473947D01*
X143973574Y-90470797D01*
X143952750Y-90465581D01*
X143932538Y-90458349D01*
X143913132Y-90449170D01*
X143894719Y-90438134D01*
X143877476Y-90425346D01*
X143861570Y-90410930D01*
X143847154Y-90395024D01*
X143834366Y-90377781D01*
X143823330Y-90359368D01*
X143814151Y-90339962D01*
X143806919Y-90319750D01*
X143801703Y-90298926D01*
X143798553Y-90277691D01*
X143797500Y-90256250D01*
X143797500Y-89743750D01*
X143798553Y-89722309D01*
X143801703Y-89701074D01*
X143806919Y-89680250D01*
X143814151Y-89660038D01*
X143823330Y-89640632D01*
X143834366Y-89622219D01*
X143847154Y-89604976D01*
X143861570Y-89589070D01*
X143877476Y-89574654D01*
X143894719Y-89561866D01*
X143913132Y-89550830D01*
X143932538Y-89541651D01*
X143952750Y-89534419D01*
X143973574Y-89529203D01*
X143994809Y-89526053D01*
X144016250Y-89525000D01*
X144453750Y-89525000D01*
X144475191Y-89526053D01*
G37*
G36*
X89027691Y-62026053D02*
G01*
X89048926Y-62029203D01*
X89069750Y-62034419D01*
X89089962Y-62041651D01*
X89109368Y-62050830D01*
X89127781Y-62061866D01*
X89145024Y-62074654D01*
X89160930Y-62089070D01*
X89175346Y-62104976D01*
X89188134Y-62122219D01*
X89199170Y-62140632D01*
X89208349Y-62160038D01*
X89215581Y-62180250D01*
X89220797Y-62201074D01*
X89223947Y-62222309D01*
X89225000Y-62243750D01*
X89225000Y-62756250D01*
X89223947Y-62777691D01*
X89220797Y-62798926D01*
X89215581Y-62819750D01*
X89208349Y-62839962D01*
X89199170Y-62859368D01*
X89188134Y-62877781D01*
X89175346Y-62895024D01*
X89160930Y-62910930D01*
X89145024Y-62925346D01*
X89127781Y-62938134D01*
X89109368Y-62949170D01*
X89089962Y-62958349D01*
X89069750Y-62965581D01*
X89048926Y-62970797D01*
X89027691Y-62973947D01*
X89006250Y-62975000D01*
X88568750Y-62975000D01*
X88547309Y-62973947D01*
X88526074Y-62970797D01*
X88505250Y-62965581D01*
X88485038Y-62958349D01*
X88465632Y-62949170D01*
X88447219Y-62938134D01*
X88429976Y-62925346D01*
X88414070Y-62910930D01*
X88399654Y-62895024D01*
X88386866Y-62877781D01*
X88375830Y-62859368D01*
X88366651Y-62839962D01*
X88359419Y-62819750D01*
X88354203Y-62798926D01*
X88351053Y-62777691D01*
X88350000Y-62756250D01*
X88350000Y-62243750D01*
X88351053Y-62222309D01*
X88354203Y-62201074D01*
X88359419Y-62180250D01*
X88366651Y-62160038D01*
X88375830Y-62140632D01*
X88386866Y-62122219D01*
X88399654Y-62104976D01*
X88414070Y-62089070D01*
X88429976Y-62074654D01*
X88447219Y-62061866D01*
X88465632Y-62050830D01*
X88485038Y-62041651D01*
X88505250Y-62034419D01*
X88526074Y-62029203D01*
X88547309Y-62026053D01*
X88568750Y-62025000D01*
X89006250Y-62025000D01*
X89027691Y-62026053D01*
G37*
G36*
X87452691Y-62026053D02*
G01*
X87473926Y-62029203D01*
X87494750Y-62034419D01*
X87514962Y-62041651D01*
X87534368Y-62050830D01*
X87552781Y-62061866D01*
X87570024Y-62074654D01*
X87585930Y-62089070D01*
X87600346Y-62104976D01*
X87613134Y-62122219D01*
X87624170Y-62140632D01*
X87633349Y-62160038D01*
X87640581Y-62180250D01*
X87645797Y-62201074D01*
X87648947Y-62222309D01*
X87650000Y-62243750D01*
X87650000Y-62756250D01*
X87648947Y-62777691D01*
X87645797Y-62798926D01*
X87640581Y-62819750D01*
X87633349Y-62839962D01*
X87624170Y-62859368D01*
X87613134Y-62877781D01*
X87600346Y-62895024D01*
X87585930Y-62910930D01*
X87570024Y-62925346D01*
X87552781Y-62938134D01*
X87534368Y-62949170D01*
X87514962Y-62958349D01*
X87494750Y-62965581D01*
X87473926Y-62970797D01*
X87452691Y-62973947D01*
X87431250Y-62975000D01*
X86993750Y-62975000D01*
X86972309Y-62973947D01*
X86951074Y-62970797D01*
X86930250Y-62965581D01*
X86910038Y-62958349D01*
X86890632Y-62949170D01*
X86872219Y-62938134D01*
X86854976Y-62925346D01*
X86839070Y-62910930D01*
X86824654Y-62895024D01*
X86811866Y-62877781D01*
X86800830Y-62859368D01*
X86791651Y-62839962D01*
X86784419Y-62819750D01*
X86779203Y-62798926D01*
X86776053Y-62777691D01*
X86775000Y-62756250D01*
X86775000Y-62243750D01*
X86776053Y-62222309D01*
X86779203Y-62201074D01*
X86784419Y-62180250D01*
X86791651Y-62160038D01*
X86800830Y-62140632D01*
X86811866Y-62122219D01*
X86824654Y-62104976D01*
X86839070Y-62089070D01*
X86854976Y-62074654D01*
X86872219Y-62061866D01*
X86890632Y-62050830D01*
X86910038Y-62041651D01*
X86930250Y-62034419D01*
X86951074Y-62029203D01*
X86972309Y-62026053D01*
X86993750Y-62025000D01*
X87431250Y-62025000D01*
X87452691Y-62026053D01*
G37*
G36*
X89027691Y-64526053D02*
G01*
X89048926Y-64529203D01*
X89069750Y-64534419D01*
X89089962Y-64541651D01*
X89109368Y-64550830D01*
X89127781Y-64561866D01*
X89145024Y-64574654D01*
X89160930Y-64589070D01*
X89175346Y-64604976D01*
X89188134Y-64622219D01*
X89199170Y-64640632D01*
X89208349Y-64660038D01*
X89215581Y-64680250D01*
X89220797Y-64701074D01*
X89223947Y-64722309D01*
X89225000Y-64743750D01*
X89225000Y-65256250D01*
X89223947Y-65277691D01*
X89220797Y-65298926D01*
X89215581Y-65319750D01*
X89208349Y-65339962D01*
X89199170Y-65359368D01*
X89188134Y-65377781D01*
X89175346Y-65395024D01*
X89160930Y-65410930D01*
X89145024Y-65425346D01*
X89127781Y-65438134D01*
X89109368Y-65449170D01*
X89089962Y-65458349D01*
X89069750Y-65465581D01*
X89048926Y-65470797D01*
X89027691Y-65473947D01*
X89006250Y-65475000D01*
X88568750Y-65475000D01*
X88547309Y-65473947D01*
X88526074Y-65470797D01*
X88505250Y-65465581D01*
X88485038Y-65458349D01*
X88465632Y-65449170D01*
X88447219Y-65438134D01*
X88429976Y-65425346D01*
X88414070Y-65410930D01*
X88399654Y-65395024D01*
X88386866Y-65377781D01*
X88375830Y-65359368D01*
X88366651Y-65339962D01*
X88359419Y-65319750D01*
X88354203Y-65298926D01*
X88351053Y-65277691D01*
X88350000Y-65256250D01*
X88350000Y-64743750D01*
X88351053Y-64722309D01*
X88354203Y-64701074D01*
X88359419Y-64680250D01*
X88366651Y-64660038D01*
X88375830Y-64640632D01*
X88386866Y-64622219D01*
X88399654Y-64604976D01*
X88414070Y-64589070D01*
X88429976Y-64574654D01*
X88447219Y-64561866D01*
X88465632Y-64550830D01*
X88485038Y-64541651D01*
X88505250Y-64534419D01*
X88526074Y-64529203D01*
X88547309Y-64526053D01*
X88568750Y-64525000D01*
X89006250Y-64525000D01*
X89027691Y-64526053D01*
G37*
G36*
X87452691Y-64526053D02*
G01*
X87473926Y-64529203D01*
X87494750Y-64534419D01*
X87514962Y-64541651D01*
X87534368Y-64550830D01*
X87552781Y-64561866D01*
X87570024Y-64574654D01*
X87585930Y-64589070D01*
X87600346Y-64604976D01*
X87613134Y-64622219D01*
X87624170Y-64640632D01*
X87633349Y-64660038D01*
X87640581Y-64680250D01*
X87645797Y-64701074D01*
X87648947Y-64722309D01*
X87650000Y-64743750D01*
X87650000Y-65256250D01*
X87648947Y-65277691D01*
X87645797Y-65298926D01*
X87640581Y-65319750D01*
X87633349Y-65339962D01*
X87624170Y-65359368D01*
X87613134Y-65377781D01*
X87600346Y-65395024D01*
X87585930Y-65410930D01*
X87570024Y-65425346D01*
X87552781Y-65438134D01*
X87534368Y-65449170D01*
X87514962Y-65458349D01*
X87494750Y-65465581D01*
X87473926Y-65470797D01*
X87452691Y-65473947D01*
X87431250Y-65475000D01*
X86993750Y-65475000D01*
X86972309Y-65473947D01*
X86951074Y-65470797D01*
X86930250Y-65465581D01*
X86910038Y-65458349D01*
X86890632Y-65449170D01*
X86872219Y-65438134D01*
X86854976Y-65425346D01*
X86839070Y-65410930D01*
X86824654Y-65395024D01*
X86811866Y-65377781D01*
X86800830Y-65359368D01*
X86791651Y-65339962D01*
X86784419Y-65319750D01*
X86779203Y-65298926D01*
X86776053Y-65277691D01*
X86775000Y-65256250D01*
X86775000Y-64743750D01*
X86776053Y-64722309D01*
X86779203Y-64701074D01*
X86784419Y-64680250D01*
X86791651Y-64660038D01*
X86800830Y-64640632D01*
X86811866Y-64622219D01*
X86824654Y-64604976D01*
X86839070Y-64589070D01*
X86854976Y-64574654D01*
X86872219Y-64561866D01*
X86890632Y-64550830D01*
X86910038Y-64541651D01*
X86930250Y-64534419D01*
X86951074Y-64529203D01*
X86972309Y-64526053D01*
X86993750Y-64525000D01*
X87431250Y-64525000D01*
X87452691Y-64526053D01*
G37*
G36*
X104180191Y-79986053D02*
G01*
X104201426Y-79989203D01*
X104222250Y-79994419D01*
X104242462Y-80001651D01*
X104261868Y-80010830D01*
X104280281Y-80021866D01*
X104297524Y-80034654D01*
X104313430Y-80049070D01*
X104327846Y-80064976D01*
X104340634Y-80082219D01*
X104351670Y-80100632D01*
X104360849Y-80120038D01*
X104368081Y-80140250D01*
X104373297Y-80161074D01*
X104376447Y-80182309D01*
X104377500Y-80203750D01*
X104377500Y-80716250D01*
X104376447Y-80737691D01*
X104373297Y-80758926D01*
X104368081Y-80779750D01*
X104360849Y-80799962D01*
X104351670Y-80819368D01*
X104340634Y-80837781D01*
X104327846Y-80855024D01*
X104313430Y-80870930D01*
X104297524Y-80885346D01*
X104280281Y-80898134D01*
X104261868Y-80909170D01*
X104242462Y-80918349D01*
X104222250Y-80925581D01*
X104201426Y-80930797D01*
X104180191Y-80933947D01*
X104158750Y-80935000D01*
X103721250Y-80935000D01*
X103699809Y-80933947D01*
X103678574Y-80930797D01*
X103657750Y-80925581D01*
X103637538Y-80918349D01*
X103618132Y-80909170D01*
X103599719Y-80898134D01*
X103582476Y-80885346D01*
X103566570Y-80870930D01*
X103552154Y-80855024D01*
X103539366Y-80837781D01*
X103528330Y-80819368D01*
X103519151Y-80799962D01*
X103511919Y-80779750D01*
X103506703Y-80758926D01*
X103503553Y-80737691D01*
X103502500Y-80716250D01*
X103502500Y-80203750D01*
X103503553Y-80182309D01*
X103506703Y-80161074D01*
X103511919Y-80140250D01*
X103519151Y-80120038D01*
X103528330Y-80100632D01*
X103539366Y-80082219D01*
X103552154Y-80064976D01*
X103566570Y-80049070D01*
X103582476Y-80034654D01*
X103599719Y-80021866D01*
X103618132Y-80010830D01*
X103637538Y-80001651D01*
X103657750Y-79994419D01*
X103678574Y-79989203D01*
X103699809Y-79986053D01*
X103721250Y-79985000D01*
X104158750Y-79985000D01*
X104180191Y-79986053D01*
G37*
G36*
X105755191Y-79986053D02*
G01*
X105776426Y-79989203D01*
X105797250Y-79994419D01*
X105817462Y-80001651D01*
X105836868Y-80010830D01*
X105855281Y-80021866D01*
X105872524Y-80034654D01*
X105888430Y-80049070D01*
X105902846Y-80064976D01*
X105915634Y-80082219D01*
X105926670Y-80100632D01*
X105935849Y-80120038D01*
X105943081Y-80140250D01*
X105948297Y-80161074D01*
X105951447Y-80182309D01*
X105952500Y-80203750D01*
X105952500Y-80716250D01*
X105951447Y-80737691D01*
X105948297Y-80758926D01*
X105943081Y-80779750D01*
X105935849Y-80799962D01*
X105926670Y-80819368D01*
X105915634Y-80837781D01*
X105902846Y-80855024D01*
X105888430Y-80870930D01*
X105872524Y-80885346D01*
X105855281Y-80898134D01*
X105836868Y-80909170D01*
X105817462Y-80918349D01*
X105797250Y-80925581D01*
X105776426Y-80930797D01*
X105755191Y-80933947D01*
X105733750Y-80935000D01*
X105296250Y-80935000D01*
X105274809Y-80933947D01*
X105253574Y-80930797D01*
X105232750Y-80925581D01*
X105212538Y-80918349D01*
X105193132Y-80909170D01*
X105174719Y-80898134D01*
X105157476Y-80885346D01*
X105141570Y-80870930D01*
X105127154Y-80855024D01*
X105114366Y-80837781D01*
X105103330Y-80819368D01*
X105094151Y-80799962D01*
X105086919Y-80779750D01*
X105081703Y-80758926D01*
X105078553Y-80737691D01*
X105077500Y-80716250D01*
X105077500Y-80203750D01*
X105078553Y-80182309D01*
X105081703Y-80161074D01*
X105086919Y-80140250D01*
X105094151Y-80120038D01*
X105103330Y-80100632D01*
X105114366Y-80082219D01*
X105127154Y-80064976D01*
X105141570Y-80049070D01*
X105157476Y-80034654D01*
X105174719Y-80021866D01*
X105193132Y-80010830D01*
X105212538Y-80001651D01*
X105232750Y-79994419D01*
X105253574Y-79989203D01*
X105274809Y-79986053D01*
X105296250Y-79985000D01*
X105733750Y-79985000D01*
X105755191Y-79986053D01*
G37*
G36*
X106252691Y-74756053D02*
G01*
X106273926Y-74759203D01*
X106294750Y-74764419D01*
X106314962Y-74771651D01*
X106334368Y-74780830D01*
X106352781Y-74791866D01*
X106370024Y-74804654D01*
X106385930Y-74819070D01*
X106400346Y-74834976D01*
X106413134Y-74852219D01*
X106424170Y-74870632D01*
X106433349Y-74890038D01*
X106440581Y-74910250D01*
X106445797Y-74931074D01*
X106448947Y-74952309D01*
X106450000Y-74973750D01*
X106450000Y-75486250D01*
X106448947Y-75507691D01*
X106445797Y-75528926D01*
X106440581Y-75549750D01*
X106433349Y-75569962D01*
X106424170Y-75589368D01*
X106413134Y-75607781D01*
X106400346Y-75625024D01*
X106385930Y-75640930D01*
X106370024Y-75655346D01*
X106352781Y-75668134D01*
X106334368Y-75679170D01*
X106314962Y-75688349D01*
X106294750Y-75695581D01*
X106273926Y-75700797D01*
X106252691Y-75703947D01*
X106231250Y-75705000D01*
X105793750Y-75705000D01*
X105772309Y-75703947D01*
X105751074Y-75700797D01*
X105730250Y-75695581D01*
X105710038Y-75688349D01*
X105690632Y-75679170D01*
X105672219Y-75668134D01*
X105654976Y-75655346D01*
X105639070Y-75640930D01*
X105624654Y-75625024D01*
X105611866Y-75607781D01*
X105600830Y-75589368D01*
X105591651Y-75569962D01*
X105584419Y-75549750D01*
X105579203Y-75528926D01*
X105576053Y-75507691D01*
X105575000Y-75486250D01*
X105575000Y-74973750D01*
X105576053Y-74952309D01*
X105579203Y-74931074D01*
X105584419Y-74910250D01*
X105591651Y-74890038D01*
X105600830Y-74870632D01*
X105611866Y-74852219D01*
X105624654Y-74834976D01*
X105639070Y-74819070D01*
X105654976Y-74804654D01*
X105672219Y-74791866D01*
X105690632Y-74780830D01*
X105710038Y-74771651D01*
X105730250Y-74764419D01*
X105751074Y-74759203D01*
X105772309Y-74756053D01*
X105793750Y-74755000D01*
X106231250Y-74755000D01*
X106252691Y-74756053D01*
G37*
G36*
X107827691Y-74756053D02*
G01*
X107848926Y-74759203D01*
X107869750Y-74764419D01*
X107889962Y-74771651D01*
X107909368Y-74780830D01*
X107927781Y-74791866D01*
X107945024Y-74804654D01*
X107960930Y-74819070D01*
X107975346Y-74834976D01*
X107988134Y-74852219D01*
X107999170Y-74870632D01*
X108008349Y-74890038D01*
X108015581Y-74910250D01*
X108020797Y-74931074D01*
X108023947Y-74952309D01*
X108025000Y-74973750D01*
X108025000Y-75486250D01*
X108023947Y-75507691D01*
X108020797Y-75528926D01*
X108015581Y-75549750D01*
X108008349Y-75569962D01*
X107999170Y-75589368D01*
X107988134Y-75607781D01*
X107975346Y-75625024D01*
X107960930Y-75640930D01*
X107945024Y-75655346D01*
X107927781Y-75668134D01*
X107909368Y-75679170D01*
X107889962Y-75688349D01*
X107869750Y-75695581D01*
X107848926Y-75700797D01*
X107827691Y-75703947D01*
X107806250Y-75705000D01*
X107368750Y-75705000D01*
X107347309Y-75703947D01*
X107326074Y-75700797D01*
X107305250Y-75695581D01*
X107285038Y-75688349D01*
X107265632Y-75679170D01*
X107247219Y-75668134D01*
X107229976Y-75655346D01*
X107214070Y-75640930D01*
X107199654Y-75625024D01*
X107186866Y-75607781D01*
X107175830Y-75589368D01*
X107166651Y-75569962D01*
X107159419Y-75549750D01*
X107154203Y-75528926D01*
X107151053Y-75507691D01*
X107150000Y-75486250D01*
X107150000Y-74973750D01*
X107151053Y-74952309D01*
X107154203Y-74931074D01*
X107159419Y-74910250D01*
X107166651Y-74890038D01*
X107175830Y-74870632D01*
X107186866Y-74852219D01*
X107199654Y-74834976D01*
X107214070Y-74819070D01*
X107229976Y-74804654D01*
X107247219Y-74791866D01*
X107265632Y-74780830D01*
X107285038Y-74771651D01*
X107305250Y-74764419D01*
X107326074Y-74759203D01*
X107347309Y-74756053D01*
X107368750Y-74755000D01*
X107806250Y-74755000D01*
X107827691Y-74756053D01*
G37*
G36*
X106252691Y-77711053D02*
G01*
X106273926Y-77714203D01*
X106294750Y-77719419D01*
X106314962Y-77726651D01*
X106334368Y-77735830D01*
X106352781Y-77746866D01*
X106370024Y-77759654D01*
X106385930Y-77774070D01*
X106400346Y-77789976D01*
X106413134Y-77807219D01*
X106424170Y-77825632D01*
X106433349Y-77845038D01*
X106440581Y-77865250D01*
X106445797Y-77886074D01*
X106448947Y-77907309D01*
X106450000Y-77928750D01*
X106450000Y-78441250D01*
X106448947Y-78462691D01*
X106445797Y-78483926D01*
X106440581Y-78504750D01*
X106433349Y-78524962D01*
X106424170Y-78544368D01*
X106413134Y-78562781D01*
X106400346Y-78580024D01*
X106385930Y-78595930D01*
X106370024Y-78610346D01*
X106352781Y-78623134D01*
X106334368Y-78634170D01*
X106314962Y-78643349D01*
X106294750Y-78650581D01*
X106273926Y-78655797D01*
X106252691Y-78658947D01*
X106231250Y-78660000D01*
X105793750Y-78660000D01*
X105772309Y-78658947D01*
X105751074Y-78655797D01*
X105730250Y-78650581D01*
X105710038Y-78643349D01*
X105690632Y-78634170D01*
X105672219Y-78623134D01*
X105654976Y-78610346D01*
X105639070Y-78595930D01*
X105624654Y-78580024D01*
X105611866Y-78562781D01*
X105600830Y-78544368D01*
X105591651Y-78524962D01*
X105584419Y-78504750D01*
X105579203Y-78483926D01*
X105576053Y-78462691D01*
X105575000Y-78441250D01*
X105575000Y-77928750D01*
X105576053Y-77907309D01*
X105579203Y-77886074D01*
X105584419Y-77865250D01*
X105591651Y-77845038D01*
X105600830Y-77825632D01*
X105611866Y-77807219D01*
X105624654Y-77789976D01*
X105639070Y-77774070D01*
X105654976Y-77759654D01*
X105672219Y-77746866D01*
X105690632Y-77735830D01*
X105710038Y-77726651D01*
X105730250Y-77719419D01*
X105751074Y-77714203D01*
X105772309Y-77711053D01*
X105793750Y-77710000D01*
X106231250Y-77710000D01*
X106252691Y-77711053D01*
G37*
G36*
X107827691Y-77711053D02*
G01*
X107848926Y-77714203D01*
X107869750Y-77719419D01*
X107889962Y-77726651D01*
X107909368Y-77735830D01*
X107927781Y-77746866D01*
X107945024Y-77759654D01*
X107960930Y-77774070D01*
X107975346Y-77789976D01*
X107988134Y-77807219D01*
X107999170Y-77825632D01*
X108008349Y-77845038D01*
X108015581Y-77865250D01*
X108020797Y-77886074D01*
X108023947Y-77907309D01*
X108025000Y-77928750D01*
X108025000Y-78441250D01*
X108023947Y-78462691D01*
X108020797Y-78483926D01*
X108015581Y-78504750D01*
X108008349Y-78524962D01*
X107999170Y-78544368D01*
X107988134Y-78562781D01*
X107975346Y-78580024D01*
X107960930Y-78595930D01*
X107945024Y-78610346D01*
X107927781Y-78623134D01*
X107909368Y-78634170D01*
X107889962Y-78643349D01*
X107869750Y-78650581D01*
X107848926Y-78655797D01*
X107827691Y-78658947D01*
X107806250Y-78660000D01*
X107368750Y-78660000D01*
X107347309Y-78658947D01*
X107326074Y-78655797D01*
X107305250Y-78650581D01*
X107285038Y-78643349D01*
X107265632Y-78634170D01*
X107247219Y-78623134D01*
X107229976Y-78610346D01*
X107214070Y-78595930D01*
X107199654Y-78580024D01*
X107186866Y-78562781D01*
X107175830Y-78544368D01*
X107166651Y-78524962D01*
X107159419Y-78504750D01*
X107154203Y-78483926D01*
X107151053Y-78462691D01*
X107150000Y-78441250D01*
X107150000Y-77928750D01*
X107151053Y-77907309D01*
X107154203Y-77886074D01*
X107159419Y-77865250D01*
X107166651Y-77845038D01*
X107175830Y-77825632D01*
X107186866Y-77807219D01*
X107199654Y-77789976D01*
X107214070Y-77774070D01*
X107229976Y-77759654D01*
X107247219Y-77746866D01*
X107265632Y-77735830D01*
X107285038Y-77726651D01*
X107305250Y-77719419D01*
X107326074Y-77714203D01*
X107347309Y-77711053D01*
X107368750Y-77710000D01*
X107806250Y-77710000D01*
X107827691Y-77711053D01*
G37*
G36*
X104277691Y-104988553D02*
G01*
X104298926Y-104991703D01*
X104319750Y-104996919D01*
X104339962Y-105004151D01*
X104359368Y-105013330D01*
X104377781Y-105024366D01*
X104395024Y-105037154D01*
X104410930Y-105051570D01*
X104425346Y-105067476D01*
X104438134Y-105084719D01*
X104449170Y-105103132D01*
X104458349Y-105122538D01*
X104465581Y-105142750D01*
X104470797Y-105163574D01*
X104473947Y-105184809D01*
X104475000Y-105206250D01*
X104475000Y-105643750D01*
X104473947Y-105665191D01*
X104470797Y-105686426D01*
X104465581Y-105707250D01*
X104458349Y-105727462D01*
X104449170Y-105746868D01*
X104438134Y-105765281D01*
X104425346Y-105782524D01*
X104410930Y-105798430D01*
X104395024Y-105812846D01*
X104377781Y-105825634D01*
X104359368Y-105836670D01*
X104339962Y-105845849D01*
X104319750Y-105853081D01*
X104298926Y-105858297D01*
X104277691Y-105861447D01*
X104256250Y-105862500D01*
X103743750Y-105862500D01*
X103722309Y-105861447D01*
X103701074Y-105858297D01*
X103680250Y-105853081D01*
X103660038Y-105845849D01*
X103640632Y-105836670D01*
X103622219Y-105825634D01*
X103604976Y-105812846D01*
X103589070Y-105798430D01*
X103574654Y-105782524D01*
X103561866Y-105765281D01*
X103550830Y-105746868D01*
X103541651Y-105727462D01*
X103534419Y-105707250D01*
X103529203Y-105686426D01*
X103526053Y-105665191D01*
X103525000Y-105643750D01*
X103525000Y-105206250D01*
X103526053Y-105184809D01*
X103529203Y-105163574D01*
X103534419Y-105142750D01*
X103541651Y-105122538D01*
X103550830Y-105103132D01*
X103561866Y-105084719D01*
X103574654Y-105067476D01*
X103589070Y-105051570D01*
X103604976Y-105037154D01*
X103622219Y-105024366D01*
X103640632Y-105013330D01*
X103660038Y-105004151D01*
X103680250Y-104996919D01*
X103701074Y-104991703D01*
X103722309Y-104988553D01*
X103743750Y-104987500D01*
X104256250Y-104987500D01*
X104277691Y-104988553D01*
G37*
G36*
X104277691Y-106563553D02*
G01*
X104298926Y-106566703D01*
X104319750Y-106571919D01*
X104339962Y-106579151D01*
X104359368Y-106588330D01*
X104377781Y-106599366D01*
X104395024Y-106612154D01*
X104410930Y-106626570D01*
X104425346Y-106642476D01*
X104438134Y-106659719D01*
X104449170Y-106678132D01*
X104458349Y-106697538D01*
X104465581Y-106717750D01*
X104470797Y-106738574D01*
X104473947Y-106759809D01*
X104475000Y-106781250D01*
X104475000Y-107218750D01*
X104473947Y-107240191D01*
X104470797Y-107261426D01*
X104465581Y-107282250D01*
X104458349Y-107302462D01*
X104449170Y-107321868D01*
X104438134Y-107340281D01*
X104425346Y-107357524D01*
X104410930Y-107373430D01*
X104395024Y-107387846D01*
X104377781Y-107400634D01*
X104359368Y-107411670D01*
X104339962Y-107420849D01*
X104319750Y-107428081D01*
X104298926Y-107433297D01*
X104277691Y-107436447D01*
X104256250Y-107437500D01*
X103743750Y-107437500D01*
X103722309Y-107436447D01*
X103701074Y-107433297D01*
X103680250Y-107428081D01*
X103660038Y-107420849D01*
X103640632Y-107411670D01*
X103622219Y-107400634D01*
X103604976Y-107387846D01*
X103589070Y-107373430D01*
X103574654Y-107357524D01*
X103561866Y-107340281D01*
X103550830Y-107321868D01*
X103541651Y-107302462D01*
X103534419Y-107282250D01*
X103529203Y-107261426D01*
X103526053Y-107240191D01*
X103525000Y-107218750D01*
X103525000Y-106781250D01*
X103526053Y-106759809D01*
X103529203Y-106738574D01*
X103534419Y-106717750D01*
X103541651Y-106697538D01*
X103550830Y-106678132D01*
X103561866Y-106659719D01*
X103574654Y-106642476D01*
X103589070Y-106626570D01*
X103604976Y-106612154D01*
X103622219Y-106599366D01*
X103640632Y-106588330D01*
X103660038Y-106579151D01*
X103680250Y-106571919D01*
X103701074Y-106566703D01*
X103722309Y-106563553D01*
X103743750Y-106562500D01*
X104256250Y-106562500D01*
X104277691Y-106563553D01*
G37*
G36*
X97815191Y-82526053D02*
G01*
X97836426Y-82529203D01*
X97857250Y-82534419D01*
X97877462Y-82541651D01*
X97896868Y-82550830D01*
X97915281Y-82561866D01*
X97932524Y-82574654D01*
X97948430Y-82589070D01*
X97962846Y-82604976D01*
X97975634Y-82622219D01*
X97986670Y-82640632D01*
X97995849Y-82660038D01*
X98003081Y-82680250D01*
X98008297Y-82701074D01*
X98011447Y-82722309D01*
X98012500Y-82743750D01*
X98012500Y-83256250D01*
X98011447Y-83277691D01*
X98008297Y-83298926D01*
X98003081Y-83319750D01*
X97995849Y-83339962D01*
X97986670Y-83359368D01*
X97975634Y-83377781D01*
X97962846Y-83395024D01*
X97948430Y-83410930D01*
X97932524Y-83425346D01*
X97915281Y-83438134D01*
X97896868Y-83449170D01*
X97877462Y-83458349D01*
X97857250Y-83465581D01*
X97836426Y-83470797D01*
X97815191Y-83473947D01*
X97793750Y-83475000D01*
X97356250Y-83475000D01*
X97334809Y-83473947D01*
X97313574Y-83470797D01*
X97292750Y-83465581D01*
X97272538Y-83458349D01*
X97253132Y-83449170D01*
X97234719Y-83438134D01*
X97217476Y-83425346D01*
X97201570Y-83410930D01*
X97187154Y-83395024D01*
X97174366Y-83377781D01*
X97163330Y-83359368D01*
X97154151Y-83339962D01*
X97146919Y-83319750D01*
X97141703Y-83298926D01*
X97138553Y-83277691D01*
X97137500Y-83256250D01*
X97137500Y-82743750D01*
X97138553Y-82722309D01*
X97141703Y-82701074D01*
X97146919Y-82680250D01*
X97154151Y-82660038D01*
X97163330Y-82640632D01*
X97174366Y-82622219D01*
X97187154Y-82604976D01*
X97201570Y-82589070D01*
X97217476Y-82574654D01*
X97234719Y-82561866D01*
X97253132Y-82550830D01*
X97272538Y-82541651D01*
X97292750Y-82534419D01*
X97313574Y-82529203D01*
X97334809Y-82526053D01*
X97356250Y-82525000D01*
X97793750Y-82525000D01*
X97815191Y-82526053D01*
G37*
G36*
X96240191Y-82526053D02*
G01*
X96261426Y-82529203D01*
X96282250Y-82534419D01*
X96302462Y-82541651D01*
X96321868Y-82550830D01*
X96340281Y-82561866D01*
X96357524Y-82574654D01*
X96373430Y-82589070D01*
X96387846Y-82604976D01*
X96400634Y-82622219D01*
X96411670Y-82640632D01*
X96420849Y-82660038D01*
X96428081Y-82680250D01*
X96433297Y-82701074D01*
X96436447Y-82722309D01*
X96437500Y-82743750D01*
X96437500Y-83256250D01*
X96436447Y-83277691D01*
X96433297Y-83298926D01*
X96428081Y-83319750D01*
X96420849Y-83339962D01*
X96411670Y-83359368D01*
X96400634Y-83377781D01*
X96387846Y-83395024D01*
X96373430Y-83410930D01*
X96357524Y-83425346D01*
X96340281Y-83438134D01*
X96321868Y-83449170D01*
X96302462Y-83458349D01*
X96282250Y-83465581D01*
X96261426Y-83470797D01*
X96240191Y-83473947D01*
X96218750Y-83475000D01*
X95781250Y-83475000D01*
X95759809Y-83473947D01*
X95738574Y-83470797D01*
X95717750Y-83465581D01*
X95697538Y-83458349D01*
X95678132Y-83449170D01*
X95659719Y-83438134D01*
X95642476Y-83425346D01*
X95626570Y-83410930D01*
X95612154Y-83395024D01*
X95599366Y-83377781D01*
X95588330Y-83359368D01*
X95579151Y-83339962D01*
X95571919Y-83319750D01*
X95566703Y-83298926D01*
X95563553Y-83277691D01*
X95562500Y-83256250D01*
X95562500Y-82743750D01*
X95563553Y-82722309D01*
X95566703Y-82701074D01*
X95571919Y-82680250D01*
X95579151Y-82660038D01*
X95588330Y-82640632D01*
X95599366Y-82622219D01*
X95612154Y-82604976D01*
X95626570Y-82589070D01*
X95642476Y-82574654D01*
X95659719Y-82561866D01*
X95678132Y-82550830D01*
X95697538Y-82541651D01*
X95717750Y-82534419D01*
X95738574Y-82529203D01*
X95759809Y-82526053D01*
X95781250Y-82525000D01*
X96218750Y-82525000D01*
X96240191Y-82526053D01*
G37*
G36*
X96240191Y-85526053D02*
G01*
X96261426Y-85529203D01*
X96282250Y-85534419D01*
X96302462Y-85541651D01*
X96321868Y-85550830D01*
X96340281Y-85561866D01*
X96357524Y-85574654D01*
X96373430Y-85589070D01*
X96387846Y-85604976D01*
X96400634Y-85622219D01*
X96411670Y-85640632D01*
X96420849Y-85660038D01*
X96428081Y-85680250D01*
X96433297Y-85701074D01*
X96436447Y-85722309D01*
X96437500Y-85743750D01*
X96437500Y-86256250D01*
X96436447Y-86277691D01*
X96433297Y-86298926D01*
X96428081Y-86319750D01*
X96420849Y-86339962D01*
X96411670Y-86359368D01*
X96400634Y-86377781D01*
X96387846Y-86395024D01*
X96373430Y-86410930D01*
X96357524Y-86425346D01*
X96340281Y-86438134D01*
X96321868Y-86449170D01*
X96302462Y-86458349D01*
X96282250Y-86465581D01*
X96261426Y-86470797D01*
X96240191Y-86473947D01*
X96218750Y-86475000D01*
X95781250Y-86475000D01*
X95759809Y-86473947D01*
X95738574Y-86470797D01*
X95717750Y-86465581D01*
X95697538Y-86458349D01*
X95678132Y-86449170D01*
X95659719Y-86438134D01*
X95642476Y-86425346D01*
X95626570Y-86410930D01*
X95612154Y-86395024D01*
X95599366Y-86377781D01*
X95588330Y-86359368D01*
X95579151Y-86339962D01*
X95571919Y-86319750D01*
X95566703Y-86298926D01*
X95563553Y-86277691D01*
X95562500Y-86256250D01*
X95562500Y-85743750D01*
X95563553Y-85722309D01*
X95566703Y-85701074D01*
X95571919Y-85680250D01*
X95579151Y-85660038D01*
X95588330Y-85640632D01*
X95599366Y-85622219D01*
X95612154Y-85604976D01*
X95626570Y-85589070D01*
X95642476Y-85574654D01*
X95659719Y-85561866D01*
X95678132Y-85550830D01*
X95697538Y-85541651D01*
X95717750Y-85534419D01*
X95738574Y-85529203D01*
X95759809Y-85526053D01*
X95781250Y-85525000D01*
X96218750Y-85525000D01*
X96240191Y-85526053D01*
G37*
G36*
X97815191Y-85526053D02*
G01*
X97836426Y-85529203D01*
X97857250Y-85534419D01*
X97877462Y-85541651D01*
X97896868Y-85550830D01*
X97915281Y-85561866D01*
X97932524Y-85574654D01*
X97948430Y-85589070D01*
X97962846Y-85604976D01*
X97975634Y-85622219D01*
X97986670Y-85640632D01*
X97995849Y-85660038D01*
X98003081Y-85680250D01*
X98008297Y-85701074D01*
X98011447Y-85722309D01*
X98012500Y-85743750D01*
X98012500Y-86256250D01*
X98011447Y-86277691D01*
X98008297Y-86298926D01*
X98003081Y-86319750D01*
X97995849Y-86339962D01*
X97986670Y-86359368D01*
X97975634Y-86377781D01*
X97962846Y-86395024D01*
X97948430Y-86410930D01*
X97932524Y-86425346D01*
X97915281Y-86438134D01*
X97896868Y-86449170D01*
X97877462Y-86458349D01*
X97857250Y-86465581D01*
X97836426Y-86470797D01*
X97815191Y-86473947D01*
X97793750Y-86475000D01*
X97356250Y-86475000D01*
X97334809Y-86473947D01*
X97313574Y-86470797D01*
X97292750Y-86465581D01*
X97272538Y-86458349D01*
X97253132Y-86449170D01*
X97234719Y-86438134D01*
X97217476Y-86425346D01*
X97201570Y-86410930D01*
X97187154Y-86395024D01*
X97174366Y-86377781D01*
X97163330Y-86359368D01*
X97154151Y-86339962D01*
X97146919Y-86319750D01*
X97141703Y-86298926D01*
X97138553Y-86277691D01*
X97137500Y-86256250D01*
X97137500Y-85743750D01*
X97138553Y-85722309D01*
X97141703Y-85701074D01*
X97146919Y-85680250D01*
X97154151Y-85660038D01*
X97163330Y-85640632D01*
X97174366Y-85622219D01*
X97187154Y-85604976D01*
X97201570Y-85589070D01*
X97217476Y-85574654D01*
X97234719Y-85561866D01*
X97253132Y-85550830D01*
X97272538Y-85541651D01*
X97292750Y-85534419D01*
X97313574Y-85529203D01*
X97334809Y-85526053D01*
X97356250Y-85525000D01*
X97793750Y-85525000D01*
X97815191Y-85526053D01*
G37*
D15*
X92110000Y-75450000D03*
X93060000Y-77450000D03*
X91160000Y-77450000D03*
D16*
X82450000Y-78410000D03*
X87900000Y-78410000D03*
X82450000Y-69510000D03*
X87900000Y-69510000D03*
D17*
X88000000Y-75560000D03*
X88000000Y-74760000D03*
X88000000Y-73960000D03*
X88000000Y-73160000D03*
X88000000Y-72360000D03*
D10*
G36*
X92350191Y-71886053D02*
G01*
X92371426Y-71889203D01*
X92392250Y-71894419D01*
X92412462Y-71901651D01*
X92431868Y-71910830D01*
X92450281Y-71921866D01*
X92467524Y-71934654D01*
X92483430Y-71949070D01*
X92497846Y-71964976D01*
X92510634Y-71982219D01*
X92521670Y-72000632D01*
X92530849Y-72020038D01*
X92538081Y-72040250D01*
X92543297Y-72061074D01*
X92546447Y-72082309D01*
X92547500Y-72103750D01*
X92547500Y-72616250D01*
X92546447Y-72637691D01*
X92543297Y-72658926D01*
X92538081Y-72679750D01*
X92530849Y-72699962D01*
X92521670Y-72719368D01*
X92510634Y-72737781D01*
X92497846Y-72755024D01*
X92483430Y-72770930D01*
X92467524Y-72785346D01*
X92450281Y-72798134D01*
X92431868Y-72809170D01*
X92412462Y-72818349D01*
X92392250Y-72825581D01*
X92371426Y-72830797D01*
X92350191Y-72833947D01*
X92328750Y-72835000D01*
X91891250Y-72835000D01*
X91869809Y-72833947D01*
X91848574Y-72830797D01*
X91827750Y-72825581D01*
X91807538Y-72818349D01*
X91788132Y-72809170D01*
X91769719Y-72798134D01*
X91752476Y-72785346D01*
X91736570Y-72770930D01*
X91722154Y-72755024D01*
X91709366Y-72737781D01*
X91698330Y-72719368D01*
X91689151Y-72699962D01*
X91681919Y-72679750D01*
X91676703Y-72658926D01*
X91673553Y-72637691D01*
X91672500Y-72616250D01*
X91672500Y-72103750D01*
X91673553Y-72082309D01*
X91676703Y-72061074D01*
X91681919Y-72040250D01*
X91689151Y-72020038D01*
X91698330Y-72000632D01*
X91709366Y-71982219D01*
X91722154Y-71964976D01*
X91736570Y-71949070D01*
X91752476Y-71934654D01*
X91769719Y-71921866D01*
X91788132Y-71910830D01*
X91807538Y-71901651D01*
X91827750Y-71894419D01*
X91848574Y-71889203D01*
X91869809Y-71886053D01*
X91891250Y-71885000D01*
X92328750Y-71885000D01*
X92350191Y-71886053D01*
G37*
G36*
X90775191Y-71886053D02*
G01*
X90796426Y-71889203D01*
X90817250Y-71894419D01*
X90837462Y-71901651D01*
X90856868Y-71910830D01*
X90875281Y-71921866D01*
X90892524Y-71934654D01*
X90908430Y-71949070D01*
X90922846Y-71964976D01*
X90935634Y-71982219D01*
X90946670Y-72000632D01*
X90955849Y-72020038D01*
X90963081Y-72040250D01*
X90968297Y-72061074D01*
X90971447Y-72082309D01*
X90972500Y-72103750D01*
X90972500Y-72616250D01*
X90971447Y-72637691D01*
X90968297Y-72658926D01*
X90963081Y-72679750D01*
X90955849Y-72699962D01*
X90946670Y-72719368D01*
X90935634Y-72737781D01*
X90922846Y-72755024D01*
X90908430Y-72770930D01*
X90892524Y-72785346D01*
X90875281Y-72798134D01*
X90856868Y-72809170D01*
X90837462Y-72818349D01*
X90817250Y-72825581D01*
X90796426Y-72830797D01*
X90775191Y-72833947D01*
X90753750Y-72835000D01*
X90316250Y-72835000D01*
X90294809Y-72833947D01*
X90273574Y-72830797D01*
X90252750Y-72825581D01*
X90232538Y-72818349D01*
X90213132Y-72809170D01*
X90194719Y-72798134D01*
X90177476Y-72785346D01*
X90161570Y-72770930D01*
X90147154Y-72755024D01*
X90134366Y-72737781D01*
X90123330Y-72719368D01*
X90114151Y-72699962D01*
X90106919Y-72679750D01*
X90101703Y-72658926D01*
X90098553Y-72637691D01*
X90097500Y-72616250D01*
X90097500Y-72103750D01*
X90098553Y-72082309D01*
X90101703Y-72061074D01*
X90106919Y-72040250D01*
X90114151Y-72020038D01*
X90123330Y-72000632D01*
X90134366Y-71982219D01*
X90147154Y-71964976D01*
X90161570Y-71949070D01*
X90177476Y-71934654D01*
X90194719Y-71921866D01*
X90213132Y-71910830D01*
X90232538Y-71901651D01*
X90252750Y-71894419D01*
X90273574Y-71889203D01*
X90294809Y-71886053D01*
X90316250Y-71885000D01*
X90753750Y-71885000D01*
X90775191Y-71886053D01*
G37*
G36*
X108360191Y-68736053D02*
G01*
X108381426Y-68739203D01*
X108402250Y-68744419D01*
X108422462Y-68751651D01*
X108441868Y-68760830D01*
X108460281Y-68771866D01*
X108477524Y-68784654D01*
X108493430Y-68799070D01*
X108507846Y-68814976D01*
X108520634Y-68832219D01*
X108531670Y-68850632D01*
X108540849Y-68870038D01*
X108548081Y-68890250D01*
X108553297Y-68911074D01*
X108556447Y-68932309D01*
X108557500Y-68953750D01*
X108557500Y-69466250D01*
X108556447Y-69487691D01*
X108553297Y-69508926D01*
X108548081Y-69529750D01*
X108540849Y-69549962D01*
X108531670Y-69569368D01*
X108520634Y-69587781D01*
X108507846Y-69605024D01*
X108493430Y-69620930D01*
X108477524Y-69635346D01*
X108460281Y-69648134D01*
X108441868Y-69659170D01*
X108422462Y-69668349D01*
X108402250Y-69675581D01*
X108381426Y-69680797D01*
X108360191Y-69683947D01*
X108338750Y-69685000D01*
X107901250Y-69685000D01*
X107879809Y-69683947D01*
X107858574Y-69680797D01*
X107837750Y-69675581D01*
X107817538Y-69668349D01*
X107798132Y-69659170D01*
X107779719Y-69648134D01*
X107762476Y-69635346D01*
X107746570Y-69620930D01*
X107732154Y-69605024D01*
X107719366Y-69587781D01*
X107708330Y-69569368D01*
X107699151Y-69549962D01*
X107691919Y-69529750D01*
X107686703Y-69508926D01*
X107683553Y-69487691D01*
X107682500Y-69466250D01*
X107682500Y-68953750D01*
X107683553Y-68932309D01*
X107686703Y-68911074D01*
X107691919Y-68890250D01*
X107699151Y-68870038D01*
X107708330Y-68850632D01*
X107719366Y-68832219D01*
X107732154Y-68814976D01*
X107746570Y-68799070D01*
X107762476Y-68784654D01*
X107779719Y-68771866D01*
X107798132Y-68760830D01*
X107817538Y-68751651D01*
X107837750Y-68744419D01*
X107858574Y-68739203D01*
X107879809Y-68736053D01*
X107901250Y-68735000D01*
X108338750Y-68735000D01*
X108360191Y-68736053D01*
G37*
G36*
X106785191Y-68736053D02*
G01*
X106806426Y-68739203D01*
X106827250Y-68744419D01*
X106847462Y-68751651D01*
X106866868Y-68760830D01*
X106885281Y-68771866D01*
X106902524Y-68784654D01*
X106918430Y-68799070D01*
X106932846Y-68814976D01*
X106945634Y-68832219D01*
X106956670Y-68850632D01*
X106965849Y-68870038D01*
X106973081Y-68890250D01*
X106978297Y-68911074D01*
X106981447Y-68932309D01*
X106982500Y-68953750D01*
X106982500Y-69466250D01*
X106981447Y-69487691D01*
X106978297Y-69508926D01*
X106973081Y-69529750D01*
X106965849Y-69549962D01*
X106956670Y-69569368D01*
X106945634Y-69587781D01*
X106932846Y-69605024D01*
X106918430Y-69620930D01*
X106902524Y-69635346D01*
X106885281Y-69648134D01*
X106866868Y-69659170D01*
X106847462Y-69668349D01*
X106827250Y-69675581D01*
X106806426Y-69680797D01*
X106785191Y-69683947D01*
X106763750Y-69685000D01*
X106326250Y-69685000D01*
X106304809Y-69683947D01*
X106283574Y-69680797D01*
X106262750Y-69675581D01*
X106242538Y-69668349D01*
X106223132Y-69659170D01*
X106204719Y-69648134D01*
X106187476Y-69635346D01*
X106171570Y-69620930D01*
X106157154Y-69605024D01*
X106144366Y-69587781D01*
X106133330Y-69569368D01*
X106124151Y-69549962D01*
X106116919Y-69529750D01*
X106111703Y-69508926D01*
X106108553Y-69487691D01*
X106107500Y-69466250D01*
X106107500Y-68953750D01*
X106108553Y-68932309D01*
X106111703Y-68911074D01*
X106116919Y-68890250D01*
X106124151Y-68870038D01*
X106133330Y-68850632D01*
X106144366Y-68832219D01*
X106157154Y-68814976D01*
X106171570Y-68799070D01*
X106187476Y-68784654D01*
X106204719Y-68771866D01*
X106223132Y-68760830D01*
X106242538Y-68751651D01*
X106262750Y-68744419D01*
X106283574Y-68739203D01*
X106304809Y-68736053D01*
X106326250Y-68735000D01*
X106763750Y-68735000D01*
X106785191Y-68736053D01*
G37*
G36*
X90952691Y-62026053D02*
G01*
X90973926Y-62029203D01*
X90994750Y-62034419D01*
X91014962Y-62041651D01*
X91034368Y-62050830D01*
X91052781Y-62061866D01*
X91070024Y-62074654D01*
X91085930Y-62089070D01*
X91100346Y-62104976D01*
X91113134Y-62122219D01*
X91124170Y-62140632D01*
X91133349Y-62160038D01*
X91140581Y-62180250D01*
X91145797Y-62201074D01*
X91148947Y-62222309D01*
X91150000Y-62243750D01*
X91150000Y-62756250D01*
X91148947Y-62777691D01*
X91145797Y-62798926D01*
X91140581Y-62819750D01*
X91133349Y-62839962D01*
X91124170Y-62859368D01*
X91113134Y-62877781D01*
X91100346Y-62895024D01*
X91085930Y-62910930D01*
X91070024Y-62925346D01*
X91052781Y-62938134D01*
X91034368Y-62949170D01*
X91014962Y-62958349D01*
X90994750Y-62965581D01*
X90973926Y-62970797D01*
X90952691Y-62973947D01*
X90931250Y-62975000D01*
X90493750Y-62975000D01*
X90472309Y-62973947D01*
X90451074Y-62970797D01*
X90430250Y-62965581D01*
X90410038Y-62958349D01*
X90390632Y-62949170D01*
X90372219Y-62938134D01*
X90354976Y-62925346D01*
X90339070Y-62910930D01*
X90324654Y-62895024D01*
X90311866Y-62877781D01*
X90300830Y-62859368D01*
X90291651Y-62839962D01*
X90284419Y-62819750D01*
X90279203Y-62798926D01*
X90276053Y-62777691D01*
X90275000Y-62756250D01*
X90275000Y-62243750D01*
X90276053Y-62222309D01*
X90279203Y-62201074D01*
X90284419Y-62180250D01*
X90291651Y-62160038D01*
X90300830Y-62140632D01*
X90311866Y-62122219D01*
X90324654Y-62104976D01*
X90339070Y-62089070D01*
X90354976Y-62074654D01*
X90372219Y-62061866D01*
X90390632Y-62050830D01*
X90410038Y-62041651D01*
X90430250Y-62034419D01*
X90451074Y-62029203D01*
X90472309Y-62026053D01*
X90493750Y-62025000D01*
X90931250Y-62025000D01*
X90952691Y-62026053D01*
G37*
G36*
X92527691Y-62026053D02*
G01*
X92548926Y-62029203D01*
X92569750Y-62034419D01*
X92589962Y-62041651D01*
X92609368Y-62050830D01*
X92627781Y-62061866D01*
X92645024Y-62074654D01*
X92660930Y-62089070D01*
X92675346Y-62104976D01*
X92688134Y-62122219D01*
X92699170Y-62140632D01*
X92708349Y-62160038D01*
X92715581Y-62180250D01*
X92720797Y-62201074D01*
X92723947Y-62222309D01*
X92725000Y-62243750D01*
X92725000Y-62756250D01*
X92723947Y-62777691D01*
X92720797Y-62798926D01*
X92715581Y-62819750D01*
X92708349Y-62839962D01*
X92699170Y-62859368D01*
X92688134Y-62877781D01*
X92675346Y-62895024D01*
X92660930Y-62910930D01*
X92645024Y-62925346D01*
X92627781Y-62938134D01*
X92609368Y-62949170D01*
X92589962Y-62958349D01*
X92569750Y-62965581D01*
X92548926Y-62970797D01*
X92527691Y-62973947D01*
X92506250Y-62975000D01*
X92068750Y-62975000D01*
X92047309Y-62973947D01*
X92026074Y-62970797D01*
X92005250Y-62965581D01*
X91985038Y-62958349D01*
X91965632Y-62949170D01*
X91947219Y-62938134D01*
X91929976Y-62925346D01*
X91914070Y-62910930D01*
X91899654Y-62895024D01*
X91886866Y-62877781D01*
X91875830Y-62859368D01*
X91866651Y-62839962D01*
X91859419Y-62819750D01*
X91854203Y-62798926D01*
X91851053Y-62777691D01*
X91850000Y-62756250D01*
X91850000Y-62243750D01*
X91851053Y-62222309D01*
X91854203Y-62201074D01*
X91859419Y-62180250D01*
X91866651Y-62160038D01*
X91875830Y-62140632D01*
X91886866Y-62122219D01*
X91899654Y-62104976D01*
X91914070Y-62089070D01*
X91929976Y-62074654D01*
X91947219Y-62061866D01*
X91965632Y-62050830D01*
X91985038Y-62041651D01*
X92005250Y-62034419D01*
X92026074Y-62029203D01*
X92047309Y-62026053D01*
X92068750Y-62025000D01*
X92506250Y-62025000D01*
X92527691Y-62026053D01*
G37*
G36*
X90952691Y-64526053D02*
G01*
X90973926Y-64529203D01*
X90994750Y-64534419D01*
X91014962Y-64541651D01*
X91034368Y-64550830D01*
X91052781Y-64561866D01*
X91070024Y-64574654D01*
X91085930Y-64589070D01*
X91100346Y-64604976D01*
X91113134Y-64622219D01*
X91124170Y-64640632D01*
X91133349Y-64660038D01*
X91140581Y-64680250D01*
X91145797Y-64701074D01*
X91148947Y-64722309D01*
X91150000Y-64743750D01*
X91150000Y-65256250D01*
X91148947Y-65277691D01*
X91145797Y-65298926D01*
X91140581Y-65319750D01*
X91133349Y-65339962D01*
X91124170Y-65359368D01*
X91113134Y-65377781D01*
X91100346Y-65395024D01*
X91085930Y-65410930D01*
X91070024Y-65425346D01*
X91052781Y-65438134D01*
X91034368Y-65449170D01*
X91014962Y-65458349D01*
X90994750Y-65465581D01*
X90973926Y-65470797D01*
X90952691Y-65473947D01*
X90931250Y-65475000D01*
X90493750Y-65475000D01*
X90472309Y-65473947D01*
X90451074Y-65470797D01*
X90430250Y-65465581D01*
X90410038Y-65458349D01*
X90390632Y-65449170D01*
X90372219Y-65438134D01*
X90354976Y-65425346D01*
X90339070Y-65410930D01*
X90324654Y-65395024D01*
X90311866Y-65377781D01*
X90300830Y-65359368D01*
X90291651Y-65339962D01*
X90284419Y-65319750D01*
X90279203Y-65298926D01*
X90276053Y-65277691D01*
X90275000Y-65256250D01*
X90275000Y-64743750D01*
X90276053Y-64722309D01*
X90279203Y-64701074D01*
X90284419Y-64680250D01*
X90291651Y-64660038D01*
X90300830Y-64640632D01*
X90311866Y-64622219D01*
X90324654Y-64604976D01*
X90339070Y-64589070D01*
X90354976Y-64574654D01*
X90372219Y-64561866D01*
X90390632Y-64550830D01*
X90410038Y-64541651D01*
X90430250Y-64534419D01*
X90451074Y-64529203D01*
X90472309Y-64526053D01*
X90493750Y-64525000D01*
X90931250Y-64525000D01*
X90952691Y-64526053D01*
G37*
G36*
X92527691Y-64526053D02*
G01*
X92548926Y-64529203D01*
X92569750Y-64534419D01*
X92589962Y-64541651D01*
X92609368Y-64550830D01*
X92627781Y-64561866D01*
X92645024Y-64574654D01*
X92660930Y-64589070D01*
X92675346Y-64604976D01*
X92688134Y-64622219D01*
X92699170Y-64640632D01*
X92708349Y-64660038D01*
X92715581Y-64680250D01*
X92720797Y-64701074D01*
X92723947Y-64722309D01*
X92725000Y-64743750D01*
X92725000Y-65256250D01*
X92723947Y-65277691D01*
X92720797Y-65298926D01*
X92715581Y-65319750D01*
X92708349Y-65339962D01*
X92699170Y-65359368D01*
X92688134Y-65377781D01*
X92675346Y-65395024D01*
X92660930Y-65410930D01*
X92645024Y-65425346D01*
X92627781Y-65438134D01*
X92609368Y-65449170D01*
X92589962Y-65458349D01*
X92569750Y-65465581D01*
X92548926Y-65470797D01*
X92527691Y-65473947D01*
X92506250Y-65475000D01*
X92068750Y-65475000D01*
X92047309Y-65473947D01*
X92026074Y-65470797D01*
X92005250Y-65465581D01*
X91985038Y-65458349D01*
X91965632Y-65449170D01*
X91947219Y-65438134D01*
X91929976Y-65425346D01*
X91914070Y-65410930D01*
X91899654Y-65395024D01*
X91886866Y-65377781D01*
X91875830Y-65359368D01*
X91866651Y-65339962D01*
X91859419Y-65319750D01*
X91854203Y-65298926D01*
X91851053Y-65277691D01*
X91850000Y-65256250D01*
X91850000Y-64743750D01*
X91851053Y-64722309D01*
X91854203Y-64701074D01*
X91859419Y-64680250D01*
X91866651Y-64660038D01*
X91875830Y-64640632D01*
X91886866Y-64622219D01*
X91899654Y-64604976D01*
X91914070Y-64589070D01*
X91929976Y-64574654D01*
X91947219Y-64561866D01*
X91965632Y-64550830D01*
X91985038Y-64541651D01*
X92005250Y-64534419D01*
X92026074Y-64529203D01*
X92047309Y-64526053D01*
X92068750Y-64525000D01*
X92506250Y-64525000D01*
X92527691Y-64526053D01*
G37*
G36*
X104277691Y-100563553D02*
G01*
X104298926Y-100566703D01*
X104319750Y-100571919D01*
X104339962Y-100579151D01*
X104359368Y-100588330D01*
X104377781Y-100599366D01*
X104395024Y-100612154D01*
X104410930Y-100626570D01*
X104425346Y-100642476D01*
X104438134Y-100659719D01*
X104449170Y-100678132D01*
X104458349Y-100697538D01*
X104465581Y-100717750D01*
X104470797Y-100738574D01*
X104473947Y-100759809D01*
X104475000Y-100781250D01*
X104475000Y-101218750D01*
X104473947Y-101240191D01*
X104470797Y-101261426D01*
X104465581Y-101282250D01*
X104458349Y-101302462D01*
X104449170Y-101321868D01*
X104438134Y-101340281D01*
X104425346Y-101357524D01*
X104410930Y-101373430D01*
X104395024Y-101387846D01*
X104377781Y-101400634D01*
X104359368Y-101411670D01*
X104339962Y-101420849D01*
X104319750Y-101428081D01*
X104298926Y-101433297D01*
X104277691Y-101436447D01*
X104256250Y-101437500D01*
X103743750Y-101437500D01*
X103722309Y-101436447D01*
X103701074Y-101433297D01*
X103680250Y-101428081D01*
X103660038Y-101420849D01*
X103640632Y-101411670D01*
X103622219Y-101400634D01*
X103604976Y-101387846D01*
X103589070Y-101373430D01*
X103574654Y-101357524D01*
X103561866Y-101340281D01*
X103550830Y-101321868D01*
X103541651Y-101302462D01*
X103534419Y-101282250D01*
X103529203Y-101261426D01*
X103526053Y-101240191D01*
X103525000Y-101218750D01*
X103525000Y-100781250D01*
X103526053Y-100759809D01*
X103529203Y-100738574D01*
X103534419Y-100717750D01*
X103541651Y-100697538D01*
X103550830Y-100678132D01*
X103561866Y-100659719D01*
X103574654Y-100642476D01*
X103589070Y-100626570D01*
X103604976Y-100612154D01*
X103622219Y-100599366D01*
X103640632Y-100588330D01*
X103660038Y-100579151D01*
X103680250Y-100571919D01*
X103701074Y-100566703D01*
X103722309Y-100563553D01*
X103743750Y-100562500D01*
X104256250Y-100562500D01*
X104277691Y-100563553D01*
G37*
G36*
X104277691Y-102138553D02*
G01*
X104298926Y-102141703D01*
X104319750Y-102146919D01*
X104339962Y-102154151D01*
X104359368Y-102163330D01*
X104377781Y-102174366D01*
X104395024Y-102187154D01*
X104410930Y-102201570D01*
X104425346Y-102217476D01*
X104438134Y-102234719D01*
X104449170Y-102253132D01*
X104458349Y-102272538D01*
X104465581Y-102292750D01*
X104470797Y-102313574D01*
X104473947Y-102334809D01*
X104475000Y-102356250D01*
X104475000Y-102793750D01*
X104473947Y-102815191D01*
X104470797Y-102836426D01*
X104465581Y-102857250D01*
X104458349Y-102877462D01*
X104449170Y-102896868D01*
X104438134Y-102915281D01*
X104425346Y-102932524D01*
X104410930Y-102948430D01*
X104395024Y-102962846D01*
X104377781Y-102975634D01*
X104359368Y-102986670D01*
X104339962Y-102995849D01*
X104319750Y-103003081D01*
X104298926Y-103008297D01*
X104277691Y-103011447D01*
X104256250Y-103012500D01*
X103743750Y-103012500D01*
X103722309Y-103011447D01*
X103701074Y-103008297D01*
X103680250Y-103003081D01*
X103660038Y-102995849D01*
X103640632Y-102986670D01*
X103622219Y-102975634D01*
X103604976Y-102962846D01*
X103589070Y-102948430D01*
X103574654Y-102932524D01*
X103561866Y-102915281D01*
X103550830Y-102896868D01*
X103541651Y-102877462D01*
X103534419Y-102857250D01*
X103529203Y-102836426D01*
X103526053Y-102815191D01*
X103525000Y-102793750D01*
X103525000Y-102356250D01*
X103526053Y-102334809D01*
X103529203Y-102313574D01*
X103534419Y-102292750D01*
X103541651Y-102272538D01*
X103550830Y-102253132D01*
X103561866Y-102234719D01*
X103574654Y-102217476D01*
X103589070Y-102201570D01*
X103604976Y-102187154D01*
X103622219Y-102174366D01*
X103640632Y-102163330D01*
X103660038Y-102154151D01*
X103680250Y-102146919D01*
X103701074Y-102141703D01*
X103722309Y-102138553D01*
X103743750Y-102137500D01*
X104256250Y-102137500D01*
X104277691Y-102138553D01*
G37*
D18*
X97000000Y-104440000D03*
X100300000Y-104440000D03*
D10*
G36*
X119316958Y-82455710D02*
G01*
X119331276Y-82457834D01*
X119345317Y-82461351D01*
X119358946Y-82466228D01*
X119372031Y-82472417D01*
X119384447Y-82479858D01*
X119396073Y-82488481D01*
X119406798Y-82498202D01*
X119416519Y-82508927D01*
X119425142Y-82520553D01*
X119432583Y-82532969D01*
X119438772Y-82546054D01*
X119443649Y-82559683D01*
X119447166Y-82573724D01*
X119449290Y-82588042D01*
X119450000Y-82602500D01*
X119450000Y-82897500D01*
X119449290Y-82911958D01*
X119447166Y-82926276D01*
X119443649Y-82940317D01*
X119438772Y-82953946D01*
X119432583Y-82967031D01*
X119425142Y-82979447D01*
X119416519Y-82991073D01*
X119406798Y-83001798D01*
X119396073Y-83011519D01*
X119384447Y-83020142D01*
X119372031Y-83027583D01*
X119358946Y-83033772D01*
X119345317Y-83038649D01*
X119331276Y-83042166D01*
X119316958Y-83044290D01*
X119302500Y-83045000D01*
X118957500Y-83045000D01*
X118943042Y-83044290D01*
X118928724Y-83042166D01*
X118914683Y-83038649D01*
X118901054Y-83033772D01*
X118887969Y-83027583D01*
X118875553Y-83020142D01*
X118863927Y-83011519D01*
X118853202Y-83001798D01*
X118843481Y-82991073D01*
X118834858Y-82979447D01*
X118827417Y-82967031D01*
X118821228Y-82953946D01*
X118816351Y-82940317D01*
X118812834Y-82926276D01*
X118810710Y-82911958D01*
X118810000Y-82897500D01*
X118810000Y-82602500D01*
X118810710Y-82588042D01*
X118812834Y-82573724D01*
X118816351Y-82559683D01*
X118821228Y-82546054D01*
X118827417Y-82532969D01*
X118834858Y-82520553D01*
X118843481Y-82508927D01*
X118853202Y-82498202D01*
X118863927Y-82488481D01*
X118875553Y-82479858D01*
X118887969Y-82472417D01*
X118901054Y-82466228D01*
X118914683Y-82461351D01*
X118928724Y-82457834D01*
X118943042Y-82455710D01*
X118957500Y-82455000D01*
X119302500Y-82455000D01*
X119316958Y-82455710D01*
G37*
G36*
X119316958Y-83425710D02*
G01*
X119331276Y-83427834D01*
X119345317Y-83431351D01*
X119358946Y-83436228D01*
X119372031Y-83442417D01*
X119384447Y-83449858D01*
X119396073Y-83458481D01*
X119406798Y-83468202D01*
X119416519Y-83478927D01*
X119425142Y-83490553D01*
X119432583Y-83502969D01*
X119438772Y-83516054D01*
X119443649Y-83529683D01*
X119447166Y-83543724D01*
X119449290Y-83558042D01*
X119450000Y-83572500D01*
X119450000Y-83867500D01*
X119449290Y-83881958D01*
X119447166Y-83896276D01*
X119443649Y-83910317D01*
X119438772Y-83923946D01*
X119432583Y-83937031D01*
X119425142Y-83949447D01*
X119416519Y-83961073D01*
X119406798Y-83971798D01*
X119396073Y-83981519D01*
X119384447Y-83990142D01*
X119372031Y-83997583D01*
X119358946Y-84003772D01*
X119345317Y-84008649D01*
X119331276Y-84012166D01*
X119316958Y-84014290D01*
X119302500Y-84015000D01*
X118957500Y-84015000D01*
X118943042Y-84014290D01*
X118928724Y-84012166D01*
X118914683Y-84008649D01*
X118901054Y-84003772D01*
X118887969Y-83997583D01*
X118875553Y-83990142D01*
X118863927Y-83981519D01*
X118853202Y-83971798D01*
X118843481Y-83961073D01*
X118834858Y-83949447D01*
X118827417Y-83937031D01*
X118821228Y-83923946D01*
X118816351Y-83910317D01*
X118812834Y-83896276D01*
X118810710Y-83881958D01*
X118810000Y-83867500D01*
X118810000Y-83572500D01*
X118810710Y-83558042D01*
X118812834Y-83543724D01*
X118816351Y-83529683D01*
X118821228Y-83516054D01*
X118827417Y-83502969D01*
X118834858Y-83490553D01*
X118843481Y-83478927D01*
X118853202Y-83468202D01*
X118863927Y-83458481D01*
X118875553Y-83449858D01*
X118887969Y-83442417D01*
X118901054Y-83436228D01*
X118914683Y-83431351D01*
X118928724Y-83427834D01*
X118943042Y-83425710D01*
X118957500Y-83425000D01*
X119302500Y-83425000D01*
X119316958Y-83425710D01*
G37*
G36*
X123471958Y-87290710D02*
G01*
X123486276Y-87292834D01*
X123500317Y-87296351D01*
X123513946Y-87301228D01*
X123527031Y-87307417D01*
X123539447Y-87314858D01*
X123551073Y-87323481D01*
X123561798Y-87333202D01*
X123571519Y-87343927D01*
X123580142Y-87355553D01*
X123587583Y-87367969D01*
X123593772Y-87381054D01*
X123598649Y-87394683D01*
X123602166Y-87408724D01*
X123604290Y-87423042D01*
X123605000Y-87437500D01*
X123605000Y-87782500D01*
X123604290Y-87796958D01*
X123602166Y-87811276D01*
X123598649Y-87825317D01*
X123593772Y-87838946D01*
X123587583Y-87852031D01*
X123580142Y-87864447D01*
X123571519Y-87876073D01*
X123561798Y-87886798D01*
X123551073Y-87896519D01*
X123539447Y-87905142D01*
X123527031Y-87912583D01*
X123513946Y-87918772D01*
X123500317Y-87923649D01*
X123486276Y-87927166D01*
X123471958Y-87929290D01*
X123457500Y-87930000D01*
X123162500Y-87930000D01*
X123148042Y-87929290D01*
X123133724Y-87927166D01*
X123119683Y-87923649D01*
X123106054Y-87918772D01*
X123092969Y-87912583D01*
X123080553Y-87905142D01*
X123068927Y-87896519D01*
X123058202Y-87886798D01*
X123048481Y-87876073D01*
X123039858Y-87864447D01*
X123032417Y-87852031D01*
X123026228Y-87838946D01*
X123021351Y-87825317D01*
X123017834Y-87811276D01*
X123015710Y-87796958D01*
X123015000Y-87782500D01*
X123015000Y-87437500D01*
X123015710Y-87423042D01*
X123017834Y-87408724D01*
X123021351Y-87394683D01*
X123026228Y-87381054D01*
X123032417Y-87367969D01*
X123039858Y-87355553D01*
X123048481Y-87343927D01*
X123058202Y-87333202D01*
X123068927Y-87323481D01*
X123080553Y-87314858D01*
X123092969Y-87307417D01*
X123106054Y-87301228D01*
X123119683Y-87296351D01*
X123133724Y-87292834D01*
X123148042Y-87290710D01*
X123162500Y-87290000D01*
X123457500Y-87290000D01*
X123471958Y-87290710D01*
G37*
G36*
X122501958Y-87290710D02*
G01*
X122516276Y-87292834D01*
X122530317Y-87296351D01*
X122543946Y-87301228D01*
X122557031Y-87307417D01*
X122569447Y-87314858D01*
X122581073Y-87323481D01*
X122591798Y-87333202D01*
X122601519Y-87343927D01*
X122610142Y-87355553D01*
X122617583Y-87367969D01*
X122623772Y-87381054D01*
X122628649Y-87394683D01*
X122632166Y-87408724D01*
X122634290Y-87423042D01*
X122635000Y-87437500D01*
X122635000Y-87782500D01*
X122634290Y-87796958D01*
X122632166Y-87811276D01*
X122628649Y-87825317D01*
X122623772Y-87838946D01*
X122617583Y-87852031D01*
X122610142Y-87864447D01*
X122601519Y-87876073D01*
X122591798Y-87886798D01*
X122581073Y-87896519D01*
X122569447Y-87905142D01*
X122557031Y-87912583D01*
X122543946Y-87918772D01*
X122530317Y-87923649D01*
X122516276Y-87927166D01*
X122501958Y-87929290D01*
X122487500Y-87930000D01*
X122192500Y-87930000D01*
X122178042Y-87929290D01*
X122163724Y-87927166D01*
X122149683Y-87923649D01*
X122136054Y-87918772D01*
X122122969Y-87912583D01*
X122110553Y-87905142D01*
X122098927Y-87896519D01*
X122088202Y-87886798D01*
X122078481Y-87876073D01*
X122069858Y-87864447D01*
X122062417Y-87852031D01*
X122056228Y-87838946D01*
X122051351Y-87825317D01*
X122047834Y-87811276D01*
X122045710Y-87796958D01*
X122045000Y-87782500D01*
X122045000Y-87437500D01*
X122045710Y-87423042D01*
X122047834Y-87408724D01*
X122051351Y-87394683D01*
X122056228Y-87381054D01*
X122062417Y-87367969D01*
X122069858Y-87355553D01*
X122078481Y-87343927D01*
X122088202Y-87333202D01*
X122098927Y-87323481D01*
X122110553Y-87314858D01*
X122122969Y-87307417D01*
X122136054Y-87301228D01*
X122149683Y-87296351D01*
X122163724Y-87292834D01*
X122178042Y-87290710D01*
X122192500Y-87290000D01*
X122487500Y-87290000D01*
X122501958Y-87290710D01*
G37*
G36*
X126596958Y-106665710D02*
G01*
X126611276Y-106667834D01*
X126625317Y-106671351D01*
X126638946Y-106676228D01*
X126652031Y-106682417D01*
X126664447Y-106689858D01*
X126676073Y-106698481D01*
X126686798Y-106708202D01*
X126696519Y-106718927D01*
X126705142Y-106730553D01*
X126712583Y-106742969D01*
X126718772Y-106756054D01*
X126723649Y-106769683D01*
X126727166Y-106783724D01*
X126729290Y-106798042D01*
X126730000Y-106812500D01*
X126730000Y-107107500D01*
X126729290Y-107121958D01*
X126727166Y-107136276D01*
X126723649Y-107150317D01*
X126718772Y-107163946D01*
X126712583Y-107177031D01*
X126705142Y-107189447D01*
X126696519Y-107201073D01*
X126686798Y-107211798D01*
X126676073Y-107221519D01*
X126664447Y-107230142D01*
X126652031Y-107237583D01*
X126638946Y-107243772D01*
X126625317Y-107248649D01*
X126611276Y-107252166D01*
X126596958Y-107254290D01*
X126582500Y-107255000D01*
X126237500Y-107255000D01*
X126223042Y-107254290D01*
X126208724Y-107252166D01*
X126194683Y-107248649D01*
X126181054Y-107243772D01*
X126167969Y-107237583D01*
X126155553Y-107230142D01*
X126143927Y-107221519D01*
X126133202Y-107211798D01*
X126123481Y-107201073D01*
X126114858Y-107189447D01*
X126107417Y-107177031D01*
X126101228Y-107163946D01*
X126096351Y-107150317D01*
X126092834Y-107136276D01*
X126090710Y-107121958D01*
X126090000Y-107107500D01*
X126090000Y-106812500D01*
X126090710Y-106798042D01*
X126092834Y-106783724D01*
X126096351Y-106769683D01*
X126101228Y-106756054D01*
X126107417Y-106742969D01*
X126114858Y-106730553D01*
X126123481Y-106718927D01*
X126133202Y-106708202D01*
X126143927Y-106698481D01*
X126155553Y-106689858D01*
X126167969Y-106682417D01*
X126181054Y-106676228D01*
X126194683Y-106671351D01*
X126208724Y-106667834D01*
X126223042Y-106665710D01*
X126237500Y-106665000D01*
X126582500Y-106665000D01*
X126596958Y-106665710D01*
G37*
G36*
X126596958Y-105695710D02*
G01*
X126611276Y-105697834D01*
X126625317Y-105701351D01*
X126638946Y-105706228D01*
X126652031Y-105712417D01*
X126664447Y-105719858D01*
X126676073Y-105728481D01*
X126686798Y-105738202D01*
X126696519Y-105748927D01*
X126705142Y-105760553D01*
X126712583Y-105772969D01*
X126718772Y-105786054D01*
X126723649Y-105799683D01*
X126727166Y-105813724D01*
X126729290Y-105828042D01*
X126730000Y-105842500D01*
X126730000Y-106137500D01*
X126729290Y-106151958D01*
X126727166Y-106166276D01*
X126723649Y-106180317D01*
X126718772Y-106193946D01*
X126712583Y-106207031D01*
X126705142Y-106219447D01*
X126696519Y-106231073D01*
X126686798Y-106241798D01*
X126676073Y-106251519D01*
X126664447Y-106260142D01*
X126652031Y-106267583D01*
X126638946Y-106273772D01*
X126625317Y-106278649D01*
X126611276Y-106282166D01*
X126596958Y-106284290D01*
X126582500Y-106285000D01*
X126237500Y-106285000D01*
X126223042Y-106284290D01*
X126208724Y-106282166D01*
X126194683Y-106278649D01*
X126181054Y-106273772D01*
X126167969Y-106267583D01*
X126155553Y-106260142D01*
X126143927Y-106251519D01*
X126133202Y-106241798D01*
X126123481Y-106231073D01*
X126114858Y-106219447D01*
X126107417Y-106207031D01*
X126101228Y-106193946D01*
X126096351Y-106180317D01*
X126092834Y-106166276D01*
X126090710Y-106151958D01*
X126090000Y-106137500D01*
X126090000Y-105842500D01*
X126090710Y-105828042D01*
X126092834Y-105813724D01*
X126096351Y-105799683D01*
X126101228Y-105786054D01*
X126107417Y-105772969D01*
X126114858Y-105760553D01*
X126123481Y-105748927D01*
X126133202Y-105738202D01*
X126143927Y-105728481D01*
X126155553Y-105719858D01*
X126167969Y-105712417D01*
X126181054Y-105706228D01*
X126194683Y-105701351D01*
X126208724Y-105697834D01*
X126223042Y-105695710D01*
X126237500Y-105695000D01*
X126582500Y-105695000D01*
X126596958Y-105695710D01*
G37*
G36*
X127626958Y-86835710D02*
G01*
X127641276Y-86837834D01*
X127655317Y-86841351D01*
X127668946Y-86846228D01*
X127682031Y-86852417D01*
X127694447Y-86859858D01*
X127706073Y-86868481D01*
X127716798Y-86878202D01*
X127726519Y-86888927D01*
X127735142Y-86900553D01*
X127742583Y-86912969D01*
X127748772Y-86926054D01*
X127753649Y-86939683D01*
X127757166Y-86953724D01*
X127759290Y-86968042D01*
X127760000Y-86982500D01*
X127760000Y-87277500D01*
X127759290Y-87291958D01*
X127757166Y-87306276D01*
X127753649Y-87320317D01*
X127748772Y-87333946D01*
X127742583Y-87347031D01*
X127735142Y-87359447D01*
X127726519Y-87371073D01*
X127716798Y-87381798D01*
X127706073Y-87391519D01*
X127694447Y-87400142D01*
X127682031Y-87407583D01*
X127668946Y-87413772D01*
X127655317Y-87418649D01*
X127641276Y-87422166D01*
X127626958Y-87424290D01*
X127612500Y-87425000D01*
X127267500Y-87425000D01*
X127253042Y-87424290D01*
X127238724Y-87422166D01*
X127224683Y-87418649D01*
X127211054Y-87413772D01*
X127197969Y-87407583D01*
X127185553Y-87400142D01*
X127173927Y-87391519D01*
X127163202Y-87381798D01*
X127153481Y-87371073D01*
X127144858Y-87359447D01*
X127137417Y-87347031D01*
X127131228Y-87333946D01*
X127126351Y-87320317D01*
X127122834Y-87306276D01*
X127120710Y-87291958D01*
X127120000Y-87277500D01*
X127120000Y-86982500D01*
X127120710Y-86968042D01*
X127122834Y-86953724D01*
X127126351Y-86939683D01*
X127131228Y-86926054D01*
X127137417Y-86912969D01*
X127144858Y-86900553D01*
X127153481Y-86888927D01*
X127163202Y-86878202D01*
X127173927Y-86868481D01*
X127185553Y-86859858D01*
X127197969Y-86852417D01*
X127211054Y-86846228D01*
X127224683Y-86841351D01*
X127238724Y-86837834D01*
X127253042Y-86835710D01*
X127267500Y-86835000D01*
X127612500Y-86835000D01*
X127626958Y-86835710D01*
G37*
G36*
X127626958Y-87805710D02*
G01*
X127641276Y-87807834D01*
X127655317Y-87811351D01*
X127668946Y-87816228D01*
X127682031Y-87822417D01*
X127694447Y-87829858D01*
X127706073Y-87838481D01*
X127716798Y-87848202D01*
X127726519Y-87858927D01*
X127735142Y-87870553D01*
X127742583Y-87882969D01*
X127748772Y-87896054D01*
X127753649Y-87909683D01*
X127757166Y-87923724D01*
X127759290Y-87938042D01*
X127760000Y-87952500D01*
X127760000Y-88247500D01*
X127759290Y-88261958D01*
X127757166Y-88276276D01*
X127753649Y-88290317D01*
X127748772Y-88303946D01*
X127742583Y-88317031D01*
X127735142Y-88329447D01*
X127726519Y-88341073D01*
X127716798Y-88351798D01*
X127706073Y-88361519D01*
X127694447Y-88370142D01*
X127682031Y-88377583D01*
X127668946Y-88383772D01*
X127655317Y-88388649D01*
X127641276Y-88392166D01*
X127626958Y-88394290D01*
X127612500Y-88395000D01*
X127267500Y-88395000D01*
X127253042Y-88394290D01*
X127238724Y-88392166D01*
X127224683Y-88388649D01*
X127211054Y-88383772D01*
X127197969Y-88377583D01*
X127185553Y-88370142D01*
X127173927Y-88361519D01*
X127163202Y-88351798D01*
X127153481Y-88341073D01*
X127144858Y-88329447D01*
X127137417Y-88317031D01*
X127131228Y-88303946D01*
X127126351Y-88290317D01*
X127122834Y-88276276D01*
X127120710Y-88261958D01*
X127120000Y-88247500D01*
X127120000Y-87952500D01*
X127120710Y-87938042D01*
X127122834Y-87923724D01*
X127126351Y-87909683D01*
X127131228Y-87896054D01*
X127137417Y-87882969D01*
X127144858Y-87870553D01*
X127153481Y-87858927D01*
X127163202Y-87848202D01*
X127173927Y-87838481D01*
X127185553Y-87829858D01*
X127197969Y-87822417D01*
X127211054Y-87816228D01*
X127224683Y-87811351D01*
X127238724Y-87807834D01*
X127253042Y-87805710D01*
X127267500Y-87805000D01*
X127612500Y-87805000D01*
X127626958Y-87805710D01*
G37*
G36*
X123716958Y-106685710D02*
G01*
X123731276Y-106687834D01*
X123745317Y-106691351D01*
X123758946Y-106696228D01*
X123772031Y-106702417D01*
X123784447Y-106709858D01*
X123796073Y-106718481D01*
X123806798Y-106728202D01*
X123816519Y-106738927D01*
X123825142Y-106750553D01*
X123832583Y-106762969D01*
X123838772Y-106776054D01*
X123843649Y-106789683D01*
X123847166Y-106803724D01*
X123849290Y-106818042D01*
X123850000Y-106832500D01*
X123850000Y-107127500D01*
X123849290Y-107141958D01*
X123847166Y-107156276D01*
X123843649Y-107170317D01*
X123838772Y-107183946D01*
X123832583Y-107197031D01*
X123825142Y-107209447D01*
X123816519Y-107221073D01*
X123806798Y-107231798D01*
X123796073Y-107241519D01*
X123784447Y-107250142D01*
X123772031Y-107257583D01*
X123758946Y-107263772D01*
X123745317Y-107268649D01*
X123731276Y-107272166D01*
X123716958Y-107274290D01*
X123702500Y-107275000D01*
X123357500Y-107275000D01*
X123343042Y-107274290D01*
X123328724Y-107272166D01*
X123314683Y-107268649D01*
X123301054Y-107263772D01*
X123287969Y-107257583D01*
X123275553Y-107250142D01*
X123263927Y-107241519D01*
X123253202Y-107231798D01*
X123243481Y-107221073D01*
X123234858Y-107209447D01*
X123227417Y-107197031D01*
X123221228Y-107183946D01*
X123216351Y-107170317D01*
X123212834Y-107156276D01*
X123210710Y-107141958D01*
X123210000Y-107127500D01*
X123210000Y-106832500D01*
X123210710Y-106818042D01*
X123212834Y-106803724D01*
X123216351Y-106789683D01*
X123221228Y-106776054D01*
X123227417Y-106762969D01*
X123234858Y-106750553D01*
X123243481Y-106738927D01*
X123253202Y-106728202D01*
X123263927Y-106718481D01*
X123275553Y-106709858D01*
X123287969Y-106702417D01*
X123301054Y-106696228D01*
X123314683Y-106691351D01*
X123328724Y-106687834D01*
X123343042Y-106685710D01*
X123357500Y-106685000D01*
X123702500Y-106685000D01*
X123716958Y-106685710D01*
G37*
G36*
X123716958Y-105715710D02*
G01*
X123731276Y-105717834D01*
X123745317Y-105721351D01*
X123758946Y-105726228D01*
X123772031Y-105732417D01*
X123784447Y-105739858D01*
X123796073Y-105748481D01*
X123806798Y-105758202D01*
X123816519Y-105768927D01*
X123825142Y-105780553D01*
X123832583Y-105792969D01*
X123838772Y-105806054D01*
X123843649Y-105819683D01*
X123847166Y-105833724D01*
X123849290Y-105848042D01*
X123850000Y-105862500D01*
X123850000Y-106157500D01*
X123849290Y-106171958D01*
X123847166Y-106186276D01*
X123843649Y-106200317D01*
X123838772Y-106213946D01*
X123832583Y-106227031D01*
X123825142Y-106239447D01*
X123816519Y-106251073D01*
X123806798Y-106261798D01*
X123796073Y-106271519D01*
X123784447Y-106280142D01*
X123772031Y-106287583D01*
X123758946Y-106293772D01*
X123745317Y-106298649D01*
X123731276Y-106302166D01*
X123716958Y-106304290D01*
X123702500Y-106305000D01*
X123357500Y-106305000D01*
X123343042Y-106304290D01*
X123328724Y-106302166D01*
X123314683Y-106298649D01*
X123301054Y-106293772D01*
X123287969Y-106287583D01*
X123275553Y-106280142D01*
X123263927Y-106271519D01*
X123253202Y-106261798D01*
X123243481Y-106251073D01*
X123234858Y-106239447D01*
X123227417Y-106227031D01*
X123221228Y-106213946D01*
X123216351Y-106200317D01*
X123212834Y-106186276D01*
X123210710Y-106171958D01*
X123210000Y-106157500D01*
X123210000Y-105862500D01*
X123210710Y-105848042D01*
X123212834Y-105833724D01*
X123216351Y-105819683D01*
X123221228Y-105806054D01*
X123227417Y-105792969D01*
X123234858Y-105780553D01*
X123243481Y-105768927D01*
X123253202Y-105758202D01*
X123263927Y-105748481D01*
X123275553Y-105739858D01*
X123287969Y-105732417D01*
X123301054Y-105726228D01*
X123314683Y-105721351D01*
X123328724Y-105717834D01*
X123343042Y-105715710D01*
X123357500Y-105715000D01*
X123702500Y-105715000D01*
X123716958Y-105715710D01*
G37*
G36*
X105131958Y-98830710D02*
G01*
X105146276Y-98832834D01*
X105160317Y-98836351D01*
X105173946Y-98841228D01*
X105187031Y-98847417D01*
X105199447Y-98854858D01*
X105211073Y-98863481D01*
X105221798Y-98873202D01*
X105231519Y-98883927D01*
X105240142Y-98895553D01*
X105247583Y-98907969D01*
X105253772Y-98921054D01*
X105258649Y-98934683D01*
X105262166Y-98948724D01*
X105264290Y-98963042D01*
X105265000Y-98977500D01*
X105265000Y-99322500D01*
X105264290Y-99336958D01*
X105262166Y-99351276D01*
X105258649Y-99365317D01*
X105253772Y-99378946D01*
X105247583Y-99392031D01*
X105240142Y-99404447D01*
X105231519Y-99416073D01*
X105221798Y-99426798D01*
X105211073Y-99436519D01*
X105199447Y-99445142D01*
X105187031Y-99452583D01*
X105173946Y-99458772D01*
X105160317Y-99463649D01*
X105146276Y-99467166D01*
X105131958Y-99469290D01*
X105117500Y-99470000D01*
X104822500Y-99470000D01*
X104808042Y-99469290D01*
X104793724Y-99467166D01*
X104779683Y-99463649D01*
X104766054Y-99458772D01*
X104752969Y-99452583D01*
X104740553Y-99445142D01*
X104728927Y-99436519D01*
X104718202Y-99426798D01*
X104708481Y-99416073D01*
X104699858Y-99404447D01*
X104692417Y-99392031D01*
X104686228Y-99378946D01*
X104681351Y-99365317D01*
X104677834Y-99351276D01*
X104675710Y-99336958D01*
X104675000Y-99322500D01*
X104675000Y-98977500D01*
X104675710Y-98963042D01*
X104677834Y-98948724D01*
X104681351Y-98934683D01*
X104686228Y-98921054D01*
X104692417Y-98907969D01*
X104699858Y-98895553D01*
X104708481Y-98883927D01*
X104718202Y-98873202D01*
X104728927Y-98863481D01*
X104740553Y-98854858D01*
X104752969Y-98847417D01*
X104766054Y-98841228D01*
X104779683Y-98836351D01*
X104793724Y-98832834D01*
X104808042Y-98830710D01*
X104822500Y-98830000D01*
X105117500Y-98830000D01*
X105131958Y-98830710D01*
G37*
G36*
X104161958Y-98830710D02*
G01*
X104176276Y-98832834D01*
X104190317Y-98836351D01*
X104203946Y-98841228D01*
X104217031Y-98847417D01*
X104229447Y-98854858D01*
X104241073Y-98863481D01*
X104251798Y-98873202D01*
X104261519Y-98883927D01*
X104270142Y-98895553D01*
X104277583Y-98907969D01*
X104283772Y-98921054D01*
X104288649Y-98934683D01*
X104292166Y-98948724D01*
X104294290Y-98963042D01*
X104295000Y-98977500D01*
X104295000Y-99322500D01*
X104294290Y-99336958D01*
X104292166Y-99351276D01*
X104288649Y-99365317D01*
X104283772Y-99378946D01*
X104277583Y-99392031D01*
X104270142Y-99404447D01*
X104261519Y-99416073D01*
X104251798Y-99426798D01*
X104241073Y-99436519D01*
X104229447Y-99445142D01*
X104217031Y-99452583D01*
X104203946Y-99458772D01*
X104190317Y-99463649D01*
X104176276Y-99467166D01*
X104161958Y-99469290D01*
X104147500Y-99470000D01*
X103852500Y-99470000D01*
X103838042Y-99469290D01*
X103823724Y-99467166D01*
X103809683Y-99463649D01*
X103796054Y-99458772D01*
X103782969Y-99452583D01*
X103770553Y-99445142D01*
X103758927Y-99436519D01*
X103748202Y-99426798D01*
X103738481Y-99416073D01*
X103729858Y-99404447D01*
X103722417Y-99392031D01*
X103716228Y-99378946D01*
X103711351Y-99365317D01*
X103707834Y-99351276D01*
X103705710Y-99336958D01*
X103705000Y-99322500D01*
X103705000Y-98977500D01*
X103705710Y-98963042D01*
X103707834Y-98948724D01*
X103711351Y-98934683D01*
X103716228Y-98921054D01*
X103722417Y-98907969D01*
X103729858Y-98895553D01*
X103738481Y-98883927D01*
X103748202Y-98873202D01*
X103758927Y-98863481D01*
X103770553Y-98854858D01*
X103782969Y-98847417D01*
X103796054Y-98841228D01*
X103809683Y-98836351D01*
X103823724Y-98832834D01*
X103838042Y-98830710D01*
X103852500Y-98830000D01*
X104147500Y-98830000D01*
X104161958Y-98830710D01*
G37*
G36*
X102574504Y-82101204D02*
G01*
X102598773Y-82104804D01*
X102622571Y-82110765D01*
X102645671Y-82119030D01*
X102667849Y-82129520D01*
X102688893Y-82142133D01*
X102708598Y-82156747D01*
X102726777Y-82173223D01*
X102743253Y-82191402D01*
X102757867Y-82211107D01*
X102770480Y-82232151D01*
X102780970Y-82254329D01*
X102789235Y-82277429D01*
X102795196Y-82301227D01*
X102798796Y-82325496D01*
X102800000Y-82350000D01*
X102800000Y-84850000D01*
X102798796Y-84874504D01*
X102795196Y-84898773D01*
X102789235Y-84922571D01*
X102780970Y-84945671D01*
X102770480Y-84967849D01*
X102757867Y-84988893D01*
X102743253Y-85008598D01*
X102726777Y-85026777D01*
X102708598Y-85043253D01*
X102688893Y-85057867D01*
X102667849Y-85070480D01*
X102645671Y-85080970D01*
X102622571Y-85089235D01*
X102598773Y-85095196D01*
X102574504Y-85098796D01*
X102550000Y-85100000D01*
X101450000Y-85100000D01*
X101425496Y-85098796D01*
X101401227Y-85095196D01*
X101377429Y-85089235D01*
X101354329Y-85080970D01*
X101332151Y-85070480D01*
X101311107Y-85057867D01*
X101291402Y-85043253D01*
X101273223Y-85026777D01*
X101256747Y-85008598D01*
X101242133Y-84988893D01*
X101229520Y-84967849D01*
X101219030Y-84945671D01*
X101210765Y-84922571D01*
X101204804Y-84898773D01*
X101201204Y-84874504D01*
X101200000Y-84850000D01*
X101200000Y-82350000D01*
X101201204Y-82325496D01*
X101204804Y-82301227D01*
X101210765Y-82277429D01*
X101219030Y-82254329D01*
X101229520Y-82232151D01*
X101242133Y-82211107D01*
X101256747Y-82191402D01*
X101273223Y-82173223D01*
X101291402Y-82156747D01*
X101311107Y-82142133D01*
X101332151Y-82129520D01*
X101354329Y-82119030D01*
X101377429Y-82110765D01*
X101401227Y-82104804D01*
X101425496Y-82101204D01*
X101450000Y-82100000D01*
X102550000Y-82100000D01*
X102574504Y-82101204D01*
G37*
G36*
X102574504Y-86501204D02*
G01*
X102598773Y-86504804D01*
X102622571Y-86510765D01*
X102645671Y-86519030D01*
X102667849Y-86529520D01*
X102688893Y-86542133D01*
X102708598Y-86556747D01*
X102726777Y-86573223D01*
X102743253Y-86591402D01*
X102757867Y-86611107D01*
X102770480Y-86632151D01*
X102780970Y-86654329D01*
X102789235Y-86677429D01*
X102795196Y-86701227D01*
X102798796Y-86725496D01*
X102800000Y-86750000D01*
X102800000Y-89250000D01*
X102798796Y-89274504D01*
X102795196Y-89298773D01*
X102789235Y-89322571D01*
X102780970Y-89345671D01*
X102770480Y-89367849D01*
X102757867Y-89388893D01*
X102743253Y-89408598D01*
X102726777Y-89426777D01*
X102708598Y-89443253D01*
X102688893Y-89457867D01*
X102667849Y-89470480D01*
X102645671Y-89480970D01*
X102622571Y-89489235D01*
X102598773Y-89495196D01*
X102574504Y-89498796D01*
X102550000Y-89500000D01*
X101450000Y-89500000D01*
X101425496Y-89498796D01*
X101401227Y-89495196D01*
X101377429Y-89489235D01*
X101354329Y-89480970D01*
X101332151Y-89470480D01*
X101311107Y-89457867D01*
X101291402Y-89443253D01*
X101273223Y-89426777D01*
X101256747Y-89408598D01*
X101242133Y-89388893D01*
X101229520Y-89367849D01*
X101219030Y-89345671D01*
X101210765Y-89322571D01*
X101204804Y-89298773D01*
X101201204Y-89274504D01*
X101200000Y-89250000D01*
X101200000Y-86750000D01*
X101201204Y-86725496D01*
X101204804Y-86701227D01*
X101210765Y-86677429D01*
X101219030Y-86654329D01*
X101229520Y-86632151D01*
X101242133Y-86611107D01*
X101256747Y-86591402D01*
X101273223Y-86573223D01*
X101291402Y-86556747D01*
X101311107Y-86542133D01*
X101332151Y-86529520D01*
X101354329Y-86519030D01*
X101377429Y-86510765D01*
X101401227Y-86504804D01*
X101425496Y-86501204D01*
X101450000Y-86500000D01*
X102550000Y-86500000D01*
X102574504Y-86501204D01*
G37*
G36*
X88854504Y-95501204D02*
G01*
X88878773Y-95504804D01*
X88902571Y-95510765D01*
X88925671Y-95519030D01*
X88947849Y-95529520D01*
X88968893Y-95542133D01*
X88988598Y-95556747D01*
X89006777Y-95573223D01*
X89023253Y-95591402D01*
X89037867Y-95611107D01*
X89050480Y-95632151D01*
X89060970Y-95654329D01*
X89069235Y-95677429D01*
X89075196Y-95701227D01*
X89078796Y-95725496D01*
X89080000Y-95750000D01*
X89080000Y-96850000D01*
X89078796Y-96874504D01*
X89075196Y-96898773D01*
X89069235Y-96922571D01*
X89060970Y-96945671D01*
X89050480Y-96967849D01*
X89037867Y-96988893D01*
X89023253Y-97008598D01*
X89006777Y-97026777D01*
X88988598Y-97043253D01*
X88968893Y-97057867D01*
X88947849Y-97070480D01*
X88925671Y-97080970D01*
X88902571Y-97089235D01*
X88878773Y-97095196D01*
X88854504Y-97098796D01*
X88830000Y-97100000D01*
X86330000Y-97100000D01*
X86305496Y-97098796D01*
X86281227Y-97095196D01*
X86257429Y-97089235D01*
X86234329Y-97080970D01*
X86212151Y-97070480D01*
X86191107Y-97057867D01*
X86171402Y-97043253D01*
X86153223Y-97026777D01*
X86136747Y-97008598D01*
X86122133Y-96988893D01*
X86109520Y-96967849D01*
X86099030Y-96945671D01*
X86090765Y-96922571D01*
X86084804Y-96898773D01*
X86081204Y-96874504D01*
X86080000Y-96850000D01*
X86080000Y-95750000D01*
X86081204Y-95725496D01*
X86084804Y-95701227D01*
X86090765Y-95677429D01*
X86099030Y-95654329D01*
X86109520Y-95632151D01*
X86122133Y-95611107D01*
X86136747Y-95591402D01*
X86153223Y-95573223D01*
X86171402Y-95556747D01*
X86191107Y-95542133D01*
X86212151Y-95529520D01*
X86234329Y-95519030D01*
X86257429Y-95510765D01*
X86281227Y-95504804D01*
X86305496Y-95501204D01*
X86330000Y-95500000D01*
X88830000Y-95500000D01*
X88854504Y-95501204D01*
G37*
G36*
X93254504Y-95501204D02*
G01*
X93278773Y-95504804D01*
X93302571Y-95510765D01*
X93325671Y-95519030D01*
X93347849Y-95529520D01*
X93368893Y-95542133D01*
X93388598Y-95556747D01*
X93406777Y-95573223D01*
X93423253Y-95591402D01*
X93437867Y-95611107D01*
X93450480Y-95632151D01*
X93460970Y-95654329D01*
X93469235Y-95677429D01*
X93475196Y-95701227D01*
X93478796Y-95725496D01*
X93480000Y-95750000D01*
X93480000Y-96850000D01*
X93478796Y-96874504D01*
X93475196Y-96898773D01*
X93469235Y-96922571D01*
X93460970Y-96945671D01*
X93450480Y-96967849D01*
X93437867Y-96988893D01*
X93423253Y-97008598D01*
X93406777Y-97026777D01*
X93388598Y-97043253D01*
X93368893Y-97057867D01*
X93347849Y-97070480D01*
X93325671Y-97080970D01*
X93302571Y-97089235D01*
X93278773Y-97095196D01*
X93254504Y-97098796D01*
X93230000Y-97100000D01*
X90730000Y-97100000D01*
X90705496Y-97098796D01*
X90681227Y-97095196D01*
X90657429Y-97089235D01*
X90634329Y-97080970D01*
X90612151Y-97070480D01*
X90591107Y-97057867D01*
X90571402Y-97043253D01*
X90553223Y-97026777D01*
X90536747Y-97008598D01*
X90522133Y-96988893D01*
X90509520Y-96967849D01*
X90499030Y-96945671D01*
X90490765Y-96922571D01*
X90484804Y-96898773D01*
X90481204Y-96874504D01*
X90480000Y-96850000D01*
X90480000Y-95750000D01*
X90481204Y-95725496D01*
X90484804Y-95701227D01*
X90490765Y-95677429D01*
X90499030Y-95654329D01*
X90509520Y-95632151D01*
X90522133Y-95611107D01*
X90536747Y-95591402D01*
X90553223Y-95573223D01*
X90571402Y-95556747D01*
X90591107Y-95542133D01*
X90612151Y-95529520D01*
X90634329Y-95519030D01*
X90657429Y-95510765D01*
X90681227Y-95504804D01*
X90705496Y-95501204D01*
X90730000Y-95500000D01*
X93230000Y-95500000D01*
X93254504Y-95501204D01*
G37*
G36*
X94181958Y-72860710D02*
G01*
X94196276Y-72862834D01*
X94210317Y-72866351D01*
X94223946Y-72871228D01*
X94237031Y-72877417D01*
X94249447Y-72884858D01*
X94261073Y-72893481D01*
X94271798Y-72903202D01*
X94281519Y-72913927D01*
X94290142Y-72925553D01*
X94297583Y-72937969D01*
X94303772Y-72951054D01*
X94308649Y-72964683D01*
X94312166Y-72978724D01*
X94314290Y-72993042D01*
X94315000Y-73007500D01*
X94315000Y-73352500D01*
X94314290Y-73366958D01*
X94312166Y-73381276D01*
X94308649Y-73395317D01*
X94303772Y-73408946D01*
X94297583Y-73422031D01*
X94290142Y-73434447D01*
X94281519Y-73446073D01*
X94271798Y-73456798D01*
X94261073Y-73466519D01*
X94249447Y-73475142D01*
X94237031Y-73482583D01*
X94223946Y-73488772D01*
X94210317Y-73493649D01*
X94196276Y-73497166D01*
X94181958Y-73499290D01*
X94167500Y-73500000D01*
X93872500Y-73500000D01*
X93858042Y-73499290D01*
X93843724Y-73497166D01*
X93829683Y-73493649D01*
X93816054Y-73488772D01*
X93802969Y-73482583D01*
X93790553Y-73475142D01*
X93778927Y-73466519D01*
X93768202Y-73456798D01*
X93758481Y-73446073D01*
X93749858Y-73434447D01*
X93742417Y-73422031D01*
X93736228Y-73408946D01*
X93731351Y-73395317D01*
X93727834Y-73381276D01*
X93725710Y-73366958D01*
X93725000Y-73352500D01*
X93725000Y-73007500D01*
X93725710Y-72993042D01*
X93727834Y-72978724D01*
X93731351Y-72964683D01*
X93736228Y-72951054D01*
X93742417Y-72937969D01*
X93749858Y-72925553D01*
X93758481Y-72913927D01*
X93768202Y-72903202D01*
X93778927Y-72893481D01*
X93790553Y-72884858D01*
X93802969Y-72877417D01*
X93816054Y-72871228D01*
X93829683Y-72866351D01*
X93843724Y-72862834D01*
X93858042Y-72860710D01*
X93872500Y-72860000D01*
X94167500Y-72860000D01*
X94181958Y-72860710D01*
G37*
G36*
X95151958Y-72860710D02*
G01*
X95166276Y-72862834D01*
X95180317Y-72866351D01*
X95193946Y-72871228D01*
X95207031Y-72877417D01*
X95219447Y-72884858D01*
X95231073Y-72893481D01*
X95241798Y-72903202D01*
X95251519Y-72913927D01*
X95260142Y-72925553D01*
X95267583Y-72937969D01*
X95273772Y-72951054D01*
X95278649Y-72964683D01*
X95282166Y-72978724D01*
X95284290Y-72993042D01*
X95285000Y-73007500D01*
X95285000Y-73352500D01*
X95284290Y-73366958D01*
X95282166Y-73381276D01*
X95278649Y-73395317D01*
X95273772Y-73408946D01*
X95267583Y-73422031D01*
X95260142Y-73434447D01*
X95251519Y-73446073D01*
X95241798Y-73456798D01*
X95231073Y-73466519D01*
X95219447Y-73475142D01*
X95207031Y-73482583D01*
X95193946Y-73488772D01*
X95180317Y-73493649D01*
X95166276Y-73497166D01*
X95151958Y-73499290D01*
X95137500Y-73500000D01*
X94842500Y-73500000D01*
X94828042Y-73499290D01*
X94813724Y-73497166D01*
X94799683Y-73493649D01*
X94786054Y-73488772D01*
X94772969Y-73482583D01*
X94760553Y-73475142D01*
X94748927Y-73466519D01*
X94738202Y-73456798D01*
X94728481Y-73446073D01*
X94719858Y-73434447D01*
X94712417Y-73422031D01*
X94706228Y-73408946D01*
X94701351Y-73395317D01*
X94697834Y-73381276D01*
X94695710Y-73366958D01*
X94695000Y-73352500D01*
X94695000Y-73007500D01*
X94695710Y-72993042D01*
X94697834Y-72978724D01*
X94701351Y-72964683D01*
X94706228Y-72951054D01*
X94712417Y-72937969D01*
X94719858Y-72925553D01*
X94728481Y-72913927D01*
X94738202Y-72903202D01*
X94748927Y-72893481D01*
X94760553Y-72884858D01*
X94772969Y-72877417D01*
X94786054Y-72871228D01*
X94799683Y-72866351D01*
X94813724Y-72862834D01*
X94828042Y-72860710D01*
X94842500Y-72860000D01*
X95137500Y-72860000D01*
X95151958Y-72860710D01*
G37*
G36*
X106846958Y-76200710D02*
G01*
X106861276Y-76202834D01*
X106875317Y-76206351D01*
X106888946Y-76211228D01*
X106902031Y-76217417D01*
X106914447Y-76224858D01*
X106926073Y-76233481D01*
X106936798Y-76243202D01*
X106946519Y-76253927D01*
X106955142Y-76265553D01*
X106962583Y-76277969D01*
X106968772Y-76291054D01*
X106973649Y-76304683D01*
X106977166Y-76318724D01*
X106979290Y-76333042D01*
X106980000Y-76347500D01*
X106980000Y-76692500D01*
X106979290Y-76706958D01*
X106977166Y-76721276D01*
X106973649Y-76735317D01*
X106968772Y-76748946D01*
X106962583Y-76762031D01*
X106955142Y-76774447D01*
X106946519Y-76786073D01*
X106936798Y-76796798D01*
X106926073Y-76806519D01*
X106914447Y-76815142D01*
X106902031Y-76822583D01*
X106888946Y-76828772D01*
X106875317Y-76833649D01*
X106861276Y-76837166D01*
X106846958Y-76839290D01*
X106832500Y-76840000D01*
X106537500Y-76840000D01*
X106523042Y-76839290D01*
X106508724Y-76837166D01*
X106494683Y-76833649D01*
X106481054Y-76828772D01*
X106467969Y-76822583D01*
X106455553Y-76815142D01*
X106443927Y-76806519D01*
X106433202Y-76796798D01*
X106423481Y-76786073D01*
X106414858Y-76774447D01*
X106407417Y-76762031D01*
X106401228Y-76748946D01*
X106396351Y-76735317D01*
X106392834Y-76721276D01*
X106390710Y-76706958D01*
X106390000Y-76692500D01*
X106390000Y-76347500D01*
X106390710Y-76333042D01*
X106392834Y-76318724D01*
X106396351Y-76304683D01*
X106401228Y-76291054D01*
X106407417Y-76277969D01*
X106414858Y-76265553D01*
X106423481Y-76253927D01*
X106433202Y-76243202D01*
X106443927Y-76233481D01*
X106455553Y-76224858D01*
X106467969Y-76217417D01*
X106481054Y-76211228D01*
X106494683Y-76206351D01*
X106508724Y-76202834D01*
X106523042Y-76200710D01*
X106537500Y-76200000D01*
X106832500Y-76200000D01*
X106846958Y-76200710D01*
G37*
G36*
X105876958Y-76200710D02*
G01*
X105891276Y-76202834D01*
X105905317Y-76206351D01*
X105918946Y-76211228D01*
X105932031Y-76217417D01*
X105944447Y-76224858D01*
X105956073Y-76233481D01*
X105966798Y-76243202D01*
X105976519Y-76253927D01*
X105985142Y-76265553D01*
X105992583Y-76277969D01*
X105998772Y-76291054D01*
X106003649Y-76304683D01*
X106007166Y-76318724D01*
X106009290Y-76333042D01*
X106010000Y-76347500D01*
X106010000Y-76692500D01*
X106009290Y-76706958D01*
X106007166Y-76721276D01*
X106003649Y-76735317D01*
X105998772Y-76748946D01*
X105992583Y-76762031D01*
X105985142Y-76774447D01*
X105976519Y-76786073D01*
X105966798Y-76796798D01*
X105956073Y-76806519D01*
X105944447Y-76815142D01*
X105932031Y-76822583D01*
X105918946Y-76828772D01*
X105905317Y-76833649D01*
X105891276Y-76837166D01*
X105876958Y-76839290D01*
X105862500Y-76840000D01*
X105567500Y-76840000D01*
X105553042Y-76839290D01*
X105538724Y-76837166D01*
X105524683Y-76833649D01*
X105511054Y-76828772D01*
X105497969Y-76822583D01*
X105485553Y-76815142D01*
X105473927Y-76806519D01*
X105463202Y-76796798D01*
X105453481Y-76786073D01*
X105444858Y-76774447D01*
X105437417Y-76762031D01*
X105431228Y-76748946D01*
X105426351Y-76735317D01*
X105422834Y-76721276D01*
X105420710Y-76706958D01*
X105420000Y-76692500D01*
X105420000Y-76347500D01*
X105420710Y-76333042D01*
X105422834Y-76318724D01*
X105426351Y-76304683D01*
X105431228Y-76291054D01*
X105437417Y-76277969D01*
X105444858Y-76265553D01*
X105453481Y-76253927D01*
X105463202Y-76243202D01*
X105473927Y-76233481D01*
X105485553Y-76224858D01*
X105497969Y-76217417D01*
X105511054Y-76211228D01*
X105524683Y-76206351D01*
X105538724Y-76202834D01*
X105553042Y-76200710D01*
X105567500Y-76200000D01*
X105862500Y-76200000D01*
X105876958Y-76200710D01*
G37*
G36*
X94181958Y-71830710D02*
G01*
X94196276Y-71832834D01*
X94210317Y-71836351D01*
X94223946Y-71841228D01*
X94237031Y-71847417D01*
X94249447Y-71854858D01*
X94261073Y-71863481D01*
X94271798Y-71873202D01*
X94281519Y-71883927D01*
X94290142Y-71895553D01*
X94297583Y-71907969D01*
X94303772Y-71921054D01*
X94308649Y-71934683D01*
X94312166Y-71948724D01*
X94314290Y-71963042D01*
X94315000Y-71977500D01*
X94315000Y-72322500D01*
X94314290Y-72336958D01*
X94312166Y-72351276D01*
X94308649Y-72365317D01*
X94303772Y-72378946D01*
X94297583Y-72392031D01*
X94290142Y-72404447D01*
X94281519Y-72416073D01*
X94271798Y-72426798D01*
X94261073Y-72436519D01*
X94249447Y-72445142D01*
X94237031Y-72452583D01*
X94223946Y-72458772D01*
X94210317Y-72463649D01*
X94196276Y-72467166D01*
X94181958Y-72469290D01*
X94167500Y-72470000D01*
X93872500Y-72470000D01*
X93858042Y-72469290D01*
X93843724Y-72467166D01*
X93829683Y-72463649D01*
X93816054Y-72458772D01*
X93802969Y-72452583D01*
X93790553Y-72445142D01*
X93778927Y-72436519D01*
X93768202Y-72426798D01*
X93758481Y-72416073D01*
X93749858Y-72404447D01*
X93742417Y-72392031D01*
X93736228Y-72378946D01*
X93731351Y-72365317D01*
X93727834Y-72351276D01*
X93725710Y-72336958D01*
X93725000Y-72322500D01*
X93725000Y-71977500D01*
X93725710Y-71963042D01*
X93727834Y-71948724D01*
X93731351Y-71934683D01*
X93736228Y-71921054D01*
X93742417Y-71907969D01*
X93749858Y-71895553D01*
X93758481Y-71883927D01*
X93768202Y-71873202D01*
X93778927Y-71863481D01*
X93790553Y-71854858D01*
X93802969Y-71847417D01*
X93816054Y-71841228D01*
X93829683Y-71836351D01*
X93843724Y-71832834D01*
X93858042Y-71830710D01*
X93872500Y-71830000D01*
X94167500Y-71830000D01*
X94181958Y-71830710D01*
G37*
G36*
X95151958Y-71830710D02*
G01*
X95166276Y-71832834D01*
X95180317Y-71836351D01*
X95193946Y-71841228D01*
X95207031Y-71847417D01*
X95219447Y-71854858D01*
X95231073Y-71863481D01*
X95241798Y-71873202D01*
X95251519Y-71883927D01*
X95260142Y-71895553D01*
X95267583Y-71907969D01*
X95273772Y-71921054D01*
X95278649Y-71934683D01*
X95282166Y-71948724D01*
X95284290Y-71963042D01*
X95285000Y-71977500D01*
X95285000Y-72322500D01*
X95284290Y-72336958D01*
X95282166Y-72351276D01*
X95278649Y-72365317D01*
X95273772Y-72378946D01*
X95267583Y-72392031D01*
X95260142Y-72404447D01*
X95251519Y-72416073D01*
X95241798Y-72426798D01*
X95231073Y-72436519D01*
X95219447Y-72445142D01*
X95207031Y-72452583D01*
X95193946Y-72458772D01*
X95180317Y-72463649D01*
X95166276Y-72467166D01*
X95151958Y-72469290D01*
X95137500Y-72470000D01*
X94842500Y-72470000D01*
X94828042Y-72469290D01*
X94813724Y-72467166D01*
X94799683Y-72463649D01*
X94786054Y-72458772D01*
X94772969Y-72452583D01*
X94760553Y-72445142D01*
X94748927Y-72436519D01*
X94738202Y-72426798D01*
X94728481Y-72416073D01*
X94719858Y-72404447D01*
X94712417Y-72392031D01*
X94706228Y-72378946D01*
X94701351Y-72365317D01*
X94697834Y-72351276D01*
X94695710Y-72336958D01*
X94695000Y-72322500D01*
X94695000Y-71977500D01*
X94695710Y-71963042D01*
X94697834Y-71948724D01*
X94701351Y-71934683D01*
X94706228Y-71921054D01*
X94712417Y-71907969D01*
X94719858Y-71895553D01*
X94728481Y-71883927D01*
X94738202Y-71873202D01*
X94748927Y-71863481D01*
X94760553Y-71854858D01*
X94772969Y-71847417D01*
X94786054Y-71841228D01*
X94799683Y-71836351D01*
X94813724Y-71832834D01*
X94828042Y-71830710D01*
X94842500Y-71830000D01*
X95137500Y-71830000D01*
X95151958Y-71830710D01*
G37*
M02*
